<svg version="1.1" id="Layer_1" xmlns="http://www.w3.org/2000/svg" xmlns:xlink="http://www.w3.org/1999/xlink" x="0px" y="0px"
	 viewBox="0 0 144 144" style="enable-background:new 0 0 144 144;" xml:space="preserve">
<defs>
    <pattern id="dot-pattern" width="142" height="142" patternUnits="userSpaceOnUse">
		<path fill="#a179af" d="M99.8,144L99.8,144l-3.7,0l0,0C97.1,143,98.8,143,99.8,144z M127.3,144h2.2C128.8,143.7,128,143.7,127.3,144z
			 M144,10.3C144,10.3,144,10.3,144,10.3L144,10.3C144,10.3,144,10.3,144,10.3z M144,69.8v-3c-0.3,0.4-0.5,1-0.5,1.5
			C143.5,68.8,143.7,69.3,144,69.8z M144,52.8v-3c-0.3,0.4-0.5,1-0.5,1.5C143.5,51.8,143.7,52.3,144,52.8z M42.4,10.3
			c0,0.7,0.3,1.4,0.8,1.8c0.5,0.5,1.2,0.8,1.8,0.8c0.7,0,1.4-0.3,1.8-0.8c0.5-0.5,0.8-1.2,0.8-1.8c0-0.7-0.3-1.4-0.8-1.8
			c-1-1-2.7-1-3.7,0C42.7,9,42.4,9.6,42.4,10.3z M27.6,16.9c0.7,0,1.4-0.3,1.8-0.8c0.5-0.5,0.8-1.2,0.8-1.8c0-0.7-0.3-1.3-0.8-1.8
			c-1-1-2.7-1-3.7,0C25.2,13,25,13.6,25,14.3c0,0.7,0.3,1.4,0.8,1.8C26.2,16.6,26.9,16.9,27.6,16.9z M28.1,8.4c0.7,0,1.4-0.3,1.8-0.8
			c0.5-0.5,0.8-1.2,0.8-1.8c0-0.7-0.3-1.3-0.8-1.8c-1-1-2.7-1-3.7,0c-0.5,0.5-0.8,1.2-0.8,1.8c0,0.7,0.3,1.4,0.8,1.8
			C26.7,8.1,27.4,8.4,28.1,8.4z M32.2,12c-0.5,0.5-0.8,1.2-0.8,1.8c0,0.7,0.3,1.4,0.8,1.8c0.5,0.5,1.2,0.8,1.8,0.8
			c0.7,0,1.4-0.3,1.8-0.8c0.5-0.5,0.8-1.2,0.8-1.8c0-0.7-0.3-1.4-0.8-1.8C34.9,11,33.2,11,32.2,12z M38.5,9.4c0.7,0,1.4-0.3,1.8-0.8
			c0.5-0.5,0.8-1.2,0.8-1.8c0-0.7-0.3-1.4-0.8-1.8c-1-1-2.7-1-3.7,0c-0.5,0.5-0.8,1.2-0.8,1.8c0,0.7,0.3,1.4,0.8,1.8
			C37.2,9.1,37.9,9.4,38.5,9.4z M48.5,7.9c0.7,0,1.4-0.3,1.8-0.8c0.5-0.5,0.8-1.2,0.8-1.8c0-0.7-0.3-1.4-0.8-1.8c-1-1-2.7-1-3.7,0
			c-0.5,0.5-0.8,1.2-0.8,1.8c0,0.7,0.3,1.4,0.8,1.8C47.2,7.6,47.9,7.9,48.5,7.9z M62,5.9c0.7,0,1.4-0.3,1.8-0.8
			c0.5-0.5,0.8-1.2,0.8-1.8c0-0.7-0.3-1.4-0.8-1.8c-1-1-2.7-1-3.7,0c-0.5,0.5-0.8,1.2-0.8,1.8c0,0.7,0.3,1.4,0.8,1.8
			C60.7,5.7,61.3,5.9,62,5.9z M54.7,7c-0.5,0.5-0.8,1.2-0.8,1.8c0,0.7,0.3,1.4,0.8,1.8c0.5,0.5,1.2,0.8,1.8,0.8c0.7,0,1.4-0.3,1.8-0.8
			c0.5-0.5,0.8-1.2,0.8-1.8c0-0.7-0.3-1.4-0.8-1.8C57.4,6,55.7,6,54.7,7z M53.2,12.5c-0.5,0.5-0.8,1.2-0.8,1.8c0,0.7,0.3,1.4,0.8,1.8
			c0.5,0.5,1.2,0.8,1.8,0.8c0.7,0,1.4-0.3,1.8-0.8c0.5-0.5,0.8-1.2,0.8-1.8c0-0.7-0.3-1.4-0.8-1.8C55.9,11.5,54.2,11.5,53.2,12.5z
			 M49.2,18.5c-0.5,0.5-0.8,1.2-0.8,1.8c0,0.7,0.3,1.3,0.8,1.8c0.5,0.5,1.2,0.8,1.8,0.8c0.7,0,1.4-0.3,1.8-0.8
			c0.5-0.5,0.8-1.2,0.8-1.8c0-0.7-0.3-1.3-0.8-1.8C51.9,17.5,50.2,17.5,49.2,18.5z M43,19.4c0.7,0,1.4-0.3,1.8-0.8
			c0.5-0.5,0.8-1.2,0.8-1.8c0-0.7-0.3-1.4-0.8-1.8c-1-1-2.7-1-3.7,0c-0.5,0.5-0.8,1.2-0.8,1.8c0,0.7,0.3,1.4,0.8,1.8
			C41.7,19.1,42.4,19.4,43,19.4z M40.7,25.6c0.5,0.5,1.2,0.8,1.8,0.8c0.7,0,1.4-0.3,1.8-0.8c0.5-0.5,0.8-1.2,0.8-1.8
			c0-0.7-0.3-1.4-0.8-1.8c-1-1-2.7-1-3.7,0c-0.5,0.5-0.8,1.2-0.8,1.8C39.9,24.5,40.2,25.2,40.7,25.6z M30.7,20
			c-0.5,0.5-0.8,1.2-0.8,1.8c0,0.7,0.3,1.4,0.8,1.8c0.5,0.5,1.2,0.8,1.8,0.8c0.7,0,1.4-0.3,1.8-0.8c0.5-0.5,0.8-1.2,0.8-1.8
			c0-0.7-0.3-1.4-0.8-1.8C33.4,19,31.7,19,30.7,20z M37.2,26.5c-0.5,0.5-0.8,1.2-0.8,1.8c0,0.7,0.3,1.4,0.8,1.8
			c0.5,0.5,1.2,0.8,1.8,0.8c0.7,0,1.4-0.3,1.8-0.8c0.5-0.5,0.8-1.2,0.8-1.8c0-0.7-0.3-1.4-0.8-1.8C39.9,25.5,38.2,25.5,37.2,26.5z
			 M41.7,32.9c-0.5,0.5-0.8,1.2-0.8,1.8c0,0.7,0.3,1.4,0.8,1.8c0.5,0.5,1.2,0.8,1.8,0.8c0.7,0,1.4-0.3,1.8-0.8
			c0.5-0.5,0.8-1.2,0.8-1.8c0-0.7-0.3-1.4-0.8-1.8C44.4,31.9,42.7,31.9,41.7,32.9z M47.7,35.5c-0.5,0.5-0.8,1.2-0.8,1.8
			s0.3,1.4,0.8,1.8c0.5,0.5,1.2,0.8,1.8,0.8c0.7,0,1.4-0.3,1.8-0.8c0.5-0.5,0.8-1.2,0.8-1.8s-0.3-1.3-0.8-1.8
			C50.4,34.5,48.7,34.5,47.7,35.5z M53.7,32c-0.5,0.5-0.8,1.2-0.8,1.8s0.3,1.4,0.8,1.8c0.5,0.5,1.2,0.8,1.8,0.8c0.7,0,1.4-0.3,1.8-0.8
			c0.5-0.5,0.8-1.2,0.8-1.8s-0.3-1.4-0.8-1.8C56.4,31,54.6,31,53.7,32z M52.7,25.5c-0.5,0.5-0.8,1.2-0.8,1.8c0,0.7,0.3,1.4,0.8,1.8
			c0.5,0.5,1.2,0.8,1.8,0.8c0.7,0,1.4-0.3,1.8-0.8c0.5-0.5,0.8-1.2,0.8-1.8c0-0.7-0.3-1.4-0.8-1.8C55.4,24.5,53.7,24.5,52.7,25.5z
			 M56.7,21c-0.5,0.5-0.8,1.2-0.8,1.8c0,0.7,0.3,1.4,0.8,1.8c0.5,0.5,1.2,0.8,1.8,0.8c0.7,0,1.4-0.3,1.8-0.8c0.5-0.5,0.8-1.2,0.8-1.8
			c0-0.7-0.3-1.3-0.8-1.8C59.4,20,57.7,20,56.7,21z M65.2,21c-0.5,0.5-0.8,1.2-0.8,1.8c0,0.7,0.3,1.4,0.8,1.8c0.5,0.5,1.2,0.8,1.8,0.8
			s1.4-0.3,1.8-0.8c0.5-0.5,0.8-1.2,0.8-1.8c0-0.7-0.3-1.4-0.8-1.8C67.9,20,66.1,20,65.2,21z M65.3,30.5c-1-1-2.7-1-3.7,0
			c-0.5,0.5-0.8,1.2-0.8,1.8s0.3,1.4,0.8,1.8c0.5,0.5,1.2,0.8,1.8,0.8s1.4-0.3,1.8-0.8c0.5-0.5,0.8-1.2,0.8-1.8S65.8,30.9,65.3,30.5z
			 M66.2,37.4c-0.5,0.5-0.8,1.2-0.8,1.8c0,0.7,0.3,1.4,0.8,1.8c0.5,0.5,1.2,0.8,1.8,0.8s1.4-0.3,1.8-0.8c0.5-0.5,0.8-1.2,0.8-1.8
			c0-0.7-0.3-1.3-0.8-1.8C68.9,36.5,67.1,36.5,66.2,37.4z M58.4,39.8c0,0.7,0.3,1.4,0.8,1.8c0.5,0.5,1.2,0.8,1.8,0.8
			c0.7,0,1.4-0.3,1.8-0.8c0.5-0.5,0.8-1.2,0.8-1.8c0-0.7-0.3-1.4-0.8-1.8c-1-1-2.7-1-3.7,0C58.7,38.4,58.4,39.1,58.4,39.8z M54,43.9
			c0.7,0,1.4-0.3,1.8-0.8c0.5-0.5,0.8-1.2,0.8-1.8c0-0.7-0.3-1.4-0.8-1.8c-1-1-2.7-1-3.7,0c-0.5,0.5-0.8,1.2-0.8,1.8
			c0,0.7,0.3,1.4,0.8,1.8C52.7,43.6,53.3,43.9,54,43.9z M71.2,32.1c0.5,0.5,1.2,0.8,1.8,0.8c0.7,0,1.4-0.3,1.8-0.8
			c0.5-0.5,0.8-1.2,0.8-1.8s-0.3-1.3-0.8-1.8c-1-1-2.7-1-3.7,0c-0.5,0.5-0.8,1.2-0.8,1.8S70.7,31.7,71.2,32.1z M60.7,14
			c-0.5,0.5-0.8,1.2-0.8,1.8c0,0.7,0.3,1.4,0.8,1.8c0.5,0.5,1.2,0.8,1.8,0.8c0.7,0,1.4-0.3,1.8-0.8c0.5-0.5,0.8-1.2,0.8-1.8
			c0-0.7-0.3-1.4-0.8-1.8C63.4,13,61.7,13,60.7,14z M64.7,11.7c0.5,0.5,1.2,0.8,1.8,0.8c0.7,0,1.4-0.3,1.8-0.8
			c0.5-0.5,0.8-1.2,0.8-1.8c0-0.7-0.3-1.4-0.8-1.8c-1-1-2.7-1-3.7,0c-0.5,0.5-0.8,1.2-0.8,1.8C63.9,10.5,64.2,11.2,64.7,11.7z M72,5.4
			c0.7,0,1.4-0.3,1.8-0.8c0.5-0.5,0.8-1.2,0.8-1.8c0-0.7-0.3-1.3-0.8-1.8c-1-1-2.7-1-3.7,0c-0.5,0.5-0.8,1.2-0.8,1.8
			c0,0.7,0.3,1.4,0.8,1.8C70.6,5.2,71.3,5.4,72,5.4z M71.7,7.5c-0.5,0.5-0.8,1.2-0.8,1.8c0,0.7,0.3,1.4,0.8,1.8
			c0.5,0.5,1.2,0.8,1.8,0.8c0.7,0,1.4-0.3,1.8-0.8c0.5-0.5,0.8-1.2,0.8-1.8c0-0.7-0.3-1.3-0.8-1.8C74.4,6.5,72.6,6.5,71.7,7.5z
			 M71.2,13.5c-0.5,0.5-0.8,1.2-0.8,1.8c0,0.7,0.3,1.4,0.8,1.8c0.5,0.5,1.2,0.8,1.8,0.8c0.7,0,1.4-0.3,1.8-0.8
			c0.5-0.5,0.8-1.2,0.8-1.8c0-0.7-0.3-1.3-0.8-1.8C73.9,12.5,72.1,12.5,71.2,13.5z M71.7,21c-0.5,0.5-0.8,1.2-0.8,1.8
			c0,0.7,0.3,1.4,0.8,1.8c0.5,0.5,1.2,0.8,1.8,0.8c0.7,0,1.4-0.3,1.8-0.8c0.5-0.5,0.8-1.2,0.8-1.8c0-0.7-0.3-1.3-0.8-1.8
			C74.4,20,72.6,20,71.7,21z M80.5,8.9c0.7,0,1.4-0.3,1.8-0.8c0.5-0.5,0.8-1.2,0.8-1.8c0-0.7-0.3-1.4-0.8-1.8c-1-1-2.7-1-3.7,0
			c-0.5,0.5-0.8,1.2-0.8,1.8c0,0.7,0.3,1.4,0.8,1.8C79.1,8.6,79.8,8.9,80.5,8.9z M80.1,12c-0.5,0.5-0.8,1.2-0.8,1.8
			c0,0.7,0.3,1.4,0.8,1.8c0.5,0.5,1.2,0.8,1.8,0.8c0.7,0,1.4-0.3,1.8-0.8c0.5-0.5,0.8-1.2,0.8-1.8c0-0.7-0.3-1.4-0.8-1.8
			C82.9,11,81.1,11,80.1,12z M79.1,20c-0.5,0.5-0.8,1.2-0.8,1.8c0,0.7,0.3,1.4,0.8,1.8c0.5,0.5,1.2,0.8,1.8,0.8c0.7,0,1.4-0.3,1.8-0.8
			c0.5-0.5,0.8-1.2,0.8-1.8c0-0.7-0.3-1.4-0.8-1.8C81.9,19,80.1,19,79.1,20z M79.6,29c-0.5,0.5-0.8,1.2-0.8,1.8s0.3,1.4,0.8,1.8
			c0.5,0.5,1.2,0.8,1.8,0.8c0.7,0,1.4-0.3,1.8-0.8c0.5-0.5,0.8-1.2,0.8-1.8s-0.3-1.4-0.8-1.8C82.4,28,80.6,28,79.6,29z M82.6,36
			c-0.5,0.5-0.8,1.2-0.8,1.8c0,0.7,0.3,1.4,0.8,1.8c0.5,0.5,1.2,0.8,1.8,0.8c0.7,0,1.4-0.3,1.8-0.8c0.5-0.5,0.8-1.2,0.8-1.8
			c0-0.7-0.3-1.4-0.8-1.8C85.4,35,83.6,35,82.6,36z M73.2,35.5c-0.5,0.5-0.8,1.2-0.8,1.8s0.3,1.4,0.8,1.8c0.5,0.5,1.2,0.8,1.8,0.8
			c0.7,0,1.4-0.3,1.8-0.8c0.5-0.5,0.8-1.2,0.8-1.8s-0.3-1.4-0.8-1.8C75.9,34.5,74.1,34.5,73.2,35.5z M75.7,44.4
			c-0.5,0.5-0.8,1.2-0.8,1.8c0,0.7,0.3,1.4,0.8,1.8c0.5,0.5,1.2,0.8,1.8,0.8c0.7,0,1.4-0.3,1.8-0.8c0.5-0.5,0.8-1.2,0.8-1.8
			c0-0.7-0.3-1.4-0.8-1.8C78.4,43.5,76.6,43.5,75.7,44.4z M67.2,43.9c-0.5,0.5-0.8,1.2-0.8,1.8c0,0.7,0.3,1.4,0.8,1.8
			c0.5,0.5,1.2,0.8,1.8,0.8s1.4-0.3,1.8-0.8c0.5-0.5,0.8-1.2,0.8-1.8c0-0.7-0.3-1.4-0.8-1.8C69.9,43,68.1,43,67.2,43.9z M90.6,38.9
			c-0.5,0.5-0.8,1.2-0.8,1.8c0,0.7,0.3,1.4,0.8,1.8c0.5,0.5,1.2,0.8,1.8,0.8c0.7,0,1.4-0.3,1.8-0.8c0.5-0.5,0.8-1.2,0.8-1.8
			c0-0.7-0.3-1.4-0.8-1.8C93.4,38,91.6,38,90.6,38.9z M88.6,32c-0.5,0.5-0.8,1.2-0.8,1.8s0.3,1.4,0.8,1.8c0.5,0.5,1.2,0.8,1.8,0.8
			c0.7,0,1.4-0.3,1.8-0.8c0.5-0.5,0.8-1.2,0.8-1.8s-0.3-1.4-0.8-1.8C91.4,31,89.6,31,88.6,32z M88.5,29.4c0.7,0,1.4-0.3,1.8-0.8
			c0.5-0.5,0.8-1.2,0.8-1.8c0-0.7-0.3-1.4-0.8-1.8c-1-1-2.7-1-3.7,0c-0.5,0.5-0.8,1.2-0.8,1.8c0,0.7,0.3,1.4,0.8,1.8
			C87.1,29.1,87.8,29.4,88.5,29.4z M87.1,17c-0.5,0.5-0.8,1.2-0.8,1.8c0,0.7,0.3,1.4,0.8,1.8c0.5,0.5,1.2,0.8,1.8,0.8
			c0.7,0,1.4-0.3,1.8-0.8c0.5-0.5,0.8-1.2,0.8-1.8c0-0.7-0.3-1.4-0.8-1.8C89.9,16,88.1,16,87.1,17z M86.6,8.5
			c-0.5,0.5-0.8,1.2-0.8,1.8c0,0.7,0.3,1.4,0.8,1.8c0.5,0.5,1.2,0.8,1.8,0.8c0.7,0,1.4-0.3,1.8-0.8c0.5-0.5,0.8-1.2,0.8-1.8
			c0-0.7-0.3-1.4-0.8-1.8C89.3,7.5,87.6,7.5,86.6,8.5z M88,6.4c0.7,0,1.4-0.3,1.8-0.8c0.5-0.5,0.8-1.2,0.8-1.8c0-0.7-0.3-1.4-0.8-1.8
			c-1-1-2.7-1-3.7,0c-0.5,0.5-0.8,1.2-0.8,1.8c0,0.7,0.3,1.4,0.8,1.8C86.6,6.2,87.3,6.4,88,6.4z M98,4.4c0.7,0,1.4-0.3,1.8-0.8
			c0.5-0.5,0.8-1.2,0.8-1.8c0-0.7-0.3-1.4-0.8-1.8h-3.7c-0.5,0.5-0.8,1.2-0.8,1.8c0,0.7,0.3,1.4,0.8,1.8C96.6,4.2,97.3,4.4,98,4.4z
			 M96.5,12.9c0.7,0,1.4-0.3,1.8-0.8c0.5-0.5,0.8-1.2,0.8-1.8c0-0.7-0.3-1.4-0.8-1.8c-1-1-2.7-1-3.7,0c-0.5,0.5-0.8,1.2-0.8,1.8
			c0,0.7,0.3,1.4,0.8,1.8C95.1,12.6,95.8,12.9,96.5,12.9z M103.5,12.9c0.7,0,1.4-0.3,1.8-0.8c0.5-0.5,0.8-1.2,0.8-1.8
			c0-0.7-0.3-1.4-0.8-1.8c-1-1-2.7-1-3.7,0c-0.5,0.5-0.8,1.2-0.8,1.8c0,0.7,0.3,1.4,0.8,1.8C102.1,12.6,102.8,12.9,103.5,12.9z
			 M103,19.9c0.7,0,1.4-0.3,1.8-0.8c0.5-0.5,0.8-1.2,0.8-1.8c0-0.7-0.3-1.4-0.8-1.8c-1-1-2.7-1-3.7,0c-0.5,0.5-0.8,1.2-0.8,1.8
			c0,0.7,0.3,1.4,0.8,1.8C101.6,19.6,102.3,19.9,103,19.9z M95.5,19.4c0.7,0,1.4-0.3,1.8-0.8c0.5-0.5,0.8-1.1,0.8-1.8
			c0-0.7-0.3-1.4-0.8-1.8c-1-1-2.7-1-3.7,0c-0.5,0.5-0.8,1.2-0.8,1.8c0,0.7,0.3,1.4,0.8,1.8C94.1,19.1,94.8,19.4,95.5,19.4z M94.1,24
			c-0.5,0.5-0.8,1.2-0.8,1.8c0,0.7,0.3,1.4,0.8,1.8c0.5,0.5,1.2,0.8,1.8,0.8c0.7,0,1.4-0.3,1.8-0.8c0.5-0.5,0.8-1.2,0.8-1.8
			c0-0.7-0.3-1.4-0.8-1.8C96.8,23,95.1,23,94.1,24z M101.1,27.6c0.5,0.5,1.2,0.8,1.8,0.8c0.7,0,1.4-0.3,1.8-0.8
			c0.5-0.5,0.8-1.2,0.8-1.8c0-0.7-0.3-1.4-0.8-1.8c-1-1-2.7-1-3.7,0c-0.5,0.5-0.8,1.2-0.8,1.8C100.4,26.5,100.6,27.2,101.1,27.6z
			 M95.6,31c-0.5,0.5-0.8,1.2-0.8,1.8s0.3,1.4,0.8,1.8c0.5,0.5,1.2,0.8,1.8,0.8c0.7,0,1.4-0.3,1.8-0.8c0.5-0.5,0.8-1.2,0.8-1.8
			s-0.3-1.4-0.8-1.8C98.3,30,96.6,30,95.6,31z M97.9,41.3c0,0.7,0.3,1.4,0.8,1.8c0.5,0.5,1.2,0.8,1.8,0.8c0.7,0,1.4-0.3,1.8-0.8
			c0.5-0.5,0.8-1.2,0.8-1.8c0-0.7-0.3-1.4-0.8-1.8c-1-1-2.7-1-3.7,0C98.1,39.9,97.9,40.6,97.9,41.3z M102.1,45.9
			c-0.5,0.5-0.8,1.2-0.8,1.8c0,0.7,0.3,1.4,0.8,1.8c0.5,0.5,1.2,0.8,1.8,0.8c0.7,0,1.4-0.3,1.8-0.8c0.5-0.5,0.8-1.2,0.8-1.8
			c0-0.7-0.3-1.4-0.8-1.8C104.8,45,103.1,45,102.1,45.9z M107.1,40.4c-0.5,0.5-0.8,1.2-0.8,1.8c0,0.7,0.3,1.4,0.8,1.8
			c0.5,0.5,1.2,0.8,1.8,0.8c0.7,0,1.4-0.3,1.8-0.8c0.5-0.5,0.8-1.2,0.8-1.8c0-0.7-0.3-1.4-0.8-1.8C109.8,39.5,108.1,39.5,107.1,40.4z
			 M104.1,33.5c-0.5,0.5-0.8,1.2-0.8,1.8s0.3,1.4,0.8,1.8c0.5,0.5,1.2,0.8,1.8,0.8c0.7,0,1.4-0.3,1.8-0.8c0.5-0.5,0.8-1.2,0.8-1.8
			s-0.3-1.4-0.8-1.8C106.8,32.5,105.1,32.5,104.1,33.5z M108.6,31.1c0.5,0.5,1.2,0.8,1.8,0.8s1.4-0.3,1.8-0.8c0.5-0.5,0.8-1.2,0.8-1.8
			s-0.3-1.4-0.8-1.8c-1-1-2.7-1-3.7,0c-0.5,0.5-0.8,1.2-0.8,1.8S108.1,30.7,108.6,31.1z M110.9,23.4c0.7,0,1.4-0.3,1.8-0.8
			c0.5-0.5,0.8-1.2,0.8-1.8c0-0.7-0.3-1.4-0.8-1.8c-1-1-2.7-1-3.7,0c-0.5,0.5-0.8,1.2-0.8,1.8c0,0.7,0.3,1.4,0.8,1.8
			C109.6,23.1,110.3,23.4,110.9,23.4z M115.3,12.8c0,0.7,0.3,1.3,0.8,1.8c0.5,0.5,1.2,0.8,1.8,0.8c0.7,0,1.4-0.3,1.8-0.8
			c0.5-0.5,0.8-1.2,0.8-1.8c0-0.7-0.3-1.4-0.8-1.8c-1-1-2.7-1-3.7,0C115.6,11.5,115.3,12.1,115.3,12.8z M121.9,8.4
			c0.7,0,1.4-0.3,1.8-0.8c0.5-0.5,0.8-1.2,0.8-1.8c0-0.7-0.3-1.4-0.8-1.8c-1-1-2.7-1-3.7,0c-0.5,0.5-0.8,1.2-0.8,1.8
			c0,0.7,0.3,1.4,0.8,1.8C120.6,8.1,121.3,8.4,121.9,8.4z M128.4,4.9c0.7,0,1.4-0.3,1.8-0.8c0.5-0.5,0.8-1.2,0.8-1.8
			c0-0.7-0.3-1.4-0.8-1.8c-0.2-0.2-0.5-0.4-0.8-0.5h-2.2c-0.3,0.1-0.5,0.3-0.8,0.5c-0.5,0.5-0.8,1.2-0.8,1.8c0,0.7,0.3,1.4,0.8,1.8
			C127.1,4.7,127.7,4.9,128.4,4.9z M129.8,6.3c0,0.7,0.3,1.4,0.8,1.8c0.5,0.5,1.2,0.8,1.8,0.8c0.7,0,1.4-0.3,1.8-0.8
			c0.5-0.5,0.8-1.2,0.8-1.8c0-0.7-0.3-1.4-0.8-1.8c-0.9-1-2.7-1-3.7,0C130.1,5,129.8,5.7,129.8,6.3z M122.8,12.3
			c0,0.7,0.3,1.4,0.8,1.8c0.5,0.5,1.2,0.8,1.8,0.8c0.7,0,1.4-0.3,1.8-0.8c0.5-0.5,0.8-1.2,0.8-1.8c0-0.7-0.3-1.4-0.8-1.8
			c-0.9-1-2.7-1-3.7,0C123.1,11,122.8,11.6,122.8,12.3z M123.9,22.4c0.7,0,1.4-0.3,1.8-0.8c0.5-0.5,0.8-1.2,0.8-1.8
			c0-0.7-0.3-1.4-0.8-1.8c-1-1-2.7-1-3.7,0c-0.5,0.5-0.8,1.2-0.8,1.8c0,0.7,0.3,1.4,0.8,1.8C122.6,22.1,123.3,22.4,123.9,22.4z
			 M116.6,22.5c-0.5,0.5-0.8,1.2-0.8,1.8c0,0.7,0.3,1.4,0.8,1.8c0.5,0.5,1.2,0.8,1.8,0.8c0.7,0,1.4-0.3,1.8-0.8
			c0.5-0.5,0.8-1.2,0.8-1.8c0-0.7-0.3-1.4-0.8-1.8C119.3,21.5,117.6,21.5,116.6,22.5z M121.6,31.6c0.5,0.5,1.2,0.8,1.8,0.8
			c0.7,0,1.4-0.3,1.8-0.8c0.5-0.5,0.8-1.2,0.8-1.8s-0.3-1.4-0.8-1.8c-1-1-2.7-1-3.7,0c-0.5,0.5-0.8,1.2-0.8,1.8S121.1,31.2,121.6,31.6
			z M133.5,31.8c0-0.7-0.3-1.4-0.8-1.8c-1-1-2.7-1-3.7,0c-0.5,0.5-0.8,1.2-0.8,1.8s0.3,1.4,0.8,1.8c0.5,0.5,1.2,0.8,1.8,0.8
			c0.7,0,1.4-0.3,1.8-0.8C133.2,33.2,133.5,32.5,133.5,31.8z M124.3,36.3c0,0.7,0.3,1.4,0.8,1.8c0.5,0.5,1.2,0.8,1.8,0.8
			c0.7,0,1.4-0.3,1.8-0.8c0.5-0.5,0.8-1.2,0.8-1.8s-0.3-1.4-0.8-1.8c-1-1-2.7-1-3.7,0C124.6,34.9,124.3,35.6,124.3,36.3z M118.1,35.5
			c-0.5,0.5-0.8,1.2-0.8,1.8s0.3,1.4,0.8,1.8c0.5,0.5,1.2,0.8,1.8,0.8c0.7,0,1.4-0.3,1.8-0.8c0.5-0.5,0.8-1.2,0.8-1.8
			s-0.3-1.4-0.8-1.8C120.8,34.5,119.1,34.5,118.1,35.5z M112.6,34.5c-0.5,0.5-0.8,1.2-0.8,1.8s0.3,1.4,0.8,1.8
			c0.5,0.5,1.2,0.8,1.8,0.8s1.4-0.3,1.8-0.8c0.5-0.5,0.8-1.2,0.8-1.8s-0.3-1.4-0.8-1.8C115.3,33.5,113.6,33.5,112.6,34.5z M115.3,44.8
			c0,0.7,0.3,1.3,0.8,1.8c0.5,0.5,1.2,0.8,1.8,0.8c0.7,0,1.4-0.3,1.8-0.8c0.5-0.5,0.8-1.2,0.8-1.8c0-0.7-0.3-1.4-0.8-1.8
			c-1-1-2.7-1-3.7,0C115.6,43.4,115.3,44.1,115.3,44.8z M126.9,44.9c0.7,0,1.4-0.3,1.8-0.8c0.5-0.5,0.8-1.2,0.8-1.8
			c0-0.7-0.3-1.4-0.8-1.8c-1-1-2.7-1-3.7,0c-0.5,0.5-0.8,1.2-0.8,1.8c0,0.7,0.3,1.4,0.8,1.8C125.6,44.6,126.2,44.9,126.9,44.9z
			 M138,44.3c0-0.7-0.3-1.4-0.8-1.8c-0.9-1-2.7-1-3.7,0c-0.5,0.5-0.8,1.2-0.8,1.8c0,0.7,0.3,1.3,0.8,1.8c0.5,0.5,1.2,0.8,1.8,0.8
			c0.7,0,1.4-0.3,1.8-0.8C137.7,45.6,138,45,138,44.3z M137.3,35.5c-1-1-2.7-1-3.7,0c-0.5,0.5-0.8,1.2-0.8,1.8s0.3,1.4,0.8,1.8
			c0.5,0.5,1.2,0.8,1.8,0.8c0.7,0,1.4-0.3,1.8-0.8c0.5-0.5,0.8-1.2,0.8-1.8S137.7,35.9,137.3,35.5z M126.8,23.8c0,0.7,0.3,1.4,0.8,1.8
			c0.5,0.5,1.2,0.8,1.8,0.8c0.7,0,1.4-0.3,1.8-0.8c0.5-0.5,0.8-1.2,0.8-1.8c0-0.7-0.3-1.4-0.8-1.8c-1-1-2.7-1-3.7,0
			C127.1,22.4,126.8,23.1,126.8,23.8z M129.1,14.5c-0.5,0.5-0.8,1.2-0.8,1.8c0,0.7,0.3,1.4,0.8,1.8c0.5,0.5,1.2,0.8,1.8,0.8
			c0.7,0,1.4-0.3,1.8-0.8c0.5-0.5,0.8-1.2,0.8-1.8c0-0.7-0.3-1.4-0.8-1.8C131.8,13.5,130.1,13.5,129.1,14.5z M137.9,14.9
			c0.7,0,1.4-0.3,1.8-0.8c0.5-0.5,0.8-1.2,0.8-1.8c0-0.7-0.3-1.4-0.8-1.8c-1-1-2.7-1-3.7,0c-0.5,0.5-0.8,1.2-0.8,1.8
			c0,0.7,0.3,1.4,0.8,1.8C136.6,14.6,137.2,14.9,137.9,14.9z M139.9,5.4c0.7,0,1.4-0.3,1.8-0.8c0.5-0.5,0.8-1.2,0.8-1.8
			c0-0.7-0.3-1.4-0.8-1.8c-1-1-2.7-1-3.7,0c-0.5,0.5-0.8,1.2-0.8,1.8c0,0.7,0.3,1.3,0.8,1.8C138.6,5.2,139.2,5.4,139.9,5.4z
			 M137.9,27.9c0.7,0,1.4-0.3,1.8-0.8c0.5-0.5,0.8-1.2,0.8-1.8c0-0.7-0.3-1.4-0.8-1.8c-1-1-2.7-1-3.7,0c-0.5,0.5-0.8,1.2-0.8,1.8
			c0,0.7,0.3,1.4,0.8,1.8C136.6,27.6,137.2,27.9,137.9,27.9z M139.6,30.5c-0.5,0.5-0.8,1.2-0.8,1.8s0.3,1.4,0.8,1.8
			c0.5,0.5,1.2,0.8,1.8,0.8c0.7,0,1.4-0.3,1.8-0.8c0.5-0.5,0.8-1.1,0.8-1.8v0c0-0.7-0.3-1.3-0.8-1.8C142.3,29.5,140.5,29.5,139.6,30.5
			z M108.8,10.8c0,0.7,0.3,1.4,0.8,1.8c0.5,0.5,1.2,0.8,1.8,0.8s1.4-0.3,1.8-0.8c0.5-0.5,0.8-1.2,0.8-1.8c0-0.7-0.3-1.4-0.8-1.8
			c-1-1-2.7-1-3.7,0C109.1,9.5,108.8,10.1,108.8,10.8z M114.4,6.4c0.7,0,1.4-0.3,1.8-0.8c0.5-0.5,0.8-1.2,0.8-1.8
			c0-0.7-0.3-1.4-0.8-1.8c-1-1-2.7-1-3.7,0c-0.5,0.5-0.8,1.2-0.8,1.8c0,0.7,0.3,1.4,0.8,1.8C113.1,6.2,113.8,6.4,114.4,6.4z
			 M106.5,7.9c0.7,0,1.4-0.3,1.8-0.8c0.5-0.5,0.8-1.2,0.8-1.8c0-0.7-0.3-1.4-0.8-1.8c-1-1-2.7-1-3.7,0c-0.5,0.5-0.8,1.2-0.8,1.8
			c0,0.7,0.3,1.4,0.8,1.8C105.1,7.6,105.8,7.9,106.5,7.9z M44.7,42.4c-0.5,0.5-0.8,1.2-0.8,1.8c0,0.7,0.3,1.4,0.8,1.8
			c0.5,0.5,1.2,0.8,1.8,0.8c0.7,0,1.4-0.3,1.8-0.8c0.5-0.5,0.8-1.2,0.8-1.8c0-0.7-0.3-1.4-0.8-1.8C47.4,41.5,45.7,41.5,44.7,42.4z
			 M36.7,40.6c0.5,0.5,1.2,0.8,1.8,0.8c0.7,0,1.4-0.3,1.8-0.8c0.5-0.5,0.8-1.2,0.8-1.8c0-0.7-0.3-1.3-0.8-1.8c-1-1-2.7-1-3.7,0
			c-0.5,0.5-0.8,1.2-0.8,1.8C35.9,39.5,36.2,40.1,36.7,40.6z M32.6,35.4c0.7,0,1.4-0.3,1.8-0.8c0.5-0.5,0.8-1.2,0.8-1.8
			s-0.3-1.4-0.8-1.8c-1-1-2.7-1-3.7,0c-0.5,0.5-0.8,1.2-0.8,1.8s0.3,1.4,0.8,1.8C31.2,35.1,31.9,35.4,32.6,35.4z M26.2,25
			c-0.5,0.5-0.8,1.2-0.8,1.8c0,0.7,0.3,1.4,0.8,1.8c0.5,0.5,1.2,0.8,1.8,0.8c0.7,0,1.4-0.3,1.8-0.8c0.5-0.5,0.8-1.2,0.8-1.8
			c0-0.7-0.3-1.3-0.8-1.8C28.9,24,27.2,24,26.2,25z M21.7,19.5C21.2,20,21,20.6,21,21.3c0,0.7,0.3,1.4,0.8,1.8
			c0.5,0.5,1.2,0.8,1.8,0.8s1.4-0.3,1.8-0.8c0.5-0.5,0.8-1.2,0.8-1.8c0-0.7-0.3-1.4-0.8-1.8C24.4,18.5,22.7,18.5,21.7,19.5z M28,40.8
			c0,0.7,0.3,1.4,0.8,1.8c0.5,0.5,1.2,0.8,1.8,0.8c0.7,0,1.4-0.3,1.8-0.8c0.5-0.5,0.8-1.2,0.8-1.8c0-0.7-0.3-1.3-0.8-1.8
			c-1-1-2.7-1-3.7,0C28.2,39.4,28,40.1,28,40.8z M33.7,43.4c-0.5,0.5-0.8,1.2-0.8,1.8c0,0.7,0.3,1.4,0.8,1.8c0.5,0.5,1.2,0.8,1.8,0.8
			c0.7,0,1.4-0.3,1.8-0.8c0.5-0.5,0.8-1.2,0.8-1.8c0-0.7-0.3-1.4-0.8-1.8C36.4,42.5,34.7,42.5,33.7,43.4z M24.7,46.4
			c-0.5,0.5-0.8,1.2-0.8,1.8c0,0.7,0.3,1.4,0.8,1.8c0.5,0.5,1.2,0.8,1.8,0.8s1.4-0.3,1.8-0.8c0.5-0.5,0.8-1.2,0.8-1.8
			c0-0.7-0.3-1.4-0.8-1.8C27.4,45.5,25.7,45.5,24.7,46.4z M19,42.3c0,0.7,0.3,1.4,0.8,1.8c0.5,0.5,1.2,0.8,1.8,0.8s1.4-0.3,1.8-0.8
			c0.5-0.5,0.8-1.2,0.8-1.8c0-0.7-0.3-1.3-0.8-1.8c-1-1-2.7-1-3.7,0C19.2,40.9,19,41.6,19,42.3z M44.7,27.5c-0.5,0.5-0.8,1.2-0.8,1.8
			s0.3,1.4,0.8,1.8c0.5,0.5,1.2,0.8,1.8,0.8c0.7,0,1.4-0.3,1.8-0.8c0.5-0.5,0.8-1.2,0.8-1.8s-0.3-1.4-0.8-1.8
			C47.4,26.5,45.7,26.5,44.7,27.5z M2.6,12.9c0.7,0,1.4-0.3,1.8-0.8c0.5-0.5,0.8-1.2,0.8-1.8c0-0.7-0.3-1.3-0.8-1.8c-1-1-2.7-1-3.7,0
			C0.3,9,0,9.6,0,10.3v0.1c0,0.7,0.3,1.3,0.8,1.8C1.2,12.6,1.9,12.9,2.6,12.9z M2.5,29.3c0,0.7,0.3,1.4,0.8,1.8
			c0.5,0.5,1.2,0.8,1.8,0.8c0.7,0,1.4-0.3,1.8-0.8c0.5-0.5,0.8-1.2,0.8-1.8s-0.3-1.4-0.8-1.8c-1-1-2.7-1-3.7,0
			C2.8,27.9,2.5,28.6,2.5,29.3z M9.1,38.4c0.7,0,1.4-0.3,1.8-0.8c0.5-0.5,0.8-1.2,0.8-1.8s-0.3-1.3-0.8-1.8c-1-1-2.7-1-3.7,0
			c-0.5,0.5-0.8,1.2-0.8,1.8s0.3,1.4,0.8,1.8C7.7,38.1,8.4,38.4,9.1,38.4z M4.3,20.5c-0.5,0.5-0.8,1.2-0.8,1.8c0,0.7,0.3,1.4,0.8,1.8
			c0.5,0.5,1.2,0.8,1.8,0.8c0.7,0,1.4-0.3,1.8-0.8c0.5-0.5,0.8-1.2,0.8-1.8c0-0.7-0.3-1.4-0.8-1.8C6.9,19.5,5.2,19.5,4.3,20.5z
			 M14.7,6C14.3,6.5,14,7.1,14,7.8c0,0.7,0.3,1.4,0.8,1.8c0.5,0.5,1.2,0.8,1.8,0.8c0.7,0,1.4-0.3,1.8-0.8c0.5-0.5,0.8-1.2,0.8-1.8
			c0-0.7-0.3-1.4-0.8-1.8C17.5,5,15.7,5,14.7,6z M7.5,8.8c0,0.7,0.3,1.4,0.8,1.8c0.5,0.5,1.2,0.8,1.8,0.8c0.7,0,1.4-0.3,1.8-0.8
			c0.5-0.5,0.8-1.2,0.8-1.8c0-0.7-0.3-1.4-0.8-1.8c-1-1-2.7-1-3.7,0C7.8,7.5,7.5,8.1,7.5,8.8z M8.7,13.5C8.3,14,8,14.6,8,15.3
			c0,0.7,0.3,1.4,0.8,1.8c0.5,0.5,1.2,0.8,1.8,0.8c0.7,0,1.4-0.3,1.8-0.8c0.5-0.5,0.8-1.2,0.8-1.8c0-0.7-0.3-1.3-0.8-1.8
			C11.5,12.5,9.7,12.5,8.7,13.5z M18.2,12c-0.5,0.5-0.8,1.2-0.8,1.8c0,0.7,0.3,1.4,0.8,1.8c0.5,0.5,1.2,0.8,1.8,0.8s1.4-0.3,1.8-0.8
			c0.5-0.5,0.8-1.2,0.8-1.8c0-0.7-0.3-1.3-0.8-1.8C20.9,11,19.2,11,18.2,12z M6.1,5.9c0.7,0,1.4-0.3,1.8-0.8C8.4,4.7,8.7,4,8.7,3.3
			c0-0.7-0.3-1.4-0.8-1.8c-1-1-2.7-1-3.7,0C3.8,2,3.5,2.7,3.5,3.3c0,0.7,0.3,1.4,0.8,1.8C4.7,5.7,5.4,5.9,6.1,5.9z M10.7,23
			c-0.5,0.5-0.8,1.2-0.8,1.8c0,0.7,0.3,1.4,0.8,1.8c0.5,0.5,1.2,0.8,1.8,0.8s1.4-0.3,1.8-0.8c0.5-0.5,0.8-1.2,0.8-1.8
			c0-0.7-0.3-1.3-0.8-1.8C13.5,22,11.7,22,10.7,23z M15.5,20.3c0,0.7,0.3,1.3,0.8,1.8c0.5,0.5,1.2,0.8,1.8,0.8s1.4-0.3,1.8-0.8
			c0.5-0.5,0.8-1.2,0.8-1.8c0-0.7-0.3-1.4-0.8-1.8c-1-1-2.7-1-3.7,0C15.8,19,15.5,19.6,15.5,20.3z M16.2,30.1c0.5,0.5,1.2,0.8,1.8,0.8
			s1.4-0.3,1.8-0.8c0.5-0.5,0.8-1.2,0.8-1.8c0-0.7-0.3-1.4-0.8-1.8c-1-1-2.7-1-3.7,0c-0.5,0.5-0.8,1.2-0.8,1.8
			C15.5,29,15.8,29.6,16.2,30.1z M21.7,32c-0.5,0.5-0.8,1.2-0.8,1.8s0.3,1.4,0.8,1.8c0.5,0.5,1.2,0.8,1.8,0.8c0.7,0,1.4-0.3,1.8-0.8
			c0.5-0.5,0.8-1.2,0.8-1.8s-0.3-1.4-0.8-1.8C24.4,31,22.7,31,21.7,32z M13.2,35.5c-0.5,0.5-0.8,1.2-0.8,1.8s0.3,1.4,0.8,1.8
			c0.5,0.5,1.2,0.8,1.8,0.8c0.7,0,1.4-0.3,1.8-0.8c0.5-0.5,0.8-1.2,0.8-1.8s-0.3-1.3-0.8-1.8C16,34.5,14.2,34.5,13.2,35.5z M8.2,46.4
			c-0.5,0.5-0.8,1.2-0.8,1.8c0,0.7,0.3,1.4,0.8,1.8c0.5,0.5,1.2,0.8,1.8,0.8c0.7,0,1.4-0.3,1.8-0.8c0.5-0.5,0.8-1.2,0.8-1.8
			c0-0.7-0.3-1.4-0.8-1.8C11,45.5,9.2,45.5,8.2,46.4z M6.7,44.1c0.5,0.5,1.2,0.8,1.8,0.8c0.7,0,1.4-0.3,1.8-0.8
			c0.5-0.5,0.8-1.2,0.8-1.8c0-0.7-0.3-1.3-0.8-1.8c-1-1-2.7-1-3.7,0C6.3,40.9,6,41.6,6,42.3C6,43,6.3,43.6,6.7,44.1z M31.2,139.7
			c0-0.7-0.3-1.3-0.8-1.8c-1-1-2.7-1-3.7,0c-0.5,0.5-0.8,1.2-0.8,1.8c0,0.7,0.3,1.4,0.8,1.8c0.5,0.5,1.2,0.8,1.8,0.8
			c0.7,0,1.4-0.3,1.8-0.8C30.9,141,31.2,140.3,31.2,139.7z M33.7,135.8c-0.5,0.5-0.8,1.2-0.8,1.8c0,0.7,0.3,1.4,0.8,1.8
			c0.5,0.5,1.2,0.8,1.8,0.8c0.7,0,1.4-0.3,1.8-0.8c0.5-0.5,0.8-1.2,0.8-1.8c0-0.7-0.3-1.4-0.8-1.8C36.4,134.9,34.7,134.9,33.7,135.8z
			 M44.7,137.8c-0.5,0.5-0.8,1.2-0.8,1.8c0,0.7,0.3,1.4,0.8,1.8c0.5,0.5,1.2,0.8,1.8,0.8c0.7,0,1.4-0.3,1.8-0.8
			c0.5-0.5,0.8-1.2,0.8-1.8c0-0.7-0.3-1.4-0.8-1.8C47.4,136.9,45.7,136.9,44.7,137.8z M55.2,136.8c-0.5,0.5-0.8,1.2-0.8,1.8
			c0,0.7,0.3,1.4,0.8,1.8c0.5,0.5,1.2,0.8,1.8,0.8c0.7,0,1.4-0.3,1.8-0.8c0.5-0.5,0.8-1.2,0.8-1.8c0-0.7-0.3-1.4-0.8-1.8
			C57.9,135.9,56.2,135.9,55.2,136.8z M62.2,137.8c-0.5,0.5-0.8,1.2-0.8,1.8c0,0.7,0.3,1.4,0.8,1.8c0.5,0.5,1.2,0.8,1.8,0.8
			s1.4-0.3,1.8-0.8c0.5-0.5,0.8-1.2,0.8-1.8c0-0.7-0.3-1.4-0.8-1.8C64.9,136.9,63.2,136.9,62.2,137.8z M72.2,136.8
			c-0.5,0.5-0.8,1.2-0.8,1.8c0,0.7,0.3,1.4,0.8,1.8c0.5,0.5,1.2,0.8,1.8,0.8c0.7,0,1.4-0.3,1.8-0.8c0.5-0.5,0.8-1.2,0.8-1.8
			c0-0.7-0.3-1.4-0.8-1.8C74.9,135.9,73.1,135.9,72.2,136.8z M90.3,135c0.5-0.5,0.8-1.2,0.8-1.8s-0.3-1.4-0.8-1.8c-1-1-2.7-1-3.7,0
			c-0.5,0.5-0.8,1.2-0.8,1.8s0.3,1.4,0.8,1.8c0.5,0.5,1.2,0.8,1.8,0.8C89.2,135.8,89.8,135.5,90.3,135z M96.1,134.8
			c-0.5,0.5-0.8,1.2-0.8,1.8c0,0.7,0.3,1.4,0.8,1.8c0.5,0.5,1.2,0.8,1.8,0.8c0.7,0,1.4-0.3,1.8-0.8c0.5-0.5,0.8-1.2,0.8-1.8
			c0-0.7-0.3-1.4-0.8-1.8C98.8,133.9,97.1,133.9,96.1,134.8z M116.1,137.8c-0.5,0.5-0.8,1.2-0.8,1.8c0,0.7,0.3,1.3,0.8,1.8
			c0.5,0.5,1.2,0.8,1.8,0.8c0.7,0,1.4-0.3,1.8-0.8c0.5-0.5,0.8-1.2,0.8-1.8c0-0.7-0.3-1.4-0.8-1.8
			C118.8,136.8,117.1,136.9,116.1,137.8z M132.1,139.3c-0.5,0.5-0.8,1.2-0.8,1.8c0,0.7,0.3,1.4,0.8,1.8c0.5,0.5,1.2,0.8,1.8,0.8
			c0.7,0,1.4-0.3,1.8-0.8c0.5-0.5,0.8-1.2,0.8-1.8c0-0.7-0.3-1.4-0.8-1.8C134.8,138.4,133,138.4,132.1,139.3z M107.8,137.5
			c0.5-0.5,0.8-1.2,0.8-1.8c0-0.7-0.3-1.4-0.8-1.8c-1-1-2.7-1-3.7,0c-0.5,0.5-0.8,1.2-0.8,1.8c0,0.7,0.3,1.4,0.8,1.8
			c0.5,0.5,1.2,0.8,1.8,0.8C106.6,138.3,107.3,138,107.8,137.5z M20.4,137.2c-1-1-2.7-1-3.7,0c-0.5,0.5-0.8,1.2-0.8,1.8
			s0.3,1.4,0.8,1.8c0.5,0.5,1.2,0.8,1.8,0.8s1.4-0.3,1.8-0.8c0.5-0.5,0.8-1.2,0.8-1.8S20.9,137.7,20.4,137.2z M12.7,138.2
			c0-0.7-0.3-1.3-0.8-1.8c-1-1-2.7-1-3.7,0c-0.5,0.5-0.8,1.2-0.8,1.8c0,0.7,0.3,1.4,0.8,1.8c0.5,0.5,1.2,0.8,1.8,0.8
			c0.7,0,1.4-0.3,1.8-0.8C12.4,139.5,12.7,138.8,12.7,138.2z M39.9,49.8c0,0.7,0.3,1.4,0.8,1.8c0.5,0.5,1.2,0.8,1.8,0.8
			c0.7,0,1.4-0.3,1.8-0.8c0.5-0.5,0.8-1.2,0.8-1.8c0-0.7-0.3-1.4-0.8-1.8c-1-1-2.7-1-3.7,0C40.2,48.4,39.9,49.1,39.9,49.8z M48.9,51.8
			c0,0.7,0.3,1.4,0.8,1.8c0.5,0.5,1.2,0.8,1.8,0.8c0.7,0,1.4-0.3,1.8-0.8c0.5-0.5,0.8-1.2,0.8-1.8c0-0.7-0.3-1.3-0.8-1.8
			c-1-1-2.7-1-3.7,0C49.2,50.4,48.9,51.1,48.9,51.8z M56.4,47.8c0,0.7,0.3,1.4,0.8,1.8c0.5,0.5,1.2,0.8,1.8,0.8c0.7,0,1.4-0.3,1.8-0.8
			c0.5-0.5,0.8-1.2,0.8-1.8c0-0.7-0.3-1.4-0.8-1.8c-1-1-2.7-1-3.7,0C56.7,46.4,56.4,47.1,56.4,47.8z M58.4,57.6
			c0.5-0.5,0.8-1.2,0.8-1.8c0-0.7-0.3-1.4-0.8-1.8c-1-1-2.7-1-3.7,0c-0.5,0.5-0.8,1.2-0.8,1.8c0,0.7,0.3,1.4,0.8,1.8
			c0.5,0.5,1.2,0.8,1.8,0.8C57.2,58.4,57.9,58.1,58.4,57.6z M49.2,61.6c0.5,0.5,1.2,0.8,1.8,0.8c0.7,0,1.4-0.3,1.8-0.8
			c0.5-0.5,0.8-1.2,0.8-1.8c0-0.7-0.3-1.4-0.8-1.8c-1-1-2.7-1-3.7,0c-0.5,0.5-0.8,1.2-0.8,1.8C48.4,60.4,48.7,61.1,49.2,61.6z
			 M42.2,56.4c-0.5,0.5-0.8,1.2-0.8,1.8c0,0.7,0.3,1.4,0.8,1.8c0.5,0.5,1.2,0.8,1.8,0.8c0.7,0,1.4-0.3,1.8-0.8
			c0.5-0.5,0.8-1.2,0.8-1.8c0-0.7-0.3-1.4-0.8-1.8C44.9,55.4,43.2,55.5,42.2,56.4z M35.7,57.9c-0.5,0.5-0.8,1.2-0.8,1.8
			c0,0.7,0.3,1.4,0.8,1.8c0.5,0.5,1.2,0.8,1.8,0.8c0.7,0,1.4-0.3,1.8-0.8c0.5-0.5,0.8-1.2,0.8-1.8c0-0.7-0.3-1.4-0.8-1.8
			C38.4,56.9,36.7,57,35.7,57.9z M32.7,50.4c-0.5,0.5-0.8,1.2-0.8,1.8c0,0.7,0.3,1.4,0.8,1.8c0.5,0.5,1.2,0.8,1.8,0.8
			c0.7,0,1.4-0.3,1.8-0.8c0.5-0.5,0.8-1.2,0.8-1.8c0-0.7-0.3-1.4-0.8-1.8C35.4,49.5,33.7,49.5,32.7,50.4z M32.4,59.1
			c0.5-0.5,0.8-1.2,0.8-1.8c0-0.7-0.3-1.4-0.8-1.8c-1-1-2.7-1-3.7,0c-0.5,0.5-0.8,1.2-0.8,1.8c0,0.7,0.3,1.4,0.8,1.8
			c0.5,0.5,1.2,0.8,1.8,0.8C31.3,59.9,31.9,59.6,32.4,59.1z M24.1,57.4c0.7,0,1.4-0.3,1.8-0.8c0.5-0.5,0.8-1.2,0.8-1.8
			c0-0.7-0.3-1.3-0.8-1.8c-1-1-2.7-1-3.7,0c-0.5,0.5-0.8,1.2-0.8,1.8c0,0.7,0.3,1.4,0.8,1.8C22.7,57.1,23.4,57.4,24.1,57.4z
			 M15.7,59.6c0.5,0.5,1.2,0.8,1.8,0.8c0.7,0,1.4-0.3,1.8-0.8c0.5-0.5,0.8-1.2,0.8-1.8c0-0.7-0.3-1.3-0.8-1.8c-1-1-2.7-1-3.7,0
			c-0.5,0.5-0.8,1.2-0.8,1.8C15,58.4,15.3,59.1,15.7,59.6z M13,64.3c0,0.7,0.3,1.4,0.8,1.8c0.5,0.5,1.2,0.8,1.8,0.8
			c0.7,0,1.4-0.3,1.8-0.8c0.5-0.5,0.8-1.2,0.8-1.8c0-0.7-0.3-1.4-0.8-1.8c-1-1-2.7-1-3.7,0C13.3,62.9,13,63.6,13,64.3z M23.6,70.3
			c0.7,0,1.4-0.3,1.8-0.8c0.5-0.5,0.8-1.2,0.8-1.8c0-0.7-0.3-1.4-0.8-1.8c-1-1-2.7-1-3.7,0c-0.5,0.5-0.8,1.2-0.8,1.8
			c0,0.7,0.3,1.4,0.8,1.8C22.2,70.1,22.9,70.3,23.6,70.3z M29.1,65.4c0.7,0,1.4-0.3,1.8-0.8c0.5-0.5,0.8-1.2,0.8-1.8
			c0-0.7-0.3-1.4-0.8-1.8c-1-1-2.7-1-3.7,0c-0.5,0.5-0.8,1.2-0.8,1.8c0,0.7,0.3,1.4,0.8,1.8C27.7,65.1,28.4,65.4,29.1,65.4z
			 M34.7,65.4c-0.5,0.5-0.8,1.2-0.8,1.8c0,0.7,0.3,1.4,0.8,1.8c0.5,0.5,1.2,0.8,1.8,0.8c0.7,0,1.4-0.3,1.8-0.8
			c0.5-0.5,0.8-1.2,0.8-1.8c0-0.7-0.3-1.4-0.8-1.8C37.4,64.5,35.7,64.5,34.7,65.4z M30.6,74.8c0.7,0,1.4-0.3,1.8-0.8
			c0.5-0.5,0.8-1.2,0.8-1.8c0-0.7-0.3-1.4-0.8-1.8c-1-1-2.7-1-3.7,0c-0.5,0.5-0.8,1.2-0.8,1.8c0,0.7,0.3,1.4,0.8,1.8
			C29.2,74.6,29.9,74.8,30.6,74.8z M24.6,80.3c0.7,0,1.4-0.3,1.8-0.8c0.5-0.5,0.8-1.2,0.8-1.8s-0.3-1.4-0.8-1.8c-1-1-2.7-1-3.7,0
			c-0.5,0.5-0.8,1.2-0.8,1.8s0.3,1.4,0.8,1.8C23.2,80.1,23.9,80.3,24.6,80.3z M16.2,79.4c-0.5,0.5-0.8,1.2-0.8,1.8s0.3,1.3,0.8,1.8
			c0.5,0.5,1.2,0.8,1.8,0.8s1.4-0.3,1.8-0.8c0.5-0.5,0.8-1.2,0.8-1.8s-0.3-1.4-0.8-1.8C19,78.4,17.2,78.4,16.2,79.4z M20.4,70.9
			c-1-1-2.7-1-3.7,0c-0.5,0.5-0.8,1.2-0.8,1.8c0,0.7,0.3,1.4,0.8,1.8c0.5,0.5,1.2,0.8,1.8,0.8s1.4-0.3,1.8-0.8
			c0.5-0.5,0.8-1.2,0.8-1.8C21.2,72.1,20.9,71.4,20.4,70.9z M10.2,73.9c-0.5,0.5-0.8,1.2-0.8,1.8s0.3,1.4,0.8,1.8
			c0.5,0.5,1.2,0.8,1.8,0.8s1.4-0.3,1.8-0.8c0.5-0.5,0.8-1.2,0.8-1.8s-0.3-1.4-0.8-1.8C13,72.9,11.2,72.9,10.2,73.9z M10.1,69.3
			c0.7,0,1.4-0.3,1.8-0.8c0.5-0.5,0.8-1.2,0.8-1.8c0-0.7-0.3-1.3-0.8-1.8c-1-1-2.7-1-3.7,0c-0.5,0.5-0.8,1.2-0.8,1.8
			c0,0.7,0.3,1.4,0.8,1.8C8.7,69.1,9.4,69.3,10.1,69.3z M9.6,58.9c0.7,0,1.4-0.3,1.8-0.8c0.5-0.5,0.8-1.2,0.8-1.8
			c0-0.7-0.3-1.4-0.8-1.8c-1-1-2.7-1-3.7,0C7.3,54.9,7,55.6,7,56.3c0,0.7,0.3,1.4,0.8,1.8C8.2,58.6,8.9,58.9,9.6,58.9z M1.8,58.4
			C1.3,58.9,1,59.6,1,60.3c0,0.7,0.3,1.4,0.8,1.8c0.5,0.5,1.2,0.8,1.8,0.8c0.7,0,1.4-0.3,1.8-0.8c0.5-0.5,0.8-1.2,0.8-1.8
			c0-0.7-0.3-1.3-0.8-1.8C4.5,57.5,2.7,57.5,1.8,58.4z M2.1,70.8c0.7,0,1.4-0.3,1.8-0.8c0.5-0.5,0.8-1.2,0.8-1.8
			c0-0.7-0.3-1.4-0.8-1.8c-1-1-2.7-1-3.7,0c-0.1,0.1-0.2,0.2-0.3,0.3v3c0.1,0.1,0.2,0.2,0.3,0.3C0.8,70.6,1.4,70.8,2.1,70.8z
			 M2.1,53.9c0.7,0,1.4-0.3,1.8-0.8c0.5-0.5,0.8-1.2,0.8-1.8c0-0.7-0.3-1.4-0.8-1.8c-1-1-2.7-1-3.7,0c-0.1,0.1-0.2,0.2-0.3,0.3v3
			c0.1,0.1,0.2,0.2,0.3,0.3C0.8,53.6,1.4,53.9,2.1,53.9z M2.8,73.4C2.3,73.9,2,74.6,2,75.2s0.3,1.4,0.8,1.8c0.5,0.5,1.2,0.8,1.8,0.8
			c0.7,0,1.4-0.3,1.8-0.8c0.5-0.5,0.8-1.2,0.8-1.8s-0.3-1.4-0.8-1.8C5.5,72.4,3.7,72.4,2.8,73.4z M5.6,85.3c0.7,0,1.4-0.3,1.8-0.8
			c0.5-0.5,0.8-1.2,0.8-1.8c0-0.7-0.3-1.4-0.8-1.8c-1-1-2.7-1-3.7,0C3.3,81.4,3,82,3,82.7c0,0.7,0.3,1.4,0.8,1.8
			C4.3,85,4.9,85.3,5.6,85.3z M1.5,94.7c0,0.7,0.3,1.4,0.8,1.8c0.5,0.5,1.2,0.8,1.8,0.8c0.7,0,1.4-0.3,1.8-0.8
			c0.5-0.5,0.8-1.2,0.8-1.8c0-0.7-0.3-1.4-0.8-1.8c-1-1-2.7-1-3.7,0C1.8,93.4,1.5,94,1.5,94.7z M6.1,103.3c0.7,0,1.4-0.3,1.8-0.8
			c0.5-0.5,0.8-1.2,0.8-1.8c0-0.7-0.3-1.3-0.8-1.8c-1-1-2.7-1-3.7,0c-0.5,0.5-0.8,1.2-0.8,1.8c0,0.7,0.3,1.4,0.8,1.8
			C4.7,103,5.4,103.3,6.1,103.3z M11.2,94.9c-0.5,0.5-0.8,1.2-0.8,1.8c0,0.7,0.3,1.4,0.8,1.8c0.5,0.5,1.2,0.8,1.8,0.8
			c0.7,0,1.4-0.3,1.8-0.8c0.5-0.5,0.8-1.2,0.8-1.8c0-0.7-0.3-1.4-0.8-1.8C14,93.9,12.2,93.9,11.2,94.9z M7,88.7c0,0.7,0.3,1.4,0.8,1.8
			c0.5,0.5,1.2,0.8,1.8,0.8c0.7,0,1.4-0.3,1.8-0.8c0.5-0.5,0.8-1.2,0.8-1.8c0-0.7-0.3-1.3-0.8-1.8c-1-1-2.7-1-3.7,0
			C7.3,87.4,7,88,7,88.7z M20.2,89.7c0-0.7-0.3-1.3-0.8-1.8c-1-1-2.7-1-3.7,0C15.3,88.4,15,89,15,89.7c0,0.7,0.3,1.4,0.8,1.8
			c0.5,0.5,1.2,0.8,1.8,0.8c0.7,0,1.4-0.3,1.8-0.8C19.9,91.1,20.2,90.4,20.2,89.7z M22.6,98.3c0.7,0,1.4-0.3,1.8-0.8
			c0.5-0.5,0.8-1.2,0.8-1.8c0-0.7-0.3-1.3-0.8-1.8c-1-1-2.7-1-3.7,0C20.2,94.4,20,95,20,95.7c0,0.7,0.3,1.4,0.8,1.8
			C21.2,98,21.9,98.3,22.6,98.3z M28.6,100.3c0.7,0,1.4-0.3,1.8-0.8c0.5-0.5,0.8-1.2,0.8-1.8c0-0.7-0.3-1.4-0.8-1.8c-1-1-2.7-1-3.7,0
			C26.2,96.3,26,97,26,97.7c0,0.7,0.3,1.4,0.8,1.8C27.2,100,27.9,100.3,28.6,100.3z M34.1,103.3c0.7,0,1.4-0.3,1.8-0.8
			c0.5-0.5,0.8-1.2,0.8-1.8c0-0.7-0.3-1.4-0.8-1.8c-1-1-2.7-1-3.7,0c-0.5,0.5-0.8,1.2-0.8,1.8c0,0.7,0.3,1.4,0.8,1.8
			C32.7,103,33.4,103.3,34.1,103.3z M26.2,87.2c0-0.7-0.3-1.4-0.8-1.8c-1-1-2.7-1-3.7,0c-0.5,0.5-0.8,1.2-0.8,1.8
			c0,0.7,0.3,1.4,0.8,1.8c0.5,0.5,1.2,0.8,1.8,0.8s1.4-0.3,1.8-0.8C25.9,88.6,26.2,87.9,26.2,87.2z M33.2,89.7c0-0.7-0.3-1.4-0.8-1.8
			c-1-1-2.7-1-3.7,0C28.2,88.4,28,89,28,89.7c0,0.7,0.3,1.4,0.8,1.8c0.5,0.5,1.2,0.8,1.8,0.8c0.7,0,1.4-0.3,1.8-0.8
			C32.9,91.1,33.2,90.4,33.2,89.7z M38.9,89.9c-1-1-2.7-1-3.7,0c-0.5,0.5-0.8,1.2-0.8,1.8c0,0.7,0.3,1.4,0.8,1.8
			c0.5,0.5,1.2,0.8,1.8,0.8c0.7,0,1.4-0.3,1.8-0.8c0.5-0.5,0.8-1.2,0.8-1.8C39.6,91,39.4,90.4,38.9,89.9z M31.1,83.3
			c0.7,0,1.4-0.3,1.8-0.8c0.5-0.5,0.8-1.2,0.8-1.8s-0.3-1.4-0.8-1.8c-1-1-2.7-1-3.7,0c-0.5,0.5-0.8,1.2-0.8,1.8s0.3,1.4,0.8,1.8
			C29.7,83,30.4,83.3,31.1,83.3z M40.9,80.9c-1-1-2.7-1-3.7,0c-0.5,0.5-0.8,1.2-0.8,1.8c0,0.7,0.3,1.4,0.8,1.8
			c0.5,0.5,1.2,0.8,1.8,0.8c0.7,0,1.4-0.3,1.8-0.8c0.5-0.5,0.8-1.2,0.8-1.8C41.6,82,41.4,81.4,40.9,80.9z M43.1,74.2
			c0-0.7-0.3-1.4-0.8-1.8c-1-1-2.7-1-3.7,0c-0.5,0.5-0.8,1.2-0.8,1.8s0.3,1.4,0.8,1.8c0.5,0.5,1.2,0.8,1.8,0.8c0.7,0,1.4-0.3,1.8-0.8
			C42.9,75.6,43.1,74.9,43.1,74.2z M48.1,80.2c0-0.7-0.3-1.4-0.8-1.8c-1-1-2.7-1-3.7,0c-0.5,0.5-0.8,1.2-0.8,1.8s0.3,1.4,0.8,1.8
			c0.5,0.5,1.2,0.8,1.8,0.8c0.7,0,1.4-0.3,1.8-0.8C47.9,81.6,48.1,80.9,48.1,80.2z M49.2,77.1c0.5,0.5,1.2,0.8,1.8,0.8
			c0.7,0,1.4-0.3,1.8-0.8c0.5-0.5,0.8-1.2,0.8-1.8s-0.3-1.3-0.8-1.8c-1-1-2.7-1-3.7,0c-0.5,0.5-0.8,1.2-0.8,1.8S48.7,76.6,49.2,77.1z
			 M45.4,86.4c-1-1-2.7-1-3.7,0c-0.5,0.5-0.8,1.2-0.8,1.8c0,0.7,0.3,1.4,0.8,1.8c0.5,0.5,1.2,0.8,1.8,0.8c0.7,0,1.4-0.3,1.8-0.8
			c0.5-0.5,0.8-1.2,0.8-1.8C46.1,87.5,45.9,86.9,45.4,86.4z M52.4,90.4c-1-1-2.7-1-3.7,0c-0.5,0.5-0.8,1.2-0.8,1.8
			c0,0.7,0.3,1.4,0.8,1.8c0.5,0.5,1.2,0.8,1.8,0.8c0.7,0,1.4-0.3,1.8-0.8c0.5-0.5,0.8-1.2,0.8-1.8C53.1,91.5,52.8,90.9,52.4,90.4z
			 M52.4,98.4c-1-1-2.7-1-3.7,0c-0.5,0.5-0.8,1.2-0.8,1.8c0,0.7,0.3,1.4,0.8,1.8c0.5,0.5,1.2,0.8,1.8,0.8c0.7,0,1.4-0.3,1.8-0.8
			c0.5-0.5,0.8-1.2,0.8-1.8C53.1,99.5,52.8,98.8,52.4,98.4z M40.7,94.9c-0.5,0.5-0.8,1.2-0.8,1.8c0,0.7,0.3,1.4,0.8,1.8
			c0.5,0.5,1.2,0.8,1.8,0.8c0.7,0,1.4-0.3,1.8-0.8c0.5-0.5,0.8-1.2,0.8-1.8c0-0.7-0.3-1.3-0.8-1.8C43.4,93.9,41.7,93.9,40.7,94.9z
			 M57.5,96.8c0.7,0,1.4-0.3,1.8-0.8c0.5-0.5,0.8-1.2,0.8-1.8c0-0.7-0.3-1.4-0.8-1.8c-1-1-2.7-1-3.7,0c-0.5,0.5-0.8,1.2-0.8,1.8
			c0,0.7,0.3,1.4,0.8,1.8C56.2,96.5,56.8,96.8,57.5,96.8z M57.2,77.9c-0.5,0.5-0.8,1.2-0.8,1.8s0.3,1.4,0.8,1.8
			c0.5,0.5,1.2,0.8,1.8,0.8c0.7,0,1.4-0.3,1.8-0.8c0.5-0.5,0.8-1.2,0.8-1.8s-0.3-1.4-0.8-1.8C59.9,76.9,58.2,76.9,57.2,77.9z
			 M60.9,69.9c-1-1-2.7-1-3.7,0c-0.5,0.5-0.8,1.2-0.8,1.8c0,0.7,0.3,1.4,0.8,1.8c0.5,0.5,1.2,0.8,1.8,0.8c0.7,0,1.4-0.3,1.8-0.8
			c0.5-0.5,0.8-1.2,0.8-1.8C61.6,71.1,61.3,70.4,60.9,69.9z M55.1,68.2c0-0.7-0.3-1.4-0.8-1.8c-1-1-2.7-1-3.7,0
			c-0.5,0.5-0.8,1.2-0.8,1.8c0,0.7,0.3,1.4,0.8,1.8c0.5,0.5,1.2,0.8,1.8,0.8c0.7,0,1.4-0.3,1.8-0.8C54.8,69.6,55.1,68.9,55.1,68.2z
			 M45.5,70.8c0.7,0,1.4-0.3,1.8-0.8c0.5-0.5,0.8-1.2,0.8-1.8c0-0.7-0.3-1.4-0.8-1.8c-1-1-2.7-1-3.7,0c-0.5,0.5-0.8,1.2-0.8,1.8
			c0,0.7,0.3,1.4,0.8,1.8C44.2,70.6,44.9,70.8,45.5,70.8z M58.5,63.9c0.7,0,1.4-0.3,1.8-0.8c0.5-0.5,0.8-1.2,0.8-1.8
			c0-0.7-0.3-1.3-0.8-1.8c-1-1-2.7-1-3.7,0c-0.5,0.5-0.8,1.2-0.8,1.8c0,0.7,0.3,1.4,0.8,1.8C57.2,63.6,57.8,63.9,58.5,63.9z
			 M63.7,73.9c-0.5,0.5-0.8,1.2-0.8,1.8s0.3,1.4,0.8,1.8c0.5,0.5,1.2,0.8,1.8,0.8s1.4-0.3,1.8-0.8c0.5-0.5,0.8-1.2,0.8-1.8
			s-0.3-1.4-0.8-1.8C66.4,72.9,64.6,72.9,63.7,73.9z M64.9,83.2c0,0.7,0.3,1.4,0.8,1.8c0.5,0.5,1.2,0.8,1.8,0.8c0.7,0,1.4-0.3,1.8-0.8
			c0.5-0.5,0.8-1.2,0.8-1.8c0-0.7-0.3-1.4-0.8-1.8c-1-1-2.7-1-3.7,0C65.2,81.9,64.9,82.5,64.9,83.2z M63.4,89.6
			c0.5-0.5,0.8-1.2,0.8-1.8c0-0.7-0.3-1.3-0.8-1.8c-1-1-2.7-1-3.7,0c-0.5,0.5-0.8,1.2-0.8,1.8c0,0.7,0.3,1.4,0.8,1.8
			c0.5,0.5,1.2,0.8,1.8,0.8C62.2,90.3,62.9,90,63.4,89.6z M69.8,88.9c-1-1-2.7-1-3.7,0c-0.5,0.5-0.8,1.2-0.8,1.8
			c0,0.7,0.3,1.4,0.8,1.8c0.5,0.5,1.2,0.8,1.8,0.8s1.4-0.3,1.8-0.8c0.5-0.5,0.8-1.2,0.8-1.8C70.6,90,70.3,89.4,69.8,88.9z M74,101.8
			c0.7,0,1.4-0.3,1.8-0.8c0.5-0.5,0.8-1.2,0.8-1.8c0-0.7-0.3-1.4-0.8-1.8c-1-1-2.7-1-3.7,0c-0.5,0.5-0.8,1.2-0.8,1.8
			c0,0.7,0.3,1.4,0.8,1.8C72.6,101.5,73.3,101.8,74,101.8z M66.6,97.2c0-0.7-0.3-1.4-0.8-1.8c-1-1-2.7-1-3.7,0
			c-0.5,0.5-0.8,1.2-0.8,1.8c0,0.7,0.3,1.4,0.8,1.8c0.5,0.5,1.2,0.8,1.8,0.8s1.4-0.3,1.8-0.8C66.3,98.5,66.6,97.9,66.6,97.2z
			 M75.5,93.8c0.7,0,1.4-0.3,1.8-0.8c0.5-0.5,0.8-1.2,0.8-1.8c0-0.7-0.3-1.4-0.8-1.8c-1-1-2.7-1-3.7,0c-0.5,0.5-0.8,1.2-0.8,1.8
			c0,0.7,0.3,1.4,0.8,1.8C74.2,93.5,74.8,93.8,75.5,93.8z M76.8,84.1c0.5-0.5,0.8-1.2,0.8-1.8s-0.3-1.4-0.8-1.8c-1-1-2.7-1-3.7,0
			c-0.5,0.5-0.8,1.2-0.8,1.8s0.3,1.4,0.8,1.8c0.5,0.5,1.2,0.8,1.8,0.8C75.7,84.8,76.4,84.5,76.8,84.1z M73.5,77.8
			c0.7,0,1.4-0.3,1.8-0.8c0.5-0.5,0.8-1.2,0.8-1.8s-0.3-1.3-0.8-1.8c-1-1-2.7-1-3.7,0c-0.5,0.5-0.8,1.2-0.8,1.8s0.3,1.4,0.8,1.8
			C72.2,77.6,72.8,77.8,73.5,77.8z M62.7,68.6c0.5,0.5,1.2,0.8,1.8,0.8s1.4-0.3,1.8-0.8c0.5-0.5,0.8-1.2,0.8-1.8
			c0-0.7-0.3-1.4-0.8-1.8c-1-1-2.7-1-3.7,0c-0.5,0.5-0.8,1.2-0.8,1.8C61.9,67.4,62.2,68.1,62.7,68.6z M73.1,67.7
			c0-0.7-0.3-1.4-0.8-1.8c-1-1-2.7-1-3.7,0c-0.5,0.5-0.8,1.2-0.8,1.8c0,0.7,0.3,1.4,0.8,1.8c0.5,0.5,1.2,0.8,1.8,0.8s1.4-0.3,1.8-0.8
			C72.8,69.1,73.1,68.4,73.1,67.7z M67.8,58.4c-1-1-2.7-1-3.7,0c-0.5,0.5-0.8,1.2-0.8,1.8c0,0.7,0.3,1.4,0.8,1.8
			c0.5,0.5,1.2,0.8,1.8,0.8s1.4-0.3,1.8-0.8c0.5-0.5,0.8-1.2,0.8-1.8C68.6,59.6,68.3,58.9,67.8,58.4z M66.8,54.1
			c0.5-0.5,0.8-1.2,0.8-1.8c0-0.7-0.3-1.4-0.8-1.8c-1-1-2.7-1-3.7,0c-0.5,0.5-0.8,1.2-0.8,1.8c0,0.7,0.3,1.4,0.8,1.8
			c0.5,0.5,1.2,0.8,1.8,0.8C65.7,54.9,66.4,54.6,66.8,54.1z M70.7,50.9c-0.5,0.5-0.8,1.2-0.8,1.8c0,0.7,0.3,1.4,0.8,1.8
			c0.5,0.5,1.2,0.8,1.8,0.8c0.7,0,1.4-0.3,1.8-0.8c0.5-0.5,0.8-1.2,0.8-1.8c0-0.7-0.3-1.4-0.8-1.8C73.4,50,71.6,50,70.7,50.9z
			 M72.2,59.9c-0.5,0.5-0.8,1.2-0.8,1.8c0,0.7,0.3,1.4,0.8,1.8c0.5,0.5,1.2,0.8,1.8,0.8c0.7,0,1.4-0.3,1.8-0.8
			c0.5-0.5,0.8-1.2,0.8-1.8c0-0.7-0.3-1.4-0.8-1.8C74.9,59,73.1,58.9,72.2,59.9z M80.3,70.1c0.5-0.5,0.8-1.2,0.8-1.8
			c0-0.7-0.3-1.4-0.8-1.8c-1-1-2.7-1-3.7,0c-0.5,0.5-0.8,1.2-0.8,1.8c0,0.7,0.3,1.4,0.8,1.8c0.5,0.5,1.2,0.8,1.8,0.8
			C79.2,70.8,79.8,70.6,80.3,70.1z M87.1,73.2c0-0.7-0.3-1.4-0.8-1.8c-1-1-2.7-1-3.7,0c-0.5,0.5-0.8,1.2-0.8,1.8
			c0,0.7,0.3,1.4,0.8,1.8c0.5,0.5,1.2,0.8,1.8,0.8c0.7,0,1.4-0.3,1.8-0.8C86.8,74.6,87.1,73.9,87.1,73.2z M81.6,78.9
			c-0.5,0.5-0.8,1.2-0.8,1.8s0.3,1.4,0.8,1.8c0.5,0.5,1.2,0.8,1.8,0.8c0.7,0,1.4-0.3,1.8-0.8c0.5-0.5,0.8-1.2,0.8-1.8
			s-0.3-1.4-0.8-1.8C84.4,77.9,82.6,77.9,81.6,78.9z M82,90.8c0.7,0,1.4-0.3,1.8-0.8c0.5-0.5,0.8-1.2,0.8-1.8c0-0.7-0.3-1.4-0.8-1.8
			c-1-1-2.7-1-3.7,0c-0.5,0.5-0.8,1.2-0.8,1.8c0,0.7,0.3,1.4,0.8,1.8C80.6,90.5,81.3,90.8,82,90.8z M86,97.8c0.7,0,1.4-0.3,1.8-0.8
			c0.5-0.5,0.8-1.2,0.8-1.8c0-0.7-0.3-1.4-0.8-1.8c-1-1-2.7-1-3.7,0c-0.5,0.5-0.8,1.2-0.8,1.8c0,0.7,0.3,1.4,0.8,1.8
			C84.6,97.5,85.3,97.8,86,97.8z M92,91.8c0.7,0,1.4-0.3,1.8-0.8c0.5-0.5,0.8-1.2,0.8-1.8c0-0.7-0.3-1.4-0.8-1.8c-1-1-2.7-1-3.7,0
			c-0.5,0.5-0.8,1.2-0.8,1.8c0,0.7,0.3,1.4,0.8,1.8C90.6,91.5,91.3,91.8,92,91.8z M92,100.8c0.7,0,1.4-0.3,1.8-0.8
			c0.5-0.5,0.8-1.2,0.8-1.8c0-0.7-0.3-1.4-0.8-1.8c-1-1-2.7-1-3.7,0c-0.5,0.5-0.8,1.2-0.8,1.8c0,0.7,0.3,1.4,0.8,1.8
			C90.6,100.5,91.3,100.8,92,100.8z M91.5,82.3c0.7,0,1.4-0.3,1.8-0.8c0.5-0.5,0.8-1.2,0.8-1.8s-0.3-1.4-0.8-1.8c-1-1-2.7-1-3.7,0
			c-0.5,0.5-0.8,1.2-0.8,1.8s0.3,1.4,0.8,1.8C90.1,82,90.8,82.3,91.5,82.3z M96.6,73.7c0-0.7-0.3-1.4-0.8-1.8c-1-1-2.7-1-3.7,0
			c-0.5,0.5-0.8,1.2-0.8,1.8s0.3,1.4,0.8,1.8c0.5,0.5,1.2,0.8,1.8,0.8c0.7,0,1.4-0.3,1.8-0.8C96.3,75.1,96.6,74.4,96.6,73.7z
			 M90.1,65.8c0-0.7-0.3-1.4-0.8-1.8c-1-1-2.7-1-3.7,0c-0.5,0.5-0.8,1.2-0.8,1.8c0,0.7,0.3,1.4,0.8,1.8c0.5,0.5,1.2,0.8,1.8,0.8
			c0.7,0,1.3-0.3,1.8-0.8C89.8,67.1,90.1,66.4,90.1,65.8z M80.1,60.5c-0.5,0.5-0.8,1.2-0.8,1.8c0,0.7,0.3,1.4,0.8,1.8
			c0.5,0.5,1.2,0.8,1.8,0.8c0.7,0,1.4-0.3,1.8-0.8c0.5-0.5,0.8-1.2,0.8-1.8c0-0.7-0.3-1.3-0.8-1.8C82.9,59.5,81.1,59.5,80.1,60.5z
			 M78.2,54.4c-0.5,0.5-0.8,1.2-0.8,1.8c0,0.7,0.3,1.4,0.8,1.8c0.5,0.5,1.2,0.8,1.8,0.8c0.7,0,1.4-0.3,1.8-0.8
			c0.5-0.5,0.8-1.2,0.8-1.8c0-0.7-0.3-1.4-0.8-1.8C80.9,53.5,79.1,53.4,78.2,54.4z M84.6,50.4c-0.5,0.5-0.8,1.2-0.8,1.8
			c0,0.7,0.3,1.4,0.8,1.8c0.5,0.5,1.2,0.8,1.8,0.8c0.7,0,1.4-0.3,1.8-0.8c0.5-0.5,0.8-1.2,0.8-1.8c0-0.7-0.3-1.4-0.8-1.8
			C87.4,49.5,85.6,49.5,84.6,50.4z M86.3,46.1c0.5-0.5,0.8-1.2,0.8-1.8c0-0.7-0.3-1.4-0.8-1.8c-1-1-2.7-1-3.7,0
			c-0.5,0.5-0.8,1.2-0.8,1.8c0,0.7,0.3,1.4,0.8,1.8c0.5,0.5,1.2,0.8,1.8,0.8C85.2,46.9,85.8,46.6,86.3,46.1z M95.8,47.9
			c-1-1-2.7-1-3.7,0c-0.5,0.5-0.8,1.2-0.8,1.8c0,0.7,0.3,1.4,0.8,1.8c0.5,0.5,1.2,0.8,1.8,0.8c0.7,0,1.4-0.3,1.8-0.8
			c0.5-0.5,0.8-1.2,0.8-1.8C96.6,49.1,96.3,48.4,95.8,47.9z M88.9,58.3c0,0.7,0.3,1.4,0.8,1.8c0.5,0.5,1.2,0.8,1.8,0.8
			c0.7,0,1.4-0.3,1.8-0.8c0.5-0.5,0.8-1.2,0.8-1.8c0-0.7-0.3-1.4-0.8-1.8c-1-1-2.7-1-3.7,0C89.2,56.9,88.9,57.6,88.9,58.3z M98.1,64.8
			c0-0.7-0.3-1.4-0.8-1.8c-1-1-2.7-1-3.7,0c-0.5,0.5-0.8,1.2-0.8,1.8c0,0.7,0.3,1.4,0.8,1.8c0.5,0.5,1.2,0.8,1.8,0.8
			c0.7,0,1.4-0.3,1.8-0.8C97.8,66.1,98.1,65.4,98.1,64.8z M102,72.3c0.7,0,1.4-0.3,1.8-0.8c0.5-0.5,0.8-1.2,0.8-1.8
			c0-0.7-0.3-1.4-0.8-1.8c-1-1-2.7-1-3.7,0c-0.5,0.5-0.8,1.2-0.8,1.8c0,0.7,0.3,1.3,0.8,1.8C100.6,72.1,101.3,72.3,102,72.3z
			 M104.1,77.7c0-0.7-0.3-1.4-0.8-1.8c-1-1-2.7-1-3.7,0c-0.5,0.5-0.8,1.2-0.8,1.8s0.3,1.3,0.8,1.8c0.5,0.5,1.2,0.8,1.8,0.8
			c0.7,0,1.4-0.3,1.8-0.8C103.8,79.1,104.1,78.4,104.1,77.7z M102.1,85.7c0-0.7-0.3-1.3-0.8-1.8c-1-1-2.7-1-3.7,0
			c-0.5,0.5-0.8,1.2-0.8,1.8c0,0.7,0.3,1.4,0.8,1.8c0.5,0.5,1.2,0.8,1.8,0.8c0.7,0,1.4-0.3,1.8-0.8C101.8,87.1,102.1,86.4,102.1,85.7z
			 M108.8,82.4c-1-1-2.7-1-3.7,0c-0.5,0.5-0.8,1.2-0.8,1.8c0,0.7,0.3,1.4,0.8,1.8c0.5,0.5,1.2,0.8,1.8,0.8c0.7,0,1.4-0.3,1.8-0.8
			c0.5-0.5,0.8-1.2,0.8-1.8C109.5,83.5,109.3,82.9,108.8,82.4z M104.6,91.4c-0.5,0.5-0.8,1.2-0.8,1.8c0,0.7,0.3,1.4,0.8,1.8
			c0.5,0.5,1.2,0.8,1.8,0.8c0.7,0,1.4-0.3,1.8-0.8c0.5-0.5,0.8-1.2,0.8-1.8c0-0.7-0.3-1.4-0.8-1.8C107.3,90.4,105.6,90.4,104.6,91.4z
			 M111.9,101.8c0.7,0,1.4-0.3,1.8-0.8c0.5-0.5,0.8-1.2,0.8-1.8c0-0.7-0.3-1.4-0.8-1.8c-1-1-2.7-1-3.7,0c-0.5,0.5-0.8,1.2-0.8,1.8
			c0,0.7,0.3,1.4,0.8,1.8C110.6,101.5,111.3,101.8,111.9,101.8z M111.6,80.4c-0.5,0.5-0.8,1.2-0.8,1.8s0.3,1.4,0.8,1.8
			c0.5,0.5,1.2,0.8,1.8,0.8c0.7,0,1.4-0.3,1.8-0.8c0.5-0.5,0.8-1.2,0.8-1.8s-0.3-1.4-0.8-1.8C114.3,79.4,112.6,79.4,111.6,80.4z
			 M111.4,76.8c0.7,0,1.4-0.3,1.8-0.8c0.5-0.5,0.8-1.2,0.8-1.8s-0.3-1.4-0.8-1.8c-1-1-2.7-1-3.7,0c-0.5,0.5-0.8,1.2-0.8,1.8
			s0.3,1.4,0.8,1.8C110.1,76.6,110.8,76.8,111.4,76.8z M55.6,84.2c0-0.7-0.3-1.4-0.8-1.8c-1-1-2.7-1-3.7,0c-0.5,0.5-0.8,1.2-0.8,1.8
			c0,0.7,0.3,1.4,0.8,1.8c0.5,0.5,1.2,0.8,1.8,0.8c0.7,0,1.4-0.3,1.8-0.8C55.3,85.6,55.6,84.9,55.6,84.2z M140.7,64.6
			c0.5-0.5,0.8-1.2,0.8-1.8c0-0.7-0.3-1.4-0.8-1.8c-1-1-2.7-1-3.7,0c-0.5,0.5-0.8,1.2-0.8,1.8c0,0.7,0.3,1.4,0.8,1.8
			c0.5,0.5,1.2,0.8,1.8,0.8C139.6,65.4,140.3,65.1,140.7,64.6z M143.5,54.3c0-0.7-0.3-1.4-0.8-1.8c-1-1-2.7-1-3.7,0
			c-0.5,0.5-0.8,1.2-0.8,1.8c0,0.7,0.3,1.4,0.8,1.8c0.5,0.5,1.2,0.8,1.8,0.8c0.7,0,1.4-0.3,1.8-0.8C143.2,55.6,143.5,54.9,143.5,54.3z
			 M136.3,48.9c-1-1-2.7-1-3.7,0c-0.5,0.5-0.8,1.2-0.8,1.8c0,0.7,0.3,1.4,0.8,1.8c0.5,0.5,1.2,0.8,1.8,0.8c0.7,0,1.4-0.3,1.8-0.8
			c0.5-0.5,0.8-1.2,0.8-1.8C137,50.1,136.7,49.4,136.3,48.9z M136.8,67.4c-1-1-2.7-1-3.7,0c-0.5,0.5-0.8,1.2-0.8,1.8
			c0,0.7,0.3,1.4,0.8,1.8c0.5,0.5,1.2,0.8,1.8,0.8c0.7,0,1.4-0.3,1.8-0.8c0.5-0.5,0.8-1.2,0.8-1.8C137.5,68.6,137.2,67.9,136.8,67.4z
			 M132.6,74.9c-0.5,0.5-0.8,1.2-0.8,1.8s0.3,1.4,0.8,1.8c0.5,0.5,1.2,0.8,1.8,0.8c0.7,0,1.4-0.3,1.8-0.8c0.5-0.5,0.8-1.2,0.8-1.8
			s-0.3-1.4-0.8-1.8C135.3,73.9,133.6,73.9,132.6,74.9z M139.6,72.4c-0.5,0.5-0.8,1.2-0.8,1.8s0.3,1.4,0.8,1.8
			c0.5,0.5,1.2,0.8,1.8,0.8c0.7,0,1.4-0.3,1.8-0.8c0.5-0.5,0.8-1.1,0.8-1.8v0c0-0.7-0.3-1.3-0.8-1.8C142.3,71.4,140.5,71.4,139.6,72.4
			z M142.5,82.2c0-0.7-0.3-1.4-0.8-1.8c-1-1-2.7-1-3.7,0c-0.5,0.5-0.8,1.2-0.8,1.8s0.3,1.4,0.8,1.8c0.5,0.5,1.2,0.8,1.8,0.8
			c0.7,0,1.4-0.3,1.8-0.8C142.2,83.6,142.5,82.9,142.5,82.2z M140.2,95.4c-1-1-2.7-1-3.7,0c-0.5,0.5-0.8,1.2-0.8,1.8
			c0,0.7,0.3,1.4,0.8,1.8c0.5,0.5,1.2,0.8,1.8,0.8c0.7,0,1.4-0.3,1.8-0.8c0.5-0.5,0.8-1.2,0.8-1.8C141,96.5,140.7,95.9,140.2,95.4z
			 M138.2,92.1c0.5-0.5,0.8-1.2,0.8-1.8c0-0.7-0.3-1.4-0.8-1.8c-1-1-2.7-1-3.7,0c-0.5,0.5-0.8,1.2-0.8,1.8c0,0.7,0.3,1.4,0.8,1.8
			c0.5,0.5,1.2,0.8,1.8,0.8C137.1,92.8,137.8,92.5,138.2,92.1z M129.6,60.1c0.5,0.5,1.2,0.8,1.8,0.8c0.7,0,1.4-0.3,1.8-0.8
			c0.5-0.5,0.8-1.2,0.8-1.8c0-0.7-0.3-1.4-0.8-1.8c-1-1-2.7-1-3.7,0c-0.5,0.5-0.8,1.2-0.8,1.8C128.8,58.9,129.1,59.6,129.6,60.1z
			 M121.8,58.8c0,0.7,0.3,1.4,0.8,1.8c0.5,0.5,1.2,0.8,1.8,0.8c0.7,0,1.4-0.3,1.8-0.8c0.5-0.5,0.8-1.2,0.8-1.8c0-0.7-0.3-1.4-0.8-1.8
			c-1-1-2.7-1-3.7,0C122.1,57.4,121.8,58.1,121.8,58.8z M124.6,51.1c0.5,0.5,1.2,0.8,1.8,0.8c0.7,0,1.4-0.3,1.8-0.8
			c0.5-0.5,0.8-1.2,0.8-1.8c0-0.7-0.3-1.4-0.8-1.8c-1-1-2.7-1-3.7,0c-0.5,0.5-0.8,1.2-0.8,1.8C123.8,50,124.1,50.6,124.6,51.1z
			 M121.3,50.4c-1-1-2.7-1-3.7,0c-0.5,0.5-0.8,1.2-0.8,1.8c0,0.7,0.3,1.4,0.8,1.8c0.5,0.5,1.2,0.8,1.8,0.8c0.7,0,1.4-0.3,1.8-0.8
			c0.5-0.5,0.8-1.2,0.8-1.8C122,51.6,121.8,50.9,121.3,50.4z M110.1,48.4c-0.5,0.5-0.8,1.2-0.8,1.8c0,0.7,0.3,1.4,0.8,1.8
			c0.5,0.5,1.2,0.8,1.8,0.8s1.4-0.3,1.8-0.8c0.5-0.5,0.8-1.1,0.8-1.8c0-0.7-0.3-1.4-0.8-1.8C112.8,47.5,111.1,47.5,110.1,48.4z
			 M107.6,53.8c0-0.7-0.3-1.4-0.8-1.8c-1-1-2.7-1-3.7,0c-0.5,0.5-0.8,1.2-0.8,1.8c0,0.7,0.3,1.4,0.8,1.8c0.5,0.5,1.2,0.8,1.8,0.8
			c0.7,0,1.4-0.3,1.8-0.8C107.3,55.1,107.6,54.4,107.6,53.8z M100.8,57.6c0.5-0.5,0.8-1.2,0.8-1.8c0-0.7-0.3-1.4-0.8-1.8
			c-1-1-2.7-1-3.7,0c-0.5,0.5-0.8,1.2-0.8,1.8c0,0.7,0.3,1.4,0.8,1.8c0.5,0.5,1.2,0.8,1.8,0.8C99.6,58.4,100.3,58.1,100.8,57.6z
			 M101.6,61.4c-0.5,0.5-0.8,1.2-0.8,1.8c0,0.7,0.3,1.4,0.8,1.8c0.5,0.5,1.2,0.8,1.8,0.8c0.7,0,1.4-0.3,1.8-0.8
			c0.5-0.5,0.8-1.2,0.8-1.8c0-0.7-0.3-1.4-0.8-1.8C104.3,60.5,102.6,60.5,101.6,61.4z M113.8,60.1c0.5-0.5,0.8-1.1,0.8-1.8
			c0-0.7-0.3-1.4-0.8-1.8c-1-1-2.7-1-3.7,0c-0.5,0.5-0.8,1.2-0.8,1.8c0,0.7,0.3,1.4,0.8,1.8c0.5,0.5,1.2,0.8,1.8,0.8
			S113.3,60.6,113.8,60.1z M116.1,66.1c0.5,0.5,1.2,0.8,1.8,0.8c0.7,0,1.4-0.3,1.8-0.8c0.5-0.5,0.8-1.2,0.8-1.8c0-0.7-0.3-1.4-0.8-1.8
			c-1-1-2.7-1-3.7,0c-0.5,0.5-0.8,1.2-0.8,1.8C115.3,64.9,115.6,65.6,116.1,66.1z M107.9,67.2c0,0.7,0.3,1.4,0.8,1.8
			c0.5,0.5,1.2,0.8,1.8,0.8c0.7,0,1.4-0.3,1.8-0.8c0.5-0.5,0.8-1.2,0.8-1.8c0-0.7-0.3-1.4-0.8-1.8c-1-1-2.7-1-3.7,0
			C108.1,65.9,107.9,66.6,107.9,67.2z M121,72.7c0-0.7-0.3-1.4-0.8-1.8c-1-1-2.7-1-3.7,0c-0.5,0.5-0.8,1.2-0.8,1.8
			c0,0.7,0.3,1.4,0.8,1.8c0.5,0.5,1.2,0.8,1.8,0.8c0.7,0,1.4-0.3,1.8-0.8C120.8,74.1,121,73.4,121,72.7z M127.4,68.3
			c0.7,0,1.4-0.3,1.8-0.8c0.5-0.5,0.8-1.2,0.8-1.8c0-0.7-0.3-1.4-0.8-1.8c-1-1-2.7-1-3.7,0c-0.5,0.5-0.8,1.2-0.8,1.8
			c0,0.7,0.3,1.4,0.8,1.8C126.1,68.1,126.7,68.3,127.4,68.3z M125.1,74.1c0.5,0.5,1.2,0.8,1.8,0.8c0.7,0,1.4-0.3,1.8-0.8
			c0.5-0.5,0.8-1.2,0.8-1.8c0-0.7-0.3-1.4-0.8-1.8c-1-1-2.7-1-3.7,0c-0.5,0.5-0.8,1.2-0.8,1.8C124.3,72.9,124.6,73.6,125.1,74.1z
			 M121.4,83.3c0.7,0,1.4-0.3,1.8-0.8c0.5-0.5,0.8-1.2,0.8-1.8s-0.3-1.4-0.8-1.8c-1-1-2.7-1-3.7,0c-0.5,0.5-0.8,1.2-0.8,1.8
			s0.3,1.4,0.8,1.8C120.1,83,120.8,83.3,121.4,83.3z M123.9,91.3c0.7,0,1.4-0.3,1.8-0.8c0.5-0.5,0.8-1.2,0.8-1.8
			c0-0.7-0.3-1.4-0.8-1.8c-1-1-2.7-1-3.7,0c-0.5,0.5-0.8,1.2-0.8,1.8c0,0.7,0.3,1.4,0.8,1.8C122.6,91,123.3,91.3,123.9,91.3z
			 M111.6,87.9c-0.5,0.5-0.8,1.2-0.8,1.8c0,0.7,0.3,1.4,0.8,1.8c0.5,0.5,1.2,0.8,1.8,0.8s1.4-0.3,1.8-0.8c0.5-0.5,0.8-1.2,0.8-1.8
			c0-0.7-0.3-1.4-0.8-1.8C114.3,86.9,112.6,86.9,111.6,87.9z M120.8,96c0.5-0.5,0.8-1.2,0.8-1.8c0-0.7-0.3-1.4-0.8-1.8
			c-1-1-2.7-1-3.7,0c-0.5,0.5-0.8,1.2-0.8,1.8c0,0.7,0.3,1.3,0.8,1.8c0.5,0.5,1.2,0.8,1.8,0.8C119.6,96.8,120.3,96.5,120.8,96z
			 M128.1,92.9c-0.5,0.5-0.8,1.2-0.8,1.8c0,0.7,0.3,1.4,0.8,1.8c0.5,0.5,1.2,0.8,1.8,0.8c0.7,0,1.4-0.3,1.8-0.8
			c0.5-0.5,0.8-1.2,0.8-1.8c0-0.7-0.3-1.4-0.8-1.8C130.8,91.9,129.1,91.9,128.1,92.9z M127.6,81.4c-0.5,0.5-0.8,1.2-0.8,1.8
			c0,0.7,0.3,1.4,0.8,1.8c0.5,0.5,1.2,0.8,1.8,0.8c0.7,0,1.4-0.3,1.8-0.8c0.5-0.5,0.8-1.2,0.8-1.8c0-0.7-0.3-1.4-0.8-1.8
			C130.3,80.4,128.6,80.4,127.6,81.4z M100.3,92.4c-1-1-2.7-1-3.7,0c-0.5,0.5-0.8,1.2-0.8,1.8c0,0.7,0.3,1.4,0.8,1.8
			c0.5,0.5,1.2,0.8,1.8,0.8c0.7,0,1.4-0.3,1.8-0.8c0.5-0.5,0.8-1.2,0.8-1.8C101.1,93.5,100.8,92.9,100.3,92.4z M123.8,103.5
			c0.5-0.5,0.8-1.2,0.8-1.8c0-0.7-0.3-1.4-0.8-1.8c-1-1-2.7-1-3.7,0c-0.5,0.5-0.8,1.2-0.8,1.8c0,0.7,0.3,1.4,0.8,1.8
			c0.5,0.5,1.2,0.8,1.8,0.8C122.6,104.3,123.3,104,123.8,103.5z M12.1,116.3c0.7,0,1.4-0.3,1.8-0.8c0.5-0.5,0.8-1.2,0.8-1.8
			c0-0.7-0.3-1.3-0.8-1.8c-1-1-2.7-1-3.7,0c-0.5,0.5-0.8,1.2-0.8,1.8c0,0.7,0.3,1.4,0.8,1.8C10.7,116,11.4,116.3,12.1,116.3z
			 M16.7,104.7c0-0.7-0.3-1.4-0.8-1.8c-1-1-2.7-1-3.7,0c-0.5,0.5-0.8,1.2-0.8,1.8c0,0.7,0.3,1.4,0.8,1.8c0.5,0.5,1.2,0.8,1.8,0.8
			c0.7,0,1.4-0.3,1.8-0.8C16.4,106.1,16.7,105.4,16.7,104.7z M23.2,102.2c0-0.7-0.3-1.4-0.8-1.8c-1-1-2.7-1-3.7,0
			c-0.5,0.5-0.8,1.2-0.8,1.8c0,0.7,0.3,1.4,0.8,1.8c0.5,0.5,1.2,0.8,1.8,0.8s1.4-0.3,1.8-0.8C22.9,103.6,23.2,102.9,23.2,102.2z
			 M18.6,112.8c0.7,0,1.4-0.3,1.8-0.8c0.5-0.5,0.8-1.2,0.8-1.8c0-0.7-0.3-1.4-0.8-1.8c-1-1-2.7-1-3.7,0c-0.5,0.5-0.8,1.2-0.8,1.8
			c0,0.7,0.3,1.4,0.8,1.8C17.2,112.5,17.9,112.8,18.6,112.8z M27.4,112.3c-1-1-2.7-1-3.7,0c-0.5,0.5-0.8,1.2-0.8,1.8
			c0,0.7,0.3,1.4,0.8,1.8c0.5,0.5,1.2,0.8,1.8,0.8s1.4-0.3,1.8-0.8c0.5-0.5,0.8-1.2,0.8-1.8C28.2,113.5,27.9,112.8,27.4,112.3z
			 M23.7,120.3c-0.5,0.5-0.8,1.2-0.8,1.8s0.3,1.4,0.8,1.8c0.5,0.5,1.2,0.8,1.8,0.8s1.4-0.3,1.8-0.8c0.5-0.5,0.8-1.2,0.8-1.8
			s-0.3-1.4-0.8-1.8C26.4,119.4,24.7,119.4,23.7,120.3z M17.6,121.3c0.7,0,1.4-0.3,1.8-0.8c0.5-0.5,0.8-1.2,0.8-1.8s-0.3-1.4-0.8-1.8
			c-1-1-2.7-1-3.7,0c-0.5,0.5-0.8,1.2-0.8,1.8s0.3,1.4,0.8,1.8C16.2,121,16.9,121.3,17.6,121.3z M32.6,118.8c0.7,0,1.4-0.3,1.8-0.8
			c0.5-0.5,0.8-1.2,0.8-1.8c0-0.7-0.3-1.4-0.8-1.8c-1-1-2.7-1-3.7,0c-0.5,0.5-0.8,1.2-0.8,1.8c0,0.7,0.3,1.4,0.8,1.8
			C31.2,118.5,31.9,118.8,32.6,118.8z M33.1,124.8c0.7,0,1.4-0.3,1.8-0.8c0.5-0.5,0.8-1.2,0.8-1.8s-0.3-1.3-0.8-1.8c-1-1-2.7-1-3.7,0
			c-0.5,0.5-0.8,1.2-0.8,1.8s0.3,1.4,0.8,1.8C31.7,124.5,32.4,124.8,33.1,124.8z M44.4,107c0.5-0.5,0.8-1.2,0.8-1.8
			c0-0.7-0.3-1.4-0.8-1.8c-1-1-2.7-1-3.7,0c-0.5,0.5-0.8,1.2-0.8,1.8c0,0.7,0.3,1.4,0.8,1.8c0.5,0.5,1.2,0.8,1.8,0.8
			C43.2,107.8,43.9,107.5,44.4,107z M36.5,112.3c0.7,0,1.4-0.3,1.8-0.8c0.5-0.5,0.8-1.2,0.8-1.8c0-0.7-0.3-1.4-0.8-1.8
			c-1-1-2.7-1-3.7,0c-0.5,0.5-0.8,1.2-0.8,1.8c0,0.7,0.3,1.4,0.8,1.8C35.2,112,35.9,112.3,36.5,112.3z M43,115.3
			c0.7,0,1.4-0.3,1.8-0.8c0.5-0.5,0.8-1.2,0.8-1.8c0-0.7-0.3-1.4-0.8-1.8c-1-1-2.7-1-3.7,0c-0.5,0.5-0.8,1.2-0.8,1.8
			c0,0.7,0.3,1.4,0.8,1.8C41.7,115,42.4,115.3,43,115.3z M49,123.8c0.7,0,1.4-0.3,1.8-0.8c0.5-0.5,0.8-1.2,0.8-1.8s-0.3-1.3-0.8-1.8
			c-1-1-2.7-1-3.7,0c-0.5,0.5-0.8,1.2-0.8,1.8s0.3,1.4,0.8,1.8C47.7,123.5,48.4,123.8,49,123.8z M40.9,121c0.5-0.5,0.8-1.2,0.8-1.8
			s-0.3-1.4-0.8-1.8c-1-1-2.7-1-3.7,0c-0.5,0.5-0.8,1.2-0.8,1.8s0.3,1.4,0.8,1.8c0.5,0.5,1.2,0.8,1.8,0.8
			C39.7,121.8,40.4,121.5,40.9,121z M50.5,117.8c0.7,0,1.4-0.3,1.8-0.8c0.5-0.5,0.8-1.2,0.8-1.8c0-0.7-0.3-1.4-0.8-1.8
			c-1-1-2.7-1-3.7,0c-0.5,0.5-0.8,1.2-0.8,1.8c0,0.7,0.3,1.4,0.8,1.8C49.2,117.5,49.8,117.8,50.5,117.8z M51.9,108
			c0.5-0.5,0.8-1.2,0.8-1.8c0-0.7-0.3-1.4-0.8-1.8c-1-1-2.7-1-3.7,0c-0.5,0.5-0.8,1.2-0.8,1.8c0,0.7,0.3,1.4,0.8,1.8
			c0.5,0.5,1.2,0.8,1.8,0.8C50.7,108.8,51.4,108.5,51.9,108z M58.5,105.3c0.7,0,1.4-0.3,1.8-0.8c0.5-0.5,0.8-1.2,0.8-1.8
			c0-0.7-0.3-1.3-0.8-1.8c-1-1-2.7-1-3.7,0c-0.5,0.5-0.8,1.2-0.8,1.8c0,0.7,0.3,1.4,0.8,1.8C57.2,105,57.8,105.3,58.5,105.3z
			 M57,111.3c0.7,0,1.4-0.3,1.8-0.8c0.5-0.5,0.8-1.2,0.8-1.8c0-0.7-0.3-1.4-0.8-1.8c-1-1-2.7-1-3.7,0c-0.5,0.5-0.8,1.2-0.8,1.8
			c0,0.7,0.3,1.4,0.8,1.8C55.7,111,56.3,111.3,57,111.3z M61.4,114.3c-1-1-2.7-1-3.7,0c-0.5,0.5-0.8,1.2-0.8,1.8
			c0,0.7,0.3,1.4,0.8,1.8c0.5,0.5,1.2,0.8,1.8,0.8c0.7,0,1.4-0.3,1.8-0.8c0.5-0.5,0.8-1.2,0.8-1.8C62.1,115.5,61.8,114.8,61.4,114.3z
			 M65.2,109.4c-0.5,0.5-0.8,1.2-0.8,1.8c0,0.7,0.3,1.4,0.8,1.8c0.5,0.5,1.2,0.8,1.8,0.8s1.4-0.3,1.8-0.8c0.5-0.5,0.8-1.2,0.8-1.8
			c0-0.7-0.3-1.4-0.8-1.8C67.9,108.4,66.1,108.4,65.2,109.4z M66.5,124.8c0.7,0,1.4-0.3,1.8-0.8c0.5-0.5,0.8-1.2,0.8-1.8
			s-0.3-1.4-0.8-1.8c-1-1-2.7-1-3.7,0c-0.5,0.5-0.8,1.2-0.8,1.8s0.3,1.4,0.8,1.8C65.1,124.5,65.8,124.8,66.5,124.8z M67.5,106.8
			c0.7,0,1.4-0.3,1.8-0.8c0.5-0.5,0.8-1.2,0.8-1.8c0-0.7-0.3-1.4-0.8-1.8c-1-1-2.7-1-3.7,0c-0.5,0.5-0.8,1.2-0.8,1.8
			c0,0.7,0.3,1.4,0.8,1.8C66.2,106.5,66.8,106.8,67.5,106.8z M74.5,110.3c0.7,0,1.4-0.3,1.8-0.8c0.5-0.5,0.8-1.2,0.8-1.8
			c0-0.7-0.3-1.4-0.8-1.8c-1-1-2.7-1-3.7,0c-0.5,0.5-0.8,1.2-0.8,1.8c0,0.7,0.3,1.4,0.8,1.8C73.2,110,73.8,110.3,74.5,110.3z
			 M30.7,106.2c0-0.7-0.3-1.3-0.8-1.8c-1-1-2.7-1-3.7,0c-0.5,0.5-0.8,1.2-0.8,1.8c0,0.7,0.3,1.4,0.8,1.8c0.5,0.5,1.2,0.8,1.8,0.8
			c0.7,0,1.4-0.3,1.8-0.8C30.4,107.6,30.7,106.9,30.7,106.2z M74.3,117.5c0.5-0.5,0.8-1.2,0.8-1.8c0-0.7-0.3-1.4-0.8-1.8
			c-1-1-2.7-1-3.7,0c-0.5,0.5-0.8,1.2-0.8,1.8c0,0.7,0.3,1.4,0.8,1.8c0.5,0.5,1.2,0.8,1.8,0.8C73.2,118.3,73.9,118,74.3,117.5z
			 M7.4,124.8c-1-1-2.7-1-3.7,0C3.3,125.3,3,126,3,126.7s0.3,1.4,0.8,1.8c0.5,0.5,1.2,0.8,1.8,0.8c0.7,0,1.4-0.3,1.8-0.8
			c0.5-0.5,0.8-1.2,0.8-1.8S7.9,125.3,7.4,124.8z M1.8,132.8C1.3,133.3,1,134,1,134.7c0,0.7,0.3,1.4,0.8,1.8c0.5,0.5,1.2,0.8,1.8,0.8
			c0.7,0,1.4-0.3,1.8-0.8c0.5-0.5,0.8-1.2,0.8-1.8c0-0.7-0.3-1.4-0.8-1.8C4.5,131.9,2.7,131.9,1.8,132.8z M19.6,131.4
			c-0.5,0.5-0.8,1.2-0.8,1.8s0.3,1.4,0.8,1.8c0.5,0.5,1.2,0.8,1.8,0.8c0.7,0,1.4-0.3,1.8-0.8c0.5-0.5,0.8-1.2,0.8-1.8
			s-0.3-1.3-0.8-1.8C22.3,130.4,20.6,130.4,19.6,131.4z M19.1,128.8c0.7,0,1.4-0.3,1.8-0.8c0.5-0.5,0.8-1.2,0.8-1.8s-0.3-1.4-0.8-1.8
			c-1-1-2.7-1-3.7,0c-0.5,0.5-0.8,1.2-0.8,1.8s0.3,1.4,0.8,1.8C17.7,128.5,18.4,128.8,19.1,128.8z M29.4,131.5
			c0.5-0.5,0.8-1.2,0.8-1.8s-0.3-1.3-0.8-1.8c-1-1-2.7-1-3.7,0c-0.5,0.5-0.8,1.2-0.8,1.8s0.3,1.4,0.8,1.8c0.5,0.5,1.2,0.8,1.8,0.8
			C28.3,132.3,28.9,132,29.4,131.5z M35,131.3c0.7,0,1.4-0.3,1.8-0.8c0.5-0.5,0.8-1.2,0.8-1.8s-0.3-1.4-0.8-1.8c-1-1-2.7-1-3.7,0
			c-0.5,0.5-0.8,1.2-0.8,1.8s0.3,1.4,0.8,1.8C33.7,131,34.4,131.3,35,131.3z M43.5,129.8c0.7,0,1.4-0.3,1.8-0.8
			c0.5-0.5,0.8-1.2,0.8-1.8c0-0.7-0.3-1.3-0.8-1.8c-1-1-2.7-1-3.7,0c-0.5,0.5-0.8,1.2-0.8,1.8c0,0.7,0.3,1.4,0.8,1.8
			C42.2,129.5,42.9,129.8,43.5,129.8z M43.9,131.3c-1-1-2.7-1-3.7,0c-0.5,0.5-0.8,1.2-0.8,1.8s0.3,1.4,0.8,1.8
			c0.5,0.5,1.2,0.8,1.8,0.8c0.7,0,1.4-0.3,1.8-0.8c0.5-0.5,0.8-1.2,0.8-1.8S44.4,131.8,43.9,131.3z M53.9,137.5
			c0.5-0.5,0.8-1.2,0.8-1.8c0-0.7-0.3-1.4-0.8-1.8c-1-1-2.7-1-3.7,0c-0.5,0.5-0.8,1.2-0.8,1.8c0,0.7,0.3,1.4,0.8,1.8
			c0.5,0.5,1.2,0.8,1.8,0.8C52.7,138.3,53.4,138,53.9,137.5z M52.5,131.3c0.7,0,1.4-0.3,1.8-0.8c0.5-0.5,0.8-1.2,0.8-1.8
			s-0.3-1.4-0.8-1.8c-1-1-2.7-1-3.7,0c-0.5,0.5-0.8,1.2-0.8,1.8s0.3,1.4,0.8,1.8C51.2,131,51.8,131.3,52.5,131.3z M63.1,133.7
			c0-0.7-0.3-1.4-0.8-1.8c-1-1-2.7-1-3.7,0c-0.5,0.5-0.8,1.2-0.8,1.8s0.3,1.4,0.8,1.8c0.5,0.5,1.2,0.8,1.8,0.8c0.7,0,1.4-0.3,1.8-0.8
			C62.8,135,63.1,134.3,63.1,133.7z M65.2,128.8c-0.5,0.5-0.8,1.2-0.8,1.8s0.3,1.4,0.8,1.8c0.5,0.5,1.2,0.8,1.8,0.8s1.4-0.3,1.8-0.8
			c0.5-0.5,0.8-1.2,0.8-1.8s-0.3-1.4-0.8-1.8C67.9,127.9,66.1,127.8,65.2,128.8z M13.1,133.3c0.7,0,1.4-0.3,1.8-0.8
			c0.5-0.5,0.8-1.2,0.8-1.8s-0.3-1.4-0.8-1.8c-1-1-2.7-1-3.7,0c-0.5,0.5-0.8,1.2-0.8,1.8s0.3,1.4,0.8,1.8
			C11.7,133,12.4,133.3,13.1,133.3z M84.1,100.7c0-0.7-0.3-1.4-0.8-1.8c-1-1-2.7-1-3.7,0c-0.5,0.5-0.8,1.2-0.8,1.8
			c0,0.7,0.3,1.4,0.8,1.8c0.5,0.5,1.2,0.8,1.8,0.8c0.7,0,1.4-0.3,1.8-0.8C83.8,102.1,84.1,101.4,84.1,100.7z M90.1,105.2
			c0-0.7-0.3-1.4-0.8-1.8c-1-1-2.7-1-3.7,0c-0.5,0.5-0.8,1.2-0.8,1.8c0,0.7,0.3,1.4,0.8,1.8c0.5,0.5,1.2,0.8,1.8,0.8
			c0.7,0,1.4-0.3,1.8-0.8C89.8,106.6,90.1,105.9,90.1,105.2z M98.8,105c0.5-0.5,0.8-1.2,0.8-1.8c0-0.7-0.3-1.4-0.8-1.8
			c-1-1-2.7-1-3.7,0c-0.5,0.5-0.8,1.2-0.8,1.8c0,0.7,0.3,1.4,0.8,1.8c0.5,0.5,1.2,0.8,1.8,0.8C97.7,105.8,98.3,105.5,98.8,105z
			 M98.5,115.3c0.7,0,1.4-0.3,1.8-0.8c0.5-0.5,0.8-1.2,0.8-1.8c0-0.7-0.3-1.4-0.8-1.8c-1-1-2.7-1-3.7,0c-0.5,0.5-0.8,1.2-0.8,1.8
			c0,0.7,0.3,1.4,0.8,1.8C97.1,115,97.8,115.3,98.5,115.3z M90.6,116.3c-0.5,0.5-0.8,1.2-0.8,1.8s0.3,1.4,0.8,1.8
			c0.5,0.5,1.2,0.8,1.8,0.8c0.7,0,1.4-0.3,1.8-0.8c0.5-0.5,0.8-1.2,0.8-1.8s-0.3-1.4-0.8-1.8C93.4,115.4,91.6,115.4,90.6,116.3z
			 M84.1,119.8c-0.5,0.5-0.8,1.2-0.8,1.8s0.3,1.4,0.8,1.8c0.5,0.5,1.2,0.8,1.8,0.8c0.7,0,1.4-0.3,1.8-0.8c0.5-0.5,0.8-1.2,0.8-1.8
			s-0.3-1.4-0.8-1.8C86.9,118.9,85.1,118.9,84.1,119.8z M88.3,111.3c-1-1-2.7-1-3.7,0c-0.5,0.5-0.8,1.2-0.8,1.8c0,0.7,0.3,1.4,0.8,1.8
			c0.5,0.5,1.2,0.8,1.8,0.8c0.7,0,1.4-0.3,1.8-0.8c0.5-0.5,0.8-1.2,0.8-1.8C89.1,112.5,88.8,111.8,88.3,111.3z M80.1,126.3
			c-0.5,0.5-0.8,1.2-0.8,1.8c0,0.7,0.3,1.4,0.8,1.8c0.5,0.5,1.2,0.8,1.8,0.8c0.7,0,1.4-0.3,1.8-0.8c0.5-0.5,0.8-1.2,0.8-1.8
			c0-0.7-0.3-1.4-0.8-1.8C82.9,125.4,81.1,125.4,80.1,126.3z M89.6,125.8c-0.5,0.5-0.8,1.2-0.8,1.8c0,0.7,0.3,1.4,0.8,1.8
			c0.5,0.5,1.2,0.8,1.8,0.8c0.7,0,1.4-0.3,1.8-0.8c0.5-0.5,0.8-1.2,0.8-1.8c0-0.7-0.3-1.4-0.8-1.8C92.4,124.9,90.6,124.9,89.6,125.8z
			 M96.6,128.3c-0.5,0.5-0.8,1.2-0.8,1.8s0.3,1.4,0.8,1.8c0.5,0.5,1.2,0.8,1.8,0.8c0.7,0,1.4-0.3,1.8-0.8c0.5-0.5,0.8-1.2,0.8-1.8
			s-0.3-1.3-0.8-1.8C99.3,127.4,97.6,127.3,96.6,128.3z M97.1,119.3c-0.5,0.5-0.8,1.2-0.8,1.8s0.3,1.4,0.8,1.8
			c0.5,0.5,1.2,0.8,1.8,0.8c0.7,0,1.4-0.3,1.8-0.8c0.5-0.5,0.8-1.2,0.8-1.8s-0.3-1.4-0.8-1.8C99.8,118.4,98.1,118.4,97.1,119.3z
			 M2.5,118.2c0,0.7,0.3,1.4,0.8,1.8c0.5,0.5,1.2,0.8,1.8,0.8c0.7,0,1.4-0.3,1.8-0.8c0.5-0.5,0.8-1.2,0.8-1.8s-0.3-1.3-0.8-1.8
			c-1-1-2.7-1-3.7,0C2.8,116.8,2.5,117.5,2.5,118.2z M4.3,110.5c0.5,0.5,1.2,0.8,1.8,0.8c0.7,0,1.4-0.3,1.8-0.8
			c0.5-0.5,0.8-1.2,0.8-1.8c0-0.7-0.3-1.4-0.8-1.8c-1-1-2.7-1-3.7,0c-0.5,0.5-0.8,1.2-0.8,1.8C3.5,109.4,3.8,110.1,4.3,110.5z
			 M136.6,132.3c-0.5,0.5-0.8,1.2-0.8,1.8s0.3,1.4,0.8,1.8c0.5,0.5,1.2,0.8,1.8,0.8c0.7,0,1.4-0.3,1.8-0.8c0.5-0.5,0.8-1.2,0.8-1.8
			s-0.3-1.4-0.8-1.8C139.3,131.4,137.5,131.4,136.6,132.3z M133.8,133c0.5-0.5,0.8-1.2,0.8-1.8s-0.3-1.4-0.8-1.8c-1-1-2.7-1-3.7,0
			c-0.5,0.5-0.8,1.2-0.8,1.8s0.3,1.4,0.8,1.8c0.5,0.5,1.2,0.8,1.8,0.8C132.6,133.8,133.3,133.5,133.8,133z M141.3,129.2
			c0,0.7,0.3,1.4,0.8,1.8c0.5,0.5,1.2,0.8,1.8,0.8c0,0,0.1,0,0.1,0v-5.1c-0.7,0-1.4,0.2-1.9,0.7C141.6,127.8,141.3,128.5,141.3,129.2z
			 M136.9,116.8c0.7,0,1.4-0.3,1.8-0.8c0.5-0.5,0.8-1.2,0.8-1.8c0-0.7-0.3-1.4-0.8-1.8c-0.9-1-2.7-1-3.7,0c-0.5,0.5-0.8,1.2-0.8,1.8
			c0,0.7,0.3,1.4,0.8,1.8C135.6,116.5,136.2,116.8,136.9,116.8z M137.4,106.3c0.7,0,1.4-0.3,1.8-0.8c0.5-0.5,0.8-1.2,0.8-1.8
			c0-0.7-0.3-1.4-0.8-1.8c-1-1-2.7-1-3.7,0c-0.5,0.5-0.8,1.2-0.8,1.8c0,0.7,0.3,1.4,0.8,1.8C136.1,106,136.7,106.3,137.4,106.3z
			 M140.4,124.3c0.7,0,1.4-0.3,1.8-0.8c0.5-0.5,0.8-1.2,0.8-1.8s-0.3-1.4-0.8-1.8c-1-1-2.7-1-3.7,0c-0.5,0.5-0.8,1.2-0.8,1.8
			s0.3,1.4,0.8,1.8C139,124,139.7,124.3,140.4,124.3z M75.2,124.5c0.5,0.5,1.2,0.8,1.8,0.8c0.7,0,1.4-0.3,1.8-0.8
			c0.5-0.5,0.8-1.2,0.8-1.8s-0.3-1.4-0.8-1.8c-1-1-2.7-1-3.7,0c-0.5,0.5-0.8,1.2-0.8,1.8S74.7,124,75.2,124.5z M72.2,126.8
			c-0.5,0.5-0.8,1.2-0.8,1.8s0.3,1.4,0.8,1.8c0.5,0.5,1.2,0.8,1.8,0.8c0.7,0,1.4-0.3,1.8-0.8c0.5-0.5,0.8-1.2,0.8-1.8
			s-0.3-1.4-0.8-1.8C74.9,125.9,73.1,125.8,72.2,126.8z M105.5,128.8c0.7,0,1.4-0.3,1.8-0.8c0.5-0.5,0.8-1.2,0.8-1.8s-0.3-1.4-0.8-1.8
			c-1-1-2.7-1-3.7,0c-0.5,0.5-0.8,1.2-0.8,1.8s0.3,1.4,0.8,1.8C104.1,128.5,104.8,128.8,105.5,128.8z M115.3,127.5
			c0.5-0.5,0.8-1.2,0.8-1.8s-0.3-1.4-0.8-1.8c-1-1-2.7-1-3.7,0c-0.5,0.5-0.8,1.2-0.8,1.8s0.3,1.4,0.8,1.8c0.5,0.5,1.2,0.8,1.8,0.8
			S114.8,128,115.3,127.5z M106.3,119c0.5-0.5,0.8-1.2,0.8-1.8c0-0.7-0.3-1.3-0.8-1.8c-1-1-2.7-1-3.7,0c-0.5,0.5-0.8,1.2-0.8,1.8
			c0,0.7,0.3,1.4,0.8,1.8c0.5,0.5,1.2,0.8,1.8,0.8C105.2,119.8,105.8,119.5,106.3,119z M110.4,120.8c0.7,0,1.4-0.3,1.8-0.8
			c0.5-0.5,0.8-1.2,0.8-1.8s-0.3-1.4-0.8-1.8c-1-1-2.7-1-3.7,0c-0.5,0.5-0.8,1.2-0.8,1.8s0.3,1.4,0.8,1.8
			C109.1,120.5,109.8,120.8,110.4,120.8z M106,111.8c0.7,0,1.4-0.3,1.8-0.8c0.5-0.5,0.8-1.2,0.8-1.8c0-0.7-0.3-1.4-0.8-1.8
			c-1-1-2.7-1-3.7,0c-0.5,0.5-0.8,1.2-0.8,1.8c0,0.7,0.3,1.4,0.8,1.8C104.6,111.5,105.3,111.8,106,111.8z M115.8,114
			c0.5-0.5,0.8-1.2,0.8-1.8c0-0.7-0.3-1.4-0.8-1.8c-1-1-2.7-1-3.7,0c-0.5,0.5-0.8,1.2-0.8,1.8c0,0.7,0.3,1.4,0.8,1.8
			c0.5,0.5,1.2,0.8,1.8,0.8S115.3,114.5,115.8,114z M118.4,121.3c0.7,0,1.4-0.3,1.8-0.8c0.5-0.5,0.8-1.2,0.8-1.8s-0.3-1.4-0.8-1.8
			c-1-1-2.7-1-3.7,0c-0.5,0.5-0.8,1.2-0.8,1.8s0.3,1.4,0.8,1.8C117.1,121,117.8,121.3,118.4,121.3z M124.3,125
			c0.5-0.5,0.8-1.2,0.8-1.8s-0.3-1.4-0.8-1.8c-1-1-2.7-1-3.7,0c-0.5,0.5-0.8,1.2-0.8,1.8s0.3,1.4,0.8,1.8c0.5,0.5,1.2,0.8,1.8,0.8
			C123.1,125.8,123.8,125.5,124.3,125z M126,131.2c0-0.7-0.3-1.4-0.8-1.8c-1-1-2.7-1-3.7,0c-0.5,0.5-0.8,1.2-0.8,1.8s0.3,1.4,0.8,1.8
			c0.5,0.5,1.2,0.8,1.8,0.8c0.7,0,1.4-0.3,1.8-0.8C125.7,132.5,126,131.8,126,131.2z M127.4,118.8c0.7,0,1.4-0.3,1.8-0.8
			c0.5-0.5,0.8-1.2,0.8-1.8c0-0.7-0.3-1.4-0.8-1.8c-1-1-2.7-1-3.7,0c-0.5,0.5-0.8,1.2-0.8,1.8c0,0.7,0.3,1.4,0.8,1.8
			C126.1,118.5,126.7,118.8,127.4,118.8z M123.9,113.8c0.7,0,1.4-0.3,1.8-0.8c0.5-0.5,0.8-1.2,0.8-1.8c0-0.7-0.3-1.4-0.8-1.8
			c-1-1-2.7-1-3.7,0c-0.5,0.5-0.8,1.2-0.8,1.8c0,0.7,0.3,1.3,0.8,1.8C122.6,113.5,123.3,113.8,123.9,113.8z M115.4,107.8
			c0.7,0,1.4-0.3,1.8-0.8c0.5-0.5,0.8-1.2,0.8-1.8c0-0.7-0.3-1.4-0.8-1.8c-1-1-2.7-1-3.7,0c-0.5,0.5-0.8,1.2-0.8,1.8
			c0,0.7,0.3,1.4,0.8,1.8C114.1,107.5,114.8,107.8,115.4,107.8z M131.4,111.3c0.7,0,1.4-0.3,1.8-0.8c0.5-0.5,0.8-1.2,0.8-1.8
			c0-0.7-0.3-1.4-0.8-1.8c-1-1-2.7-1-3.7,0c-0.5,0.5-0.8,1.2-0.8,1.8c0,0.7,0.3,1.4,0.8,1.8C130.1,111,130.7,111.3,131.4,111.3z
			 M131.9,125.8c0.7,0,1.4-0.3,1.8-0.8c0.5-0.5,0.8-1.2,0.8-1.8s-0.3-1.4-0.8-1.8c-1-1-2.7-1-3.7,0c-0.5,0.5-0.8,1.2-0.8,1.8
			s0.3,1.4,0.8,1.8C130.6,125.5,131.2,125.8,131.9,125.8z M105.5,104.8c0.7,0,1.4-0.3,1.8-0.8c0.5-0.5,0.8-1.2,0.8-1.8
			c0-0.7-0.3-1.4-0.8-1.8c-1-1-2.7-1-3.7,0c-0.5,0.5-0.8,1.2-0.8,1.8c0,0.7,0.3,1.4,0.8,1.8C104.1,104.5,104.8,104.8,105.5,104.8z
			 M117.5,132.7c0-0.7-0.3-1.4-0.8-1.8c-1-1-2.7-1-3.7,0c-0.5,0.5-0.8,1.2-0.8,1.8s0.3,1.4,0.8,1.8c0.5,0.5,1.2,0.8,1.8,0.8
			c0.7,0,1.4-0.3,1.8-0.8C117.3,134,117.5,133.3,117.5,132.7z M125.1,134.8c-0.5,0.5-0.8,1.2-0.8,1.8c0,0.7,0.3,1.4,0.8,1.8
			c0.5,0.5,1.2,0.8,1.8,0.8c0.7,0,1.4-0.3,1.8-0.8c0.5-0.5,0.8-1.2,0.8-1.8c0-0.7-0.3-1.4-0.8-1.8C127.8,133.9,126,133.9,125.1,134.8z
			 M128.9,104.3c0.7,0,1.4-0.3,1.8-0.8c0.5-0.5,0.8-1.2,0.8-1.8c0-0.7-0.3-1.4-0.8-1.8c-1-1-2.7-1-3.7,0c-0.5,0.5-0.8,1.2-0.8,1.8
			c0,0.7,0.3,1.4,0.8,1.8C127.6,104,128.2,104.3,128.9,104.3z M15.7,46.9c-0.5,0.5-0.8,1.2-0.8,1.8c0,0.7,0.3,1.4,0.8,1.8
			c0.5,0.5,1.2,0.8,1.8,0.8c0.7,0,1.4-0.3,1.8-0.8c0.5-0.5,0.8-1.2,0.8-1.8c0-0.7-0.3-1.4-0.8-1.8C18.5,46,16.7,46,15.7,46.9z
			 M10.1,124.3c0.7,0,1.4-0.3,1.8-0.8c0.5-0.5,0.8-1.2,0.8-1.8s-0.3-1.3-0.8-1.8c-1-1-2.7-1-3.7,0c-0.5,0.5-0.8,1.2-0.8,1.8
			s0.3,1.4,0.8,1.8C8.7,124,9.4,124.3,10.1,124.3z M57.2,121.8c-0.5,0.5-0.8,1.2-0.8,1.8s0.3,1.4,0.8,1.8c0.5,0.5,1.2,0.8,1.8,0.8
			c0.7,0,1.4-0.3,1.8-0.8c0.5-0.5,0.8-1.2,0.8-1.8s-0.3-1.4-0.8-1.8C59.9,120.9,58.1,120.9,57.2,121.8z M82.1,112.7
			c0-0.7-0.3-1.4-0.8-1.8c-1-1-2.7-1-3.7,0c-0.5,0.5-0.8,1.2-0.8,1.8c0,0.7,0.3,1.4,0.8,1.8c0.5,0.5,1.2,0.8,1.8,0.8
			c0.7,0,1.4-0.3,1.8-0.8C81.8,114,82.1,113.4,82.1,112.7z M93,112.3c0.7,0,1.4-0.3,1.8-0.8c0.5-0.5,0.8-1.2,0.8-1.8
			c0-0.7-0.3-1.4-0.8-1.8c-1-1-2.7-1-3.7,0c-0.5,0.5-0.8,1.2-0.8,1.8c0,0.7,0.3,1.4,0.8,1.8C91.6,112,92.3,112.3,93,112.3z
			 M78.7,139.8c-0.5,0.5-0.8,1.2-0.8,1.8c0,0.7,0.3,1.4,0.8,1.8c0.2,0.2,0.5,0.4,0.8,0.5h2.1c0.3-0.1,0.5-0.3,0.8-0.5
			c0.5-0.5,0.8-1.2,0.8-1.8c0-0.7-0.3-1.4-0.8-1.8C81.4,138.9,79.6,138.9,78.7,139.8z M20.7,144h2.6C22.5,143.6,21.5,143.6,20.7,144z
			 M39.2,141.8c-0.5,0.5-0.8,1.2-0.8,1.8c0,0.1,0,0.2,0,0.4h5.1c0-0.1,0-0.2,0-0.4c0-0.7-0.3-1.4-0.8-1.8
			C41.9,140.8,40.2,140.8,39.2,141.8z M30.7,143.3c-0.2,0.2-0.4,0.4-0.5,0.7h4.6c-0.1-0.3-0.3-0.5-0.5-0.7
			C33.4,142.3,31.7,142.3,30.7,143.3z M52.2,143.3c-0.2,0.2-0.4,0.4-0.5,0.7h4.6c-0.1-0.3-0.3-0.5-0.5-0.7
			C54.9,142.3,53.2,142.3,52.2,143.3z M12.2,142.3c-0.4,0.4-0.7,1.1-0.7,1.7h5.2c0-0.6-0.3-1.2-0.7-1.7
			C15,141.3,13.2,141.3,12.2,142.3z M106.6,141.3c-0.5,0.5-0.8,1.2-0.8,1.8c0,0.3,0.1,0.6,0.2,0.9h4.9c0.1-0.3,0.2-0.6,0.2-0.9
			c0-0.7-0.3-1.4-0.8-1.8C109.3,140.3,107.6,140.3,106.6,141.3z M141.6,15c-0.5,0.5-0.8,1.2-0.8,1.8c0,0.7,0.3,1.4,0.8,1.8
			c0.5,0.5,1.2,0.8,1.8,0.8c0.2,0,0.4,0,0.6-0.1v-5C143.1,14.1,142.2,14.3,141.6,15z M141.3,23.3c0,0.7,0.3,1.4,0.8,1.8
			c0.5,0.5,1.2,0.8,1.8,0.8c0,0,0.1,0,0.1,0v-5.1c-0.7,0-1.4,0.2-1.9,0.7C141.6,21.9,141.3,22.6,141.3,23.3z M141.8,37.8
			c0,0.7,0.3,1.4,0.8,1.8c0.4,0.4,0.9,0.6,1.4,0.7v-5.1c-0.5,0.1-1,0.3-1.4,0.7C142.1,36.4,141.8,37.1,141.8,37.8z M141.1,42.4
			c-0.5,0.5-0.8,1.2-0.8,1.8c0,0.7,0.3,1.4,0.8,1.8c0.5,0.5,1.2,0.8,1.8,0.8c0.4,0,0.8-0.1,1.1-0.3V42C143,41.5,141.8,41.7,141.1,42.4
			z M141.3,140.2c0,0.7,0.3,1.4,0.8,1.8c0.5,0.5,1.2,0.8,1.8,0.8c0,0,0.1,0,0.1,0v-5.1c-0.7,0-1.4,0.2-1.9,0.7
			C141.6,138.8,141.3,139.5,141.3,140.2z M142.3,89.2c0,0.7,0.3,1.4,0.8,1.8c0.3,0.3,0.6,0.5,0.9,0.6v-4.8c-0.3,0.1-0.7,0.3-0.9,0.6
			C142.6,87.9,142.3,88.5,142.3,89.2z M141.1,108.9c-0.5,0.5-0.8,1.2-0.8,1.8c0,0.7,0.3,1.4,0.8,1.8c0.5,0.5,1.2,0.8,1.8,0.8
			c0.4,0,0.8-0.1,1.1-0.3v-4.7C143,107.9,141.8,108.1,141.1,108.9z M142.3,102.7c0,0.7,0.3,1.4,0.8,1.8c0.3,0.3,0.6,0.5,0.9,0.6v-4.8
			c-0.3,0.1-0.7,0.3-0.9,0.6C142.6,101.3,142.3,102,142.3,102.7z M89.1,137.8c-0.5,0.5-0.8,1.2-0.8,1.8c0,0.7,0.3,1.4,0.8,1.8
			c0.5,0.5,1.2,0.8,1.8,0.8c0.7,0,1.4-0.3,1.8-0.8c0.5-0.5,0.8-1.2,0.8-1.8c0-0.7-0.3-1.3-0.8-1.8C91.8,136.9,90.1,136.9,89.1,137.8z
			 M81.3,136.5c0.5-0.5,0.8-1.2,0.8-1.8c0-0.7-0.3-1.4-0.8-1.8c-1-1-2.7-1-3.7,0c-0.5,0.5-0.8,1.2-0.8,1.8c0,0.7,0.3,1.4,0.8,1.8
			c0.5,0.5,1.2,0.8,1.8,0.8C80.2,137.3,80.8,137,81.3,136.5z M0,32.3L0,32.3C0,32.3,0,32.3,0,32.3C0,32.3,0,32.3,0,32.3z M0,74.2
			L0,74.2C0,74.3,0,74.2,0,74.2C0,74.2,0,74.2,0,74.2z M2.5,129.2c0-0.7-0.3-1.4-0.8-1.8c-0.5-0.5-1.1-0.7-1.7-0.7v5.1
			c0.6,0,1.3-0.3,1.7-0.7C2.2,130.5,2.5,129.8,2.5,129.2z M2,16.8c0-0.7-0.3-1.4-0.8-1.8c-0.3-0.3-0.8-0.6-1.2-0.7v5
			c0.5-0.1,0.9-0.3,1.2-0.7C1.7,18.2,2,17.5,2,16.8z M2.5,23.3c0-0.7-0.3-1.4-0.8-1.8C1.3,21,0.6,20.8,0,20.8v5.1
			c0.6,0,1.3-0.3,1.7-0.7C2.2,24.7,2.5,24,2.5,23.3z M2.2,39.6C2.7,39.1,3,38.5,3,37.8c0-0.7-0.3-1.4-0.8-1.8
			c-0.6-0.6-1.4-0.8-2.2-0.7v5.1c0.1,0,0.3,0,0.4,0C1.1,40.4,1.8,40.1,2.2,39.6z M1.5,44.3c0-0.7-0.3-1.4-0.8-1.8
			C0.5,42.2,0.3,42.1,0,42v4.7c0.3-0.1,0.5-0.3,0.7-0.5C1.2,45.6,1.5,45,1.5,44.3z M0,137.6v5.1c0.6,0,1.3-0.3,1.7-0.7
			c0.5-0.5,0.8-1.2,0.8-1.8c0-0.7-0.3-1.4-0.8-1.8C1.3,137.8,0.6,137.6,0,137.6z M2.7,91.1c0.5-0.5,0.8-1.2,0.8-1.8
			c0-0.7-0.3-1.4-0.8-1.8C2,86.7,0.9,86.5,0,86.8v4.8c0.3,0.1,0.6,0.2,0.9,0.2C1.6,91.8,2.3,91.5,2.7,91.1z M1.5,110.7
			c0-0.7-0.3-1.4-0.8-1.8c-0.2-0.2-0.5-0.4-0.7-0.5v4.7c0.3-0.1,0.5-0.3,0.7-0.5C1.2,112,1.5,111.4,1.5,110.7z M2.7,104.5
			c0.5-0.5,0.8-1.2,0.8-1.8c0-0.7-0.3-1.4-0.8-1.8C2,100.2,0.9,100,0,100.3v4.8c0.3,0.1,0.6,0.2,0.9,0.2C1.6,105.3,2.3,105,2.7,104.5z
			 M81.6,0h-2.1c0.3,0.2,0.7,0.2,1.1,0.2S81.2,0.2,81.6,0z M22,4.8c0.7,0,1.4-0.3,1.8-0.8c0.5-0.5,0.8-1.2,0.8-1.8s-0.3-1.4-0.8-1.8
			c-0.2-0.2-0.3-0.3-0.5-0.4h-2.6c-0.2,0.1-0.4,0.2-0.5,0.4c-0.5,0.5-0.8,1.2-0.8,1.8s0.3,1.4,0.8,1.8C20.6,4.5,21.3,4.8,22,4.8z
			 M41,2.2c0.7,0,1.4-0.3,1.8-0.8c0.4-0.4,0.6-0.9,0.7-1.5h-5.1c0.1,0.6,0.3,1.1,0.7,1.5C39.7,2,40.4,2.2,41,2.2z M32.6,3.7
			c0.7,0,1.4-0.3,1.8-0.8c0.5-0.5,0.8-1.2,0.8-1.8c0-0.4-0.1-0.8-0.3-1.1h-4.6C30.1,0.4,30,0.7,30,1.1c0,0.7,0.3,1.4,0.8,1.8
			C31.2,3.5,31.9,3.7,32.6,3.7z M54,3.7c0.7,0,1.4-0.3,1.8-0.8c0.5-0.5,0.8-1.2,0.8-1.8c0-0.4-0.1-0.8-0.3-1.1h-4.6
			c-0.2,0.4-0.3,0.7-0.3,1.1c0,0.7,0.3,1.4,0.8,1.8C52.7,3.5,53.3,3.7,54,3.7z M14.1,2.7c0.7,0,1.4-0.3,1.8-0.8
			c0.5-0.5,0.8-1.2,0.8-1.8c0,0,0-0.1,0-0.1h-5.2c0,0,0,0.1,0,0.1c0,0.7,0.3,1.4,0.8,1.8C12.7,2.5,13.4,2.7,14.1,2.7z M108.5,1.7
			c0.7,0,1.4-0.3,1.8-0.8c0.3-0.3,0.5-0.6,0.6-1H106c0.1,0.4,0.3,0.7,0.6,1C107.1,1.5,107.8,1.7,108.5,1.7z"/>
		</pattern>
	</defs>
</svg>
