<svg version="1.1" id="Layer_1" xmlns="http://www.w3.org/2000/svg" xmlns:xlink="http://www.w3.org/1999/xlink" x="0px" y="0px"
	 viewBox="0 0 486 712" style="enable-background:new 0 0 486 712;" xml:space="preserve">
	<g fill="url(#noise-pattern)">
		<polygon points="274.4,178.5 291.1,89.7 379.9,89.7 	"/>
		<polygon points="363.1,178.5 379.9,89.7 468.6,89.7 	"/>
		<polygon points="96.8,178.5 113.6,89.7 202.4,89.7 	"/>
		<polygon points="185.6,178.5 202.4,89.7 291.1,89.7 	"/>
		<polygon points="242.1,356 258.8,267.2 347.6,267.2 	"/>
		<polygon points="330.9,356 347.6,267.2 436.4,267.2 	"/>
		<polygon points="64.6,356 81.3,267.2 170.1,267.2 	"/>
		<polygon points="153.3,356 170.1,267.2 258.8,267.2 	"/>
		<polygon points="209.8,533.5 226.6,444.8 315.3,444.8 	"/>
		<polygon points="298.6,533.5 315.3,444.8 404.1,444.8 	"/>
		<polygon points="32.3,533.5 49,444.8 137.8,444.8 	"/>
		<polygon points="121,533.5 137.8,444.8 226.6,444.8 	"/>
		<polygon points="177.5,711 194.3,622.3 283,622.3 	"/>
		<polygon points="266.3,711 283,622.3 371.8,622.3 	"/>
		<polygon points="0,711 16.8,622.3 105.5,622.3 	"/>
		<polygon points="88.8,711 105.5,622.3 194.3,622.3 	"/>
	</g>
</svg>
