<svg version="1.1" xmlns="http://www.w3.org/2000/svg" xmlns:xlink="http://www.w3.org/1999/xlink" x="0px" y="0px"
	 viewBox="0 0 486 712" enable-background="new 0 0 486 712" xml:space="preserve">
		<polygon fill="#EDEAEA" points="308.2,0.9 291.4,89.7 202.7,89.7 		"/>
		<polygon fill="#EDEAEA" points="218.2,0.9 201.4,89.7 112.7,89.7 		"/>
		<polygon fill="#EDEAEA" points="396.9,0.9 380.2,89.7 291.4,89.7 		"/>
		<polygon fill="#EDEAEA" points="485.7,0.9 468.9,89.7 380.2,89.7 		"/>
		<polygon fill="#EDEAEA" points="275.9,178.5 259.1,267.2 170.4,267.2 		"/>
		<polygon fill="#EDEAEA" points="185.9,178.5 169.2,267.2 80.4,267.2 		"/>
		<polygon fill="#EDEAEA" points="364.7,178.5 347.9,267.2 259.1,267.2 		"/>
		<polygon fill="#EDEAEA" points="453.4,178.5 436.7,267.2 347.9,267.2 		"/>
		<polygon fill="#EDEAEA" points="242.4,356 225.6,444.8 136.9,444.8 		"/>
		<polygon fill="#EDEAEA" points="153.6,356 136.9,444.8 48.1,444.8 		"/>
		<polygon fill="#EDEAEA" points="332.4,356 315.6,444.8 226.9,444.8 		"/>
		<polygon fill="#EDEAEA" points="421.1,356 404.4,444.8 315.6,444.8 		"/>
		<polygon fill="#EDEAEA" points="210.1,533.5 193.4,622.3 104.6,622.3 		"/>
		<polygon fill="#EDEAEA" points="121.3,533.5 104.6,622.3 15.8,622.3 		"/>
		<polygon fill="#EDEAEA" points="300.1,533.5 283.3,622.3 194.6,622.3 		"/>
		<polygon fill="#EDEAEA" points="388.9,533.5 372.1,622.3 283.3,622.3 		"/>
</svg>
