<?xml version="1.0" encoding="utf-8"?>
<!-- Generator: Adobe Illustrator 18.1.1, SVG Export Plug-In . SVG Version: 6.00 Build 0)  -->
<svg version="1.1" id="Layer_1" xmlns="http://www.w3.org/2000/svg" xmlns:xlink="http://www.w3.org/1999/xlink" x="0px" y="0px"
	 viewBox="0 0 402.4 402.4" enable-background="new 0 0 402.4 402.4" xml:space="preserve">
<pattern  x="128.7" y="128.6" width="144" height="144" patternUnits="userSpaceOnUse" id="USGS_20_Scrub" viewBox="5.2 -148.9 144 144" overflow="visible">
	<g>
		<polygon fill="none" points="5.2,-148.9 149.2,-148.9 149.2,-4.9 5.2,-4.9 		"/>
		<g>
			<path fill="#A179AF" d="M103.2-0.5c-0.7,0-1.3-0.3-1.8-0.8c-0.5-0.5-0.8-1.2-0.8-1.8s0.3-1.4,0.8-1.8c1-1,2.7-1,3.7,0
				c0.5,0.5,0.8,1.2,0.8,1.8s-0.3,1.4-0.8,1.8C104.5-0.8,103.8-0.5,103.2-0.5z"/>
			<path fill="#A179AF" d="M133.6,0c-0.7,0-1.3-0.3-1.8-0.8c-0.5-0.5-0.8-1.2-0.8-1.8s0.3-1.4,0.8-1.8c1-1,2.7-1,3.7,0
				c0.5,0.5,0.8,1.2,0.8,1.8s-0.3,1.4-0.8,1.8C135-0.3,134.3,0,133.6,0z"/>
		</g>
		<g>
			<path fill="#A179AF" d="M151.8-136c-0.7,0-1.4-0.3-1.8-0.8c-0.5-0.5-0.8-1.2-0.8-1.8c0-0.7,0.3-1.3,0.8-1.8c1-1,2.7-1,3.7,0
				c0.5,0.5,0.8,1.2,0.8,1.8c0,0.7-0.3,1.4-0.8,1.8C153.1-136.3,152.5-136,151.8-136z"/>
			<path fill="#A179AF" d="M151.3-78.1c-0.7,0-1.3-0.3-1.8-0.8c-0.5-0.5-0.8-1.2-0.8-1.8s0.3-1.4,0.8-1.8c1-1,2.7-1,3.7,0
				c0.5,0.5,0.8,1.2,0.8,1.8s-0.3,1.4-0.8,1.8C152.6-78.4,152-78.1,151.3-78.1z"/>
			<path fill="#A179AF" d="M151.3-95.1c-0.7,0-1.3-0.3-1.8-0.8c-0.5-0.5-0.8-1.2-0.8-1.8s0.3-1.3,0.8-1.8c1-1,2.7-1,3.7,0
				c0.5,0.5,0.8,1.2,0.8,1.8s-0.3,1.4-0.8,1.8C152.6-95.3,152-95.1,151.3-95.1z"/>
		</g>
		<g>
			<path fill="#A179AF" d="M50.2-136c-0.7,0-1.3-0.3-1.8-0.8c-0.5-0.5-0.8-1.2-0.8-1.8c0-0.7,0.3-1.4,0.8-1.8c1-1,2.7-1,3.7,0
				c0.5,0.5,0.8,1.2,0.8,1.8c0,0.7-0.3,1.3-0.8,1.8C51.6-136.3,50.9-136,50.2-136z"/>
			<path fill="#A179AF" d="M32.7-132c-0.7,0-1.4-0.3-1.8-0.8c-0.5-0.5-0.8-1.2-0.8-1.8c0-0.7,0.3-1.4,0.8-1.8c1-1,2.7-1,3.7,0
				c0.5,0.5,0.8,1.2,0.8,1.8c0,0.7-0.3,1.4-0.8,1.8C34.1-132.3,33.4-132,32.7-132z"/>
			<path fill="#A179AF" d="M33.2-140.5c-0.7,0-1.3-0.3-1.8-0.8c-0.5-0.5-0.8-1.2-0.8-1.8c0-0.7,0.3-1.4,0.8-1.8c1-1,2.7-1,3.7,0
				c0.5,0.5,0.8,1.2,0.8,1.8c0,0.7-0.3,1.4-0.8,1.8C34.6-140.8,33.9-140.5,33.2-140.5z"/>
			<path fill="#A179AF" d="M39.2-132.5c-0.7,0-1.4-0.3-1.8-0.8c-0.5-0.5-0.8-1.2-0.8-1.8s0.3-1.4,0.8-1.8c1-1,2.7-1,3.7,0
				c0.5,0.5,0.8,1.2,0.8,1.8s-0.3,1.4-0.8,1.8C40.6-132.8,39.9-132.5,39.2-132.5z"/>
			<path fill="#A179AF" d="M43.7-139.5c-0.7,0-1.3-0.3-1.8-0.8c-0.5-0.5-0.8-1.2-0.8-1.8c0-0.7,0.3-1.4,0.8-1.8c1-1,2.7-1,3.7,0
				c0.5,0.5,0.8,1.2,0.8,1.8c0,0.7-0.3,1.4-0.8,1.8C45.1-139.8,44.4-139.5,43.7-139.5z"/>
			<path fill="#A179AF" d="M61.7-137.5c-0.7,0-1.3-0.3-1.8-0.8c-0.5-0.5-0.8-1.2-0.8-1.8c0-0.7,0.3-1.4,0.8-1.8c1-1,2.7-1,3.7,0
				c0.5,0.5,0.8,1.2,0.8,1.8c0,0.7-0.3,1.4-0.8,1.8C63.1-137.8,62.4-137.5,61.7-137.5z"/>
			<path fill="#A179AF" d="M53.7-141c-0.7,0-1.3-0.3-1.8-0.8c-0.5-0.5-0.8-1.2-0.8-1.8c0-0.7,0.3-1.4,0.8-1.8c1-1,2.7-1,3.7,0
				c0.5,0.5,0.8,1.2,0.8,1.8c0,0.7-0.3,1.4-0.8,1.8C55.1-141.3,54.4-141,53.7-141z"/>
			<path fill="#A179AF" d="M67.2-143c-0.7,0-1.3-0.3-1.8-0.8c-0.5-0.5-0.8-1.2-0.8-1.8c0-0.7,0.3-1.4,0.8-1.8c1-1,2.7-1,3.7,0
				c0.5,0.5,0.8,1.2,0.8,1.8c0,0.7-0.3,1.4-0.8,1.8C68.6-143.3,67.9-143,67.2-143z"/>
			<path fill="#A179AF" d="M61.7-137.5c-0.7,0-1.3-0.3-1.8-0.8c-0.5-0.5-0.8-1.2-0.8-1.8c0-0.7,0.3-1.4,0.8-1.8c1-1,2.7-1,3.7,0
				c0.5,0.5,0.8,1.2,0.8,1.8c0,0.7-0.3,1.4-0.8,1.8C63.1-137.8,62.4-137.5,61.7-137.5z"/>
			<path fill="#A179AF" d="M60.2-132c-0.7,0-1.4-0.3-1.8-0.8c-0.5-0.5-0.8-1.2-0.8-1.8c0-0.7,0.3-1.4,0.8-1.8c1-1,2.7-1,3.7,0
				c0.5,0.5,0.8,1.2,0.8,1.8c0,0.7-0.3,1.4-0.8,1.8C61.6-132.3,60.9-132,60.2-132z"/>
			<path fill="#A179AF" d="M56.2-126c-0.7,0-1.3-0.3-1.8-0.8c-0.5-0.5-0.8-1.2-0.8-1.8c0-0.7,0.3-1.3,0.8-1.8c1-1,2.7-1,3.7,0
				c0.5,0.5,0.8,1.2,0.8,1.8c0,0.7-0.3,1.3-0.8,1.8C57.6-126.3,56.9-126,56.2-126z"/>
			<path fill="#A179AF" d="M48.2-129.5c-0.7,0-1.3-0.3-1.8-0.8c-0.5-0.5-0.8-1.2-0.8-1.8c0-0.7,0.3-1.4,0.8-1.8c1-1,2.7-1,3.7,0
				c0.5,0.5,0.8,1.2,0.8,1.8c0,0.7-0.3,1.4-0.8,1.8C49.6-129.8,48.9-129.5,48.2-129.5z"/>
			<path fill="#A179AF" d="M47.7-122.5c-0.7,0-1.3-0.3-1.8-0.8c-0.5-0.5-0.8-1.2-0.8-1.8s0.3-1.4,0.8-1.8c1-1,2.7-1,3.7,0
				c0.5,0.5,0.8,1.2,0.8,1.8s-0.3,1.4-0.8,1.8C49.1-122.8,48.4-122.5,47.7-122.5z"/>
			<path fill="#A179AF" d="M37.7-124.5c-0.7,0-1.3-0.3-1.8-0.8c-0.5-0.5-0.8-1.2-0.8-1.8c0-0.7,0.3-1.4,0.8-1.8c1-1,2.7-1,3.7,0
				c0.5,0.5,0.8,1.2,0.8,1.8c0,0.7-0.3,1.4-0.8,1.8C39.1-124.8,38.4-124.5,37.7-124.5z"/>
			<path fill="#A179AF" d="M44.2-118c-0.7,0-1.3-0.3-1.8-0.8c-0.5-0.5-0.8-1.2-0.8-1.8s0.3-1.4,0.8-1.8c1-1,2.7-1,3.7,0
				c0.5,0.5,0.8,1.2,0.8,1.8s-0.3,1.4-0.8,1.8C45.6-118.3,44.9-118,44.2-118z"/>
			<path fill="#A179AF" d="M48.7-111.6c-0.7,0-1.3-0.3-1.8-0.8c-0.5-0.5-0.8-1.2-0.8-1.8c0-0.7,0.3-1.4,0.8-1.8c1-1,2.7-1,3.7,0
				c0.5,0.5,0.8,1.2,0.8,1.8c0,0.7-0.3,1.4-0.8,1.8C50.1-111.9,49.4-111.6,48.7-111.6z"/>
			<path fill="#A179AF" d="M54.7-109c-0.7,0-1.4-0.3-1.8-0.8c-0.5-0.5-0.8-1.2-0.8-1.8c0-0.7,0.3-1.3,0.8-1.8c1-1,2.7-1,3.7,0
				c0.5,0.5,0.8,1.2,0.8,1.8c0,0.7-0.3,1.4-0.8,1.8C56.1-109.3,55.4-109,54.7-109z"/>
			<path fill="#A179AF" d="M60.7-112.5c-0.7,0-1.4-0.3-1.8-0.8c-0.5-0.5-0.8-1.2-0.8-1.8s0.3-1.4,0.8-1.8c1-1,2.7-1,3.7,0
				c0.5,0.5,0.8,1.2,0.8,1.8s-0.3,1.4-0.8,1.8C62.1-112.8,61.4-112.5,60.7-112.5z"/>
			<path fill="#A179AF" d="M59.7-119c-0.7,0-1.4-0.3-1.8-0.8c-0.5-0.5-0.8-1.2-0.8-1.8c0-0.7,0.3-1.4,0.8-1.8c1-1,2.7-1,3.7,0
				c0.5,0.5,0.8,1.2,0.8,1.8c0,0.7-0.3,1.4-0.8,1.8C61.1-119.3,60.4-119,59.7-119z"/>
			<path fill="#A179AF" d="M63.7-123.5c-0.7,0-1.4-0.3-1.8-0.8c-0.5-0.5-0.8-1.2-0.8-1.8s0.3-1.4,0.8-1.8c1-1,2.7-1,3.7,0
				c0.5,0.5,0.8,1.2,0.8,1.8s-0.3,1.3-0.8,1.8C65.1-123.8,64.4-123.5,63.7-123.5z"/>
			<path fill="#A179AF" d="M72.2-123.5c-0.7,0-1.4-0.3-1.8-0.8c-0.5-0.5-0.8-1.2-0.8-1.8s0.3-1.4,0.8-1.8c1-1,2.7-1,3.7,0
				c0.5,0.5,0.8,1.2,0.8,1.8s-0.3,1.4-0.8,1.8C73.6-123.8,72.9-123.5,72.2-123.5z"/>
			<path fill="#A179AF" d="M68.7-114c-0.7,0-1.3-0.3-1.8-0.8c-0.5-0.5-0.8-1.2-0.8-1.8c0-0.7,0.3-1.4,0.8-1.8c1-1,2.7-1,3.7,0
				c0.5,0.5,0.8,1.2,0.8,1.8c0,0.7-0.3,1.4-0.8,1.8C70.1-114.3,69.4-114,68.7-114z"/>
			<path fill="#A179AF" d="M73.2-107c-0.7,0-1.4-0.3-1.8-0.8c-0.5-0.5-0.8-1.2-0.8-1.8s0.3-1.4,0.8-1.8c1-1,2.7-1,3.7,0
				c0.5,0.5,0.8,1.2,0.8,1.8s-0.3,1.4-0.8,1.8C74.6-107.3,73.9-107,73.2-107z"/>
			<path fill="#A179AF" d="M66.2-106.6c-0.7,0-1.4-0.3-1.8-0.8c-0.5-0.5-0.8-1.2-0.8-1.8s0.3-1.4,0.8-1.8c1-1,2.7-1,3.7,0
				c0.5,0.5,0.8,1.2,0.8,1.8s-0.3,1.4-0.8,1.8C67.6-106.8,66.9-106.6,66.2-106.6z"/>
			<path fill="#A179AF" d="M59.2-105.1c-0.7,0-1.3-0.3-1.8-0.8c-0.5-0.5-0.8-1.2-0.8-1.8s0.3-1.3,0.8-1.8c1-1,2.7-1,3.7,0
				c0.5,0.5,0.8,1.2,0.8,1.8s-0.3,1.4-0.8,1.8C60.6-105.3,59.9-105.1,59.2-105.1z"/>
			<path fill="#A179AF" d="M78.2-116c-0.7,0-1.4-0.3-1.8-0.8c-0.5-0.5-0.8-1.2-0.8-1.8s0.3-1.4,0.8-1.8c1-1,2.7-1,3.7,0
				c0.5,0.5,0.8,1.2,0.8,1.8s-0.3,1.3-0.8,1.8C79.5-116.3,78.9-116,78.2-116z"/>
			<path fill="#A179AF" d="M67.7-130.5c-0.7,0-1.4-0.3-1.8-0.8c-0.5-0.5-0.8-1.2-0.8-1.8c0-0.7,0.3-1.4,0.8-1.8c1-1,2.7-1,3.7,0
				c0.5,0.5,0.8,1.2,0.8,1.8c0,0.7-0.3,1.4-0.8,1.8C69.1-130.8,68.4-130.5,67.7-130.5z"/>
			<path fill="#A179AF" d="M71.7-136.5c-0.7,0-1.4-0.3-1.8-0.8c-0.5-0.5-0.8-1.2-0.8-1.8c0-0.7,0.3-1.4,0.8-1.8c1-1,2.7-1,3.7,0
				c0.5,0.5,0.8,1.2,0.8,1.8c0,0.7-0.3,1.4-0.8,1.8C73.1-136.8,72.4-136.5,71.7-136.5z"/>
			<path fill="#A179AF" d="M77.2-143.5c-0.7,0-1.4-0.3-1.8-0.8c-0.5-0.5-0.8-1.2-0.8-1.8c0-0.7,0.3-1.4,0.8-1.8c1-1,2.7-1,3.7,0
				c0.5,0.5,0.8,1.2,0.8,1.8c0,0.7-0.3,1.3-0.8,1.8C78.5-143.8,77.9-143.5,77.2-143.5z"/>
			<path fill="#A179AF" d="M78.7-137c-0.7,0-1.4-0.3-1.8-0.8c-0.5-0.5-0.8-1.2-0.8-1.8c0-0.7,0.3-1.4,0.8-1.8c1-1,2.7-1,3.7,0
				c0.5,0.5,0.8,1.2,0.8,1.8c0,0.7-0.3,1.3-0.8,1.8C80-137.3,79.4-137,78.7-137z"/>
			<path fill="#A179AF" d="M78.2-131c-0.7,0-1.3-0.3-1.8-0.8c-0.5-0.5-0.8-1.2-0.8-1.8c0-0.7,0.3-1.4,0.8-1.8c1-1,2.7-1,3.7,0
				c0.5,0.5,0.8,1.2,0.8,1.8c0,0.7-0.3,1.3-0.8,1.8C79.5-131.3,78.9-131,78.2-131z"/>
			<path fill="#A179AF" d="M78.7-123.5c-0.7,0-1.4-0.3-1.8-0.8c-0.5-0.5-0.8-1.2-0.8-1.8s0.3-1.4,0.8-1.8c1-1,2.7-1,3.7,0
				c0.5,0.5,0.8,1.2,0.8,1.8s-0.3,1.3-0.8,1.8C80-123.8,79.4-123.5,78.7-123.5z"/>
			<path fill="#A179AF" d="M85.7-140c-0.7,0-1.3-0.3-1.8-0.8c-0.5-0.5-0.8-1.2-0.8-1.8c0-0.7,0.3-1.4,0.8-1.8c1-1,2.7-1,3.7,0
				c0.5,0.5,0.8,1.2,0.8,1.8c0,0.7-0.3,1.4-0.8,1.8C87-140.3,86.4-140,85.7-140z"/>
			<path fill="#A179AF" d="M87.2-132.5c-0.7,0-1.3-0.3-1.8-0.8c-0.5-0.5-0.8-1.2-0.8-1.8s0.3-1.4,0.8-1.8c1-1,2.7-1,3.7,0
				c0.5,0.5,0.8,1.2,0.8,1.8s-0.3,1.4-0.8,1.8C88.5-132.8,87.9-132.5,87.2-132.5z"/>
			<path fill="#A179AF" d="M86.2-124.5c-0.7,0-1.3-0.3-1.8-0.8c-0.5-0.5-0.8-1.2-0.8-1.8c0-0.7,0.3-1.4,0.8-1.8c1-1,2.7-1,3.7,0
				c0.5,0.5,0.8,1.2,0.8,1.8c0,0.7-0.3,1.3-0.8,1.8C87.5-124.8,86.9-124.5,86.2-124.5z"/>
			<path fill="#A179AF" d="M86.7-115.5c-0.7,0-1.3-0.3-1.8-0.8c-0.5-0.5-0.8-1.2-0.8-1.8s0.3-1.4,0.8-1.8c1-1,2.7-1,3.7,0
				c0.5,0.5,0.8,1.2,0.8,1.8s-0.3,1.4-0.8,1.8C88-115.8,87.4-115.5,86.7-115.5z"/>
			<path fill="#A179AF" d="M89.7-108.5c-0.7,0-1.3-0.3-1.8-0.8c-0.5-0.5-0.8-1.2-0.8-1.8c0-0.7,0.3-1.4,0.8-1.8c1-1,2.7-1,3.7,0
				c0.5,0.5,0.8,1.2,0.8,1.8c0,0.7-0.3,1.4-0.8,1.8C91-108.8,90.4-108.5,89.7-108.5z"/>
			<path fill="#A179AF" d="M80.2-109c-0.7,0-1.3-0.3-1.8-0.8c-0.5-0.5-0.8-1.2-0.8-1.8c0-0.7,0.3-1.4,0.8-1.8c1-1,2.7-1,3.7,0
				c0.5,0.5,0.8,1.2,0.8,1.8c0,0.7-0.3,1.4-0.8,1.8C81.5-109.3,80.9-109,80.2-109z"/>
			<path fill="#A179AF" d="M82.7-100.1c-0.7,0-1.3-0.3-1.8-0.8c-0.5-0.5-0.8-1.2-0.8-1.8s0.3-1.4,0.8-1.8c1-1,2.7-1,3.7,0
				c0.5,0.5,0.8,1.2,0.8,1.8s-0.3,1.4-0.8,1.8C84-100.3,83.4-100.1,82.7-100.1z"/>
			<path fill="#A179AF" d="M74.2-100.6c-0.7,0-1.3-0.3-1.8-0.8c-0.5-0.5-0.8-1.2-0.8-1.8s0.3-1.4,0.8-1.8c1-1,2.7-1,3.7,0
				c0.5,0.5,0.8,1.2,0.8,1.8s-0.3,1.4-0.8,1.8C75.6-100.8,74.9-100.6,74.2-100.6z"/>
			<path fill="#A179AF" d="M97.7-105.6c-0.7,0-1.4-0.3-1.8-0.8c-0.5-0.5-0.8-1.2-0.8-1.8s0.3-1.4,0.8-1.8c1-1,2.7-1,3.7,0
				c0.5,0.5,0.8,1.2,0.8,1.8s-0.3,1.4-0.8,1.8C99-105.8,98.4-105.6,97.7-105.6z"/>
			<path fill="#A179AF" d="M95.7-112.5c-0.7,0-1.3-0.3-1.8-0.8c-0.5-0.5-0.8-1.2-0.8-1.8s0.3-1.4,0.8-1.8c1-1,2.7-1,3.7,0
				c0.5,0.5,0.8,1.2,0.8,1.8s-0.3,1.4-0.8,1.8C97-112.8,96.3-112.5,95.7-112.5z"/>
			<path fill="#A179AF" d="M93.7-119.5c-0.7,0-1.4-0.3-1.8-0.8c-0.5-0.5-0.8-1.2-0.8-1.8c0-0.7,0.3-1.4,0.8-1.8c1-1,2.7-1,3.7,0
				c0.5,0.5,0.8,1.2,0.8,1.8c0,0.7-0.3,1.4-0.8,1.8C95-119.8,94.4-119.5,93.7-119.5z"/>
			<path fill="#A179AF" d="M94.2-127.5c-0.7,0-1.4-0.3-1.8-0.8c-0.5-0.5-0.8-1.2-0.8-1.8c0-0.7,0.3-1.4,0.8-1.8c1-1,2.7-1,3.7,0
				c0.5,0.5,0.8,1.2,0.8,1.8c0,0.7-0.3,1.4-0.8,1.8C95.5-127.8,94.8-127.5,94.2-127.5z"/>
			<path fill="#A179AF" d="M93.7-136c-0.7,0-1.3-0.3-1.8-0.8c-0.5-0.5-0.8-1.2-0.8-1.8c0-0.7,0.3-1.4,0.8-1.8c1-1,2.7-1,3.7,0
				c0.5,0.5,0.8,1.2,0.8,1.8c0,0.7-0.3,1.4-0.8,1.8C95-136.3,94.3-136,93.7-136z"/>
			<path fill="#A179AF" d="M93.2-142.5c-0.7,0-1.4-0.3-1.8-0.8c-0.5-0.5-0.8-1.2-0.8-1.8c0-0.7,0.3-1.4,0.8-1.8c1-1,2.7-1,3.7,0
				c0.5,0.5,0.8,1.2,0.8,1.8c0,0.7-0.3,1.4-0.8,1.8C94.5-142.8,93.9-142.5,93.2-142.5z"/>
			<path fill="#A179AF" d="M103.2-144.5c-0.7,0-1.3-0.3-1.8-0.8c-0.5-0.5-0.8-1.2-0.8-1.8s0.3-1.4,0.8-1.8c1-1,2.7-1,3.7,0
				c0.5,0.5,0.8,1.2,0.8,1.8s-0.3,1.4-0.8,1.8C104.5-144.8,103.8-144.5,103.2-144.5z"/>
			<path fill="#A179AF" d="M101.7-136c-0.7,0-1.4-0.3-1.8-0.8c-0.5-0.5-0.8-1.2-0.8-1.8c0-0.7,0.3-1.4,0.8-1.8c1-1,2.7-1,3.7,0
				c0.5,0.5,0.8,1.2,0.8,1.8c0,0.7-0.3,1.4-0.8,1.8C103-136.3,102.3-136,101.7-136z"/>
			<path fill="#A179AF" d="M108.6-136c-0.7,0-1.3-0.3-1.8-0.8c-0.5-0.5-0.8-1.2-0.8-1.8c0-0.7,0.3-1.3,0.8-1.8c1-1,2.7-1,3.7,0
				c0.5,0.5,0.8,1.2,0.8,1.8c0,0.7-0.3,1.4-0.8,1.8C110-136.3,109.3-136,108.6-136z"/>
			<path fill="#A179AF" d="M108.1-129c-0.7,0-1.3-0.3-1.8-0.8c-0.5-0.5-0.8-1.2-0.8-1.8c0-0.7,0.3-1.3,0.8-1.8c1-1,2.7-1,3.7,0
				c0.5,0.5,0.8,1.2,0.8,1.8c0,0.7-0.3,1.4-0.8,1.8C109.5-129.3,108.8-129,108.1-129z"/>
			<path fill="#A179AF" d="M100.7-129.5c-0.7,0-1.3-0.3-1.8-0.8c-0.5-0.5-0.8-1.2-0.8-1.8c0-0.7,0.3-1.4,0.8-1.8c1-1,2.7-1,3.7,0
				c0.5,0.5,0.8,1.2,0.8,1.8c0,0.7-0.3,1.4-0.8,1.8C102-129.8,101.3-129.5,100.7-129.5z"/>
			<path fill="#A179AF" d="M101.2-120.5c-0.7,0-1.3-0.3-1.8-0.8c-0.5-0.5-0.8-1.2-0.8-1.8c0-0.7,0.3-1.4,0.8-1.8c1-1,2.7-1,3.7,0
				c0.5,0.5,0.8,1.2,0.8,1.8c0,0.7-0.3,1.4-0.8,1.8C102.5-120.8,101.8-120.5,101.2-120.5z"/>
			<path fill="#A179AF" d="M108.1-120.5c-0.7,0-1.3-0.3-1.8-0.8c-0.5-0.5-0.8-1.2-0.8-1.8c0-0.7,0.3-1.4,0.8-1.8c1-1,2.7-1,3.7,0
				c0.5,0.5,0.8,1.2,0.8,1.8c0,0.7-0.3,1.4-0.8,1.8C109.5-120.8,108.8-120.5,108.1-120.5z"/>
			<path fill="#A179AF" d="M102.7-113.5c-0.7,0-1.3-0.3-1.8-0.8c-0.5-0.5-0.8-1.2-0.8-1.8c0-0.7,0.3-1.4,0.8-1.8c1-1,2.7-1,3.7,0
				c0.5,0.5,0.8,1.2,0.8,1.8c0,0.7-0.3,1.4-0.8,1.8C104-113.8,103.3-113.5,102.7-113.5z"/>
			<path fill="#A179AF" d="M105.7-105.1c-0.7,0-1.3-0.3-1.8-0.8c-0.5-0.5-0.8-1.2-0.8-1.8s0.3-1.3,0.8-1.8c1-1,2.7-1,3.7,0
				c0.5,0.5,0.8,1.2,0.8,1.8s-0.3,1.4-0.8,1.8C107-105.3,106.3-105.1,105.7-105.1z"/>
			<path fill="#A179AF" d="M109.1-98.6c-0.7,0-1.3-0.3-1.8-0.8c-0.5-0.5-0.8-1.2-0.8-1.8s0.3-1.4,0.8-1.8c1-1,2.7-1,3.7,0
				c0.5,0.5,0.8,1.2,0.8,1.8s-0.3,1.4-0.8,1.8C110.5-98.8,109.8-98.6,109.1-98.6z"/>
			<path fill="#A179AF" d="M114.1-104.1c-0.7,0-1.4-0.3-1.8-0.8c-0.5-0.5-0.8-1.2-0.8-1.8s0.3-1.4,0.8-1.8c1-1,2.7-1,3.7,0
				c0.5,0.5,0.8,1.2,0.8,1.8s-0.3,1.4-0.8,1.8C115.5-104.3,114.8-104.1,114.1-104.1z"/>
			<path fill="#A179AF" d="M111.1-111c-0.7,0-1.3-0.3-1.8-0.8c-0.5-0.5-0.8-1.2-0.8-1.8s0.3-1.4,0.8-1.8c1-1,2.7-1,3.7,0
				c0.5,0.5,0.8,1.2,0.8,1.8s-0.3,1.4-0.8,1.8C112.5-111.3,111.8-111,111.1-111z"/>
			<path fill="#A179AF" d="M115.6-117c-0.7,0-1.3-0.3-1.8-0.8c-0.5-0.5-0.8-1.2-0.8-1.8s0.3-1.4,0.8-1.8c1-1,2.7-1,3.7,0
				c0.5,0.5,0.8,1.2,0.8,1.8s-0.3,1.4-0.8,1.8C117-117.3,116.3-117,115.6-117z"/>
			<path fill="#A179AF" d="M116.1-125.5c-0.7,0-1.4-0.3-1.8-0.8c-0.5-0.5-0.8-1.2-0.8-1.8c0-0.7,0.3-1.4,0.8-1.8c1-1,2.7-1,3.7,0
				c0.5,0.5,0.8,1.2,0.8,1.8c0,0.7-0.3,1.4-0.8,1.8C117.5-125.8,116.8-125.5,116.1-125.5z"/>
			<path fill="#A179AF" d="M116.6-135.5c-0.7,0-1.4-0.3-1.8-0.8c-0.5-0.5-0.8-1.2-0.8-1.8c0-0.7,0.3-1.4,0.8-1.8c1-1,2.7-1,3.7,0
				c0.5,0.5,0.8,1.2,0.8,1.8c0,0.7-0.3,1.4-0.8,1.8C118-135.8,117.3-135.5,116.6-135.5z"/>
			<path fill="#A179AF" d="M123.1-133.5c-0.7,0-1.3-0.3-1.8-0.8c-0.5-0.5-0.8-1.2-0.8-1.8s0.3-1.3,0.8-1.8c1-1,2.7-1,3.7,0
				c0.5,0.5,0.8,1.2,0.8,1.8s-0.3,1.4-0.8,1.8C124.5-133.8,123.8-133.5,123.1-133.5z"/>
			<path fill="#A179AF" d="M119.6-142.5c-0.7,0-1.4-0.3-1.8-0.8c-0.5-0.5-0.8-1.2-0.8-1.8c0-0.7,0.3-1.4,0.8-1.8c1-1,2.7-1,3.7,0
				c0.5,0.5,0.8,1.2,0.8,1.8c0,0.7-0.3,1.4-0.8,1.8C121-142.8,120.3-142.5,119.6-142.5z"/>
			<path fill="#A179AF" d="M127.1-140.5c-0.7,0-1.3-0.3-1.8-0.8c-0.5-0.5-0.8-1.2-0.8-1.8c0-0.7,0.3-1.4,0.8-1.8c1-1,2.7-1,3.7,0
				c0.5,0.5,0.8,1.2,0.8,1.8c0,0.7-0.3,1.4-0.8,1.8C128.5-140.8,127.8-140.5,127.1-140.5z"/>
			<path fill="#A179AF" d="M133.6-144c-0.7,0-1.3-0.3-1.8-0.8c-0.5-0.5-0.8-1.2-0.8-1.8s0.3-1.4,0.8-1.8c1-1,2.7-1,3.7,0
				c0.5,0.5,0.8,1.2,0.8,1.8s-0.3,1.4-0.8,1.8C135-144.3,134.3-144,133.6-144z"/>
			<path fill="#A179AF" d="M137.6-140c-0.7,0-1.4-0.3-1.8-0.8c-0.5-0.5-0.8-1.2-0.8-1.8c0-0.7,0.3-1.4,0.8-1.8c1-1,2.7-1,3.7,0
				c0.5,0.5,0.8,1.2,0.8,1.8c0,0.7-0.3,1.4-0.8,1.8C139-140.3,138.3-140,137.6-140z"/>
			<path fill="#A179AF" d="M130.6-134c-0.7,0-1.3-0.3-1.8-0.8c-0.5-0.5-0.8-1.2-0.8-1.8s0.3-1.4,0.8-1.8c1-1,2.7-1,3.7,0
				c0.5,0.5,0.8,1.2,0.8,1.8s-0.3,1.4-0.8,1.8C132-134.3,131.3-134,130.6-134z"/>
			<path fill="#A179AF" d="M129.1-126.5c-0.7,0-1.3-0.3-1.8-0.8c-0.5-0.5-0.8-1.2-0.8-1.8c0-0.7,0.3-1.3,0.8-1.8c1-1,2.7-1,3.7,0
				c0.5,0.5,0.8,1.2,0.8,1.8c0,0.7-0.3,1.4-0.8,1.8C130.5-126.8,129.8-126.5,129.1-126.5z"/>
			<path fill="#A179AF" d="M123.6-122c-0.7,0-1.3-0.3-1.8-0.8c-0.5-0.5-0.8-1.2-0.8-1.8s0.3-1.4,0.8-1.8c1-1,2.7-1,3.7,0
				c0.5,0.5,0.8,1.2,0.8,1.8s-0.3,1.4-0.8,1.8C125-122.3,124.3-122,123.6-122z"/>
			<path fill="#A179AF" d="M128.6-116.5c-0.7,0-1.3-0.3-1.8-0.8c-0.5-0.5-0.8-1.2-0.8-1.8s0.3-1.4,0.8-1.8c1-1,2.7-1,3.7,0
				c0.5,0.5,0.8,1.2,0.8,1.8s-0.3,1.4-0.8,1.8C130-116.8,129.3-116.5,128.6-116.5z"/>
			<path fill="#A179AF" d="M136.1-114.5c-0.7,0-1.3-0.3-1.8-0.8c-0.5-0.5-0.8-1.2-0.8-1.8c0-0.7,0.3-1.4,0.8-1.8c1-1,2.7-1,3.7,0
				c0.5,0.5,0.8,1.2,0.8,1.8c0,0.7-0.3,1.4-0.8,1.8C137.5-114.8,136.8-114.5,136.1-114.5z"/>
			<path fill="#A179AF" d="M132.1-110c-0.7,0-1.3-0.3-1.8-0.8c-0.5-0.5-0.8-1.2-0.8-1.8s0.3-1.4,0.8-1.8c1-1,2.7-1,3.7,0
				c0.5,0.5,0.8,1.2,0.8,1.8s-0.3,1.4-0.8,1.8C133.5-110.3,132.8-110,132.1-110z"/>
			<path fill="#A179AF" d="M125.1-109c-0.7,0-1.3-0.3-1.8-0.8c-0.5-0.5-0.8-1.2-0.8-1.8c0-0.7,0.3-1.4,0.8-1.8c1-1,2.7-1,3.7,0
				c0.5,0.5,0.8,1.2,0.8,1.8c0,0.7-0.3,1.4-0.8,1.8C126.5-109.3,125.8-109,125.1-109z"/>
			<path fill="#A179AF" d="M119.6-110c-0.7,0-1.3-0.3-1.8-0.8c-0.5-0.5-0.8-1.2-0.8-1.8s0.3-1.4,0.8-1.8c1-1,2.7-1,3.7,0
				c0.5,0.5,0.8,1.2,0.8,1.8s-0.3,1.4-0.8,1.8C121-110.3,120.3-110,119.6-110z"/>
			<path fill="#A179AF" d="M123.1-101.6c-0.7,0-1.4-0.3-1.8-0.8c-0.5-0.5-0.8-1.2-0.8-1.8s0.3-1.3,0.8-1.8c1-1,2.7-1,3.7,0
				c0.5,0.5,0.8,1.2,0.8,1.8s-0.3,1.4-0.8,1.8C124.5-101.8,123.8-101.6,123.1-101.6z"/>
			<path fill="#A179AF" d="M132.1-104.1c-0.7,0-1.3-0.3-1.8-0.8c-0.5-0.5-0.8-1.2-0.8-1.8s0.3-1.4,0.8-1.8c1-1,2.7-1,3.7,0
				c0.5,0.5,0.8,1.2,0.8,1.8s-0.3,1.4-0.8,1.8C133.5-104.3,132.8-104.1,132.1-104.1z"/>
			<path fill="#A179AF" d="M140.6-102.1c-0.7,0-1.4-0.3-1.8-0.8c-0.5-0.5-0.8-1.2-0.8-1.8c0-0.7,0.3-1.3,0.8-1.8c1-1,2.7-1,3.7,0
				c0.5,0.5,0.8,1.2,0.8,1.8c0,0.7-0.3,1.4-0.8,1.8C142-102.3,141.3-102.1,140.6-102.1z"/>
			<path fill="#A179AF" d="M140.6-109c-0.7,0-1.4-0.3-1.8-0.8c-0.5-0.5-0.8-1.2-0.8-1.8c0-0.7,0.3-1.4,0.8-1.8c1-1,2.7-1,3.7,0
				c0.5,0.5,0.8,1.2,0.8,1.8c0,0.7-0.3,1.4-0.8,1.8C142-109.3,141.3-109,140.6-109z"/>
			<path fill="#A179AF" d="M134.6-122.5c-0.7,0-1.3-0.3-1.8-0.8c-0.5-0.5-0.8-1.2-0.8-1.8s0.3-1.4,0.8-1.8c1-1,2.7-1,3.7,0
				c0.5,0.5,0.8,1.2,0.8,1.8s-0.3,1.4-0.8,1.8C136-122.8,135.3-122.5,134.6-122.5z"/>
			<path fill="#A179AF" d="M136.1-130c-0.7,0-1.3-0.3-1.8-0.8c-0.5-0.5-0.8-1.2-0.8-1.8c0-0.7,0.3-1.4,0.8-1.8c1-1,2.7-1,3.7,0
				c0.5,0.5,0.8,1.2,0.8,1.8c0,0.7-0.3,1.4-0.8,1.8C137.5-130.3,136.8-130,136.1-130z"/>
			<path fill="#A179AF" d="M143.1-134c-0.7,0-1.3-0.3-1.8-0.8c-0.5-0.5-0.8-1.2-0.8-1.8s0.3-1.3,0.8-1.8c1-1,2.7-1,3.7,0
				c0.5,0.5,0.8,1.2,0.8,1.8s-0.3,1.4-0.8,1.8C144.5-134.3,143.8-134,143.1-134z"/>
			<path fill="#A179AF" d="M145.1-143.5c-0.7,0-1.3-0.3-1.8-0.8c-0.5-0.5-0.8-1.2-0.8-1.8c0-0.7,0.3-1.4,0.8-1.8c1-1,2.7-1,3.7,0
				c0.5,0.5,0.8,1.2,0.8,1.8c0,0.7-0.3,1.4-0.8,1.8C146.5-143.8,145.8-143.5,145.1-143.5z"/>
			<path fill="#A179AF" d="M143.1-121c-0.7,0-1.4-0.3-1.8-0.8c-0.5-0.5-0.8-1.2-0.8-1.8s0.3-1.4,0.8-1.8c1-1,2.7-1,3.7,0
				c0.5,0.5,0.8,1.2,0.8,1.8s-0.3,1.4-0.8,1.8C144.5-121.3,143.8-121,143.1-121z"/>
			<path fill="#A179AF" d="M146.6-114c-0.7,0-1.3-0.3-1.8-0.8c-0.5-0.5-0.8-1.2-0.8-1.8c0-0.7,0.3-1.4,0.8-1.8c1-1,2.7-1,3.7,0
				c0.5,0.5,0.8,1.2,0.8,1.8c0,0.7-0.3,1.4-0.8,1.8C148-114.3,147.3-114,146.6-114z"/>
			<path fill="#A179AF" d="M116.6-135.5c-0.7,0-1.4-0.3-1.8-0.8c-0.5-0.5-0.8-1.2-0.8-1.8c0-0.7,0.3-1.4,0.8-1.8c1-1,2.7-1,3.7,0
				c0.5,0.5,0.8,1.2,0.8,1.8c0,0.7-0.3,1.4-0.8,1.8C118-135.8,117.3-135.5,116.6-135.5z"/>
			<path fill="#A179AF" d="M119.6-142.5c-0.7,0-1.4-0.3-1.8-0.8c-0.5-0.5-0.8-1.2-0.8-1.8c0-0.7,0.3-1.4,0.8-1.8c1-1,2.7-1,3.7,0
				c0.5,0.5,0.8,1.2,0.8,1.8c0,0.7-0.3,1.4-0.8,1.8C121-142.8,120.3-142.5,119.6-142.5z"/>
			<path fill="#A179AF" d="M111.6-141c-0.7,0-1.4-0.3-1.8-0.8c-0.5-0.5-0.8-1.2-0.8-1.8c0-0.7,0.3-1.4,0.8-1.8c1-1,2.7-1,3.7,0
				c0.5,0.5,0.8,1.2,0.8,1.8c0,0.7-0.3,1.4-0.8,1.8C113-141.3,112.3-141,111.6-141z"/>
			<path fill="#A179AF" d="M51.7-102.1c-0.7,0-1.3-0.3-1.8-0.8c-0.5-0.5-0.8-1.2-0.8-1.8c0-0.7,0.3-1.4,0.8-1.8c1-1,2.7-1,3.7,0
				c0.5,0.5,0.8,1.2,0.8,1.8c0,0.7-0.3,1.4-0.8,1.8C53.1-102.3,52.4-102.1,51.7-102.1z"/>
			<path fill="#A179AF" d="M43.7-107.5c-0.7,0-1.3-0.3-1.8-0.8c-0.5-0.5-0.8-1.2-0.8-1.8c0-0.7,0.3-1.3,0.8-1.8c1-1,2.7-1,3.7,0
				c0.5,0.5,0.8,1.2,0.8,1.8c0,0.7-0.3,1.4-0.8,1.8C45.1-107.8,44.4-107.5,43.7-107.5z"/>
			<path fill="#A179AF" d="M35.7-105.6c-0.7,0-1.4-0.3-1.8-0.8c-0.5-0.5-0.8-1.2-0.8-1.8s0.3-1.3,0.8-1.8c1-1,2.7-1,3.7,0
				c0.5,0.5,0.8,1.2,0.8,1.8s-0.3,1.4-0.8,1.8C37.1-105.8,36.4-105.6,35.7-105.6z"/>
			<path fill="#A179AF" d="M37.7-113.5c-0.7,0-1.3-0.3-1.8-0.8c-0.5-0.5-0.8-1.2-0.8-1.8c0-0.7,0.3-1.4,0.8-1.8c1-1,2.7-1,3.7,0
				c0.5,0.5,0.8,1.2,0.8,1.8c0,0.7-0.3,1.4-0.8,1.8C39.1-113.8,38.4-113.5,37.7-113.5z"/>
			<path fill="#A179AF" d="M33.2-119.5c-0.7,0-1.3-0.3-1.8-0.8c-0.5-0.5-0.8-1.2-0.8-1.8c0-0.7,0.3-1.3,0.8-1.8c1-1,2.7-1,3.7,0
				c0.5,0.5,0.8,1.2,0.8,1.8c0,0.7-0.3,1.3-0.8,1.8C34.6-119.8,33.9-119.5,33.2-119.5z"/>
			<path fill="#A179AF" d="M28.8-125c-0.7,0-1.3-0.3-1.8-0.8c-0.5-0.5-0.8-1.2-0.8-1.8c0-0.7,0.3-1.3,0.8-1.8c1-1,2.7-1,3.7,0
				c0.5,0.5,0.8,1.2,0.8,1.8c0,0.7-0.3,1.4-0.8,1.8C30.1-125.3,29.4-125,28.8-125z"/>
			<path fill="#A179AF" d="M28.8-112.5c-0.7,0-1.4-0.3-1.8-0.8c-0.5-0.5-0.8-1.2-0.8-1.8s0.3-1.4,0.8-1.8c1-1,2.7-1,3.7,0
				c0.5,0.5,0.8,1.2,0.8,1.8s-0.3,1.4-0.8,1.8C30.1-112.8,29.5-112.5,28.8-112.5z"/>
			<path fill="#A179AF" d="M35.7-105.6c-0.7,0-1.4-0.3-1.8-0.8c-0.5-0.5-0.8-1.2-0.8-1.8s0.3-1.3,0.8-1.8c1-1,2.7-1,3.7,0
				c0.5,0.5,0.8,1.2,0.8,1.8s-0.3,1.4-0.8,1.8C37.1-105.8,36.4-105.6,35.7-105.6z"/>
			<path fill="#A179AF" d="M40.7-101.1c-0.7,0-1.3-0.3-1.8-0.8c-0.5-0.5-0.8-1.2-0.8-1.8s0.3-1.4,0.8-1.8c1-1,2.7-1,3.7,0
				c0.5,0.5,0.8,1.2,0.8,1.8s-0.3,1.3-0.8,1.8C42.1-101.3,41.4-101.1,40.7-101.1z"/>
			<path fill="#A179AF" d="M31.8-98.1c-0.7,0-1.4-0.3-1.8-0.8c-0.5-0.5-0.8-1.2-0.8-1.8c0-0.7,0.3-1.4,0.8-1.8c1-1,2.7-1,3.7,0
				c0.5,0.5,0.8,1.2,0.8,1.8c0,0.7-0.3,1.4-0.8,1.8C33.1-98.3,32.4-98.1,31.8-98.1z"/>
			<path fill="#A179AF" d="M26.8-104.1c-0.7,0-1.3-0.3-1.8-0.8c-0.5-0.5-0.8-1.2-0.8-1.8s0.3-1.3,0.8-1.8c1-1,2.7-1,3.7,0
				c0.5,0.5,0.8,1.2,0.8,1.8s-0.3,1.4-0.8,1.8C28.1-104.3,27.4-104.1,26.8-104.1z"/>
			<path fill="#A179AF" d="M51.7-117c-0.7,0-1.4-0.3-1.8-0.8c-0.5-0.5-0.8-1.2-0.8-1.8s0.3-1.4,0.8-1.8c1-1,2.7-1,3.7,0
				c0.5,0.5,0.8,1.2,0.8,1.8s-0.3,1.4-0.8,1.8C53.1-117.3,52.4-117,51.7-117z"/>
			<path fill="#A179AF" d="M7.8-136c-0.7,0-1.4-0.3-1.8-0.8c-0.5-0.5-0.8-1.2-0.8-1.8c0-0.7,0.3-1.3,0.8-1.8c1-1,2.7-1,3.7,0
				c0.5,0.5,0.8,1.2,0.8,1.8c0,0.7-0.3,1.4-0.8,1.8C9.1-136.3,8.5-136,7.8-136z"/>
			<path fill="#A179AF" d="M10.3-117c-0.7,0-1.4-0.3-1.8-0.8c-0.5-0.5-0.8-1.2-0.8-1.8s0.3-1.4,0.8-1.8c1-1,2.7-1,3.7,0
				c0.5,0.5,0.8,1.2,0.8,1.8s-0.3,1.4-0.8,1.8C11.6-117.3,11-117,10.3-117z"/>
			<path fill="#A179AF" d="M14.3-110.5c-0.7,0-1.4-0.3-1.8-0.8c-0.5-0.5-0.8-1.2-0.8-1.8s0.3-1.4,0.8-1.8c1-1,2.7-1,3.7,0
				c0.5,0.5,0.8,1.2,0.8,1.8s-0.3,1.4-0.8,1.8C15.6-110.8,15-110.5,14.3-110.5z"/>
			<path fill="#A179AF" d="M11.3-124c-0.7,0-1.3-0.3-1.8-0.8c-0.5-0.5-0.8-1.2-0.8-1.8s0.3-1.4,0.8-1.8c1-1,2.7-1,3.7,0
				c0.5,0.5,0.8,1.2,0.8,1.8s-0.3,1.4-0.8,1.8C12.6-124.3,12-124,11.3-124z"/>
			<path fill="#A179AF" d="M21.8-138.5c-0.7,0-1.3-0.3-1.8-0.8c-0.5-0.5-0.8-1.2-0.8-1.8c0-0.7,0.3-1.4,0.8-1.8c1-1,2.7-1,3.7,0
				c0.5,0.5,0.8,1.2,0.8,1.8c0,0.7-0.3,1.4-0.8,1.8C23.1-138.8,22.4-138.5,21.8-138.5z"/>
			<path fill="#A179AF" d="M15.3-137.5c-0.7,0-1.3-0.3-1.8-0.8c-0.5-0.5-0.8-1.2-0.8-1.8c0-0.7,0.3-1.4,0.8-1.8c1-1,2.7-1,3.7,0
				c0.5,0.5,0.8,1.2,0.8,1.8c0,0.7-0.3,1.3-0.8,1.8C16.6-137.8,16-137.5,15.3-137.5z"/>
			<path fill="#A179AF" d="M15.8-131c-0.7,0-1.3-0.3-1.8-0.8c-0.5-0.5-0.8-1.2-0.8-1.8c0-0.7,0.3-1.4,0.8-1.8c1-1,2.7-1,3.7,0
				c0.5,0.5,0.8,1.2,0.8,1.8c0,0.7-0.3,1.4-0.8,1.8C17.1-131.3,16.5-131,15.8-131z"/>
			<path fill="#A179AF" d="M25.3-132.5c-0.7,0-1.3-0.3-1.8-0.8c-0.5-0.5-0.8-1.2-0.8-1.8s0.3-1.3,0.8-1.8c1-1,2.7-1,3.7,0
				c0.5,0.5,0.8,1.2,0.8,1.8s-0.3,1.4-0.8,1.8C26.6-132.8,25.9-132.5,25.3-132.5z"/>
			<path fill="#A179AF" d="M11.3-143c-0.7,0-1.4-0.3-1.8-0.8c-0.5-0.5-0.8-1.2-0.8-1.8c0-0.7,0.3-1.4,0.8-1.8c1-1,2.7-1,3.7,0
				c0.5,0.5,0.8,1.2,0.8,1.8c0,0.7-0.3,1.4-0.8,1.8C12.6-143.3,12-143,11.3-143z"/>
			<path fill="#A179AF" d="M17.8-121.5c-0.7,0-1.3-0.3-1.8-0.8c-0.5-0.5-0.8-1.2-0.8-1.8s0.3-1.4,0.8-1.8c1-1,2.7-1,3.7,0
				c0.5,0.5,0.8,1.2,0.8,1.8s-0.3,1.3-0.8,1.8C19.1-121.8,18.4-121.5,17.8-121.5z"/>
			<path fill="#A179AF" d="M23.3-126c-0.7,0-1.3-0.3-1.8-0.8c-0.5-0.5-0.8-1.2-0.8-1.8c0-0.7,0.3-1.4,0.8-1.8c1-1,2.7-1,3.7,0
				c0.5,0.5,0.8,1.2,0.8,1.8c0,0.7-0.3,1.4-0.8,1.8C24.6-126.3,23.9-126,23.3-126z"/>
			<path fill="#A179AF" d="M23.3-118c-0.7,0-1.3-0.3-1.8-0.8c-0.5-0.5-0.8-1.2-0.8-1.8s0.3-1.4,0.8-1.8c1-1,2.7-1,3.7,0
				c0.5,0.5,0.8,1.2,0.8,1.8s-0.3,1.3-0.8,1.8C24.6-118.3,23.9-118,23.3-118z"/>
			<path fill="#A179AF" d="M28.8-112.5c-0.7,0-1.4-0.3-1.8-0.8c-0.5-0.5-0.8-1.2-0.8-1.8s0.3-1.4,0.8-1.8c1-1,2.7-1,3.7,0
				c0.5,0.5,0.8,1.2,0.8,1.8s-0.3,1.4-0.8,1.8C30.1-112.8,29.5-112.5,28.8-112.5z"/>
			<path fill="#A179AF" d="M20.3-109c-0.7,0-1.3-0.3-1.8-0.8c-0.5-0.5-0.8-1.2-0.8-1.8c0-0.7,0.3-1.3,0.8-1.8c1-1,2.7-1,3.7,0
				c0.5,0.5,0.8,1.2,0.8,1.8c0,0.7-0.3,1.4-0.8,1.8C21.6-109.3,20.9-109,20.3-109z"/>
			<path fill="#A179AF" d="M15.3-98.1c-0.7,0-1.3-0.3-1.8-0.8c-0.5-0.5-0.8-1.2-0.8-1.8c0-0.7,0.3-1.4,0.8-1.8c1-1,2.7-1,3.7,0
				c0.5,0.5,0.8,1.2,0.8,1.8c0,0.7-0.3,1.3-0.8,1.8C16.6-98.3,16-98.1,15.3-98.1z"/>
			<path fill="#A179AF" d="M13.8-104.1c-0.7,0-1.4-0.3-1.8-0.8c-0.5-0.5-0.8-1.2-0.8-1.8s0.3-1.4,0.8-1.8c1-1,2.7-1,3.7,0
				c0.5,0.5,0.8,1.2,0.8,1.8s-0.3,1.3-0.8,1.8C15.1-104.3,14.5-104.1,13.8-104.1z"/>
			<path fill="#A179AF" d="M33.7-6.7c-0.7,0-1.3-0.3-1.8-0.8c-0.5-0.5-0.8-1.2-0.8-1.8c0-0.7,0.3-1.4,0.8-1.8c1-1,2.7-1,3.7,0
				c0.5,0.5,0.8,1.2,0.8,1.8c0,0.7-0.3,1.4-0.8,1.8C35.1-7,34.4-6.7,33.7-6.7z"/>
			<path fill="#A179AF" d="M33.7-6.7c-0.7,0-1.3-0.3-1.8-0.8c-0.5-0.5-0.8-1.2-0.8-1.8c0-0.7,0.3-1.4,0.8-1.8c1-1,2.7-1,3.7,0
				c0.5,0.5,0.8,1.2,0.8,1.8c0,0.7-0.3,1.4-0.8,1.8C35.1-7,34.4-6.7,33.7-6.7z"/>
			<path fill="#A179AF" d="M40.7-8.7c-0.7,0-1.3-0.3-1.8-0.8c-0.5-0.5-0.8-1.2-0.8-1.8c0-0.7,0.3-1.4,0.8-1.8c1-1,2.7-1,3.7,0
				c0.5,0.5,0.8,1.2,0.8,1.8c0,0.7-0.3,1.4-0.8,1.8C42.1-9,41.4-8.7,40.7-8.7z"/>
			<path fill="#A179AF" d="M51.7-6.7c-0.7,0-1.3-0.3-1.8-0.8c-0.5-0.5-0.8-1.2-0.8-1.8c0-0.7,0.3-1.4,0.8-1.8c1-1,2.7-1,3.7,0
				c0.5,0.5,0.8,1.2,0.8,1.8c0,0.7-0.3,1.4-0.8,1.8C53.1-7,52.4-6.7,51.7-6.7z"/>
			<path fill="#A179AF" d="M62.2-7.7c-0.7,0-1.4-0.3-1.8-0.8c-0.5-0.5-0.8-1.2-0.8-1.8c0-0.7,0.3-1.4,0.8-1.8c1-1,2.7-1,3.7,0
				c0.5,0.5,0.8,1.2,0.8,1.8c0,0.7-0.3,1.4-0.8,1.8C63.6-8,62.9-7.7,62.2-7.7z"/>
			<path fill="#A179AF" d="M69.2-6.7c-0.7,0-1.3-0.3-1.8-0.8c-0.5-0.5-0.8-1.2-0.8-1.8c0-0.7,0.3-1.4,0.8-1.8c1-1,2.7-1,3.7,0
				c0.5,0.5,0.8,1.2,0.8,1.8c0,0.7-0.3,1.3-0.8,1.8C70.6-7,69.9-6.7,69.2-6.7z"/>
			<path fill="#A179AF" d="M79.2-7.7c-0.7,0-1.3-0.3-1.8-0.8c-0.5-0.5-0.8-1.2-0.8-1.8c0-0.7,0.3-1.4,0.8-1.8c1-1,2.7-1,3.7,0
				c0.5,0.5,0.8,1.2,0.8,1.8c0,0.7-0.3,1.4-0.8,1.8C80.5-8,79.9-7.7,79.2-7.7z"/>
			<path fill="#A179AF" d="M93.7-13.2c-0.7,0-1.4-0.3-1.8-0.8c-0.5-0.5-0.8-1.2-0.8-1.8c0-0.7,0.3-1.4,0.8-1.8c1-1,2.7-1,3.7,0
				c0.5,0.5,0.8,1.2,0.8,1.8c0,0.7-0.3,1.4-0.8,1.8C95-13.5,94.3-13.2,93.7-13.2z"/>
			<path fill="#A179AF" d="M103.2-9.7c-0.7,0-1.3-0.3-1.8-0.8c-0.5-0.5-0.8-1.2-0.8-1.8c0-0.7,0.3-1.4,0.8-1.8c1-1,2.7-1,3.7,0
				c0.5,0.5,0.8,1.2,0.8,1.8c0,0.7-0.3,1.4-0.8,1.8C104.5-10,103.8-9.7,103.2-9.7z"/>
			<path fill="#A179AF" d="M123.1-6.7c-0.7,0-1.3-0.3-1.8-0.8c-0.5-0.5-0.8-1.2-0.8-1.8c0-0.7,0.3-1.3,0.8-1.8c1-1,2.7-1,3.7,0
				c0.5,0.5,0.8,1.2,0.8,1.8c0,0.7-0.3,1.4-0.8,1.8C124.5-7,123.8-6.7,123.1-6.7z"/>
			<path fill="#A179AF" d="M139.1-5.2c-0.7,0-1.4-0.3-1.8-0.8c-0.5-0.5-0.8-1.2-0.8-1.8c0-0.7,0.3-1.4,0.8-1.8c1-1,2.7-1,3.7,0
				c0.5,0.5,0.8,1.2,0.8,1.8c0,0.7-0.3,1.4-0.8,1.8C140.5-5.5,139.8-5.2,139.1-5.2z"/>
			<path fill="#A179AF" d="M113.6-3.2c-0.7,0-1.4-0.3-1.8-0.8c-0.5-0.5-0.8-1.2-0.8-1.8c0-0.7,0.3-1.4,0.8-1.8c1-1,2.7-1,3.7,0
				c0.5,0.5,0.8,1.2,0.8,1.8c0,0.7-0.3,1.4-0.8,1.8C115-3.5,114.3-3.2,113.6-3.2z"/>
			<path fill="#A179AF" d="M111.1-10.7c-0.7,0-1.4-0.3-1.8-0.8c-0.5-0.5-0.8-1.2-0.8-1.8c0-0.7,0.3-1.4,0.8-1.8c1-1,2.7-1,3.7,0
				c0.5,0.5,0.8,1.2,0.8,1.8c0,0.7-0.3,1.4-0.8,1.8C112.5-11,111.8-10.7,111.1-10.7z"/>
			<path fill="#A179AF" d="M23.8-7.3c-0.7,0-1.3-0.3-1.8-0.8c-0.5-0.5-0.8-1.2-0.8-1.8c0-0.7,0.3-1.4,0.8-1.8c1-1,2.7-1,3.7,0
				c0.5,0.5,0.8,1.2,0.8,1.8c0,0.7-0.3,1.4-0.8,1.8C25.1-7.5,24.4-7.3,23.8-7.3z"/>
			<path fill="#A179AF" d="M15.3-8.2c-0.7,0-1.4-0.3-1.8-0.8c-0.5-0.5-0.8-1.2-0.8-1.8c0-0.7,0.3-1.4,0.8-1.8c1-1,2.7-1,3.7,0
				c0.5,0.5,0.8,1.2,0.8,1.8c0,0.7-0.3,1.4-0.8,1.8C16.6-8.5,16-8.2,15.3-8.2z"/>
			<path fill="#A179AF" d="M47.7-96.6c-0.7,0-1.3-0.3-1.8-0.8c-0.5-0.5-0.8-1.2-0.8-1.8c0-0.7,0.3-1.4,0.8-1.8c1-1,2.7-1,3.7,0
				c0.5,0.5,0.8,1.2,0.8,1.8c0,0.7-0.3,1.4-0.8,1.8C49.1-96.8,48.4-96.6,47.7-96.6z"/>
			<path fill="#A179AF" d="M56.7-94.6c-0.7,0-1.3-0.3-1.8-0.8c-0.5-0.5-0.8-1.2-0.8-1.8s0.3-1.4,0.8-1.8c1-1,2.7-1,3.7,0
				c0.5,0.5,0.8,1.2,0.8,1.8s-0.3,1.4-0.8,1.8C58.1-94.8,57.4-94.6,56.7-94.6z"/>
			<path fill="#A179AF" d="M64.2-98.6c-0.7,0-1.3-0.3-1.8-0.8c-0.5-0.5-0.8-1.2-0.8-1.8s0.3-1.4,0.8-1.8c1-1,2.7-1,3.7,0
				c0.5,0.5,0.8,1.2,0.8,1.8s-0.3,1.4-0.8,1.8C65.6-98.8,64.9-98.6,64.2-98.6z"/>
			<path fill="#A179AF" d="M61.7-90.6c-0.7,0-1.4-0.3-1.8-0.8c-0.5-0.5-0.8-1.2-0.8-1.8s0.3-1.4,0.8-1.8c1-1,2.7-1,3.7,0
				c0.5,0.5,0.8,1.2,0.8,1.8s-0.3,1.4-0.8,1.8C63.1-90.9,62.4-90.6,61.7-90.6z"/>
			<path fill="#A179AF" d="M56.2-86.6c-0.7,0-1.3-0.3-1.8-0.8c-0.5-0.5-0.8-1.2-0.8-1.8c0-0.7,0.3-1.4,0.8-1.8c1-1,2.7-1,3.7,0
				c0.5,0.5,0.8,1.2,0.8,1.8c0,0.7-0.3,1.4-0.8,1.8C57.6-86.9,56.9-86.6,56.2-86.6z"/>
			<path fill="#A179AF" d="M49.2-88.1c-0.7,0-1.4-0.3-1.8-0.8c-0.5-0.5-0.8-1.2-0.8-1.8s0.3-1.4,0.8-1.8c1-1,2.7-1,3.7,0
				c0.5,0.5,0.8,1.2,0.8,1.8s-0.3,1.4-0.8,1.8C50.6-88.4,49.9-88.1,49.2-88.1z"/>
			<path fill="#A179AF" d="M42.7-86.6c-0.7,0-1.3-0.3-1.8-0.8c-0.5-0.5-0.8-1.2-0.8-1.8c0-0.7,0.3-1.4,0.8-1.8c1-1,2.7-1,3.7,0
				c0.5,0.5,0.8,1.2,0.8,1.8c0,0.7-0.3,1.4-0.8,1.8C44.1-86.9,43.4-86.6,42.7-86.6z"/>
			<path fill="#A179AF" d="M39.7-94.1c-0.7,0-1.4-0.3-1.8-0.8c-0.5-0.5-0.8-1.2-0.8-1.8s0.3-1.4,0.8-1.8c1-1,2.7-1,3.7,0
				c0.5,0.5,0.8,1.2,0.8,1.8s-0.3,1.4-0.8,1.8C41.1-94.3,40.4-94.1,39.7-94.1z"/>
			<path fill="#A179AF" d="M35.7-89.1c-0.7,0-1.4-0.3-1.8-0.8c-0.5-0.5-0.8-1.2-0.8-1.8s0.3-1.4,0.8-1.8c1-1,2.7-1,3.7,0
				c0.5,0.5,0.8,1.2,0.8,1.8s-0.3,1.4-0.8,1.8C37.1-89.4,36.4-89.1,35.7-89.1z"/>
			<path fill="#A179AF" d="M29.3-91.6c-0.7,0-1.3-0.3-1.8-0.8c-0.5-0.5-0.8-1.2-0.8-1.8c0-0.7,0.3-1.4,0.8-1.8c1-1,2.7-1,3.7,0
				c0.5,0.5,0.8,1.2,0.8,1.8c0,0.7-0.3,1.4-0.8,1.8C30.6-91.8,29.9-91.6,29.3-91.6z"/>
			<path fill="#A179AF" d="M22.8-88.6c-0.7,0-1.3-0.3-1.8-0.8c-0.5-0.5-0.8-1.2-0.8-1.8s0.3-1.3,0.8-1.8c1-1,2.7-1,3.7,0
				c0.5,0.5,0.8,1.2,0.8,1.8s-0.3,1.4-0.8,1.8C24.1-88.9,23.4-88.6,22.8-88.6z"/>
			<path fill="#A179AF" d="M20.8-82.1c-0.7,0-1.3-0.3-1.8-0.8c-0.5-0.5-0.8-1.2-0.8-1.8s0.3-1.4,0.8-1.8c1-1,2.7-1,3.7,0
				c0.5,0.5,0.8,1.2,0.8,1.8s-0.3,1.4-0.8,1.8C22.1-82.4,21.4-82.1,20.8-82.1z"/>
			<path fill="#A179AF" d="M23.8-73.6c-0.7,0-1.3-0.3-1.8-0.8c-0.5-0.5-0.8-1.2-0.8-1.8s0.3-1.4,0.8-1.8c1-1,2.7-1,3.7,0
				c0.5,0.5,0.8,1.2,0.8,1.8s-0.3,1.4-0.8,1.8C25.1-73.9,24.4-73.6,23.8-73.6z"/>
			<path fill="#A179AF" d="M28.8-78.6c-0.7,0-1.3-0.3-1.8-0.8c-0.5-0.5-0.8-1.2-0.8-1.8s0.3-1.4,0.8-1.8c1-1,2.7-1,3.7,0
				c0.5,0.5,0.8,1.2,0.8,1.8s-0.3,1.4-0.8,1.8C30.1-78.9,29.4-78.6,28.8-78.6z"/>
			<path fill="#A179AF" d="M34.2-83.6c-0.7,0-1.4-0.3-1.8-0.8c-0.5-0.5-0.8-1.2-0.8-1.8s0.3-1.4,0.8-1.8c1-1,2.7-1,3.7,0
				c0.5,0.5,0.8,1.2,0.8,1.8s-0.3,1.4-0.8,1.8C35.6-83.9,34.9-83.6,34.2-83.6z"/>
			<path fill="#A179AF" d="M41.7-79.1c-0.7,0-1.3-0.3-1.8-0.8c-0.5-0.5-0.8-1.2-0.8-1.8s0.3-1.4,0.8-1.8c1-1,2.7-1,3.7,0
				c0.5,0.5,0.8,1.2,0.8,1.8s-0.3,1.4-0.8,1.8C43.1-79.4,42.4-79.1,41.7-79.1z"/>
			<path fill="#A179AF" d="M35.7-74.1c-0.7,0-1.3-0.3-1.8-0.8c-0.5-0.5-0.8-1.2-0.8-1.8c0-0.7,0.3-1.4,0.8-1.8c1-1,2.7-1,3.7,0
				c0.5,0.5,0.8,1.2,0.8,1.8c0,0.7-0.3,1.4-0.8,1.8C37.1-74.4,36.4-74.1,35.7-74.1z"/>
			<path fill="#A179AF" d="M29.8-68.6c-0.7,0-1.3-0.3-1.8-0.8c-0.5-0.5-0.8-1.2-0.8-1.8c0-0.7,0.3-1.4,0.8-1.8c1-1,2.7-1,3.7,0
				c0.5,0.5,0.8,1.2,0.8,1.8c0,0.7-0.3,1.4-0.8,1.8C31.1-68.9,30.4-68.6,29.8-68.6z"/>
			<path fill="#A179AF" d="M23.3-65.1c-0.7,0-1.3-0.3-1.8-0.8c-0.5-0.5-0.8-1.2-0.8-1.8s0.3-1.4,0.8-1.8c1-1,2.7-1,3.7,0
				c0.5,0.5,0.8,1.2,0.8,1.8s-0.3,1.3-0.8,1.8C24.6-65.4,23.9-65.1,23.3-65.1z"/>
			<path fill="#A179AF" d="M23.8-73.6c-0.7,0-1.3-0.3-1.8-0.8c-0.5-0.5-0.8-1.2-0.8-1.8s0.3-1.4,0.8-1.8c1-1,2.7-1,3.7,0
				c0.5,0.5,0.8,1.2,0.8,1.8s-0.3,1.4-0.8,1.8C25.1-73.9,24.4-73.6,23.8-73.6z"/>
			<path fill="#A179AF" d="M17.3-70.6c-0.7,0-1.3-0.3-1.8-0.8c-0.5-0.5-0.8-1.2-0.8-1.8s0.3-1.4,0.8-1.8c1-1,2.7-1,3.7,0
				c0.5,0.5,0.8,1.2,0.8,1.8s-0.3,1.4-0.8,1.8C18.6-70.9,17.9-70.6,17.3-70.6z"/>
			<path fill="#A179AF" d="M15.3-79.6c-0.7,0-1.4-0.3-1.8-0.8c-0.5-0.5-0.8-1.2-0.8-1.8c0-0.7,0.3-1.4,0.8-1.8c1-1,2.7-1,3.7,0
				c0.5,0.5,0.8,1.2,0.8,1.8c0,0.7-0.3,1.4-0.8,1.8C16.6-79.9,16-79.6,15.3-79.6z"/>
			<path fill="#A179AF" d="M14.8-90.1c-0.7,0-1.3-0.3-1.8-0.8c-0.5-0.5-0.8-1.2-0.8-1.8s0.3-1.4,0.8-1.8c1-1,2.7-1,3.7,0
				c0.5,0.5,0.8,1.2,0.8,1.8s-0.3,1.4-0.8,1.8C16.1-90.4,15.5-90.1,14.8-90.1z"/>
			<path fill="#A179AF" d="M8.8-86.1c-0.7,0-1.3-0.3-1.8-0.8c-0.5-0.5-0.8-1.2-0.8-1.8c0-0.7,0.3-1.4,0.8-1.8c1-1,2.7-1,3.7,0
				c0.5,0.5,0.8,1.2,0.8,1.8c0,0.7-0.3,1.3-0.8,1.8C10.1-86.4,9.5-86.1,8.8-86.1z"/>
			<path fill="#A179AF" d="M7.3-78.1c-0.7,0-1.3-0.3-1.8-0.8C5-79.3,4.7-80,4.7-80.7S5-82,5.4-82.5c1-1,2.7-1,3.7,0
				c0.5,0.5,0.8,1.2,0.8,1.8s-0.3,1.4-0.8,1.8C8.6-78.4,8-78.1,7.3-78.1z"/>
			<path fill="#A179AF" d="M7.3-95.1c-0.7,0-1.3-0.3-1.8-0.8C5-96.3,4.7-97,4.7-97.7S5-99,5.4-99.5c1-1,2.7-1,3.7,0
				c0.5,0.5,0.8,1.2,0.8,1.8s-0.3,1.4-0.8,1.8C8.6-95.3,8-95.1,7.3-95.1z"/>
			<path fill="#A179AF" d="M9.8-71.1c-0.7,0-1.4-0.3-1.8-0.8c-0.5-0.5-0.8-1.2-0.8-1.8s0.3-1.4,0.8-1.8c1-1,2.7-1,3.7,0
				c0.5,0.5,0.8,1.2,0.8,1.8s-0.3,1.4-0.8,1.8C11.1-71.4,10.5-71.1,9.8-71.1z"/>
			<path fill="#A179AF" d="M10.8-63.6c-0.7,0-1.3-0.3-1.8-0.8c-0.5-0.5-0.8-1.2-0.8-1.8c0-0.7,0.3-1.4,0.8-1.8c1-1,2.7-1,3.7,0
				c0.5,0.5,0.8,1.2,0.8,1.8c0,0.7-0.3,1.4-0.8,1.8C12.1-63.9,11.5-63.6,10.8-63.6z"/>
			<path fill="#A179AF" d="M9.3-51.6c-0.7,0-1.3-0.3-1.8-0.8c-0.5-0.5-0.8-1.2-0.8-1.8c0-0.7,0.3-1.3,0.8-1.8c1-1,2.7-1,3.7,0
				c0.5,0.5,0.8,1.2,0.8,1.8c0,0.7-0.3,1.4-0.8,1.8C10.6-51.9,10-51.6,9.3-51.6z"/>
			<path fill="#A179AF" d="M11.3-45.6c-0.7,0-1.3-0.3-1.8-0.8c-0.5-0.5-0.8-1.2-0.8-1.8c0-0.7,0.3-1.3,0.8-1.8c1-1,2.7-1,3.7,0
				c0.5,0.5,0.8,1.2,0.8,1.8c0,0.7-0.3,1.4-0.8,1.8C12.6-45.9,12-45.6,11.3-45.6z"/>
			<path fill="#A179AF" d="M18.3-49.6c-0.7,0-1.3-0.3-1.8-0.8c-0.5-0.5-0.8-1.2-0.8-1.8s0.3-1.4,0.8-1.8c1-1,2.7-1,3.7,0
				c0.5,0.5,0.8,1.2,0.8,1.8s-0.3,1.4-0.8,1.8C19.6-49.9,18.9-49.6,18.3-49.6z"/>
			<path fill="#A179AF" d="M14.8-57.6c-0.7,0-1.4-0.3-1.8-0.8c-0.5-0.5-0.8-1.2-0.8-1.8c0-0.7,0.3-1.4,0.8-1.8c1-1,2.7-1,3.7,0
				c0.5,0.5,0.8,1.2,0.8,1.8c0,0.7-0.3,1.4-0.8,1.8C16.1-57.9,15.5-57.6,14.8-57.6z"/>
			<path fill="#A179AF" d="M22.8-56.6c-0.7,0-1.3-0.3-1.8-0.8c-0.5-0.5-0.8-1.2-0.8-1.8c0-0.7,0.3-1.4,0.8-1.8c1-1,2.7-1,3.7,0
				c0.5,0.5,0.8,1.2,0.8,1.8c0,0.7-0.3,1.4-0.8,1.8C24.1-56.9,23.4-56.6,22.8-56.6z"/>
			<path fill="#A179AF" d="M27.8-50.6c-0.7,0-1.3-0.3-1.8-0.8c-0.5-0.5-0.8-1.2-0.8-1.8c0-0.7,0.3-1.3,0.8-1.8c1-1,2.7-1,3.7,0
				c0.5,0.5,0.8,1.2,0.8,1.8c0,0.7-0.3,1.4-0.8,1.8C29.1-50.9,28.4-50.6,27.8-50.6z"/>
			<path fill="#A179AF" d="M33.7-48.6c-0.7,0-1.4-0.3-1.8-0.8c-0.5-0.5-0.8-1.2-0.8-1.8c0-0.7,0.3-1.4,0.8-1.8c1-1,2.7-1,3.7,0
				c0.5,0.5,0.8,1.2,0.8,1.8c0,0.7-0.3,1.4-0.8,1.8C35.1-48.9,34.4-48.6,33.7-48.6z"/>
			<path fill="#A179AF" d="M39.2-45.6c-0.7,0-1.3-0.3-1.8-0.8c-0.5-0.5-0.8-1.2-0.8-1.8c0-0.7,0.3-1.4,0.8-1.8c1-1,2.7-1,3.7,0
				c0.5,0.5,0.8,1.2,0.8,1.8c0,0.7-0.3,1.4-0.8,1.8C40.6-45.9,39.9-45.6,39.2-45.6z"/>
			<path fill="#A179AF" d="M28.8-59.1c-0.7,0-1.3-0.3-1.8-0.8c-0.5-0.5-0.8-1.2-0.8-1.8c0-0.7,0.3-1.4,0.8-1.8c1-1,2.7-1,3.7,0
				c0.5,0.5,0.8,1.2,0.8,1.8c0,0.7-0.3,1.4-0.8,1.8C30.1-59.4,29.4-59.1,28.8-59.1z"/>
			<path fill="#A179AF" d="M35.7-56.6c-0.7,0-1.3-0.3-1.8-0.8c-0.5-0.5-0.8-1.2-0.8-1.8c0-0.7,0.3-1.4,0.8-1.8c1-1,2.7-1,3.7,0
				c0.5,0.5,0.8,1.2,0.8,1.8c0,0.7-0.3,1.4-0.8,1.8C37.1-56.9,36.4-56.6,35.7-56.6z"/>
			<path fill="#A179AF" d="M42.2-54.6c-0.7,0-1.4-0.3-1.8-0.8c-0.5-0.5-0.8-1.2-0.8-1.8c0-0.7,0.3-1.3,0.8-1.8c1-1,2.7-1,3.7,0
				c0.5,0.5,0.8,1.2,0.8,1.8c0,0.7-0.3,1.4-0.8,1.8C43.6-54.9,42.9-54.6,42.2-54.6z"/>
			<path fill="#A179AF" d="M36.2-65.6c-0.7,0-1.4-0.3-1.8-0.8c-0.5-0.5-0.8-1.2-0.8-1.8s0.3-1.4,0.8-1.8c1-1,2.7-1,3.7,0
				c0.5,0.5,0.8,1.2,0.8,1.8s-0.3,1.4-0.8,1.8C37.6-65.9,36.9-65.6,36.2-65.6z"/>
			<path fill="#A179AF" d="M44.2-63.6c-0.7,0-1.3-0.3-1.8-0.8c-0.5-0.5-0.8-1.2-0.8-1.8c0-0.7,0.3-1.3,0.8-1.8c1-1,2.7-1,3.7,0
				c0.5,0.5,0.8,1.2,0.8,1.8c0,0.7-0.3,1.4-0.8,1.8C45.6-63.9,44.9-63.6,44.2-63.6z"/>
			<path fill="#A179AF" d="M45.7-72.1c-0.7,0-1.3-0.3-1.8-0.8c-0.5-0.5-0.8-1.2-0.8-1.8s0.3-1.4,0.8-1.8c1-1,2.7-1,3.7,0
				c0.5,0.5,0.8,1.2,0.8,1.8s-0.3,1.4-0.8,1.8C47.1-72.4,46.4-72.1,45.7-72.1z"/>
			<path fill="#A179AF" d="M50.7-66.1c-0.7,0-1.4-0.3-1.8-0.8c-0.5-0.5-0.8-1.2-0.8-1.8s0.3-1.4,0.8-1.8c1-1,2.7-1,3.7,0
				c0.5,0.5,0.8,1.2,0.8,1.8s-0.3,1.4-0.8,1.8C52.1-66.4,51.4-66.1,50.7-66.1z"/>
			<path fill="#A179AF" d="M56.2-71.1c-0.7,0-1.4-0.3-1.8-0.8c-0.5-0.5-0.8-1.2-0.8-1.8s0.3-1.3,0.8-1.8c1-1,2.7-1,3.7,0
				c0.5,0.5,0.8,1.2,0.8,1.8s-0.3,1.4-0.8,1.8C57.6-71.4,56.9-71.1,56.2-71.1z"/>
			<path fill="#A179AF" d="M48.7-58.1c-0.7,0-1.3-0.3-1.8-0.8c-0.5-0.5-0.8-1.2-0.8-1.8s0.3-1.4,0.8-1.8c1-1,2.7-1,3.7,0
				c0.5,0.5,0.8,1.2,0.8,1.8s-0.3,1.4-0.8,1.8C50.1-58.4,49.4-58.1,48.7-58.1z"/>
			<path fill="#A179AF" d="M55.7-54.1c-0.7,0-1.3-0.3-1.8-0.8c-0.5-0.5-0.8-1.2-0.8-1.8c0-0.7,0.3-1.4,0.8-1.8c1-1,2.7-1,3.7,0
				c0.5,0.5,0.8,1.2,0.8,1.8c0,0.7-0.3,1.4-0.8,1.8C57.1-54.4,56.4-54.1,55.7-54.1z"/>
			<path fill="#A179AF" d="M55.7-46.1c-0.7,0-1.4-0.3-1.8-0.8c-0.5-0.5-0.8-1.2-0.8-1.8c0-0.7,0.3-1.4,0.8-1.8c1-1,2.7-1,3.7,0
				c0.5,0.5,0.8,1.2,0.8,1.8c0,0.7-0.3,1.4-0.8,1.8C57.1-46.4,56.4-46.1,55.7-46.1z"/>
			<path fill="#A179AF" d="M47.7-49.6c-0.7,0-1.4-0.3-1.8-0.8c-0.5-0.5-0.8-1.2-0.8-1.8s0.3-1.4,0.8-1.8c1-1,2.7-1,3.7,0
				c0.5,0.5,0.8,1.2,0.8,1.8s-0.3,1.4-0.8,1.8C49.1-49.9,48.4-49.6,47.7-49.6z"/>
			<path fill="#A179AF" d="M62.7-52.1c-0.7,0-1.3-0.3-1.8-0.8c-0.5-0.5-0.8-1.2-0.8-1.8c0-0.7,0.3-1.4,0.8-1.8c1-1,2.7-1,3.7,0
				c0.5,0.5,0.8,1.2,0.8,1.8c0,0.7-0.3,1.4-0.8,1.8C64.1-52.4,63.4-52.1,62.7-52.1z"/>
			<path fill="#A179AF" d="M66.7-58.6c-0.7,0-1.4-0.3-1.8-0.8c-0.5-0.5-0.8-1.2-0.8-1.8c0-0.7,0.3-1.4,0.8-1.8c1-1,2.7-1,3.7,0
				c0.5,0.5,0.8,1.2,0.8,1.8c0,0.7-0.3,1.4-0.8,1.8C68.1-58.9,67.4-58.6,66.7-58.6z"/>
			<path fill="#A179AF" d="M64.2-66.6c-0.7,0-1.4-0.3-1.8-0.8c-0.5-0.5-0.8-1.2-0.8-1.8s0.3-1.4,0.8-1.8c1-1,2.7-1,3.7,0
				c0.5,0.5,0.8,1.2,0.8,1.8s-0.3,1.4-0.8,1.8C65.6-66.9,64.9-66.6,64.2-66.6z"/>
			<path fill="#A179AF" d="M64.2-74.6c-0.7,0-1.3-0.3-1.8-0.8c-0.5-0.5-0.8-1.2-0.8-1.8c0-0.7,0.3-1.4,0.8-1.8c1-1,2.7-1,3.7,0
				c0.5,0.5,0.8,1.2,0.8,1.8c0,0.7-0.3,1.4-0.8,1.8C65.6-74.9,64.9-74.6,64.2-74.6z"/>
			<path fill="#A179AF" d="M57.7-78.1c-0.7,0-1.3-0.3-1.8-0.8c-0.5-0.5-0.8-1.2-0.8-1.8s0.3-1.4,0.8-1.8c1-1,2.7-1,3.7,0
				c0.5,0.5,0.8,1.2,0.8,1.8s-0.3,1.4-0.8,1.8C59.1-78.4,58.4-78.1,57.7-78.1z"/>
			<path fill="#A179AF" d="M50.7-78.1c-0.7,0-1.4-0.3-1.8-0.8c-0.5-0.5-0.8-1.2-0.8-1.8s0.3-1.4,0.8-1.8c1-1,2.7-1,3.7,0
				c0.5,0.5,0.8,1.2,0.8,1.8s-0.3,1.4-0.8,1.8C52.1-78.4,51.4-78.1,50.7-78.1z"/>
			<path fill="#A179AF" d="M63.7-85.1c-0.7,0-1.3-0.3-1.8-0.8c-0.5-0.5-0.8-1.2-0.8-1.8c0-0.7,0.3-1.4,0.8-1.8c1-1,2.7-1,3.7,0
				c0.5,0.5,0.8,1.2,0.8,1.8c0,0.7-0.3,1.4-0.8,1.8C65.1-85.4,64.4-85.1,63.7-85.1z"/>
			<path fill="#A179AF" d="M69.7-79.6c-0.7,0-1.3-0.3-1.8-0.8c-0.5-0.5-0.8-1.2-0.8-1.8c0-0.7,0.3-1.3,0.8-1.8c1-1,2.7-1,3.7,0
				c0.5,0.5,0.8,1.2,0.8,1.8c0,0.7-0.3,1.4-0.8,1.8C71.1-79.9,70.4-79.6,69.7-79.6z"/>
			<path fill="#A179AF" d="M75.7-78.6c-0.7,0-1.3-0.3-1.8-0.8c-0.5-0.5-0.8-1.2-0.8-1.8s0.3-1.4,0.8-1.8c1-1,2.7-1,3.7,0
				c0.5,0.5,0.8,1.2,0.8,1.8s-0.3,1.4-0.8,1.8C77.1-78.9,76.4-78.6,75.7-78.6z"/>
			<path fill="#A179AF" d="M70.7-70.6c-0.7,0-1.3-0.3-1.8-0.8c-0.5-0.5-0.8-1.2-0.8-1.8s0.3-1.3,0.8-1.8c1-1,2.7-1,3.7,0
				c0.5,0.5,0.8,1.2,0.8,1.8s-0.3,1.4-0.8,1.8C72.1-70.9,71.4-70.6,70.7-70.6z"/>
			<path fill="#A179AF" d="M72.7-63.1c-0.7,0-1.4-0.3-1.8-0.8c-0.5-0.5-0.8-1.2-0.8-1.8c0-0.7,0.3-1.4,0.8-1.8c1-1,2.7-1,3.7,0
				c0.5,0.5,0.8,1.2,0.8,1.8c0,0.7-0.3,1.4-0.8,1.8C74.1-63.4,73.4-63.1,72.7-63.1z"/>
			<path fill="#A179AF" d="M66.7-58.6c-0.7,0-1.4-0.3-1.8-0.8c-0.5-0.5-0.8-1.2-0.8-1.8c0-0.7,0.3-1.4,0.8-1.8c1-1,2.7-1,3.7,0
				c0.5,0.5,0.8,1.2,0.8,1.8c0,0.7-0.3,1.4-0.8,1.8C68.1-58.9,67.4-58.6,66.7-58.6z"/>
			<path fill="#A179AF" d="M73.2-55.6c-0.7,0-1.3-0.3-1.8-0.8c-0.5-0.5-0.8-1.2-0.8-1.8s0.3-1.4,0.8-1.8c1-1,2.7-1,3.7,0
				c0.5,0.5,0.8,1.2,0.8,1.8s-0.3,1.3-0.8,1.8C74.6-55.9,73.9-55.6,73.2-55.6z"/>
			<path fill="#A179AF" d="M79.2-47.1c-0.7,0-1.4-0.3-1.8-0.8c-0.5-0.5-0.8-1.2-0.8-1.8s0.3-1.4,0.8-1.8c1-1,2.7-1,3.7,0
				c0.5,0.5,0.8,1.2,0.8,1.8s-0.3,1.4-0.8,1.8C80.5-47.4,79.9-47.1,79.2-47.1z"/>
			<path fill="#A179AF" d="M69.2-49.1c-0.7,0-1.3-0.3-1.8-0.8c-0.5-0.5-0.8-1.2-0.8-1.8c0-0.7,0.3-1.4,0.8-1.8c1-1,2.7-1,3.7,0
				c0.5,0.5,0.8,1.2,0.8,1.8c0,0.7-0.3,1.3-0.8,1.8C70.6-49.4,69.9-49.1,69.2-49.1z"/>
			<path fill="#A179AF" d="M80.7-55.1c-0.7,0-1.3-0.3-1.8-0.8c-0.5-0.5-0.8-1.2-0.8-1.8s0.3-1.4,0.8-1.8c1-1,2.7-1,3.7,0
				c0.5,0.5,0.8,1.2,0.8,1.8s-0.3,1.4-0.8,1.8C82-55.4,81.4-55.1,80.7-55.1z"/>
			<path fill="#A179AF" d="M80.2-64.1c-0.7,0-1.4-0.3-1.8-0.8c-0.5-0.5-0.8-1.2-0.8-1.8c0-0.7,0.3-1.4,0.8-1.8c1-1,2.7-1,3.7,0
				c0.5,0.5,0.8,1.2,0.8,1.8c0,0.7-0.3,1.4-0.8,1.8C81.5-64.4,80.9-64.1,80.2-64.1z"/>
			<path fill="#A179AF" d="M78.7-71.1c-0.7,0-1.3-0.3-1.8-0.8c-0.5-0.5-0.8-1.2-0.8-1.8s0.3-1.4,0.8-1.8c1-1,2.7-1,3.7,0
				c0.5,0.5,0.8,1.2,0.8,1.8s-0.3,1.3-0.8,1.8C80-71.4,79.4-71.1,78.7-71.1z"/>
			<path fill="#A179AF" d="M69.7-79.6c-0.7,0-1.3-0.3-1.8-0.8c-0.5-0.5-0.8-1.2-0.8-1.8c0-0.7,0.3-1.3,0.8-1.8c1-1,2.7-1,3.7,0
				c0.5,0.5,0.8,1.2,0.8,1.8c0,0.7-0.3,1.4-0.8,1.8C71.1-79.9,70.4-79.6,69.7-79.6z"/>
			<path fill="#A179AF" d="M75.7-78.6c-0.7,0-1.3-0.3-1.8-0.8c-0.5-0.5-0.8-1.2-0.8-1.8s0.3-1.4,0.8-1.8c1-1,2.7-1,3.7,0
				c0.5,0.5,0.8,1.2,0.8,1.8s-0.3,1.4-0.8,1.8C77.1-78.9,76.4-78.6,75.7-78.6z"/>
			<path fill="#A179AF" d="M71.2-86.1c-0.7,0-1.3-0.3-1.8-0.8c-0.5-0.5-0.8-1.2-0.8-1.8c0-0.7,0.3-1.4,0.8-1.8c1-1,2.7-1,3.7,0
				c0.5,0.5,0.8,1.2,0.8,1.8c0,0.7-0.3,1.4-0.8,1.8C72.6-86.4,71.9-86.1,71.2-86.1z"/>
			<path fill="#A179AF" d="M70.2-94.1c-0.7,0-1.4-0.3-1.8-0.8c-0.5-0.5-0.8-1.2-0.8-1.8s0.3-1.4,0.8-1.8c1-1,2.7-1,3.7,0
				c0.5,0.5,0.8,1.2,0.8,1.8s-0.3,1.4-0.8,1.8C71.6-94.3,70.9-94.1,70.2-94.1z"/>
			<path fill="#A179AF" d="M77.7-93.6c-0.7,0-1.3-0.3-1.8-0.8c-0.5-0.5-0.8-1.2-0.8-1.8s0.3-1.4,0.8-1.8c1-1,2.7-1,3.7,0
				c0.5,0.5,0.8,1.2,0.8,1.8s-0.3,1.4-0.8,1.8C79-93.8,78.4-93.6,77.7-93.6z"/>
			<path fill="#A179AF" d="M79.2-84.6c-0.7,0-1.3-0.3-1.8-0.8c-0.5-0.5-0.8-1.2-0.8-1.8s0.3-1.4,0.8-1.8c1-1,2.7-1,3.7,0
				c0.5,0.5,0.8,1.2,0.8,1.8s-0.3,1.4-0.8,1.8C80.5-84.9,79.9-84.6,79.2-84.6z"/>
			<path fill="#A179AF" d="M83.7-78.1c-0.7,0-1.4-0.3-1.8-0.8c-0.5-0.5-0.8-1.2-0.8-1.8s0.3-1.4,0.8-1.8c1-1,2.7-1,3.7,0
				c0.5,0.5,0.8,1.2,0.8,1.8s-0.3,1.4-0.8,1.8C85-78.4,84.4-78.1,83.7-78.1z"/>
			<path fill="#A179AF" d="M89.7-73.1c-0.7,0-1.4-0.3-1.8-0.8c-0.5-0.5-0.8-1.2-0.8-1.8s0.3-1.4,0.8-1.8c1-1,2.7-1,3.7,0
				c0.5,0.5,0.8,1.2,0.8,1.8s-0.3,1.4-0.8,1.8C91-73.4,90.4-73.1,89.7-73.1z"/>
			<path fill="#A179AF" d="M88.7-65.6c-0.7,0-1.4-0.3-1.8-0.8c-0.5-0.5-0.8-1.2-0.8-1.8s0.3-1.4,0.8-1.8c1-1,2.7-1,3.7,0
				c0.5,0.5,0.8,1.2,0.8,1.8s-0.3,1.4-0.8,1.8C90-65.9,89.4-65.6,88.7-65.6z"/>
			<path fill="#A179AF" d="M87.2-58.1c-0.7,0-1.3-0.3-1.8-0.8c-0.5-0.5-0.8-1.2-0.8-1.8s0.3-1.4,0.8-1.8c1-1,2.7-1,3.7,0
				c0.5,0.5,0.8,1.2,0.8,1.8s-0.3,1.4-0.8,1.8C88.5-58.4,87.9-58.1,87.2-58.1z"/>
			<path fill="#A179AF" d="M91.2-51.1c-0.7,0-1.3-0.3-1.8-0.8c-0.5-0.5-0.8-1.2-0.8-1.8c0-0.7,0.3-1.4,0.8-1.8c1-1,2.7-1,3.7,0
				c0.5,0.5,0.8,1.2,0.8,1.8c0,0.7-0.3,1.4-0.8,1.8C92.5-51.4,91.8-51.1,91.2-51.1z"/>
			<path fill="#A179AF" d="M97.2-57.1c-0.7,0-1.4-0.3-1.8-0.8c-0.5-0.5-0.8-1.2-0.8-1.8c0-0.7,0.3-1.4,0.8-1.8c1-1,2.7-1,3.7,0
				c0.5,0.5,0.8,1.2,0.8,1.8c0,0.7-0.3,1.4-0.8,1.8C98.5-57.4,97.8-57.1,97.2-57.1z"/>
			<path fill="#A179AF" d="M97.2-48.1c-0.7,0-1.3-0.3-1.8-0.8c-0.5-0.5-0.8-1.2-0.8-1.8c0-0.7,0.3-1.4,0.8-1.8c1-1,2.7-1,3.7,0
				c0.5,0.5,0.8,1.2,0.8,1.8c0,0.7-0.3,1.4-0.8,1.8C98.5-48.4,97.8-48.1,97.2-48.1z"/>
			<path fill="#A179AF" d="M96.7-66.6c-0.7,0-1.4-0.3-1.8-0.8c-0.5-0.5-0.8-1.2-0.8-1.8s0.3-1.4,0.8-1.8c1-1,2.7-1,3.7,0
				c0.5,0.5,0.8,1.2,0.8,1.8s-0.3,1.4-0.8,1.8C98-66.9,97.3-66.6,96.7-66.6z"/>
			<path fill="#A179AF" d="M99.2-72.6c-0.7,0-1.3-0.3-1.8-0.8c-0.5-0.5-0.8-1.2-0.8-1.8s0.3-1.4,0.8-1.8c1-1,2.7-1,3.7,0
				c0.5,0.5,0.8,1.2,0.8,1.8s-0.3,1.4-0.8,1.8C100.5-72.9,99.9-72.6,99.2-72.6z"/>
			<path fill="#A179AF" d="M92.7-80.6c-0.7,0-1.4-0.3-1.8-0.8c-0.5-0.5-0.8-1.2-0.8-1.8c0-0.7,0.3-1.4,0.8-1.8c1-1,2.7-1,3.7,0
				c0.5,0.5,0.8,1.2,0.8,1.8c0,0.7-0.3,1.4-0.8,1.8C94-80.9,93.4-80.6,92.7-80.6z"/>
			<path fill="#A179AF" d="M87.2-84c-0.7,0-1.3-0.3-1.8-0.8c-0.5-0.5-0.8-1.2-0.8-1.8s0.3-1.3,0.8-1.8c1-1,2.7-1,3.7,0
				c0.5,0.5,0.8,1.2,0.8,1.8s-0.3,1.4-0.8,1.8C88.5-84.3,87.9-84,87.2-84z"/>
			<path fill="#A179AF" d="M85.2-90.1c-0.7,0-1.3-0.3-1.8-0.8c-0.5-0.5-0.8-1.2-0.8-1.8s0.3-1.4,0.8-1.8c1-1,2.7-1,3.7,0
				c0.5,0.5,0.8,1.2,0.8,1.8s-0.3,1.4-0.8,1.8C86.5-90.4,85.9-90.1,85.2-90.1z"/>
			<path fill="#A179AF" d="M91.7-94.1c-0.7,0-1.4-0.3-1.8-0.8c-0.5-0.5-0.8-1.2-0.8-1.8s0.3-1.4,0.8-1.8c1-1,2.7-1,3.7,0
				c0.5,0.5,0.8,1.2,0.8,1.8s-0.3,1.4-0.8,1.8C93-94.3,92.3-94.1,91.7-94.1z"/>
			<path fill="#A179AF" d="M89.7-102.1c-0.7,0-1.3-0.3-1.8-0.8c-0.5-0.5-0.8-1.2-0.8-1.8c0-0.7,0.3-1.4,0.8-1.8c1-1,2.7-1,3.7,0
				c0.5,0.5,0.8,1.2,0.8,1.8c0,0.7-0.3,1.4-0.8,1.8C91-102.3,90.4-102.1,89.7-102.1z"/>
			<path fill="#A179AF" d="M99.2-96.6c-0.7,0-1.3-0.3-1.8-0.8c-0.5-0.5-0.8-1.2-0.8-1.8c0-0.7,0.3-1.4,0.8-1.8c1-1,2.7-1,3.7,0
				c0.5,0.5,0.8,1.2,0.8,1.8c0,0.7-0.3,1.4-0.8,1.8C100.5-96.8,99.8-96.6,99.2-96.6z"/>
			<path fill="#A179AF" d="M96.7-88.1c-0.7,0-1.3-0.3-1.8-0.8c-0.5-0.5-0.8-1.2-0.8-1.8s0.3-1.4,0.8-1.8c1-1,2.7-1,3.7,0
				c0.5,0.5,0.8,1.2,0.8,1.8s-0.3,1.4-0.8,1.8C98-88.4,97.3-88.1,96.7-88.1z"/>
			<path fill="#A179AF" d="M100.7-81.6c-0.7,0-1.3-0.3-1.8-0.8c-0.5-0.5-0.8-1.2-0.8-1.8c0-0.7,0.3-1.4,0.8-1.8c1-1,2.7-1,3.7,0
				c0.5,0.5,0.8,1.2,0.8,1.8c0,0.7-0.3,1.4-0.8,1.8C102-81.9,101.3-81.6,100.7-81.6z"/>
			<path fill="#A179AF" d="M107.1-76.6c-0.7,0-1.3-0.3-1.8-0.8c-0.5-0.5-0.8-1.2-0.8-1.8s0.3-1.4,0.8-1.8c1-1,2.7-1,3.7,0
				c0.5,0.5,0.8,1.2,0.8,1.8s-0.3,1.4-0.8,1.8C108.5-76.9,107.8-76.6,107.1-76.6z"/>
			<path fill="#A179AF" d="M106.6-68.6c-0.7,0-1.3-0.3-1.8-0.8c-0.5-0.5-0.8-1.2-0.8-1.8c0-0.7,0.3-1.3,0.8-1.8c1-1,2.7-1,3.7,0
				c0.5,0.5,0.8,1.2,0.8,1.8c0,0.7-0.3,1.4-0.8,1.8C108-68.9,107.3-68.6,106.6-68.6z"/>
			<path fill="#A179AF" d="M104.7-60.6c-0.7,0-1.3-0.3-1.8-0.8c-0.5-0.5-0.8-1.2-0.8-1.8c0-0.7,0.3-1.3,0.8-1.8c1-1,2.7-1,3.7,0
				c0.5,0.5,0.8,1.2,0.8,1.8c0,0.7-0.3,1.4-0.8,1.8C106-60.9,105.3-60.6,104.7-60.6z"/>
			<path fill="#A179AF" d="M112.1-62.1c-0.7,0-1.4-0.3-1.8-0.8c-0.5-0.5-0.8-1.2-0.8-1.8s0.3-1.4,0.8-1.8c1-1,2.7-1,3.7,0
				c0.5,0.5,0.8,1.2,0.8,1.8s-0.3,1.4-0.8,1.8C113.5-62.4,112.8-62.1,112.1-62.1z"/>
			<path fill="#A179AF" d="M111.6-53.1c-0.7,0-1.4-0.3-1.8-0.8c-0.5-0.5-0.8-1.2-0.8-1.8c0-0.7,0.3-1.4,0.8-1.8c1-1,2.7-1,3.7,0
				c0.5,0.5,0.8,1.2,0.8,1.8c0,0.7-0.3,1.4-0.8,1.8C113-53.4,112.3-53.1,111.6-53.1z"/>
			<path fill="#A179AF" d="M117.1-47.1c-0.7,0-1.3-0.3-1.8-0.8c-0.5-0.5-0.8-1.2-0.8-1.8s0.3-1.4,0.8-1.8c1-1,2.7-1,3.7,0
				c0.5,0.5,0.8,1.2,0.8,1.8s-0.3,1.4-0.8,1.8C118.5-47.4,117.8-47.1,117.1-47.1z"/>
			<path fill="#A179AF" d="M118.6-56.6c-0.7,0-1.3-0.3-1.8-0.8c-0.5-0.5-0.8-1.2-0.8-1.8c0-0.7,0.3-1.4,0.8-1.8c1-1,2.7-1,3.7,0
				c0.5,0.5,0.8,1.2,0.8,1.8c0,0.7-0.3,1.4-0.8,1.8C120-56.9,119.3-56.6,118.6-56.6z"/>
			<path fill="#A179AF" d="M118.6-64.1c-0.7,0-1.4-0.3-1.8-0.8c-0.5-0.5-0.8-1.2-0.8-1.8c0-0.7,0.3-1.4,0.8-1.8c1-1,2.7-1,3.7,0
				c0.5,0.5,0.8,1.2,0.8,1.8c0,0.7-0.3,1.4-0.8,1.8C120-64.4,119.3-64.1,118.6-64.1z"/>
			<path fill="#A179AF" d="M116.6-72.1c-0.7,0-1.3-0.3-1.8-0.8c-0.5-0.5-0.8-1.2-0.8-1.8s0.3-1.4,0.8-1.8c1-1,2.7-1,3.7,0
				c0.5,0.5,0.8,1.2,0.8,1.8s-0.3,1.4-0.8,1.8C118-72.4,117.3-72.1,116.6-72.1z"/>
			<path fill="#A179AF" d="M58.2-62.1c-0.7,0-1.3-0.3-1.8-0.8c-0.5-0.5-0.8-1.2-0.8-1.8s0.3-1.4,0.8-1.8c1-1,2.7-1,3.7,0
				c0.5,0.5,0.8,1.2,0.8,1.8s-0.3,1.4-0.8,1.8C59.6-62.4,58.9-62.1,58.2-62.1z"/>
			<path fill="#A179AF" d="M144.1-83.6c-0.7,0-1.4-0.3-1.8-0.8c-0.5-0.5-0.8-1.2-0.8-1.8s0.3-1.4,0.8-1.8c1-1,2.7-1,3.7,0
				c0.5,0.5,0.8,1.2,0.8,1.8s-0.3,1.4-0.8,1.8C145.5-83.9,144.8-83.6,144.1-83.6z"/>
			<path fill="#A179AF" d="M146.1-92.1c-0.7,0-1.3-0.3-1.8-0.8c-0.5-0.5-0.8-1.2-0.8-1.8c0-0.7,0.3-1.4,0.8-1.8c1-1,2.7-1,3.7,0
				c0.5,0.5,0.8,1.2,0.8,1.8c0,0.7-0.3,1.4-0.8,1.8C147.5-92.3,146.8-92.1,146.1-92.1z"/>
			<path fill="#A179AF" d="M139.6-95.6c-0.7,0-1.3-0.3-1.8-0.8c-0.5-0.5-0.8-1.2-0.8-1.8s0.3-1.3,0.8-1.8c1-1,2.7-1,3.7,0
				c0.5,0.5,0.8,1.2,0.8,1.8s-0.3,1.4-0.8,1.8C141-95.8,140.3-95.6,139.6-95.6z"/>
			<path fill="#A179AF" d="M140.1-77.1c-0.7,0-1.4-0.3-1.8-0.8c-0.5-0.5-0.8-1.2-0.8-1.8s0.3-1.4,0.8-1.8c1-1,2.7-1,3.7,0
				c0.5,0.5,0.8,1.2,0.8,1.8s-0.3,1.4-0.8,1.8C141.5-77.4,140.8-77.1,140.1-77.1z"/>
			<path fill="#A179AF" d="M139.6-69.6c-0.7,0-1.3-0.3-1.8-0.8c-0.5-0.5-0.8-1.2-0.8-1.8c0-0.7,0.3-1.4,0.8-1.8c1-1,2.7-1,3.7,0
				c0.5,0.5,0.8,1.2,0.8,1.8c0,0.7-0.3,1.4-0.8,1.8C141-69.9,140.3-69.6,139.6-69.6z"/>
			<path fill="#A179AF" d="M146.6-72.1c-0.7,0-1.4-0.3-1.8-0.8c-0.5-0.5-0.8-1.2-0.8-1.8s0.3-1.4,0.8-1.8c1-1,2.7-1,3.7,0
				c0.5,0.5,0.8,1.2,0.8,1.8s-0.3,1.4-0.8,1.8C148-72.4,147.3-72.1,146.6-72.1z"/>
			<path fill="#A179AF" d="M145.1-64.1c-0.7,0-1.3-0.3-1.8-0.8c-0.5-0.5-0.8-1.2-0.8-1.8c0-0.7,0.3-1.3,0.8-1.8c1-1,2.7-1,3.7,0
				c0.5,0.5,0.8,1.2,0.8,1.8c0,0.7-0.3,1.4-0.8,1.8C146.5-64.4,145.8-64.1,145.1-64.1z"/>
			<path fill="#A179AF" d="M143.6-49.1c-0.7,0-1.3-0.3-1.8-0.8c-0.5-0.5-0.8-1.2-0.8-1.8c0-0.7,0.3-1.4,0.8-1.8c1-1,2.7-1,3.7,0
				c0.5,0.5,0.8,1.2,0.8,1.8c0,0.7-0.3,1.4-0.8,1.8C145-49.4,144.3-49.1,143.6-49.1z"/>
			<path fill="#A179AF" d="M141.6-56.1c-0.7,0-1.3-0.3-1.8-0.8c-0.5-0.5-0.8-1.2-0.8-1.8c0-0.7,0.3-1.4,0.8-1.8c1-1,2.7-1,3.7,0
				c0.5,0.5,0.8,1.2,0.8,1.8c0,0.7-0.3,1.4-0.8,1.8C143-56.4,142.3-56.1,141.6-56.1z"/>
			<path fill="#A179AF" d="M136.6-88.1c-0.7,0-1.4-0.3-1.8-0.8c-0.5-0.5-0.8-1.2-0.8-1.8s0.3-1.4,0.8-1.8c1-1,2.7-1,3.7,0
				c0.5,0.5,0.8,1.2,0.8,1.8s-0.3,1.4-0.8,1.8C138-88.4,137.3-88.1,136.6-88.1z"/>
			<path fill="#A179AF" d="M129.6-87.6c-0.7,0-1.3-0.3-1.8-0.8c-0.5-0.5-0.8-1.2-0.8-1.8s0.3-1.4,0.8-1.8c1-1,2.7-1,3.7,0
				c0.5,0.5,0.8,1.2,0.8,1.8s-0.3,1.4-0.8,1.8C131-87.9,130.3-87.6,129.6-87.6z"/>
			<path fill="#A179AF" d="M131.6-97.1c-0.7,0-1.3-0.3-1.8-0.8c-0.5-0.5-0.8-1.2-0.8-1.8c0-0.7,0.3-1.4,0.8-1.8c1-1,2.7-1,3.7,0
				c0.5,0.5,0.8,1.2,0.8,1.8c0,0.7-0.3,1.4-0.8,1.8C133-97.3,132.3-97.1,131.6-97.1z"/>
			<path fill="#A179AF" d="M124.6-94.1c-0.7,0-1.3-0.3-1.8-0.8c-0.5-0.5-0.8-1.2-0.8-1.8s0.3-1.4,0.8-1.8c1-1,2.7-1,3.7,0
				c0.5,0.5,0.8,1.2,0.8,1.8s-0.3,1.4-0.8,1.8C126-94.3,125.3-94.1,124.6-94.1z"/>
			<path fill="#A179AF" d="M117.1-96.1c-0.7,0-1.3-0.3-1.8-0.8c-0.5-0.5-0.8-1.2-0.8-1.8s0.3-1.4,0.8-1.8c1-1,2.7-1,3.7,0
				c0.5,0.5,0.8,1.2,0.8,1.8c0,0.7-0.3,1.4-0.8,1.8C118.5-96.3,117.8-96.1,117.1-96.1z"/>
			<path fill="#A179AF" d="M110.1-92.6c-0.7,0-1.3-0.3-1.8-0.8c-0.5-0.5-0.8-1.2-0.8-1.8c0-0.7,0.3-1.4,0.8-1.8c1-1,2.7-1,3.7,0
				c0.5,0.5,0.8,1.2,0.8,1.8c0,0.7-0.3,1.4-0.8,1.8C111.5-92.8,110.8-92.6,110.1-92.6z"/>
			<path fill="#A179AF" d="M104.2-90.6c-0.7,0-1.3-0.3-1.8-0.8c-0.5-0.5-0.8-1.2-0.8-1.8s0.3-1.4,0.8-1.8c1-1,2.7-1,3.7,0
				c0.5,0.5,0.8,1.2,0.8,1.8s-0.3,1.4-0.8,1.8C105.5-90.9,104.8-90.6,104.2-90.6z"/>
			<path fill="#A179AF" d="M108.6-83.1c-0.7,0-1.3-0.3-1.8-0.8c-0.5-0.5-0.8-1.2-0.8-1.8s0.3-1.4,0.8-1.8c1-1,2.7-1,3.7,0
				c0.5,0.5,0.8,1.2,0.8,1.8s-0.3,1.4-0.8,1.8C110-83.4,109.3-83.1,108.6-83.1z"/>
			<path fill="#A179AF" d="M117.1-88.1c-0.7,0-1.3-0.3-1.8-0.8c-0.5-0.5-0.8-1.2-0.8-1.8s0.3-1.4,0.8-1.8c1-1,2.7-1,3.7,0
				c0.5,0.5,0.8,1.2,0.8,1.8c0,0.7-0.3,1.4-0.8,1.8C118.5-88.4,117.8-88.1,117.1-88.1z"/>
			<path fill="#A179AF" d="M123.1-82.1c-0.7,0-1.4-0.3-1.8-0.8c-0.5-0.5-0.8-1.2-0.8-1.8s0.3-1.3,0.8-1.8c1-1,2.7-1,3.7,0
				c0.5,0.5,0.8,1.2,0.8,1.8s-0.3,1.4-0.8,1.8C124.5-82.4,123.8-82.1,123.1-82.1z"/>
			<path fill="#A179AF" d="M115.6-79.1c-0.7,0-1.4-0.3-1.8-0.8c-0.5-0.5-0.8-1.2-0.8-1.8s0.3-1.4,0.8-1.8c1-1,2.7-1,3.7,0
				c0.5,0.5,0.8,1.2,0.8,1.8s-0.3,1.4-0.8,1.8C117-79.4,116.3-79.1,115.6-79.1z"/>
			<path fill="#A179AF" d="M123.6-73.6c-0.7,0-1.3-0.3-1.8-0.8c-0.5-0.5-0.8-1.2-0.8-1.8s0.3-1.4,0.8-1.8c1-1,2.7-1,3.7,0
				c0.5,0.5,0.8,1.2,0.8,1.8s-0.3,1.4-0.8,1.8C125-73.9,124.3-73.6,123.6-73.6z"/>
			<path fill="#A179AF" d="M132.6-80.6c-0.7,0-1.3-0.3-1.8-0.8c-0.5-0.5-0.8-1.2-0.8-1.8c0-0.7,0.3-1.4,0.8-1.8c1-1,2.7-1,3.7,0
				c0.5,0.5,0.8,1.2,0.8,1.8c0,0.7-0.3,1.4-0.8,1.8C134-80.9,133.3-80.6,132.6-80.6z"/>
			<path fill="#A179AF" d="M132.1-74.1c-0.7,0-1.3-0.3-1.8-0.8c-0.5-0.5-0.8-1.2-0.8-1.8c0-0.7,0.3-1.4,0.8-1.8c1-1,2.7-1,3.7,0
				c0.5,0.5,0.8,1.2,0.8,1.8c0,0.7-0.3,1.4-0.8,1.8C133.5-74.4,132.8-74.1,132.1-74.1z"/>
			<path fill="#A179AF" d="M126.6-65.6c-0.7,0-1.3-0.3-1.8-0.8c-0.5-0.5-0.8-1.2-0.8-1.8s0.3-1.4,0.8-1.8c1-1,2.7-1,3.7,0
				c0.5,0.5,0.8,1.2,0.8,1.8s-0.3,1.4-0.8,1.8C128-65.9,127.3-65.6,126.6-65.6z"/>
			<path fill="#A179AF" d="M129.1-57.6c-0.7,0-1.3-0.3-1.8-0.8c-0.5-0.5-0.8-1.2-0.8-1.8c0-0.7,0.3-1.4,0.8-1.8c1-1,2.7-1,3.7,0
				c0.5,0.5,0.8,1.2,0.8,1.8c0,0.7-0.3,1.4-0.8,1.8C130.5-57.9,129.8-57.6,129.1-57.6z"/>
			<path fill="#A179AF" d="M118.6-56.6c-0.7,0-1.3-0.3-1.8-0.8c-0.5-0.5-0.8-1.2-0.8-1.8c0-0.7,0.3-1.4,0.8-1.8c1-1,2.7-1,3.7,0
				c0.5,0.5,0.8,1.2,0.8,1.8c0,0.7-0.3,1.4-0.8,1.8C120-56.9,119.3-56.6,118.6-56.6z"/>
			<path fill="#A179AF" d="M124.1-52.1c-0.7,0-1.4-0.3-1.8-0.8c-0.5-0.5-0.8-1.2-0.8-1.8c0-0.7,0.3-1.4,0.8-1.8c1-1,2.7-1,3.7,0
				c0.5,0.5,0.8,1.2,0.8,1.8c0,0.7-0.3,1.4-0.8,1.8C125.5-52.4,124.8-52.1,124.1-52.1z"/>
			<path fill="#A179AF" d="M135.1-51.6c-0.7,0-1.3-0.3-1.8-0.8c-0.5-0.5-0.8-1.2-0.8-1.8c0-0.7,0.3-1.4,0.8-1.8c1-1,2.7-1,3.7,0
				c0.5,0.5,0.8,1.2,0.8,1.8c0,0.7-0.3,1.4-0.8,1.8C136.5-51.9,135.8-51.6,135.1-51.6z"/>
			<path fill="#A179AF" d="M134.6-63.1c-0.7,0-1.3-0.3-1.8-0.8c-0.5-0.5-0.8-1.2-0.8-1.8c0-0.7,0.3-1.4,0.8-1.8c1-1,2.7-1,3.7,0
				c0.5,0.5,0.8,1.2,0.8,1.8c0,0.7-0.3,1.4-0.8,1.8C136-63.4,135.3-63.1,134.6-63.1z"/>
			<path fill="#A179AF" d="M103.7-52.1c-0.7,0-1.3-0.3-1.8-0.8c-0.5-0.5-0.8-1.2-0.8-1.8c0-0.7,0.3-1.3,0.8-1.8c1-1,2.7-1,3.7,0
				c0.5,0.5,0.8,1.2,0.8,1.8c0,0.7-0.3,1.3-0.8,1.8C105-52.4,104.3-52.1,103.7-52.1z"/>
			<path fill="#A179AF" d="M127.1-44.6c-0.7,0-1.3-0.3-1.8-0.8c-0.5-0.5-0.8-1.2-0.8-1.8c0-0.7,0.3-1.3,0.8-1.8c1-1,2.7-1,3.7,0
				c0.5,0.5,0.8,1.2,0.8,1.8c0,0.7-0.3,1.4-0.8,1.8C128.5-44.9,127.8-44.6,127.1-44.6z"/>
			<path fill="#A179AF" d="M17.3-32.7c-0.7,0-1.3-0.3-1.8-0.8c-0.5-0.5-0.8-1.2-0.8-1.8c0-0.7,0.3-1.4,0.8-1.8c1-1,2.7-1,3.7,0
				c0.5,0.5,0.8,1.2,0.8,1.8c0,0.7-0.3,1.4-0.8,1.8C18.6-32.9,17.9-32.7,17.3-32.7z"/>
			<path fill="#A179AF" d="M19.3-41.6c-0.7,0-1.3-0.3-1.8-0.8c-0.5-0.5-0.8-1.2-0.8-1.8s0.3-1.4,0.8-1.8c1-1,2.7-1,3.7,0
				c0.5,0.5,0.8,1.2,0.8,1.8s-0.3,1.4-0.8,1.8C20.6-41.9,19.9-41.6,19.3-41.6z"/>
			<path fill="#A179AF" d="M25.8-44.1c-0.7,0-1.3-0.3-1.8-0.8c-0.5-0.5-0.8-1.2-0.8-1.8s0.3-1.4,0.8-1.8c1-1,2.7-1,3.7,0
				c0.5,0.5,0.8,1.2,0.8,1.8s-0.3,1.4-0.8,1.8C27.1-44.4,26.4-44.1,25.8-44.1z"/>
			<path fill="#A179AF" d="M23.8-36.1c-0.7,0-1.3-0.3-1.8-0.8c-0.5-0.5-0.8-1.2-0.8-1.8c0-0.7,0.3-1.4,0.8-1.8c1-1,2.7-1,3.7,0
				c0.5,0.5,0.8,1.2,0.8,1.8c0,0.7-0.3,1.4-0.8,1.8C25.1-36.4,24.4-36.1,23.8-36.1z"/>
			<path fill="#A179AF" d="M30.8-32.2c-0.7,0-1.3-0.3-1.8-0.8c-0.5-0.5-0.8-1.2-0.8-1.8c0-0.7,0.3-1.4,0.8-1.8c1-1,2.7-1,3.7,0
				c0.5,0.5,0.8,1.2,0.8,1.8c0,0.7-0.3,1.4-0.8,1.8C32.1-32.4,31.4-32.2,30.8-32.2z"/>
			<path fill="#A179AF" d="M30.8-24.2c-0.7,0-1.3-0.3-1.8-0.8c-0.5-0.5-0.8-1.2-0.8-1.8c0-0.7,0.3-1.4,0.8-1.8c1-1,2.7-1,3.7,0
				c0.5,0.5,0.8,1.2,0.8,1.8c0,0.7-0.3,1.4-0.8,1.8C32.1-24.4,31.4-24.2,30.8-24.2z"/>
			<path fill="#A179AF" d="M22.8-27.7c-0.7,0-1.3-0.3-1.8-0.8c-0.5-0.5-0.8-1.2-0.8-1.8s0.3-1.4,0.8-1.8c1-1,2.7-1,3.7,0
				c0.5,0.5,0.8,1.2,0.8,1.8s-0.3,1.4-0.8,1.8C24.1-27.9,23.4-27.7,22.8-27.7z"/>
			<path fill="#A179AF" d="M37.7-30.2c-0.7,0-1.4-0.3-1.8-0.8c-0.5-0.5-0.8-1.2-0.8-1.8s0.3-1.4,0.8-1.8c1-1,2.7-1,3.7,0
				c0.5,0.5,0.8,1.2,0.8,1.8s-0.3,1.4-0.8,1.8C39.1-30.4,38.4-30.2,37.7-30.2z"/>
			<path fill="#A179AF" d="M38.2-24.2c-0.7,0-1.4-0.3-1.8-0.8c-0.5-0.5-0.8-1.2-0.8-1.8c0-0.7,0.3-1.3,0.8-1.8c1-1,2.7-1,3.7,0
				c0.5,0.5,0.8,1.2,0.8,1.8c0,0.7-0.3,1.4-0.8,1.8C39.6-24.4,38.9-24.2,38.2-24.2z"/>
			<path fill="#A179AF" d="M41.7-36.6c-0.7,0-1.3-0.3-1.8-0.8c-0.5-0.5-0.8-1.2-0.8-1.8c0-0.7,0.3-1.4,0.8-1.8c1-1,2.7-1,3.7,0
				c0.5,0.5,0.8,1.2,0.8,1.8c0,0.7-0.3,1.4-0.8,1.8C43.1-36.9,42.4-36.6,41.7-36.6z"/>
			<path fill="#A179AF" d="M47.7-41.1c-0.7,0-1.3-0.3-1.8-0.8c-0.5-0.5-0.8-1.2-0.8-1.8c0-0.7,0.3-1.4,0.8-1.8c1-1,2.7-1,3.7,0
				c0.5,0.5,0.8,1.2,0.8,1.8c0,0.7-0.3,1.4-0.8,1.8C49.1-41.4,48.4-41.1,47.7-41.1z"/>
			<path fill="#A179AF" d="M41.7-36.6c-0.7,0-1.3-0.3-1.8-0.8c-0.5-0.5-0.8-1.2-0.8-1.8c0-0.7,0.3-1.4,0.8-1.8c1-1,2.7-1,3.7,0
				c0.5,0.5,0.8,1.2,0.8,1.8c0,0.7-0.3,1.4-0.8,1.8C43.1-36.9,42.4-36.6,41.7-36.6z"/>
			<path fill="#A179AF" d="M48.2-33.6c-0.7,0-1.3-0.3-1.8-0.8c-0.5-0.5-0.8-1.2-0.8-1.8c0-0.7,0.3-1.4,0.8-1.8c1-1,2.7-1,3.7,0
				c0.5,0.5,0.8,1.2,0.8,1.8c0,0.7-0.3,1.4-0.8,1.8C49.6-33.9,48.9-33.6,48.2-33.6z"/>
			<path fill="#A179AF" d="M54.2-25.2c-0.7,0-1.3-0.3-1.8-0.8c-0.5-0.5-0.8-1.2-0.8-1.8c0-0.7,0.3-1.4,0.8-1.8c1-1,2.7-1,3.7,0
				c0.5,0.5,0.8,1.2,0.8,1.8c0,0.7-0.3,1.4-0.8,1.8C55.6-25.4,54.9-25.2,54.2-25.2z"/>
			<path fill="#A179AF" d="M44.2-27.2c-0.7,0-1.3-0.3-1.8-0.8c-0.5-0.5-0.8-1.2-0.8-1.8s0.3-1.4,0.8-1.8c1-1,2.7-1,3.7,0
				c0.5,0.5,0.8,1.2,0.8,1.8s-0.3,1.4-0.8,1.8C45.6-27.4,44.9-27.2,44.2-27.2z"/>
			<path fill="#A179AF" d="M55.7-31.2c-0.7,0-1.4-0.3-1.8-0.8c-0.5-0.5-0.8-1.2-0.8-1.8c0-0.7,0.3-1.4,0.8-1.8c1-1,2.7-1,3.7,0
				c0.5,0.5,0.8,1.2,0.8,1.8c0,0.7-0.3,1.4-0.8,1.8C57.1-31.4,56.4-31.2,55.7-31.2z"/>
			<path fill="#A179AF" d="M55.2-40.1c-0.7,0-1.3-0.3-1.8-0.8c-0.5-0.5-0.8-1.2-0.8-1.8c0-0.7,0.3-1.4,0.8-1.8c1-1,2.7-1,3.7,0
				c0.5,0.5,0.8,1.2,0.8,1.8c0,0.7-0.3,1.4-0.8,1.8C56.6-40.4,55.9-40.1,55.2-40.1z"/>
			<path fill="#A179AF" d="M63.7-43.6c-0.7,0-1.3-0.3-1.8-0.8c-0.5-0.5-0.8-1.2-0.8-1.8c0-0.7,0.3-1.4,0.8-1.8c1-1,2.7-1,3.7,0
				c0.5,0.5,0.8,1.2,0.8,1.8c0,0.7-0.3,1.3-0.8,1.8C65.1-43.9,64.4-43.6,63.7-43.6z"/>
			<path fill="#A179AF" d="M62.2-37.6c-0.7,0-1.4-0.3-1.8-0.8c-0.5-0.5-0.8-1.2-0.8-1.8c0-0.7,0.3-1.4,0.8-1.8c1-1,2.7-1,3.7,0
				c0.5,0.5,0.8,1.2,0.8,1.8c0,0.7-0.3,1.4-0.8,1.8C63.6-37.9,62.9-37.6,62.2-37.6z"/>
			<path fill="#A179AF" d="M64.7-30.2c-0.7,0-1.4-0.3-1.8-0.8c-0.5-0.5-0.8-1.2-0.8-1.8s0.3-1.3,0.8-1.8c1-1,2.7-1,3.7,0
				c0.5,0.5,0.8,1.2,0.8,1.8s-0.3,1.4-0.8,1.8C66.1-30.4,65.4-30.2,64.7-30.2z"/>
			<path fill="#A179AF" d="M72.2-35.1c-0.7,0-1.3-0.3-1.8-0.8c-0.5-0.5-0.8-1.2-0.8-1.8c0-0.7,0.3-1.4,0.8-1.8c1-1,2.7-1,3.7,0
				c0.5,0.5,0.8,1.2,0.8,1.8c0,0.7-0.3,1.4-0.8,1.8C73.6-35.4,72.9-35.1,72.2-35.1z"/>
			<path fill="#A179AF" d="M71.7-24.2c-0.7,0-1.4-0.3-1.8-0.8c-0.5-0.5-0.8-1.2-0.8-1.8c0-0.7,0.3-1.4,0.8-1.8c1-1,2.7-1,3.7,0
				c0.5,0.5,0.8,1.2,0.8,1.8c0,0.7-0.3,1.4-0.8,1.8C73.1-24.4,72.4-24.2,71.7-24.2z"/>
			<path fill="#A179AF" d="M72.7-42.1c-0.7,0-1.3-0.3-1.8-0.8c-0.5-0.5-0.8-1.2-0.8-1.8c0-0.7,0.3-1.4,0.8-1.8c1-1,2.7-1,3.7,0
				c0.5,0.5,0.8,1.2,0.8,1.8c0,0.7-0.3,1.4-0.8,1.8C74.1-42.4,73.4-42.1,72.7-42.1z"/>
			<path fill="#A179AF" d="M79.7-38.6c-0.7,0-1.3-0.3-1.8-0.8c-0.5-0.5-0.8-1.2-0.8-1.8s0.3-1.4,0.8-1.8c1-1,2.7-1,3.7,0
				c0.5,0.5,0.8,1.2,0.8,1.8s-0.3,1.4-0.8,1.8C81-38.9,80.4-38.6,79.7-38.6z"/>
			<path fill="#A179AF" d="M33.2-40.1c-0.7,0-1.4-0.3-1.8-0.8c-0.5-0.5-0.8-1.2-0.8-1.8c0-0.7,0.3-1.3,0.8-1.8c1-1,2.7-1,3.7,0
				c0.5,0.5,0.8,1.2,0.8,1.8c0,0.7-0.3,1.4-0.8,1.8C34.6-40.4,33.9-40.1,33.2-40.1z"/>
			<path fill="#A179AF" d="M77.7-30.7c-0.7,0-1.3-0.3-1.8-0.8c-0.5-0.5-0.8-1.2-0.8-1.8c0-0.7,0.3-1.4,0.8-1.8c1-1,2.7-1,3.7,0
				c0.5,0.5,0.8,1.2,0.8,1.8c0,0.7-0.3,1.4-0.8,1.8C79-30.9,78.4-30.7,77.7-30.7z"/>
			<path fill="#A179AF" d="M10.8-19.7c-0.7,0-1.4-0.3-1.8-0.8c-0.5-0.5-0.8-1.2-0.8-1.8c0-0.7,0.3-1.4,0.8-1.8c1-1,2.7-1,3.7,0
				c0.5,0.5,0.8,1.2,0.8,1.8c0,0.7-0.3,1.4-0.8,1.8C12.1-19.9,11.5-19.7,10.8-19.7z"/>
			<path fill="#A179AF" d="M8.8-11.7c-0.7,0-1.4-0.3-1.8-0.8c-0.5-0.5-0.8-1.2-0.8-1.8c0-0.7,0.3-1.4,0.8-1.8c1-1,2.7-1,3.7,0
				c0.5,0.5,0.8,1.2,0.8,1.8c0,0.7-0.3,1.4-0.8,1.8C10.1-12,9.5-11.7,8.8-11.7z"/>
			<path fill="#A179AF" d="M26.7-13.1c-0.7,0-1.3-0.3-1.8-0.8c-0.5-0.5-0.8-1.2-0.8-1.8c0-0.7,0.3-1.3,0.8-1.8c1-1,2.7-1,3.7,0
				c0.5,0.5,0.8,1.2,0.8,1.8c0,0.7-0.3,1.4-0.8,1.8C28-13.4,27.3-13.1,26.7-13.1z"/>
			<path fill="#A179AF" d="M24.3-20.2c-0.7,0-1.3-0.3-1.8-0.8c-0.5-0.5-0.8-1.2-0.8-1.8s0.3-1.4,0.8-1.8c1-1,2.7-1,3.7,0
				c0.5,0.5,0.8,1.2,0.8,1.8s-0.3,1.4-0.8,1.8C25.6-20.4,24.9-20.2,24.3-20.2z"/>
			<path fill="#A179AF" d="M32.7-16.7c-0.7,0-1.4-0.3-1.8-0.8c-0.5-0.5-0.8-1.2-0.8-1.8c0-0.7,0.3-1.4,0.8-1.8c1-1,2.7-1,3.7,0
				c0.5,0.5,0.8,1.2,0.8,1.8c0,0.7-0.3,1.4-0.8,1.8C34.1-17,33.4-16.7,32.7-16.7z"/>
			<path fill="#A179AF" d="M40.2-17.7c-0.7,0-1.3-0.3-1.8-0.8c-0.5-0.5-0.8-1.2-0.8-1.8c0-0.7,0.3-1.3,0.8-1.8c1-1,2.7-1,3.7,0
				c0.5,0.5,0.8,1.2,0.8,1.8c0,0.7-0.3,1.4-0.8,1.8C41.6-17.9,40.9-17.7,40.2-17.7z"/>
			<path fill="#A179AF" d="M48.7-19.2c-0.7,0-1.3-0.3-1.8-0.8c-0.5-0.5-0.8-1.2-0.8-1.8c0-0.7,0.3-1.3,0.8-1.8c1-1,2.7-1,3.7,0
				c0.5,0.5,0.8,1.2,0.8,1.8c0,0.7-0.3,1.4-0.8,1.8C50.1-19.4,49.4-19.2,48.7-19.2z"/>
			<path fill="#A179AF" d="M47.2-13.2c-0.7,0-1.3-0.3-1.8-0.8c-0.5-0.5-0.8-1.2-0.8-1.8c0-0.7,0.3-1.4,0.8-1.8c1-1,2.7-1,3.7,0
				c0.5,0.5,0.8,1.2,0.8,1.8c0,0.7-0.3,1.4-0.8,1.8C48.6-13.5,47.9-13.2,47.2-13.2z"/>
			<path fill="#A179AF" d="M57.2-10.7c-0.7,0-1.3-0.3-1.8-0.8c-0.5-0.5-0.8-1.2-0.8-1.8c0-0.7,0.3-1.4,0.8-1.8c1-1,2.7-1,3.7,0
				c0.5,0.5,0.8,1.2,0.8,1.8c0,0.7-0.3,1.4-0.8,1.8C58.6-11,57.9-10.7,57.2-10.7z"/>
			<path fill="#A179AF" d="M57.7-17.7c-0.7,0-1.3-0.3-1.8-0.8c-0.5-0.5-0.8-1.2-0.8-1.8c0-0.7,0.3-1.4,0.8-1.8c1-1,2.7-1,3.7,0
				c0.5,0.5,0.8,1.2,0.8,1.8c0,0.7-0.3,1.4-0.8,1.8C59.1-17.9,58.4-17.7,57.7-17.7z"/>
			<path fill="#A179AF" d="M65.7-12.7c-0.7,0-1.3-0.3-1.8-0.8c-0.5-0.5-0.8-1.2-0.8-1.8c0-0.7,0.3-1.4,0.8-1.8c1-1,2.7-1,3.7,0
				c0.5,0.5,0.8,1.2,0.8,1.8c0,0.7-0.3,1.4-0.8,1.8C67.1-13,66.4-12.7,65.7-12.7z"/>
			<path fill="#A179AF" d="M72.2-15.7c-0.7,0-1.3-0.3-1.8-0.8c-0.5-0.5-0.8-1.2-0.8-1.8c0-0.7,0.3-1.4,0.8-1.8c1-1,2.7-1,3.7,0
				c0.5,0.5,0.8,1.2,0.8,1.8c0,0.7-0.3,1.4-0.8,1.8C73.6-16,72.9-15.7,72.2-15.7z"/>
			<path fill="#A179AF" d="M18.3-15.7c-0.7,0-1.3-0.3-1.8-0.8c-0.5-0.5-0.8-1.2-0.8-1.8c0-0.7,0.3-1.4,0.8-1.8c1-1,2.7-1,3.7,0
				c0.5,0.5,0.8,1.2,0.8,1.8c0,0.7-0.3,1.4-0.8,1.8C19.6-16,18.9-15.7,18.3-15.7z"/>
			<path fill="#A179AF" d="M86.7-45.6c-0.7,0-1.3-0.3-1.8-0.8c-0.5-0.5-0.8-1.2-0.8-1.8c0-0.7,0.3-1.4,0.8-1.8c1-1,2.7-1,3.7,0
				c0.5,0.5,0.8,1.2,0.8,1.8c0,0.7-0.3,1.4-0.8,1.8C88-45.9,87.4-45.6,86.7-45.6z"/>
			<path fill="#A179AF" d="M91.7-33.1c-0.7,0-1.3-0.3-1.8-0.8c-0.5-0.5-0.8-1.2-0.8-1.8s0.3-1.4,0.8-1.8c1-1,2.7-1,3.7,0
				c0.5,0.5,0.8,1.2,0.8,1.8s-0.3,1.4-0.8,1.8C93-33.4,92.3-33.1,91.7-33.1z"/>
			<path fill="#A179AF" d="M92.7-41.1c-0.7,0-1.4-0.3-1.8-0.8c-0.5-0.5-0.8-1.2-0.8-1.8c0-0.7,0.3-1.4,0.8-1.8c1-1,2.7-1,3.7,0
				c0.5,0.5,0.8,1.2,0.8,1.8c0,0.7-0.3,1.4-0.8,1.8C94-41.4,93.3-41.1,92.7-41.1z"/>
			<path fill="#A179AF" d="M102.2-43.1c-0.7,0-1.4-0.3-1.8-0.8c-0.5-0.5-0.8-1.2-0.8-1.8c0-0.7,0.3-1.3,0.8-1.8c1-1,2.7-1,3.7,0
				c0.5,0.5,0.8,1.2,0.8,1.8c0,0.7-0.3,1.4-0.8,1.8C103.5-43.4,102.9-43.1,102.2-43.1z"/>
			<path fill="#A179AF" d="M103.7-33.6c-0.7,0-1.4-0.3-1.8-0.8c-0.5-0.5-0.8-1.2-0.8-1.8c0-0.7,0.3-1.4,0.8-1.8c1-1,2.7-1,3.7,0
				c0.5,0.5,0.8,1.2,0.8,1.8c0,0.7-0.3,1.4-0.8,1.8C105-33.9,104.3-33.6,103.7-33.6z"/>
			<path fill="#A179AF" d="M97.7-28.2c-0.7,0-1.3-0.3-1.8-0.8c-0.5-0.5-0.8-1.2-0.8-1.8c0-0.7,0.3-1.4,0.8-1.8c1-1,2.7-1,3.7,0
				c0.5,0.5,0.8,1.2,0.8,1.8c0,0.7-0.3,1.4-0.8,1.8C99-28.4,98.3-28.2,97.7-28.2z"/>
			<path fill="#A179AF" d="M91.2-24.7c-0.7,0-1.3-0.3-1.8-0.8c-0.5-0.5-0.8-1.2-0.8-1.8s0.3-1.4,0.8-1.8c1-1,2.7-1,3.7,0
				c0.5,0.5,0.8,1.2,0.8,1.8s-0.3,1.4-0.8,1.8C92.5-24.9,91.8-24.7,91.2-24.7z"/>
			<path fill="#A179AF" d="M91.7-33.1c-0.7,0-1.3-0.3-1.8-0.8c-0.5-0.5-0.8-1.2-0.8-1.8s0.3-1.4,0.8-1.8c1-1,2.7-1,3.7,0
				c0.5,0.5,0.8,1.2,0.8,1.8s-0.3,1.4-0.8,1.8C93-33.4,92.3-33.1,91.7-33.1z"/>
			<path fill="#A179AF" d="M87.2-18.2c-0.7,0-1.3-0.3-1.8-0.8c-0.5-0.5-0.8-1.2-0.8-1.8c0-0.7,0.3-1.4,0.8-1.8c1-1,2.7-1,3.7,0
				c0.5,0.5,0.8,1.2,0.8,1.8c0,0.7-0.3,1.4-0.8,1.8C88.5-18.4,87.9-18.2,87.2-18.2z"/>
			<path fill="#A179AF" d="M96.7-18.7c-0.7,0-1.3-0.3-1.8-0.8c-0.5-0.5-0.8-1.2-0.8-1.8c0-0.7,0.3-1.4,0.8-1.8c1-1,2.7-1,3.7,0
				c0.5,0.5,0.8,1.2,0.8,1.8c0,0.7-0.3,1.4-0.8,1.8C98-18.9,97.3-18.7,96.7-18.7z"/>
			<path fill="#A179AF" d="M103.7-16.2c-0.7,0-1.3-0.3-1.8-0.8c-0.5-0.5-0.8-1.2-0.8-1.8c0-0.7,0.3-1.4,0.8-1.8c1-1,2.7-1,3.7,0
				c0.5,0.5,0.8,1.2,0.8,1.8c0,0.7-0.3,1.3-0.8,1.8C105-16.5,104.3-16.2,103.7-16.2z"/>
			<path fill="#A179AF" d="M104.2-25.2c-0.7,0-1.3-0.3-1.8-0.8c-0.5-0.5-0.8-1.2-0.8-1.8c0-0.7,0.3-1.4,0.8-1.8c1-1,2.7-1,3.7,0
				c0.5,0.5,0.8,1.2,0.8,1.8c0,0.7-0.3,1.4-0.8,1.8C105.5-25.4,104.8-25.2,104.2-25.2z"/>
			<path fill="#A179AF" d="M10.3-28.2c-0.7,0-1.4-0.3-1.8-0.8c-0.5-0.5-0.8-1.2-0.8-1.8c0-0.7,0.3-1.4,0.8-1.8c1-1,2.7-1,3.7,0
				c0.5,0.5,0.8,1.2,0.8,1.8c0,0.7-0.3,1.4-0.8,1.8C11.6-28.4,11-28.2,10.3-28.2z"/>
			<path fill="#A179AF" d="M11.3-37.6c-0.7,0-1.4-0.3-1.8-0.8c-0.5-0.5-0.8-1.2-0.8-1.8c0-0.7,0.3-1.4,0.8-1.8c1-1,2.7-1,3.7,0
				c0.5,0.5,0.8,1.2,0.8,1.8c0,0.7-0.3,1.4-0.8,1.8C12.6-37.9,12-37.6,11.3-37.6z"/>
			<path fill="#A179AF" d="M143.6-12.2c-0.7,0-1.3-0.3-1.8-0.8c-0.5-0.5-0.8-1.2-0.8-1.8c0-0.7,0.3-1.4,0.8-1.8c1-1,2.7-1,3.7,0
				c0.5,0.5,0.8,1.2,0.8,1.8c0,0.7-0.3,1.4-0.8,1.8C145-12.5,144.3-12.2,143.6-12.2z"/>
			<path fill="#A179AF" d="M137.1-15.2c-0.7,0-1.4-0.3-1.8-0.8c-0.5-0.5-0.8-1.2-0.8-1.8c0-0.7,0.3-1.4,0.8-1.8c1-1,2.7-1,3.7,0
				c0.5,0.5,0.8,1.2,0.8,1.8c0,0.7-0.3,1.4-0.8,1.8C138.5-15.5,137.8-15.2,137.1-15.2z"/>
			<path fill="#A179AF" d="M149.1-17.2c-0.7,0-1.3-0.3-1.8-0.8c-0.5-0.5-0.8-1.2-0.8-1.8c0-0.7,0.3-1.4,0.8-1.8c1-1,2.7-1,3.7,0
				c0.5,0.5,0.8,1.2,0.8,1.8c0,0.7-0.3,1.4-0.8,1.8C150.5-17.4,149.8-17.2,149.1-17.2z"/>
			<path fill="#A179AF" d="M142.6-42.6c-0.7,0-1.3-0.3-1.8-0.8c-0.5-0.5-0.8-1.2-0.8-1.8c0-0.7,0.3-1.4,0.8-1.8c1-1,2.7-1,3.7,0
				c0.5,0.5,0.8,1.2,0.8,1.8c0,0.7-0.3,1.4-0.8,1.8C144-42.9,143.3-42.6,142.6-42.6z"/>
			<path fill="#A179AF" d="M142.1-32.2c-0.7,0-1.4-0.3-1.8-0.8c-0.5-0.5-0.8-1.2-0.8-1.8c0-0.7,0.3-1.4,0.8-1.8c1-1,2.7-1,3.7,0
				c0.5,0.5,0.8,1.2,0.8,1.8c0,0.7-0.3,1.4-0.8,1.8C143.5-32.4,142.8-32.2,142.1-32.2z"/>
			<path fill="#A179AF" d="M142.6-42.6c-0.7,0-1.3-0.3-1.8-0.8c-0.5-0.5-0.8-1.2-0.8-1.8c0-0.7,0.3-1.4,0.8-1.8c1-1,2.7-1,3.7,0
				c0.5,0.5,0.8,1.2,0.8,1.8c0,0.7-0.3,1.4-0.8,1.8C144-42.9,143.3-42.6,142.6-42.6z"/>
			<path fill="#A179AF" d="M145.6-24.7c-0.7,0-1.4-0.3-1.8-0.8c-0.5-0.5-0.8-1.2-0.8-1.8s0.3-1.4,0.8-1.8c1-1,2.7-1,3.7,0
				c0.5,0.5,0.8,1.2,0.8,1.8s-0.3,1.4-0.8,1.8C147-24.9,146.3-24.7,145.6-24.7z"/>
			<path fill="#A179AF" d="M82.2-23.7c-0.7,0-1.4-0.3-1.8-0.8c-0.5-0.5-0.8-1.2-0.8-1.8s0.3-1.4,0.8-1.8c1-1,2.7-1,3.7,0
				c0.5,0.5,0.8,1.2,0.8,1.8s-0.3,1.4-0.8,1.8C83.5-23.9,82.9-23.7,82.2-23.7z"/>
			<path fill="#A179AF" d="M79.2-17.7c-0.7,0-1.4-0.3-1.8-0.8c-0.5-0.5-0.8-1.2-0.8-1.8c0-0.7,0.3-1.4,0.8-1.8c1-1,2.7-1,3.7,0
				c0.5,0.5,0.8,1.2,0.8,1.8c0,0.7-0.3,1.4-0.8,1.8C80.5-17.9,79.9-17.7,79.2-17.7z"/>
			<path fill="#A179AF" d="M109.6-29.2c-0.7,0-1.3-0.3-1.8-0.8c-0.5-0.5-0.8-1.2-0.8-1.8s0.3-1.3,0.8-1.8c1-1,2.7-1,3.7,0
				c0.5,0.5,0.8,1.2,0.8,1.8s-0.3,1.4-0.8,1.8C111-29.4,110.3-29.2,109.6-29.2z"/>
			<path fill="#A179AF" d="M115.6-28.2c-0.7,0-1.4-0.3-1.8-0.8c-0.5-0.5-0.8-1.2-0.8-1.8c0-0.7,0.3-1.4,0.8-1.8c1-1,2.7-1,3.7,0
				c0.5,0.5,0.8,1.2,0.8,1.8c0,0.7-0.3,1.4-0.8,1.8C117-28.4,116.3-28.2,115.6-28.2z"/>
			<path fill="#A179AF" d="M110.6-20.2c-0.7,0-1.3-0.3-1.8-0.8c-0.5-0.5-0.8-1.2-0.8-1.8s0.3-1.4,0.8-1.8c1-1,2.7-1,3.7,0
				c0.5,0.5,0.8,1.2,0.8,1.8s-0.3,1.4-0.8,1.8C112-20.4,111.3-20.2,110.6-20.2z"/>
			<path fill="#A179AF" d="M118.6-20.7c-0.7,0-1.3-0.3-1.8-0.8c-0.5-0.5-0.8-1.2-0.8-1.8s0.3-1.4,0.8-1.8c1-1,2.7-1,3.7,0
				c0.5,0.5,0.8,1.2,0.8,1.8s-0.3,1.4-0.8,1.8C120-20.9,119.3-20.7,118.6-20.7z"/>
			<path fill="#A179AF" d="M109.6-29.2c-0.7,0-1.3-0.3-1.8-0.8c-0.5-0.5-0.8-1.2-0.8-1.8s0.3-1.3,0.8-1.8c1-1,2.7-1,3.7,0
				c0.5,0.5,0.8,1.2,0.8,1.8s-0.3,1.4-0.8,1.8C111-29.4,110.3-29.2,109.6-29.2z"/>
			<path fill="#A179AF" d="M115.6-28.2c-0.7,0-1.4-0.3-1.8-0.8c-0.5-0.5-0.8-1.2-0.8-1.8c0-0.7,0.3-1.4,0.8-1.8c1-1,2.7-1,3.7,0
				c0.5,0.5,0.8,1.2,0.8,1.8c0,0.7-0.3,1.4-0.8,1.8C117-28.4,116.3-28.2,115.6-28.2z"/>
			<path fill="#A179AF" d="M111.1-37.1c-0.7,0-1.4-0.3-1.8-0.8c-0.5-0.5-0.8-1.2-0.8-1.8c0-0.7,0.3-1.4,0.8-1.8c1-1,2.7-1,3.7,0
				c0.5,0.5,0.8,1.2,0.8,1.8c0,0.7-0.3,1.4-0.8,1.8C112.5-37.4,111.8-37.1,111.1-37.1z"/>
			<path fill="#A179AF" d="M119.1-34.1c-0.7,0-1.3-0.3-1.8-0.8c-0.5-0.5-0.8-1.2-0.8-1.8c0-0.7,0.3-1.4,0.8-1.8c1-1,2.7-1,3.7,0
				c0.5,0.5,0.8,1.2,0.8,1.8c0,0.7-0.3,1.4-0.8,1.8C120.5-34.4,119.8-34.1,119.1-34.1z"/>
			<path fill="#A179AF" d="M123.6-27.7c-0.7,0-1.3-0.3-1.8-0.8c-0.5-0.5-0.8-1.2-0.8-1.8s0.3-1.4,0.8-1.8c1-1,2.7-1,3.7,0
				c0.5,0.5,0.8,1.2,0.8,1.8s-0.3,1.4-0.8,1.8C125-27.9,124.3-27.7,123.6-27.7z"/>
			<path fill="#A179AF" d="M127.6-23.2c-0.7,0-1.4-0.3-1.8-0.8c-0.5-0.5-0.8-1.2-0.8-1.8s0.3-1.3,0.8-1.8c1-1,2.7-1,3.7,0
				c0.5,0.5,0.8,1.2,0.8,1.8s-0.3,1.4-0.8,1.8C129-23.4,128.3-23.2,127.6-23.2z"/>
			<path fill="#A179AF" d="M128.6-15.2c-0.7,0-1.3-0.3-1.8-0.8c-0.5-0.5-0.8-1.2-0.8-1.8c0-0.7,0.3-1.4,0.8-1.8c1-1,2.7-1,3.7,0
				c0.5,0.5,0.8,1.2,0.8,1.8c0,0.7-0.3,1.4-0.8,1.8C130-15.5,129.3-15.2,128.6-15.2z"/>
			<path fill="#A179AF" d="M132.6-30.2c-0.7,0-1.4-0.3-1.8-0.8c-0.5-0.5-0.8-1.2-0.8-1.8s0.3-1.4,0.8-1.8c1-1,2.7-1,3.7,0
				c0.5,0.5,0.8,1.2,0.8,1.8s-0.3,1.4-0.8,1.8C134-30.4,133.3-30.2,132.6-30.2z"/>
			<path fill="#A179AF" d="M129.1-35.1c-0.7,0-1.3-0.3-1.8-0.8c-0.5-0.5-0.8-1.2-0.8-1.8c0-0.7,0.3-1.4,0.8-1.8c1-1,2.7-1,3.7,0
				c0.5,0.5,0.8,1.2,0.8,1.8c0,0.7-0.3,1.4-0.8,1.8C130.5-35.4,129.8-35.1,129.1-35.1z"/>
			<path fill="#A179AF" d="M120.6-41.1c-0.7,0-1.3-0.3-1.8-0.8c-0.5-0.5-0.8-1.2-0.8-1.8c0-0.7,0.3-1.4,0.8-1.8c1-1,2.7-1,3.7,0
				c0.5,0.5,0.8,1.2,0.8,1.8c0,0.7-0.3,1.4-0.8,1.8C122-41.4,121.3-41.1,120.6-41.1z"/>
			<path fill="#A179AF" d="M136.6-37.6c-0.7,0-1.3-0.3-1.8-0.8c-0.5-0.5-0.8-1.2-0.8-1.8c0-0.7,0.3-1.4,0.8-1.8c1-1,2.7-1,3.7,0
				c0.5,0.5,0.8,1.2,0.8,1.8c0,0.7-0.3,1.4-0.8,1.8C138-37.9,137.3-37.6,136.6-37.6z"/>
			<path fill="#A179AF" d="M137.1-23.2c-0.7,0-1.4-0.3-1.8-0.8c-0.5-0.5-0.8-1.2-0.8-1.8s0.3-1.4,0.8-1.8c1-1,2.7-1,3.7,0
				c0.5,0.5,0.8,1.2,0.8,1.8s-0.3,1.4-0.8,1.8C138.5-23.4,137.8-23.2,137.1-23.2z"/>
			<path fill="#A179AF" d="M110.6-44.1c-0.7,0-1.3-0.3-1.8-0.8c-0.5-0.5-0.8-1.2-0.8-1.8s0.3-1.4,0.8-1.8c1-1,2.7-1,3.7,0
				c0.5,0.5,0.8,1.2,0.8,1.8s-0.3,1.4-0.8,1.8C112-44.4,111.3-44.1,110.6-44.1z"/>
			<path fill="#A179AF" d="M120.1-13.7c-0.7,0-1.4-0.3-1.8-0.8c-0.5-0.5-0.8-1.2-0.8-1.8c0-0.7,0.3-1.4,0.8-1.8c1-1,2.7-1,3.7,0
				c0.5,0.5,0.8,1.2,0.8,1.8c0,0.7-0.3,1.4-0.8,1.8C121.5-14,120.8-13.7,120.1-13.7z"/>
			<path fill="#A179AF" d="M132.1-9.7c-0.7,0-1.3-0.3-1.8-0.8c-0.5-0.5-0.8-1.2-0.8-1.8c0-0.7,0.3-1.4,0.8-1.8c1-1,2.7-1,3.7,0
				c0.5,0.5,0.8,1.2,0.8,1.8c0,0.7-0.3,1.4-0.8,1.8C133.5-10,132.8-9.7,132.1-9.7z"/>
			<path fill="#A179AF" d="M134.1-44.6c-0.7,0-1.4-0.3-1.8-0.8c-0.5-0.5-0.8-1.2-0.8-1.8c0-0.7,0.3-1.4,0.8-1.8c1-1,2.7-1,3.7,0
				c0.5,0.5,0.8,1.2,0.8,1.8c0,0.7-0.3,1.4-0.8,1.8C135.5-44.9,134.8-44.6,134.1-44.6z"/>
			<path fill="#A179AF" d="M22.8-97.6c-0.7,0-1.3-0.3-1.8-0.8c-0.5-0.5-0.8-1.2-0.8-1.8c0-0.7,0.3-1.4,0.8-1.8c1-1,2.7-1,3.7,0
				c0.5,0.5,0.8,1.2,0.8,1.8c0,0.7-0.3,1.3-0.8,1.8C24.1-97.8,23.4-97.6,22.8-97.6z"/>
			<path fill="#A179AF" d="M15.3-24.7c-0.7,0-1.3-0.3-1.8-0.8c-0.5-0.5-0.8-1.2-0.8-1.8s0.3-1.4,0.8-1.8c1-1,2.7-1,3.7,0
				c0.5,0.5,0.8,1.2,0.8,1.8s-0.3,1.3-0.8,1.8C16.6-24.9,16-24.7,15.3-24.7z"/>
			<path fill="#A179AF" d="M64.2-22.7c-0.7,0-1.3-0.3-1.8-0.8c-0.5-0.5-0.8-1.2-0.8-1.8c0-0.7,0.3-1.4,0.8-1.8c1-1,2.7-1,3.7,0
				c0.5,0.5,0.8,1.2,0.8,1.8c0,0.7-0.3,1.4-0.8,1.8C65.6-22.9,64.9-22.7,64.2-22.7z"/>
			<path fill="#A179AF" d="M84.7-33.6c-0.7,0-1.3-0.3-1.8-0.8c-0.5-0.5-0.8-1.2-0.8-1.8c0-0.7,0.3-1.4,0.8-1.8c1-1,2.7-1,3.7,0
				c0.5,0.5,0.8,1.2,0.8,1.8c0,0.7-0.3,1.4-0.8,1.8C86-33.9,85.4-33.6,84.7-33.6z"/>
			<path fill="#A179AF" d="M98.2-36.6c-0.7,0-1.4-0.3-1.8-0.8c-0.5-0.5-0.8-1.2-0.8-1.8c0-0.7,0.3-1.4,0.8-1.8c1-1,2.7-1,3.7,0
				c0.5,0.5,0.8,1.2,0.8,1.8c0,0.7-0.3,1.4-0.8,1.8C99.5-36.9,98.8-36.6,98.2-36.6z"/>
			<path fill="#A179AF" d="M85.7-4.7c-0.7,0-1.3-0.3-1.8-0.8c-0.5-0.5-0.8-1.2-0.8-1.8c0-0.7,0.3-1.4,0.8-1.8c1-1,2.7-1,3.7,0
				C88-8.6,88.3-8,88.3-7.3c0,0.7-0.3,1.4-0.8,1.8C87-5,86.4-4.7,85.7-4.7z"/>
			<path fill="#A179AF" d="M27.2-0.1c-0.7,0-1.3-0.3-1.8-0.8c-0.5-0.5-0.8-1.2-0.8-1.8c0-0.7,0.3-1.4,0.8-1.8c1-1,2.7-1,3.7,0
				c0.5,0.5,0.8,1.2,0.8,1.8c0,0.7-0.3,1.4-0.8,1.8C28.5-0.4,27.8-0.1,27.2-0.1z"/>
			<path fill="#A179AF" d="M46.2-2.7c-0.7,0-1.3-0.3-1.8-0.8c-0.5-0.5-0.8-1.2-0.8-1.8c0-0.7,0.3-1.3,0.8-1.8c1-1,2.7-1,3.7,0
				c0.5,0.5,0.8,1.2,0.8,1.8c0,0.7-0.3,1.4-0.8,1.8C47.6-3,46.9-2.7,46.2-2.7z"/>
			<path fill="#A179AF" d="M37.7-1.2c-0.7,0-1.4-0.3-1.8-0.8c-0.5-0.5-0.8-1.2-0.8-1.8c0-0.7,0.3-1.4,0.8-1.8c1-1,2.7-1,3.7,0
				c0.5,0.5,0.8,1.2,0.8,1.8c0,0.7-0.3,1.4-0.8,1.8C39.1-1.5,38.4-1.2,37.7-1.2z"/>
			<path fill="#A179AF" d="M59.2-1.2c-0.7,0-1.4-0.3-1.8-0.8c-0.5-0.5-0.8-1.2-0.8-1.8c0-0.7,0.3-1.4,0.8-1.8c1-1,2.7-1,3.7,0
				c0.5,0.5,0.8,1.2,0.8,1.8c0,0.7-0.3,1.4-0.8,1.8C60.6-1.5,59.9-1.2,59.2-1.2z"/>
			<path fill="#A179AF" d="M113.6-3.2c-0.7,0-1.4-0.3-1.8-0.8c-0.5-0.5-0.8-1.2-0.8-1.8c0-0.7,0.3-1.4,0.8-1.8c1-1,2.7-1,3.7,0
				c0.5,0.5,0.8,1.2,0.8,1.8c0,0.7-0.3,1.4-0.8,1.8C115-3.5,114.3-3.2,113.6-3.2z"/>
			<path fill="#A179AF" d="M19.3-2.2c-0.7,0-1.3-0.3-1.8-0.8c-0.5-0.5-0.8-1.2-0.8-1.8c0-0.7,0.3-1.4,0.8-1.8c1-1,2.7-1,3.7,0
				c0.5,0.5,0.8,1.2,0.8,1.8c0,0.7-0.3,1.3-0.8,1.8C20.6-2.5,19.9-2.2,19.3-2.2z"/>
			<path fill="#A179AF" d="M113.6-3.2c-0.7,0-1.4-0.3-1.8-0.8c-0.5-0.5-0.8-1.2-0.8-1.8c0-0.7,0.3-1.4,0.8-1.8c1-1,2.7-1,3.7,0
				c0.5,0.5,0.8,1.2,0.8,1.8c0,0.7-0.3,1.4-0.8,1.8C115-3.5,114.3-3.2,113.6-3.2z"/>
			<path fill="#A179AF" d="M148.6-129.5c-0.7,0-1.4-0.3-1.8-0.8c-0.5-0.5-0.8-1.2-0.8-1.8c0-0.7,0.3-1.3,0.8-1.8c1-1,2.7-1,3.7,0
				c0.5,0.5,0.8,1.2,0.8,1.8c0,0.7-0.3,1.4-0.8,1.8C150-129.8,149.3-129.5,148.6-129.5z"/>
			<path fill="#A179AF" d="M149.1-123c-0.7,0-1.3-0.3-1.8-0.8c-0.5-0.5-0.8-1.2-0.8-1.8s0.3-1.4,0.8-1.8c1-1,2.7-1,3.7,0
				c0.5,0.5,0.8,1.2,0.8,1.8s-0.3,1.4-0.8,1.8C150.5-123.3,149.8-123,149.1-123z"/>
			<path fill="#A179AF" d="M149.6-108.5c-0.7,0-1.4-0.3-1.8-0.8c-0.5-0.5-0.8-1.2-0.8-1.8c0-0.7,0.3-1.4,0.8-1.8c1-1,2.7-1,3.7,0
				c0.5,0.5,0.8,1.2,0.8,1.8c0,0.7-0.3,1.4-0.8,1.8C151-108.8,150.3-108.5,149.6-108.5z"/>
			<path fill="#A179AF" d="M148.1-102.1c-0.7,0-1.4-0.3-1.8-0.8c-0.5-0.5-0.8-1.2-0.8-1.8c0-0.7,0.3-1.4,0.8-1.8c1-1,2.7-1,3.7,0
				c0.5,0.5,0.8,1.2,0.8,1.8c0,0.7-0.3,1.4-0.8,1.8C149.5-102.3,148.8-102.1,148.1-102.1z"/>
			<path fill="#A179AF" d="M149.1-6.2c-0.7,0-1.3-0.3-1.8-0.8c-0.5-0.5-0.8-1.2-0.8-1.8c0-0.7,0.3-1.4,0.8-1.8c1-1,2.7-1,3.7,0
				c0.5,0.5,0.8,1.2,0.8,1.8c0,0.7-0.3,1.4-0.8,1.8C150.5-6.5,149.8-6.2,149.1-6.2z"/>
			<path fill="#A179AF" d="M150.1-57.1c-0.7,0-1.3-0.3-1.8-0.8c-0.5-0.5-0.8-1.2-0.8-1.8c0-0.7,0.3-1.4,0.8-1.8c1-1,2.7-1,3.7,0
				c0.5,0.5,0.8,1.2,0.8,1.8c0,0.7-0.3,1.4-0.8,1.8C151.5-57.4,150.8-57.1,150.1-57.1z"/>
			<path fill="#A179AF" d="M148.1-35.6c-0.7,0-1.4-0.3-1.8-0.8c-0.5-0.5-0.8-1.2-0.8-1.8s0.3-1.4,0.8-1.8c1-1,2.7-1,3.7,0
				c0.5,0.5,0.8,1.2,0.8,1.8s-0.3,1.4-0.8,1.8C149.5-35.9,148.8-35.6,148.1-35.6z"/>
			<path fill="#A179AF" d="M150.1-43.6c-0.7,0-1.4-0.3-1.8-0.8c-0.5-0.5-0.8-1.2-0.8-1.8c0-0.7,0.3-1.4,0.8-1.8c1-1,2.7-1,3.7,0
				c0.5,0.5,0.8,1.2,0.8,1.8c0,0.7-0.3,1.4-0.8,1.8C151.5-43.9,150.8-43.6,150.1-43.6z"/>
			<path fill="#A179AF" d="M96.2-6.7c-0.7,0-1.3-0.3-1.8-0.8c-0.5-0.5-0.8-1.2-0.8-1.8c0-0.7,0.3-1.3,0.8-1.8c1-1,2.7-1,3.7,0
				c0.5,0.5,0.8,1.2,0.8,1.8c0,0.7-0.3,1.4-0.8,1.8C97.5-7,96.8-6.7,96.2-6.7z"/>
			<path fill="#A179AF" d="M84.7-11.7c-0.7,0-1.3-0.3-1.8-0.8c-0.5-0.5-0.8-1.2-0.8-1.8c0-0.7,0.3-1.4,0.8-1.8c1-1,2.7-1,3.7,0
				c0.5,0.5,0.8,1.2,0.8,1.8c0,0.7-0.3,1.4-0.8,1.8C86-12,85.4-11.7,84.7-11.7z"/>
		</g>
		<g>
			<path fill="#A179AF" d="M2.6-114c-0.7,0-1.3-0.3-1.8-0.8C0.3-115.3,0-116,0-116.6c0-0.7,0.3-1.4,0.8-1.8c1-1,2.7-1,3.7,0
				c0.5,0.5,0.8,1.2,0.8,1.8c0,0.7-0.3,1.4-0.8,1.8C4-114.3,3.3-114,2.6-114z"/>
			<path fill="#A179AF" d="M2.6-72.1c-0.7,0-1.4-0.3-1.8-0.8C0.3-73.3,0-74,0-74.7s0.3-1.4,0.8-1.8c1-1,2.7-1,3.7,0
				c0.5,0.5,0.8,1.2,0.8,1.8s-0.3,1.4-0.8,1.8C4-72.4,3.3-72.1,2.6-72.1z"/>
			<path fill="#A179AF" d="M5.1-17.2c-0.7,0-1.3-0.3-1.8-0.8c-0.5-0.5-0.8-1.2-0.8-1.8c0-0.7,0.3-1.4,0.8-1.8c1-1,2.7-1,3.7,0
				c0.5,0.5,0.8,1.2,0.8,1.8c0,0.7-0.3,1.4-0.8,1.8C6.5-17.4,5.8-17.2,5.1-17.2z"/>
			<path fill="#A179AF" d="M4.6-129.5c-0.7,0-1.4-0.3-1.8-0.8c-0.5-0.5-0.8-1.2-0.8-1.8c0-0.7,0.3-1.3,0.8-1.8c1-1,2.7-1,3.7,0
				c0.5,0.5,0.8,1.2,0.8,1.8c0,0.7-0.3,1.4-0.8,1.8C6-129.8,5.3-129.5,4.6-129.5z"/>
			<path fill="#A179AF" d="M5.1-123c-0.7,0-1.3-0.3-1.8-0.8c-0.5-0.5-0.8-1.2-0.8-1.8s0.3-1.4,0.8-1.8c1-1,2.7-1,3.7,0
				c0.5,0.5,0.8,1.2,0.8,1.8s-0.3,1.4-0.8,1.8C6.5-123.3,5.8-123,5.1-123z"/>
			<path fill="#A179AF" d="M5.6-108.5c-0.7,0-1.4-0.3-1.8-0.8c-0.5-0.5-0.8-1.2-0.8-1.8c0-0.7,0.3-1.4,0.8-1.8c1-1,2.7-1,3.7,0
				c0.5,0.5,0.8,1.2,0.8,1.8c0,0.7-0.3,1.4-0.8,1.8C7-108.8,6.3-108.5,5.6-108.5z"/>
			<path fill="#A179AF" d="M4.1-102.1c-0.7,0-1.4-0.3-1.8-0.8c-0.5-0.5-0.8-1.2-0.8-1.8c0-0.7,0.3-1.4,0.8-1.8c1-1,2.7-1,3.7,0
				c0.5,0.5,0.8,1.2,0.8,1.8c0,0.7-0.3,1.4-0.8,1.8C5.5-102.3,4.8-102.1,4.1-102.1z"/>
			<path fill="#A179AF" d="M5.1-6.2c-0.7,0-1.3-0.3-1.8-0.8C2.8-7.4,2.5-8.1,2.5-8.8c0-0.7,0.3-1.4,0.8-1.8c1-1,2.7-1,3.7,0
				c0.5,0.5,0.8,1.2,0.8,1.8c0,0.7-0.3,1.4-0.8,1.8C6.5-6.5,5.8-6.2,5.1-6.2z"/>
			<path fill="#A179AF" d="M6.1-57.1c-0.7,0-1.3-0.3-1.8-0.8c-0.5-0.5-0.8-1.2-0.8-1.8c0-0.7,0.3-1.4,0.8-1.8c1-1,2.7-1,3.7,0
				c0.5,0.5,0.8,1.2,0.8,1.8c0,0.7-0.3,1.4-0.8,1.8C7.5-57.4,6.8-57.1,6.1-57.1z"/>
			<path fill="#A179AF" d="M4.1-35.6c-0.7,0-1.4-0.3-1.8-0.8c-0.5-0.5-0.8-1.2-0.8-1.8s0.3-1.4,0.8-1.8c1-1,2.7-1,3.7,0
				c0.5,0.5,0.8,1.2,0.8,1.8s-0.3,1.4-0.8,1.8C5.5-35.9,4.8-35.6,4.1-35.6z"/>
			<path fill="#A179AF" d="M6.1-43.6c-0.7,0-1.4-0.3-1.8-0.8c-0.5-0.5-0.8-1.2-0.8-1.8c0-0.7,0.3-1.4,0.8-1.8c1-1,2.7-1,3.7,0
				c0.5,0.5,0.8,1.2,0.8,1.8c0,0.7-0.3,1.4-0.8,1.8C7.5-43.9,6.8-43.6,6.1-43.6z"/>
		</g>
		<g>
			<path fill="#A179AF" d="M113.6-147.2c-0.7,0-1.4-0.3-1.8-0.8c-0.5-0.5-0.8-1.2-0.8-1.8c0-0.7,0.3-1.4,0.8-1.8c1-1,2.7-1,3.7,0
				c0.5,0.5,0.8,1.2,0.8,1.8c0,0.7-0.3,1.4-0.8,1.8C115-147.5,114.3-147.2,113.6-147.2z"/>
			<path fill="#A179AF" d="M85.7-148.7c-0.7,0-1.3-0.3-1.8-0.8c-0.5-0.5-0.8-1.2-0.8-1.8s0.3-1.4,0.8-1.8c1-1,2.7-1,3.7,0
				c0.5,0.5,0.8,1.2,0.8,1.8s-0.3,1.4-0.8,1.8C87-149,86.4-148.7,85.7-148.7z"/>
			<path fill="#A179AF" d="M27.2-144.1c-0.7,0-1.3-0.3-1.8-0.8c-0.5-0.5-0.8-1.2-0.8-1.8c0-0.7,0.3-1.4,0.8-1.8c1-1,2.7-1,3.7,0
				c0.5,0.5,0.8,1.2,0.8,1.8c0,0.7-0.3,1.4-0.8,1.8C28.5-144.4,27.8-144.1,27.2-144.1z"/>
			<path fill="#A179AF" d="M46.2-146.7c-0.7,0-1.3-0.3-1.8-0.8c-0.5-0.5-0.8-1.2-0.8-1.8c0-0.7,0.3-1.3,0.8-1.8c1-1,2.7-1,3.7,0
				c0.5,0.5,0.8,1.2,0.8,1.8c0,0.7-0.3,1.4-0.8,1.8C47.6-147,46.9-146.7,46.2-146.7z"/>
			<path fill="#A179AF" d="M37.7-145.2c-0.7,0-1.4-0.3-1.8-0.8c-0.5-0.5-0.8-1.2-0.8-1.8c0-0.7,0.3-1.4,0.8-1.8c1-1,2.7-1,3.7,0
				c0.5,0.5,0.8,1.2,0.8,1.8c0,0.7-0.3,1.4-0.8,1.8C39.1-145.5,38.4-145.2,37.7-145.2z"/>
			<path fill="#A179AF" d="M59.2-145.2c-0.7,0-1.4-0.3-1.8-0.8c-0.5-0.5-0.8-1.2-0.8-1.8c0-0.7,0.3-1.4,0.8-1.8c1-1,2.7-1,3.7,0
				c0.5,0.5,0.8,1.2,0.8,1.8c0,0.7-0.3,1.4-0.8,1.8C60.6-145.5,59.9-145.2,59.2-145.2z"/>
			<path fill="#A179AF" d="M113.6-147.2c-0.7,0-1.4-0.3-1.8-0.8c-0.5-0.5-0.8-1.2-0.8-1.8c0-0.7,0.3-1.4,0.8-1.8c1-1,2.7-1,3.7,0
				c0.5,0.5,0.8,1.2,0.8,1.8c0,0.7-0.3,1.4-0.8,1.8C115-147.5,114.3-147.2,113.6-147.2z"/>
			<path fill="#A179AF" d="M19.3-146.2c-0.7,0-1.3-0.3-1.8-0.8c-0.5-0.5-0.8-1.2-0.8-1.8c0-0.7,0.3-1.4,0.8-1.8c1-1,2.7-1,3.7,0
				c0.5,0.5,0.8,1.2,0.8,1.8c0,0.7-0.3,1.3-0.8,1.8C20.6-146.5,19.9-146.2,19.3-146.2z"/>
			<path fill="#A179AF" d="M113.6-147.2c-0.7,0-1.4-0.3-1.8-0.8c-0.5-0.5-0.8-1.2-0.8-1.8c0-0.7,0.3-1.4,0.8-1.8c1-1,2.7-1,3.7,0
				c0.5,0.5,0.8,1.2,0.8,1.8c0,0.7-0.3,1.4-0.8,1.8C115-147.5,114.3-147.2,113.6-147.2z"/>
		</g>
	</g>
</pattern>
<path fill="url(#USGS_20_Scrub)" d="M201.2,0C90.1,0,0,90.1,0,201.2s90.1,201.2,201.2,201.2s201.2-90.1,201.2-201.2S312.4,0,201.2,0
	z M201.2,366.5c-91.3,0-165.3-74-165.3-165.3s74-165.3,165.3-165.3s165.3,74,165.3,165.3S292.5,366.5,201.2,366.5z"/>
</svg>
