<svg version="1.1" viewBox="0 0 142 142" height="142px" width="142px">
    <defs>
        <pattern id="noise-pattern" width="142" height="142" fill="" patternUnits="userSpaceOnUse">
            <path fill="#a179af" d="M21,122.7l1.3-1.3c0.4-0.4,1-0.4,1.4,0c0.4,0.4,0.4,1,0.1,1.4c-0.2,0.3-0.5,0.5-0.7,0.8c-1,1-1.3,1.5-1.1,2.2
                c0.1,0.4,0,0.9-0.4,1.1c-0.4,0.2-0.8,0.2-1.2-0.1c-0.3-0.2-0.5-0.5-0.8-0.7c-0.1-0.1-0.2-0.2-0.2-0.2c0,0.1-0.1,0.2-0.2,0.3l-2,2
                c-0.2,0.2-0.4,0.3-0.7,0.3s-0.5-0.1-0.7-0.3l-1.4-1.4c-0.4-0.4-0.4-1,0-1.4l3.9-4c0.4-0.4,1-0.4,1.4,0L21,122.7z M34,105.6l-2.8-0.5
                c-0.3-0.1-0.6,0-0.8,0.2c-0.2,0.2-0.3,0.5-0.3,0.8v1.6c-2.3-0.3-4.3,0.4-6.1,1c-0.5,0.2-1.1,0.4-1.6,0.5c-0.5,0.1-0.8,0.7-0.7,1.2
                c0.1,0.5,0.6,0.8,1.1,0.8l1.5-0.2c-0.1,0.6-0.1,1.3,0.1,2c-0.6,0.4-1,0.8-0.8,1.4c0.1,0.4,0.5,0.7,1,0.7c0.7,0,2.9-1.4,3.6-3
                c0.4-0.8,0.4-1.6,0.1-2.3c0.7-0.1,1.5-0.1,2.3,0c0.1,0,0.3,0.1,0.4,0.1c0.1,0,0.3,0,0.4,0c1.5,0.2,2.7,0.6,3.1,0.7
                c0.3,0.1,0.4,0.2,0.6,0.2c0.5,0,0.9-0.4,1-0.8c0.1-0.7-0.3-0.9-0.7-1.1l0,0l-0.1,0c-0.1,0-0.1-0.1-0.2-0.1l-0.1,0v-2.1
                C34.8,106.1,34.5,105.7,34,105.6z M71,81.2c-0.1-0.4-0.4-0.6-0.8-0.7c-0.4-0.1-0.7,0.1-0.9,0.4l-3.5,5.3c0-0.3-0.1-0.7-0.5-0.9
                L61.5,83l0-0.1l0.9-1.5c0.3-0.4,0.2-1-0.2-1.3c-0.3-0.2-0.6-0.4-0.9-0.6c-0.6-0.4-1.1-0.7-1.4-1.1c-0.1-0.4-0.1-0.7-0.2-1
                c-0.1-0.5-0.5-0.9-1-0.9c0,0,0,0,0,0c-0.5,0-0.9,0.4-1,0.9c-0.1,0.6,0,1.2,0.3,1.7c0.3,1,0.7,2.2,1.2,3.6l0,0
                c-0.1,0.2-0.2,0.5-0.1,0.7c0.1,0.3,0.2,0.5,0.4,0.6l0.4,0.2c0.8,1.9,1.7,3.7,2.4,5c0.2,0.4,0.3,0.7,0.5,0.9c-0.1,0.3,0,0.6,0.2,0.8
                c0.3,0.4,0.6,0.8,1.1,0.8h0c0.3,0,0.7-0.2,0.8-0.5c0-0.1,0.1-0.2,0.1-0.2l0.8-0.2c0.4-0.1,0.7-0.4,0.7-0.8c0.1-0.4-0.1-0.8-0.5-1
                l-1.5-1l0.5-0.8c0,0.2,0,0.3,0.1,0.5c0.2,0.3,0.5,0.5,0.9,0.5h3.9c0.4,0,0.8-0.2,0.9-0.6c0.2-0.4,0.1-0.8-0.2-1.1l-1.3-1.3
                c0,0,0,0,0,0C70.4,84.5,71.7,83.2,71,81.2z M48.1,80.3l1.9-0.7c0.5-0.2,0.7-0.7,0.6-1.1c-0.1-0.6-0.3-1.2-0.6-1.7
                c-0.2-1.1-0.9-2.3-2.3-3.6c-0.2-0.2-0.4-0.2-0.6-0.3L46,72.8c-1.7-0.7-3.8-0.9-5.9-0.4c-0.5,0.1-0.8,0.5-0.8,1
                c0,0.5,0.4,0.9,0.9,0.9l5.3,0.4c1.2,0.5,2.1,1.4,2.6,2.6c0,0.3-0.2,0.7-0.9,1.2l-2.3,0.8c-0.6-1.4-2-2.2-3.2-2.7
                c-0.2-0.1-0.5-0.2-0.7-0.3c-0.3-0.1-0.6-0.2-0.9-0.3l-0.8-0.3c-0.3-0.1-0.6-0.1-0.9,0.1c-0.3,0.2-0.4,0.5-0.4,0.8
                c0,0.6-0.4,0.8-1.8,1.3c-0.3,0.1-0.7,0.2-1,0.4c-0.5,0.2-0.6,0.7-0.5,1.2c0.1,0.5,0.7,0.8,1.2,0.7c0.4,0,0.7,0.3,1,0.5
                c1,2.1,1.3,2.4,1.9,2.4c0.4,0,0.8-0.2,0.9-0.6c0.3-0.8-0.5-2-1-2.7c0.5-1.1,1.1-1.7,1.8-1.7c0.1,0.1,0.3,0.1,0.4,0.2
                c0.8,0.5,1.7,1.8,2.1,3c-0.1,0.1-0.1,0.1-0.2,0.2c-0.3,0.4-0.4,0.9,0,1.3c0.3,0.4,0.8,0.9,1.4,0.9c0.3,0,0.7-0.2,0.9-0.4
                c0.2-0.3,0.3-0.7,0.2-1.2c0.5-0.3,1-0.6,1.5-0.9C47.2,80.9,47.7,80.6,48.1,80.3z M1.4,73.3c0.1-0.4-0.2-0.8-0.5-1L0,71.9v2.3
                c0.2,0,0.4,0,0.6-0.1C1,74.1,1.3,73.7,1.4,73.3z M17.2,117.5c-0.2-0.4-0.8-0.6-1.2-0.4l-5.2,2.1c-0.2,0.1-0.4,0.3-0.5,0.5
                c-0.1,0.2-0.1,0.5,0,0.8l0.4,1.1L9,123c-0.4,0.3-0.5,0.8-0.2,1.3c0.2,0.3,0.5,0.5,0.8,0.5c0.1,0,0.2,0,0.4-0.1l2.6-1
                c0.2-0.1,0.4-0.3,0.5-0.5c0.1-0.2,0.1-0.5,0-0.8l-0.1-0.2l3.9-3.4C17.4,118.4,17.4,117.9,17.2,117.5z M27.6,71.7
                c-0.2,0.1-0.3,0.1-0.4,0.1c-0.6,0-1.1-0.5-1.8-1.2c-0.3-0.3-0.5-0.5-0.8-0.7c-0.3-0.2-0.7-0.3-1-0.1C23.3,70,23,70.3,23,70.7V76
                c-0.2,0.2-0.4,0.5-0.6,0.7c-0.3,0.3-0.6,0.7-0.9,1c-1,1.2-1.9,2.2-3.1,1.9c-0.3-0.1-0.6,0-0.9,0.2c-0.2,0.2-0.4,0.5-0.4,0.8v2
                c0,0.4,0.2,0.7,0.5,0.9c-0.4-0.2-0.8-0.1-1.1,0.2l-0.9,0.9c-0.2,0.2-0.3,0.5-0.3,0.7c0,0.3,0.2,0.5,0.4,0.7l4.7,3.8
                c0.4,0.3,1,0.3,1.3-0.1l0.5-0.5l2.7,0.8c0.1,0,0.2,0,0.3,0c0.4,0,0.7-0.2,0.9-0.6c0.2-0.5,0-1-0.4-1.2l-7.9-4.8
                c0.1,0,0.2,0.1,0.3,0.1h3.9c0.5,0,1-0.4,1-1l0-2c0-0.9,0.2-1.7,0.9-2.5c0.2-0.2,0.4-0.4,0.7-0.6c0.2-0.1,0.3-0.3,0.4-0.6
                c0.4-0.4,0.8-0.7,1.2-1.1c0.9-0.8,1.8-1.6,2.5-2.5c0.3-0.3,0.3-0.8,0-1.2C28.5,71.8,28,71.6,27.6,71.7z M32.6,65.4
                c0.3-0.4,0.3-0.9,0-1.3c-0.3-0.4-0.9-0.4-1.3-0.2c-1.7,1.1-2.5,2.3-2.5,3.7c-0.1,0.5,0,0.9,0.2,1.4c0,0.1,0.1,0.3,0.2,0.4
                c0.3,0.6,0.6,1.2,1,1.8c0.2,0.4,0.5,0.8,0.7,1.2c-0.1,0.3,0,0.7,0.3,0.9l0.2,0.2c0.2,0.9,0.1,1.7-0.4,2.6c-0.2,0.4-0.1,1,0.3,1.3
                c0.2,0.1,0.4,0.2,0.6,0.2c0.3,0,0.5-0.1,0.7-0.3l2-2c0.4-0.4,0.4-1,0-1.4l-1.3-1.3l1.2-1.2c0.8-0.4,1.4-1,1.8-1.8l0.1-0.1
                c0.7-0.1,1.3,0.4,2,1.1c0.3,0.3,0.5,0.5,0.8,0.7c0.4,0.3,1,0.3,1.3-0.1l1.4-1.4c0.4-0.4,0.4-1,0-1.4l-3.2-3.3c0.2-0.3,0.2-0.6,0.1-1
                c-0.2-0.4-0.5-0.6-0.9-0.6h-2c-0.5,0-1,0.4-1,1l0,0.8c0,0.3,0,0.6,0,0.9c0,0.1,0,0.1,0,0.2c0,0.1,0,0.1,0,0.2c0,0.7-0.1,1.3-0.3,1.7
                l-1.2,1.2c-0.1,0-0.2,0-0.2,0c-0.6,0-1.1-0.5-1.8-1.2c-0.1-0.1-0.3-0.3-0.4-0.4c-0.1-0.2-0.1-0.3-0.1-0.5c0.1-0.5,0.6-1,1.1-1.6
                C32.2,65.9,32.4,65.7,32.6,65.4z M14,62.8c-0.3-0.1-0.6-0.1-0.9,0.1c-0.3,0.2-0.4,0.5-0.4,0.8v2c0,0,0,0,0,0v2c0,0.5,0.4,1,1,1h2
                c0.4,0,0.8-0.2,0.9-0.6c0.2-0.4,0.1-0.8-0.2-1.1l-1.3-1.3l3.2-3.3c0,0,0,0,0,0l2-2c0.4-0.4,0.4-1,0-1.4L19,57.8l1.3-1.3
                c0.2-0.2,0.3-0.6,0.3-0.9c-0.1-0.3-0.3-0.6-0.6-0.7c-0.4-0.1-0.7-0.2-1.1-0.2c-1.4,0-2.4,0.9-3.1,1.7c-0.2,0.2-0.4,0.4-0.7,0.6
                c-0.4,0.3-0.5,1-0.1,1.4c0.2,0.3,0.5,0.5,0.7,0.8c0.8,0.9,1.2,1.4,1.1,2c-0.2,0.2-0.4,0.3-0.5,0.5C15.4,62.5,14.8,63.1,14,62.8z
                 M30.2,90.9c1.3-0.3,2.6-0.7,3.7-1.3c0.8,0,2-0.1,2-1.2c0-1.1-1.2-1.1-1.9-1.1c-0.3,0-0.5,0.1-0.6,0.2c0,0,0,0-0.1,0
                c-1.1,0-2.1-0.2-2.8-0.6c-0.3-1-0.9-1.7-1.9-2.1c-0.3-0.1-0.7-0.1-1,0.1c-0.3,0.2-0.4,0.6-0.3,1c0.2,0.9,0.7,1.6,1.5,2.2
                c0,0.3,0,0.5,0.1,0.8c0,0.1,0,0.1,0,0.2c-1.7,0.5-3.4,1.1-4.4,2.4l-3.1,1.6l-0.1-1.3c0,0,0,0,0,0c0-0.2-0.1-0.4-0.3-0.6v0l0,0
                c0,0,0,0,0,0c-0.1-0.1-0.2-0.2-0.3-0.2c0,0,0,0,0,0c0,0,0,0,0,0C20.5,91,20.4,91,20.2,91c-0.6,0-1.2,0.1-1.8,0.1
                c-1,0.1-2,0.1-2.8,0.1l-0.3-4.5c0-0.4-0.3-0.7-0.7-0.9c-0.4-0.1-0.8,0-1.1,0.3L11,89c-0.3,0.3-0.3,0.8-0.1,1.2
                c0.7,1.2,1.7,2.1,2.9,2.5c0.2,0.4,0.5,0.6,1,0.6l4.6-0.3l0.1,1.8c0,0,0,0,0,0.1c0.1,0.5,0.5,0.9,1,0.9c0,0,0,0,0,0l0.2,0
                c0.3,0,0.6,0,0.8,0c0.3,0,0.5,0,0.8,0c0.9,0,1.3,0.2,1.6,0.7c0.2,0.3,0.5,0.5,0.8,0.5c0.1,0,0.2,0,0.4-0.1c0.5-0.2,0.7-0.7,0.6-1.1
                c-0.2-1.1-0.2-1.9,0.1-2.5L30.2,90.9z M59.3,46.8c0,0.3,0.1,0.6,0.3,0.8l2,2c0.2,0.2,0.4,0.3,0.7,0.3c0.2,0,0.4,0,0.5-0.1
                c0.4-0.2,0.6-0.7,0.4-1.2c-0.3-0.8,0.1-1.2,1.1-2.2c0.1-0.1,0.2-0.2,0.3-0.3c0.5,0.1,1.1,0.3,1.7,0.4c0.2,0.1,0.3,0.3,0.5,0.5
                c0.3,0.3,0.5,0.5,0.8,0.7c0.4,0.3,1,0.3,1.3-0.1l0.3-0.3c0.5,0.1,1,0.3,1.6,0.4c0.8,0.9,1.8,1.4,2.8,1.4c1.2,0,2.3-0.6,3.3-1.2
                c1.5-0.4,2.7-1.1,3.8-2.2c0.3-0.3,0.4-0.8,0.1-1.2s-0.7-0.6-1.1-0.4c-1.2,0.4-2.2,1-3.2,1.7L76,45.9c-1.2,0.2-2.6,0.2-4.3-0.1
                c-0.3-0.4-0.5-0.8-0.8-1.4c-0.1-0.3-0.4-0.5-0.7-0.5c-0.3-0.1-0.6,0.1-0.9,0.3L68.5,45c-0.4-0.1-0.7-0.2-1.1-0.3l-0.3-0.1
                c-0.7-0.5-1.8-1.1-3.1-0.8c-0.6-0.1-1.1-0.2-1.5-0.2C60.6,43.7,59.5,44.8,59.3,46.8z M93.1,58.2c-3.1,0-3.6,2.8-3.9,4.8
                c-0.2,1-0.3,1.8-0.6,2.4L87,66.6c-0.2,0-0.3,0-0.6,0c-0.5,0-1,0.4-1,1c0,0.5,0.4,1,1,1c3.7,0,4.2-3.1,4.6-5.3l4.5-3.6
                c-0.6-0.2-1.1-0.3-1.6-0.4c0,0,0-0.1,0-0.1C94.1,58.6,93.6,58.2,93.1,58.2z M63.8,35.6c-0.2,0.3-0.3,0.8,0,1.1
                c0.1,0.2,0.3,0.4,0.4,0.6c1.1,1.6,1.7,2.6,0.8,4.1c-0.2,0.4-0.2,0.9,0.2,1.2c0.2,0.2,0.4,0.3,0.7,0.3c0.2,0,0.4-0.1,0.6-0.2l1.7-1.3
                c0.3-0.2,0.4-0.6,0.4-0.9c-0.2-2.3-1.1-3.9-2.4-5c-0.1-0.1-0.2-0.1-0.3-0.2l-0.9-0.3C64.4,35.1,64,35.2,63.8,35.6z M104.6,81
                c0.5,0.1,1-0.1,1.2-0.6c0.2-0.5,0-1-0.5-1.2c-1.3-0.7-1.7-1.7-2.1-2.9c-0.1-0.4-0.3-0.7-0.4-1c0,0,0-0.1-0.1-0.1
                c0-0.1-0.1-0.1-0.2-0.2c-0.1-0.1-0.3-0.2-0.4-0.3c0,0-0.1,0-0.1,0l-2.4-0.4l-1.8-5c-0.1-0.3-0.4-0.6-0.7-0.6
                c-0.9-1.3-2.1-2.3-3.7-3.1c-0.4-0.2-0.9-0.1-1.2,0.2l-2,2.3c-0.2,0.3-0.3,0.6-0.2,1c0.1,0.3,0.4,0.6,0.8,0.6l5.2,0.8
                c0.6,1,1,2.1,1.4,3.2c0.2,0.6,0.4,1.2,0.7,1.8c0,0.1,0.1,0.2,0.1,0.3c0,0,0,0,0,0c0,0,0,0,0,0c0,0,0,0,0,0v0c0,0,0,0,0,0v0
                c0,0,0,0,0,0c0,0,0,0,0,0s0,0,0,0c0,0,0,0,0,0c0,0,0,0,0,0c0,0,0,0,0,0v0c0,0,0,0,0,0c0,0,0,0,0,0c0,0,0,0,0,0c0,0,0,0,0,0
                c0,0,0,0,0,0c0,0,0,0,0,0v0c0,0,0,0,0,0l0,0c0,0,0,0,0,0v0c0,0,0,0,0,0c0,0,0,0,0,0c0,0,0,0,0,0v0c0,0,0,0,0,0v0c0,0,0,0,0,0v0
                c0,0,0,0,0,0v0c0,0,0,0,0,0v0c0,0,0,0,0,0v0c0,0,0,0,0,0v0c0,0,0,0,0,0c0,0,0,0,0,0c0,0,0,0,0,0c0,0,0,0,0,0c0,0,0,0,0,0
                c0,0,0,0,0,0c0,0,0,0,0,0c0,0,0,0,0,0c0,0,0,0,0,0c0,0,0,0,0,0v0c0,0,0,0,0,0c0,0,0,0,0,0l0,0c0,0,0,0,0,0c0,0,0,0,0,0s0,0,0,0
                c0,0,0,0,0,0c0,0,0,0,0,0c0,0,0,0,0,0c0,0,0,0,0,0c0,0,0,0,0,0c0,0,0,0,0,0c0,0,0,0,0,0c0,0,0,0,0,0c0,0,0,0,0,0c0,0,0,0,0,0
                c0,0,0,0,0,0c0,0,0,0,0,0c0,0,0,0,0,0c0,0,0,0,0,0c0,0,0,0,0,0c0,0,0,0,0,0c0,0,0,0,0,0c0,0,0,0,0,0c0,0,0,0,0,0c0,0,0,0,0,0
                c0,0,0,0,0,0c0,0,0,0,0,0c0,0,0,0,0,0c0,0,0,0,0,0c0,0,0,0,0,0s0,0,0,0c0,0,0,0,0,0c0,0,0,0,0,0s0,0,0,0c0.1,0.1,0.2,0.1,0.4,0.2
                c0,0,0,0,0,0c0,0,0,0,0,0c0,0,0,0,0,0c0,0,0,0,0,0c0,0,0,0,0,0c0,0,0,0,0,0c0,0,0,0,0,0c0,0,0,0,0,0c0,0,0,0,0,0c0,0,0,0,0,0h0
                c0,0,0,0,0,0h0l0,0h0h0c0,0,0,0,0,0h0l0,0c0,0,0,0,0,0c0,0,0,0,0,0c0,0,0,0,0,0c0,0,0,0,0,0c0,0,0,0,0,0c0,0,0,0,0,0c0,0,0,0,0,0
                c0,0,0,0,0,0c0,0,0,0,0,0l2.1,0.3l-0.3,3.1c-0.9,0.9-0.9,2.4-0.7,3.8c-0.3,0-0.6-0.1-0.8-0.2c-0.9-0.8-1.8-1.4-2.8-1.7
                c-0.4-0.1-0.9,0.1-1.1,0.4c-0.2,0.4-0.2,0.8,0.1,1.2c0.7,0.9,1.6,1.5,2.7,1.8c1,1.1,1.7,2.5,2.1,3.2c-0.1,0.2-0.1,0.5,0,0.7
                c0.4,0.8,0.7,1.5,1.4,1.5c0.3,0,0.7-0.2,0.8-0.5c0.2-0.4,0.3-0.7-0.2-1.9c0.2-1,0-2.3-0.2-3.5l0.4-3.8
                C102.8,80.6,103.6,80.7,104.6,81z M69.4,36.4l0.9,5.2c0.1,0.3,0.3,0.6,0.6,0.8c0.1,0,0.2,0.1,0.4,0.1c0.2,0,0.4-0.1,0.6-0.2
                c2.7-2.1,0.6-5.1-0.6-6.6L69.7,27c-0.1-0.3-0.3-0.6-0.5-0.7c-0.3-0.1-0.6-0.1-0.9,0C66.8,27,66,28,65.7,29.2c-0.4,2.2,1.3,4.3,3,6.4
                C68.9,35.9,69.1,36.1,69.4,36.4z M81.3,96.7c0.6,0,0.8-0.4,1-0.8c0-0.1,0.1-0.2,0.1-0.3c1.3-2.9,2.1-5.6,2.2-7.7
                c0.5-2.4-0.2-4.2-2.2-5.4c0,0,0,0,0,0c-0.5-0.3-1.1-0.1-1.3,0.3c-0.1,0.2-0.1,0.3-0.1,0.5c0,0.3,0.2,0.7,0.5,0.9c0,0,0.1,0,0.1,0.1
                c0.4,0.3,1.3,1,1.1,3.3c-0.2,0.9-0.6,1.8-1,2.7c-0.6,1.6-1.3,3.2-1.3,4.8c-0.1,0.3-0.2,0.7,0,1.1C80.7,96.5,81,96.7,81.3,96.7z
                 M91.2,76.1c-0.2-0.4-0.7-0.6-1.1-0.5c-6,1.4-10.1,3-12.1,3.8c-0.3-0.1-0.6,0-0.9,0.1c-0.5,0.4-1.1,0.8-0.9,1.5
                c0.1,0.4,0.5,0.7,1,0.7c0.2,0,0.4,0,0.8-0.2c0.7,0.2,1.3,0.4,2,0.4c2,0,3.5-1.1,4.6-2c0.5-0.4,1.1-0.8,1.4-0.8c0,0,0.3,0.1,0.9,1.4
                c0.2,0.5,0.7,0.7,1.2,0.6c0.5-0.1,0.8-0.6,0.7-1.1c-0.1-0.8,0.3-1.2,1.4-2c0.3-0.2,0.6-0.4,0.8-0.6C91.3,77,91.4,76.5,91.2,76.1z
                 M87.5,90.4c0.1,0,0.2,0.1,0.3,0.1c0.4,0,0.8-0.3,0.9-0.7l2-5.9c0.2-0.5-0.1-1-0.6-1.2c-0.5-0.2-1,0-1.3,0.5l-1.4,2.7l-1-1
                c-0.4-0.4-1-0.4-1.4,0c-0.4,0.4-0.4,1-0.1,1.4c0.2,0.3,0.5,0.5,0.7,0.8c1,1,1.3,1.5,1.1,2.2C86.7,89.6,86.9,90.2,87.5,90.4z
                 M81.2,86.8c0-0.3-0.2-0.5-0.4-0.7l-1-0.8c-0.2-0.1-0.4-0.2-0.6-0.2l-2-0.1c-0.3,0-0.5,0.1-0.7,0.3c-0.2,0.2-0.3,0.4-0.3,0.7l-0.1,2
                c0,0.5,0.4,1,0.9,1l2,0.1c0,0,0,0,0,0c0.3,0,0.6-0.1,0.7-0.3l1.1-1.2C81.1,87.3,81.2,87.1,81.2,86.8z M78.2,75.8
                c0.1,0,0.3,0.1,0.4,0.1c0.1,0,0.3,0,0.4,0c1.5,0.2,2.8,0.6,3.2,0.7c0.3,0.1,0.4,0.2,0.6,0.2c0.5,0,0.9-0.4,1-0.8
                c0.1-0.7-0.3-0.9-0.7-1.1l0,0l-0.1,0c-0.1,0-0.1-0.1-0.2-0.1l-0.1,0v-2.1c0-0.5-0.3-0.9-0.8-1L79,71.2c-0.3-0.1-0.6,0-0.8,0.2
                s-0.3,0.5-0.3,0.8v1.6c-2.3-0.3-4.3,0.4-6.1,1c-0.5,0.2-1.1,0.4-1.6,0.5c-0.5,0.1-0.8,0.7-0.7,1.2c0.1,0.5,0.6,0.8,1.1,0.8L72,77
                c-0.1,0.6-0.1,1.3,0.1,2c-0.6,0.4-1,0.8-0.8,1.4c0.1,0.4,0.5,0.7,1,0.7c0.7,0,2.9-1.4,3.6-3c0.4-0.8,0.4-1.6,0.1-2.3
                C76.5,75.7,77.4,75.7,78.2,75.8z M36.5,88.1c0.1,0.2,0.4,0.4,0.6,0.4l0.4,0.1c2,1.5,3.8,2.7,5.2,3.6c0.6,0.4,1.2,0.8,1.9,1.1
                c0.1,0.1,0.3,0.1,0.4,0.1c0.4,0,0.7-0.2,0.9-0.5c0.2-0.5,0.1-1-0.4-1.3c-0.5-0.3-1-0.6-1.6-1c-0.8-0.6-1.3-1.3-1.8-2.1
                c-0.2-0.3-0.5-0.7-0.7-1c-0.1-0.2-0.4-0.3-0.6-0.4l-2.5-0.4l-0.8-0.6l-3.1-4.4c-0.1-0.2-0.4-0.4-0.6-0.4l-2.9-0.5l-1.6-2.3
                C29,78.2,28.7,78,28.4,78c-0.3,0-0.6,0.1-0.8,0.4l-0.1,0.2c-0.5-0.2-1.1,0.1-1.3,0.6c-0.3,0.7,0.1,1,0.8,1.6
                c0.1,0.1,0.3,0.2,0.5,0.2c0.4,0.3,1,0.8,1.7,1.3c1.8,1.4,4.3,3.3,6.8,5.2L36.5,88.1z M12.7,115.6c0.1,0.3,0.2,0.5,0.5,0.6
                c0.5,0.3,0.7,0.3,1,0.3c0.4,0,0.8-0.3,0.9-0.7c0.1-0.2,0.1-0.4,0-0.5l0.5-0.4c0.3-0.2,0.4-0.6,0.3-1c-0.1-0.4-0.4-0.7-0.8-0.7
                l-2-0.3V111c0-0.5-0.3-0.9-0.8-1l-4.6-0.8L7.6,109v-1.8c0-0.5-0.3-0.8-0.7-1c-0.3-0.1-0.7-0.2-1.1-0.2c-0.7-0.1-1.4-0.3-1.9-0.6
                c-0.3-0.3-0.5-0.6-0.7-0.9c-0.3-0.4-0.9-0.5-1.3-0.3c-0.4,0.3-0.6,0.8-0.4,1.3c0.3,0.6,0.6,1,1.1,1.4c0.8,0.9,1.8,1.9,3,3v0.1
                c0,0.5,0.3,0.9,0.8,1l0.5,0.1c1.7,1.5,3.5,2.8,4.8,3.8C12.1,115.2,12.4,115.4,12.7,115.6z M20.1,98.3c-0.5,0.2-1.1,0.3-1.7,0.4
                c-2.2,0.5-5,1.1-5.9,3.5c-0.4,0.4-0.7,0.9-0.9,1.4l-0.9-0.2c-0.4-0.1-0.8,0.1-1,0.5c-0.2,0.4-0.2,0.8,0.1,1.1l1.4,1.6
                c0.2,0.2,0.5,0.3,0.7,0.3c0.1,0,0.2,0,0.3,0c0.4-0.1,0.6-0.4,0.7-0.8c0-0.1,0-0.2,0.1-0.3l0.2,0c0.3,0.1,0.6-0.1,0.9-0.3
                c0.2-0.2,0.3-0.6,0.3-0.9c-0.1-0.6-0.1-1.1,0-1.5c1.3-1.2,3.3-1.4,5.7-0.3c0.3,0.1,0.7,0.1,0.9-0.1c0.3-0.2,0.4-0.5,0.4-0.8v-2.8
                c0-0.3-0.1-0.6-0.4-0.8S20.4,98.2,20.1,98.3z M17.3,104.1c-0.3-0.3-0.8-0.3-1.2,0c-1.4,1-2.6,5.4-2.3,6.4c0.1,0.4,0.6,0.8,1,0.8
                c0.6,0,1-0.5,1.3-1.1l1.2-0.1l0.1,1.7c0,1,0,2,0.1,3.1c0.1,0.5,0.5,0.8,1,0.8c0,0,0.1,0,0.1,0c0.5-0.1,0.9-0.5,0.9-1l-0.1-2.9l0-0.4
                C19.4,108.8,19.5,105.9,17.3,104.1z M2.5,117.2c0.7,0.1,1,0.4,1.1,1.1c0.1,0.3,0.3,0.6,0.6,0.8c0.3,0.1,0.7,0.1,1-0.2l2.8-2.3
                c0.3-0.2,0.4-0.6,0.3-1c-0.1-0.4-0.4-0.7-0.8-0.7c-1-0.2-2.4-0.1-3.6,0.1c-0.5,0.1-1,0.1-1.5,0.2c-0.4-0.1-0.9-0.1-1.4,0
                c-0.4-0.1-0.8-0.2-1.2-0.4v2.6c0.4-0.1,0.8-0.2,1.1-0.2C1.6,117.3,2,117.3,2.5,117.2z M11.9,61.2c-1.1,0.6-2.2,1.1-3.4,1.3
                c-2.7-1.3-5.9-1.4-8.5-1.4v2.5c2.5,0.8,5.5,1.4,8.2,1C8.5,64.8,8.7,65,9,65.2c0.2,0.1,0.4,0.2,0.6,0.2c0.2,0,0.4-0.1,0.6-0.2
                l2.8-2.3c0.4-0.3,0.5-0.9,0.2-1.3C12.9,61.1,12.3,61,11.9,61.2z M25.1,65.8l-2.3,0.2c-0.2-0.5-0.3-1.1-0.4-1.5
                c-0.1-0.5-0.2-1.3-1.1-1.3c-0.9,0-1,0.3-1.3,2.6l-1.2,0.6c-0.4,0.2-0.6,0.7-0.5,1.2c0.1,0.5,0.6,0.8,1,0.7l2.4-0.2
                c0.5,0.5,1.1,0.6,1.5,0.6c0.8,0,1.6-0.4,2.5-1.1c0.3-0.3,0.4-0.7,0.3-1.1C25.9,66,25.5,65.7,25.1,65.8z M59.1,72.6l4.6,4.3l0.1,2.8
                c0,0.3,0.2,0.6,0.4,0.8c0.2,0.1,0.4,0.2,0.5,0.2c0.1,0,0.2,0,0.3-0.1l1.2-0.5c0.3-0.1,0.5-0.3,0.6-0.6s0.1-0.5,0-0.8l-1.3-2.7
                c0,0,0,0,0-0.1l-1.3-2.7c-0.2-0.3-0.5-0.6-0.9-0.6c-0.3,0-0.6,0.1-0.8,0.3c-0.4-0.2-1-0.8-1.4-1.1c-0.3-0.2-0.5-0.5-0.8-0.7
                c-1-1.6-1-2.8-1.1-4.2c0-0.4,0-0.8-0.1-1.2c0-0.3-0.2-0.5-0.4-0.7c-0.3-0.2-0.6-0.5-0.8-0.7c-1-0.9-1.9-1.7-2.9-1.7
                c-0.6,0-1.1,0.3-1.4,0.9c-0.2,0.4-0.1,0.9,0.2,1.2l2.2,2l0.1,2.8c0,0.3,0.1,0.5,0.3,0.7L59.1,72.6C59.1,72.5,59.1,72.6,59.1,72.6z
                 M34,50.2c-0.2,0.2-0.3,0.5-0.2,0.8c0,0.3,0.2,0.5,0.4,0.7l5.9,4c0.2,0.1,0.4,0.2,0.5,0.2c0.3,0,0.5-0.1,0.7-0.3
                c0.3-0.3,0.4-0.9,0.1-1.3c-0.5-0.8-1.2-1.4-1.9-2c-1.3-1.1-2.1-1.8-1.9-2.9c0.2-0.2,0.4-0.3,0.5-0.5c0.1-0.1,0.2-0.2,0.3-0.3
                c1,0.3,1.9,0.4,2.8,0.4c0.5,0.6,0.6,1,0.4,1.5c-0.1,0.4,0,0.8,0.3,1.1c0.3,0.3,0.8,0.3,1.1,0.1c1.3-0.8,2.3-2,3.2-3.2
                c0.8-1,1.6-2,2.5-2.5l0.4-0.2c0.9-0.4,1.7-0.4,2.8,0.1c0.4,0.2,0.8,0.1,1.1-0.2l2-2c0.3-0.3,0.4-0.7,0.2-1.1c-0.2-0.4-0.6-0.6-1-0.6
                c-2.6,0.3-4.5,1.2-6,2.1c-0.2,0.1-0.4,0.2-0.5,0.3l-0.9,0.6c-1.6,1-3,1.9-4.7,2.1l0,0c-0.2-0.2-0.4-0.4-0.6-0.7
                c-0.1-0.1-0.3-0.2-0.4-0.3c-1.1-0.4-2.2,0-2.9,0.4c-0.3-0.1-0.6-0.2-0.9-0.4c-0.4-0.2-0.8-0.1-1.1,0.2c-0.3,0.3-0.4,0.7-0.3,1
                c0.3,0.8-0.1,1.2-1.1,2.2C34.4,49.6,34.2,49.9,34,50.2z M0,95.1v1.2l0,0C0.3,95.9,0.3,95.4,0,95.1z M56,79.5c0.1,0,0.2,0.1,0.3,0.1
                c0.2,0,0.5-0.1,0.6-0.2c0.3-0.2,0.4-0.6,0.3-0.9c-0.6-2.7-2.2-3.6-3.6-4.4c-0.5-0.2-0.9-0.5-1.2-0.8c-0.3-0.7-0.7-1.4-1-2.2
                c0.1-0.1,0.2-0.2,0.4-0.4c0.8-0.8,1.4-1.4,2.2-1.1c0.4,0.1,0.9,0,1.1-0.4c0.2-0.4,0.2-0.9-0.1-1.2l-2-2c-0.3-0.3-0.8-0.4-1.2-0.1
                c-0.4,0.2-0.6,0.7-0.4,1.2c0.2,0.7-0.1,1.2-0.9,2c-1.2-2.6-2.7-5.1-5.5-6.5l2-1c1.1-0.3,2.3-0.7,3.2-1.4c0,0,0,0,0,0
                c0.2,0.2,0.3,0.3,0.5,0.5l0.6,2.3c0.1,0.4,0.5,0.7,0.9,0.7c0.5,0,0.8-0.3,1-0.7c0.5-1.5-0.1-2.5-0.7-3.3l-0.8-3.2
                c-0.1-0.6-0.2-1.3-0.5-2.1c-0.2-0.5-0.7-0.8-1.2-0.6c-0.5,0.2-0.8,0.7-0.7,1.2l0.5,1.9c0,0.6-0.1,0.9-0.2,1.1l-3.3,1.7
                c0,0,0,0-0.1,0c-1.7,0.5-3.5,1-4.6,2.4c0,0,0,0,0,0.1l0,0c-0.1,0.1-0.1,0.2-0.1,0.3c0,0,0,0,0,0c0,0.1,0,0.2,0,0.3
                c0,0.2,0.1,0.3,0.1,0.5c0,0,0,0,0,0c0,0.1,0.1,0.1,0.1,0.2c0,0,0,0,0,0c0,0,0,0,0,0l7.4,7.4l0.2,0.5c0.1,1.3,0.6,2.3,1.4,3.1
                C51.8,76.3,53.2,78.5,56,79.5z M43.3,58.7c0.2,0.1,0.4,0.2,0.5,0.2c0.3,0,0.6-0.1,0.7-0.3l6-7.1c0.3-0.4,0.3-0.9,0-1.2l-0.8-1
                c-0.2-0.2-0.4-0.4-0.7-0.4c-0.3,0-0.5,0.1-0.7,0.2l-4.5,4.1c-0.4,0.3-0.4,0.9-0.1,1.3l0.4,0.5L43,57.5
                C42.8,57.9,42.9,58.5,43.3,58.7z M19.8,75.6c0.1,0,0.2,0,0.2,0c0.3,0,0.7-0.2,0.9-0.5c0.2-0.4,0.2-0.9-0.2-1.2l-3.9-4
                c-0.3-0.3-0.8-0.4-1.1-0.2l-3.9,2c-0.4,0.2-0.6,0.6-0.5,1c0,0.4,0.3,0.8,0.7,0.9L19.8,75.6z M0,65.2v5L1.4,71
                c0.2,0.1,0.3,0.1,0.5,0.1c0.3,0,0.5-0.1,0.7-0.3c0.3-0.3,0.4-0.8,0.1-1.2L0,65.2z M6.3,76.6c0-0.5-0.2-0.9-0.7-1l-2.1-0.7
                c-0.2-0.1-0.4-0.1-0.6,0c-0.2-0.1-0.5-0.1-0.7,0l-2.2,1v3.9l1.1-0.1c0.5-0.1,0.9-0.5,0.9-1l0-0.4l0.4-0.6l3-0.3
                C5.9,77.4,6.2,77.1,6.3,76.6z M1,94.2c1.4,0.2,2.2,0.4,2.4,0.4c0,0,0,0,0.1,0c0.1,0,0.2,0,0.2,0c0.5,0,0.9-0.4,1-0.9
                c0-0.5-0.4-1-0.9-1.1c-0.2,0-0.9-0.2-1.7-0.5v-4.5c0-0.4-0.2-0.7-0.6-0.9c-0.3-0.2-0.7-0.1-1,0.1c-0.2,0.1-0.3,0.3-0.5,0.4v6
                c0.1,0,0.1,0.1,0.2,0.1C0.3,93.9,0.6,94.2,1,94.2z M4.8,83.2c0.3-0.5,0.2-1.1-0.3-1.4c-0.2-0.2-0.5-0.3-0.7-0.4
                c-1.4-0.8-2.5-1.2-3.5-1.2c-0.1,0-0.2,0-0.3,0v2.6c0.8-0.4,1.8-0.3,2.9,0.3c0.2,0.1,0.4,0.2,0.6,0.3C3.9,83.8,4.5,83.7,4.8,83.2z
                 M9.9,99.1c0.1,0,0.2,0.1,0.3,0.1c0.2,0,0.4-0.1,0.6-0.2l2.8-2.3c0.3-0.2,0.4-0.6,0.3-1c-0.1-0.4-0.4-0.7-0.8-0.7l-2-0.4
                c0-0.1,0-0.1,0-0.2c0-1.3,0-3-1.8-4.2c-0.3-0.2-0.8-0.2-1.1,0c-0.3,0.2-0.5,0.6-0.4,1l1.4,7.1C9.4,98.7,9.6,99,9.9,99.1z M13.7,83.9
                c0.2,0.1,0.4,0.2,0.6,0.2c0.2,0,0.3,0,0.5-0.1l1.6-0.9c0.3-0.2,0.5-0.4,0.5-0.8c0-0.3-0.1-0.6-0.3-0.8c-0.8-0.7-0.7-1.4-0.6-2.7
                c0-0.4,0.1-0.7,0.1-1.1c0-0.4-0.3-0.9-0.7-1l-2.4-0.8c-0.5-0.5-1.3-0.9-2.2-1l0.2-1.6c0.1-0.5-0.2-0.9-0.7-1.1l-1.9-0.6
                c-0.3-0.1-0.6-0.1-0.8,0.1c-0.1,0-0.1,0.1-0.2,0.1l-1.6-4.7c-0.1-0.6-0.3-1.1-0.5-1.6c-0.2-0.5-0.8-0.7-1.3-0.5
                c-0.5,0.2-0.7,0.7-0.6,1.2l0.5,1.4c0.2,0.8,0.2,1.7,0.2,2.5c0.1,2.1,0.1,4.4,2.6,5.8l0.4,1.2c0.1,0.3,0.3,0.5,0.6,0.6
                c0.3,0.1,0.6,0.1,0.8-0.1L9.7,77l2,0.7c0.3,0.6,0.4,1.4,0.5,2.3c0.1,0.9,0.2,2,0.7,2.9c-0.3-0.1-0.5,0-0.8,0.1l-1.1,0.7
                c-1.5,1-3,1.9-4.4,2.5v0c0,0-0.1-0.1-0.1-0.1c0.1-0.1,0.2-0.2,0.3-0.4c1.4-1.7,2.5-3.2,2.3-4.5c-0.1-0.4-0.3-0.9-1-1.2
                c-0.5-0.2-1.1-0.1-1.3,0.4l-3.4,6.6c0,0,0,0,0,0c-0.1,0.2-0.1,0.5-0.1,0.7c0,0,0,0.1,0,0.1c0,0,0,0,0,0c0,0,0,0,0,0
                c0.1,0.2,0.2,0.3,0.4,0.5c0,0,0.1,0,0.1,0.1c0.1,0,0.2,0.1,0.3,0.1c0.3,0,0.5,0.1,0.8,0c0.1,0.2,0.1,0.4,0.3,0.5
                c0.2,0.3,0.6,0.4,1,0.4c0.8,0,1.9-0.4,7-5C13.6,84.4,13.7,84.1,13.7,83.9z M3.7,101.7c0.9,0,2,0.3,3.2,0.8c0.5,0.2,1.1,0,1.3-0.5
                c0.2-0.5,0-1.1-0.5-1.3c-0.7-0.4-1.3-0.8-1.6-1.2c0.3-0.9,0.4-1.9,0.2-3.1c0.3-0.4,0.5-0.8,0.3-1.3c-0.2-0.4-0.5-0.6-0.9-0.6
                c-0.5,0-0.8,0.3-1.2,1c-0.1,0.1-0.1,0.2-0.2,0.3c-0.6,1.2-0.8,2.5-0.5,3.6c-0.1,0.1-0.3,0.3-0.5,0.4c-0.5,0-1,0.1-1.5,0.2
                c-0.5,0-1.2-0.1-1.8-0.3v3.9c0.7-0.8,1.3-1.3,2.1-1.6C2.7,101.9,3.2,101.9,3.7,101.7z M2.4,108.5c0-0.9-0.6-1.2-2.4-1.3v2.3
                c0.4,0,0.7,0.1,1,0.1C2.2,109.5,2.4,108.8,2.4,108.5z M118.5,71.3c0.2,0.2,0.5,0.3,0.7,0.3c0.4,0.4,0.8,0.9,1.1,1.5
                c0.2,0.3,0.5,0.5,0.9,0.5c0.1,0,0.2,0,0.3,0c0.4-0.1,0.7-0.5,0.7-1v-4c0-0.4-0.2-0.8-0.6-0.9c-0.4-0.2-0.8-0.1-1.1,0.2l-1.2,1.2
                c-0.2-0.1-0.4-0.2-0.5-0.3l-0.8-0.9c-0.1-0.1-0.2-0.2-0.4-0.2c-1-0.3-1.9-0.2-2.9,0.4c-0.6,0.1-1.3,0.3-1.9,0.5c0,0-0.1,0-0.1,0
                l-0.7-0.7c-0.3-0.3-0.7-0.4-1.1-0.2c0,0,0,0,0,0c-0.5-0.4-1-0.7-1.7-1.1c0-0.4,0-0.9,0.2-1.5c0.1-0.4-0.1-0.9-0.4-1.1
                c-0.4-0.2-0.8-0.2-1.2,0.1c-0.5,0.5-1.2,0.7-2,0.7c-0.2,0-0.4,0-0.6,0l-0.7-0.2l-2.7-0.5c-0.7-0.2-1.3-0.3-1.8-0.4l-0.3-2
                c-0.1-0.5-0.5-0.9-1-0.8c-0.5,0-0.9,0.5-0.9,1v2.8c0,0,0,0,0,0c0,0.1,0,0.1,0,0.2l1.4,7.1c0.1,0.5,0.6,0.9,1.1,0.8
                c0.5-0.1,0.9-0.6,0.8-1.1l-0.8-5.7l1.6,0.3c1,0.2,2,0.5,2.9,0.6c0.1,0,0.3,0.1,0.4,0.2c0,0-0.1,0-0.1,0.1c-2.6,1.7-1.3,4.3-0.4,6.2
                c1.1,2.3,1.3,3.1,0.4,3.7c-0.4,0.3-0.5,0.8-0.3,1.2c0.2,0.3,0.5,0.5,0.9,0.5c0.1,0,0.2,0,0.3-0.1c1.5-0.5,2.5-0.8,3.3-0.2
                c0.3,0.3,0.8,0.3,1.2,0.1c0.4-0.3,0.5-0.7,0.4-1.1c-0.6-1.7-1.8-3.1-2.9-4.4c-1.9-2.2-2.6-3.3-1.6-4.5c0.2-0.3,0.3-0.7,0.2-1
                c0.4,0.2,0.8,0.4,1.2,0.6c0.5,1.2,1.6,1.8,2.7,2.1v0.6c0,0.4,0.2,0.7,0.5,0.9c0.2,0.1,0.5,0.1,0.8,0c0.1,0.3,0.2,0.6,0.1,0.9
                c0,0.3,0.1,0.5,0.2,0.7c0.2,0.2,0.4,0.3,0.7,0.3c0.3,0,0.6,0.1,0.9,0.1c0.5,0.1,1.1,0.2,1.6,0.2c1.2,0,2.1-0.5,2.7-1.4
                c0.2-0.3,0.2-0.7,0-1c-0.3-0.4-0.6-0.8-1-1.1c0.2,0.1,0.5,0.1,0.7,0.2L118.5,71.3z M0,2.4c0.2-0.1,0.4-0.2,0.5-0.4l0.6-1.1
                c0.1-0.2,0.2-0.5,0.1-0.8c0,0,0,0,0-0.1H0V2.4z M7.5,27.9c-0.2-0.6-0.4-1.2-0.6-1.8c0,0,0,0,0,0c-0.2-2.1-0.1-2.9,0.8-3.2
                c0.4-0.2,0.7-0.6,0.6-1S8,21,7.6,21l-1.9-0.3c-0.1-0.4-0.1-0.9-0.1-1.2v-0.7c0-0.5-0.4-1-1-1c-0.6,0-1,0.4-1,0.9c0,0.2,0,0.5,0,0.8
                v2c0,0.3,0.1,0.6,0.4,0.8C4.2,23.5,4.6,25,5,26.4c0.1,0.8,0.1,1.4,0,2c0,0.3,0,0.5,0.2,0.7c0.1,0.2,0.4,0.4,0.6,0.4l0.3,0
                c0.1,0.3,0.3,0.7,0.4,1c0.1,0.3,0.3,0.5,0.6,0.6c0.8,0.3,1.5,0.4,2.1,0.4c0,0,0,0,0,0c1,0,1.9-0.3,2.5-1c0.2,0,0.3-0.1,0.5-0.2
                c0.2-0.2,0.4-0.4,0.4-0.7c0-0.3,0.1-0.7,0.1-1c0.3-1.2,0.3-2.7,0.3-4.1c0-1.3,0-2.5,0.2-3.2c0.1-0.2,0.3-0.3,0.4-0.4
                c0.4-0.3,0.5-0.8,0.3-1.3c-0.2-0.4-0.7-0.7-1.2-0.5c-0.4,0.1-0.9,0.4-1.3,1.1c-1.2,1.6-1,3.9-0.9,6c0.1,0.7,0.1,1.4,0.1,2.1
                c0,0,0,0,0,0L7.5,27.9z M2.4,8l-2-0.3c-0.1,0-0.3,0-0.4,0v5.7c0.1,0.2,0.3,0.4,0.6,0.4c0.3,0.1,0.6,0,0.8-0.2l1.1-0.9l2.1,0.4
                c0.4,0.5,0.6,1.3,0.9,2.2c0.3,1.2,0.7,2.6,1.7,3.6c0.2,0.2,0.4,0.3,0.7,0.3c0.2,0,0.4-0.1,0.6-0.2l1.4-1.1c0.2-0.2,0.4-0.5,0.4-0.8
                c0-0.3-0.2-0.6-0.4-0.8C9,15.7,8.9,15,8.9,13.7c0-0.4,0-0.7,0-1.1c0-0.4-0.4-0.8-0.8-0.9l-2.5-0.4c-0.6-0.4-1.4-0.7-2.3-0.7V9
                C3.2,8.5,2.9,8.1,2.4,8z M46,135.9c0-0.1,0-0.1-0.1-0.2c0-0.1,0.1-0.2,0.1-0.4c0-0.2-0.1-0.3-0.2-0.5c0.4-0.1,0.7-0.4,0.7-0.8
                l0.1-1.3c0.6,0,1,0.1,1.4,0.1l0.3,0.1c0.5,0.1,1.1-0.1,1.2-0.7c0.2-0.5-0.1-1.1-0.6-1.2c-0.1,0-0.2-0.1-0.4-0.1l-2.4-0.7
                c-0.3-0.1-0.6,0-0.8,0.1c-0.2,0.1-0.3,0.2-0.3,0.4c-0.3,0-0.5,0-0.8,0l-0.4,0c-0.4-0.1-0.8-0.1-1.3-0.2c-0.9-0.2-1.9-0.8-2.4-3
                c-0.1-0.3-0.4-0.6-0.7-0.7c-0.3-0.1-0.7,0-1,0.3l-5.1,5.2l-0.2,0.1c-0.6,0.2-1.3,0.3-1.9,0.5c-0.8-0.3-1.4-0.6-1.6-1.4
                c-0.1-0.4-0.6-0.7-1-0.7c-0.5,0.1-0.8,0.4-0.9,0.9l-0.3,2.7c0,0.3,0.1,0.6,0.3,0.8c0.2,0.2,0.4,0.3,0.7,0.3c0.1,0,0.1,0,0.2,0
                c0.8-0.1,1.7-0.3,2.6-0.6l0.2,0.1c0.3,0.1,0.6,0.2,0.9,0.3c0.4,0.1,0.8,0.1,1.1-0.2l1-1c2.9-0.8,5.7-1.5,7.9-1.5
                c0.4,0.1,0.8,0.1,1.3,0.2c0.6,0.2,0.9,0.5,1,0.9l-0.9-0.7c-0.2-0.2-0.5-0.2-0.7-0.2c-0.3,0-0.5,0.2-0.7,0.4c-1.4,1.7-2,3.4-2.7,5
                c-0.5,1.2-0.9,2.3-1.6,3.4l-0.1,0.2c0-0.3-0.1-0.6-0.4-0.8c-0.3-0.2-0.8-0.3-1.1,0l-1.7,1.1h6.2l4.8-5.3
                C45.9,136.5,46,136.2,46,135.9z M63.1,125.3c-0.4-0.4-1-0.4-1.4-0.1l-7.2,6c-0.4,0.3-0.5,1-0.1,1.4c0.2,0.2,0.5,0.4,0.8,0.4
                c0.2,0,0.4-0.1,0.6-0.2c0,0,0,0,0,0l0,0c1.5-1.2,2.7-1.4,4.1-1.7c0.4-0.1,0.8-0.1,1.2-0.2c0.5-0.1,0.9-0.6,0.8-1.1
                c-0.1-0.5-0.6-0.9-1.1-0.8l-0.1,0l2.3-2.2C63.4,126.3,63.4,125.7,63.1,125.3z M47.1,30.6h-2c-0.1,0-0.2,0-0.3,0.1l-5.9,2
                c-0.5,0.2-0.7,0.6-0.7,1.1c0.1,0.5,0.5,0.8,1,0.8h7.9c0.5,0,1-0.4,1-1v-2C48.1,31.1,47.6,30.6,47.1,30.6z M22.1,25.1
                c0.2,0.3,0.5,0.5,0.8,0.5c0.1,0,0.2,0,0.3-0.1c0.6-0.2,1.2-0.4,1.7-0.6c2-0.6,4.1-1.3,5.8-2.9l0.7,0.7c0.2,0.5,0.3,1.1,0.3,1.7
                c0,0.5,0.5,1,1,0.9c0.5,0,1-0.5,0.9-1.1c0-0.2,0-0.7,0-1.7c0-0.3-0.1-0.5-0.3-0.7l-0.3-0.3c-0.2-0.5-0.5-0.9-0.7-1.2
                c0.4-0.4,0.8-0.8,1.1-1.2l3.8-3.9c0,0,0.1-0.1,0.1-0.2c0,0,0,0,0,0c0,0,0,0,0,0c0.1-0.1,0.1-0.3,0.2-0.4c0-0.1,0-0.2,0-0.4
                c0-0.1,0-0.2-0.1-0.2c-0.3-0.6-0.7-1.1-1.2-1.5c0.5-0.4,0.9-0.9,1.2-1.5c0.2-0.4,0.1-1-0.3-1.2C36.9,9.6,36.3,9.7,36,10l-1.4,1.4
                c-0.3,0.1-0.8,0.2-1.3,0.3c-0.3,0-0.6,0-0.8,0l-1.7,0c-0.5,0-1,0.4-1,1c0,0.5,0.4,1,1,1l1.7,0c0.3,0,0.6,0,0.8,0
                c0.5,0,0.9,0.1,1.3,0.3l0.7,0.7c-0.9,0.8-1.7,1.7-2.5,2.6l-2.5,2.6c-1,0.9-2,1.5-3,1.7c-0.1-0.1-0.2-0.2-0.3-0.3
                c-0.7-0.7-1.1-1.2-1.1-1.7c0.2-0.3,0.4-0.6,0.6-0.8c0.9-0.8,1.4-1.2,2.1-1c0.5,0.2,1-0.1,1.2-0.6c0.2-0.5,0-1-0.5-1.3
                c-0.7-0.4-1.1-0.9-1.3-1.8c0.1-1.1,0.1-2.2-0.1-3.4c-0.1-0.5-0.5-0.9-1-0.8c-0.5,0-0.9,0.5-0.9,1l0,0.8c0,0.8,0,1.7,0.1,2.6
                c-0.1,1.2-0.5,2.3-1.1,3.2c-0.2,0.2-0.4,0.4-0.6,0.6C24.1,18,24,18.1,24,18.3c0,0.1,0,0.1-0.1,0.2c-0.4,0.4-0.9,0.9-1.5,1.2
                C22.1,20,22,20.2,22,20.5c0,0.3,0.1,0.6,0.3,0.8l1.3,1.3l-1.3,1.3C21.9,24.2,21.9,24.7,22.1,25.1z M37,18c0,0.3,0.2,0.5,0.3,0.7
                c0.2,0.2,0.5,0.3,0.8,0.3c0.2,0,0.4,0,0.8-0.2l0.8,0.8l-1.2,1.2c-0.7,0.6-1.5,1.4-2.1,2.2c-0.3,0.4-0.3,1,0.1,1.3
                c0.2,0.2,0.4,0.2,0.6,0.2c0.3,0,0.5-0.1,0.7-0.3l2-2l0.3-0.3c1.9-1.6,4-3.5,3.9-6.4c0-0.4-0.3-0.8-0.8-0.9c-0.2,0-0.3-0.1-0.5-0.1
                C41.5,14.7,37,16.5,37,18z M24.9,49.1c-0.3-0.2-0.8-0.2-1.1,0l-1.5,1l-1-1.5c-0.1-0.2-0.4-0.4-0.6-0.4c-0.3,0-0.5,0-0.7,0.2L16.3,51
                l-1.1-1.4c-0.3-0.4-0.9-0.5-1.3-0.3c-0.3,0.2-0.6,0.4-0.9,0.6c-0.6,0.4-1.1,0.7-1.6,0.8c-0.4-0.1-0.7-0.1-1-0.2
                c-0.5-0.1-1,0.1-1.2,0.6c-0.2,0.5,0,1,0.4,1.3c0.5,0.3,1,0.4,1.5,0.4c0,0,0.1,0,0.1,0c1,0.2,2.3,0.3,3.8,0.3l0,0
                c0.1,0.2,0.4,0.4,0.6,0.4c0.1,0,0.1,0,0.2,0c0.2,0,0.4-0.1,0.6-0.2l0.4-0.3c2.1,0,4-0.1,5.5-0.2c0.4,0,0.7,0,1-0.1
                c0.2,0.2,0.6,0.2,0.8,0.2c0.4-0.1,1.4-0.4,1.2-1.3c0-0.2-0.1-0.4-0.3-0.6l0.1-0.8C25.4,49.7,25.3,49.3,24.9,49.1z M51.5,27.7
                c0.4,0,0.7,0,1.1,0c0,0,0,0,0,0c0.2,0,0.4-0.2,0.6-0.3c0,0,0.1-0.1,0.1-0.1c0,0,0,0,0,0c0,0,0,0,0,0c0.1-0.2,0.2-0.4,0.1-0.6l-1-6.7
                c0-0.3-0.2-0.6-0.5-0.7c-0.3-0.1-0.6-0.2-0.9,0c-0.8,0.3-1.1,0.9-1.3,1.3c-0.5,1.2,0.2,2.7,0.9,4.2c0.1,0.1,0.1,0.2,0.2,0.4
                c-0.2,0.1-0.3,0.2-0.5,0.3c-1.1-0.5-2.3-1.5-3.4-2.5l-0.8-0.7c-0.4-0.3-0.9-0.3-1.3,0.1c-0.4,0.3-0.4,0.9-0.1,1.3
                c3.3,4.3,4.5,5.1,5.4,5.1C50.9,28.7,51.3,28.2,51.5,27.7z M34.8,32.4c0.2,0.3,0.5,0.4,0.8,0.4c0.2,0,0.3,0,0.5-0.1
                c0.4-0.2,0.6-0.8,0.5-1.2l-1.3-3.7c0.2,0,0.3-0.1,0.5-0.1l6.8,1.1c0.2,0,0.3,0,0.5,0c2.1-0.8,1.3-3,0.9-4.2
                c-0.1-0.3-0.2-0.6-0.3-0.9c-0.1-0.3-0.2-0.5-0.5-0.6c-0.2-0.1-0.5-0.1-0.8-0.1c-1.6,0.6-1.5,1.9-1.3,3.1c-2-0.7-3.5-0.8-5.4-0.4
                l-1.8-0.3c-0.3-0.1-0.7,0.1-0.9,0.3c-0.2,0.2-0.2,0.5-0.2,0.7c-0.1,0-0.2,0-0.2,0.1c-0.3,0.1-0.6,0.3-0.7,0.6
                c-0.1,0.3-0.1,0.7,0.1,0.9L34.8,32.4z M96.1,137.8c-0.1,0.5,0.2,1.1,0.8,1.2c0.1,0,0.1,0,0.2,0c0.5,0,0.9-0.3,1-0.8l0.3-1.5
                c0.2-0.1,0.3-0.2,0.5-0.3c0.9-0.6,1.6-1.1,2.4-0.6c0.4,0.2,0.9,0.2,1.2-0.2c0.3-0.3,0.4-0.8,0.1-1.2L101,132c0,0,0,0,0,0l-3.1-4.7
                c-0.1-0.2-0.4-0.4-0.6-0.4c-0.3-0.1-0.5,0-0.7,0.1l-1.6,1.1c-0.2,0.1-0.4,0.4-0.4,0.6c-0.1,0.3,0,0.5,0.1,0.7l2.7,4
                c-0.6,1.1-0.9,2.3-1.1,3.5L96.1,137.8z M122.5,142h3.8c0.3-0.4,0.6-0.9,0.7-1.4c0.3,0,0.6-0.2,0.8-0.4c0.2-0.3,0.2-0.6,0.1-0.9
                c-0.1-0.3-0.2-0.6-0.3-0.9c-0.4-1.2-0.9-2.9-2.8-3.4l0.3-0.5c0.3-0.5,0.1-1.1-0.3-1.3c-0.5-0.3-1-0.7-1.5-1.2c0,0,0,0,0,0
                c0-0.4-0.2-0.7-0.5-0.9c-0.2-0.1-0.4-0.2-0.7-0.4c-1.4-1.7-2.2-3.7-2-5.1c0.5-1.1,1.4-2,2.7-2.7c0.5-0.2,0.7-0.8,0.5-1.3
                c-0.2-0.5-0.7-0.7-1.2-0.6c-0.4,0.1-0.6,0.3-1,0.4c0.3-0.2,0.5-0.6,0.5-0.8c0-0.5-0.5-1-1-1l-0.2,0l-0.4-2c-0.1-0.5-0.6-0.9-1.1-0.8
                l-2.7,0.5c-0.5,0.1-0.9,0.6-0.8,1.2l0.3,1.8c-2.3,0.5-4,1.9-5.7,3.2c-0.5,0.4-0.9,0.8-1.4,1.1c-0.4,0.3-0.5,0.9-0.3,1.3
                c0.3,0.4,0.9,0.6,1.3,0.3l1.1-0.6c0,0.6,0.2,1.2,0.5,1.8c-0.6,0.7-0.8,1.1-0.6,1.6c0.2,0.4,0.5,0.6,0.9,0.6c1,0,2.6-2.6,3-3.8
                c0.4-1.4,0.1-2.3-0.3-2.8c0.6-0.4,1.4-0.7,2.3-0.9c0.1,0,0.3,0,0.4-0.1c0.1,0,0.3-0.1,0.4-0.1c1.4-0.3,2.6-0.4,3-0.4l0.3,0
                c0.1,0,0.2,0,0.4-0.1c-1.5,0.8-2.4,1.9-2.7,3.5c-0.9,2.5,0,5.2,2.4,6.9c-0.2,0.2-0.4,0.3-0.6,0.5c-1.1,0.9-2.5,2-3.4,2
                c-0.2,0-0.6,0-1.2-1c-0.1-0.3-0.4-0.5-0.7-0.5c-0.3-0.1-0.6,0.1-0.9,0.3l-1.4,1.4c-0.4,0.4-0.4,1,0,1.4l2,2c0.4,0.4,1,0.4,1.4,0
                l1.2-1.2c2.8-1.1,4-1.3,4.4-1.2c-0.1,1-2.2,3.6-3.2,4.9c-0.4,0.5-0.8,1-1.1,1.4h3.5l3.2-5.3c0.7,0.9,1.2,1.7,1.3,2.4
                C124,139.7,123.2,140.9,122.5,142z M110.9,140.7c-0.1-0.3-0.4-0.7-1-1c-0.2-0.1-0.3-0.1-0.5-0.1l-0.8,0.1l0.6-0.8
                c0.3-0.4,0.2-0.9-0.1-1.3c-0.3-0.3-0.8-0.4-1.2-0.2l-5.2,3.2c-0.4,0.3-0.6,0.8-0.4,1.2h3.2c0.1,0,0.2-0.1,0.3-0.1
                c0.1,0,0.1,0.1,0.2,0.1h1.1l0.9-0.1c0.2,0,0.3,0.1,0.4,0.1h2.5C111,141.6,111.1,141.1,110.9,140.7z M142,141.1l-4.6-2.3
                c1.2,0.2,1.9,0.3,2.2,0.4c0,0,0,0,0.1,0c0,0,0,0,0,0v0c0.1,0,0.2,0,0.2,0c0.5,0,0.9-0.4,1-0.9c0-0.5-0.4-1-0.9-1.1
                c-0.1,0-0.5-0.1-0.9-0.2c0.1-0.1,0.1-0.3,0.1-0.4c0-0.3-0.2-0.5-0.4-0.7l-2-1.6c-0.4-0.3-0.9-0.3-1.2,0c-0.1-0.3-0.1-0.5-0.2-0.7
                l0.1-0.2c0.1-0.2,0.3-0.3,0.4-0.5c0,0,0-0.1,0.1-0.1c0.3,0.1,0.7,0,0.9-0.3l1.3-1.3c0.2,0.2,0.4,0.4,0.5,0.6l0.1,0.1
                c0.2,0.5,0.3,1.1,0.4,1.8c0,0.5,0.5,0.9,1,0.9c0,0,0,0,0,0c0.5,0,1-0.5,0.9-1.1c0-0.1,0-0.5,0-1.2c0.3-0.3,0.6-0.6,0.9-0.9v-4.2
                l-1.9,2.9c-0.3-0.4-0.6-0.8-1-1c-0.1-0.3-0.1-0.6,0-0.9c0.2-0.5-0.1-1-0.6-1.2c-0.5-0.2-1,0-1.3,0.5l-1.9,3.9c-0.2,0-0.3,0-0.5,0
                c-0.7,0.2-1.2,0.7-1.3,1.4c-0.2,0.3-0.5,0.5-0.8,0.6c-0.7-0.2-1.2-0.3-1.7-0.4c-0.1-0.8-0.2-1.6-0.1-2.3c0.3-0.7,0.4-1.5,0.4-2.2
                l0-0.2c0.6-1.3,1.8-1.4,3.7-0.5c0.2,0.1,0.5,0.2,0.7,0.4c0.5,0.2,1.1,0.1,1.3-0.4c0.2-0.5,0.1-1.1-0.4-1.3c-0.3-0.1-0.5-0.3-0.8-0.4
                c-1.6-0.8-2.8-1.1-3.8-1.1c-2.3,0-2.6,2-2.7,3c-0.2,0.6-0.4,1.4-0.5,2.3c-0.1,0.1-0.3,0.2-0.6,0.2c-0.5,0-1.1-0.1-1.8-0.4
                c-0.4-0.1-0.8,0-1,0.2c-0.3,0.3-0.3,0.7-0.2,1l0.7,1.9c0.1,0.3,0.4,0.6,0.8,0.6l1.7,0.3l0.1,1.2c0,0.2,0,0.4,0.1,0.6l0.6,6.2
                c0,0,0,0.1,0,0.1h2.2c0.8-1.2,0.2-3.1-0.3-4.7c-0.2-0.7-0.4-1.3-0.5-1.8l0-0.3c0.7,0.2,1.4,0.3,2,0.2c0.6,1.1,1.9,2,3.8,2.7
                c0.1,0.2,0.3,0.4,0.6,0.5c-0.3,0-0.6,0.2-0.8,0.5l-0.3,0.6l-2.8-0.2c-0.5,0-0.9,0.3-1,0.8c-0.1,0.5,0.2,1,0.7,1.1l1.7,0.6h7.8V141.1
                z M86.8,138.9c-0.4-0.3-1-0.3-1.3,0.1l-3,3h3.3l1.2-1.8C87.2,139.8,87.2,139.3,86.8,138.9z M40.9,0h-6.2l-0.2,0.1
                C34.2,0.3,34,0.6,34,1c0.1,1.8-1.8,4.4-3.4,6.6l-0.8,1c-0.2,0.3-0.2,0.6-0.1,0.8c-0.1,0.4,0,0.7,0.3,1c0.2,0.2,0.4,0.3,0.7,0.3
                c0.3,0,0.5-0.1,0.7-0.3l6.3-6.6c0.2-0.2,0.5-0.5,0.7-0.7c0.2,0.4,0.6,0.7,1,0.6l0.4-0.1c0.2,0,0.3,0,0.5,0l-0.6,0.8
                c-0.3,0.4-0.2,1,0.2,1.4C39.9,5.9,40.1,6,40.3,6l-2.4,1.5c-0.4,0.3-0.6,0.8-0.3,1.3l2.4,4.5c0.2,0.3,0.5,0.5,0.9,0.5
                c0.1,0,0.1,0,0.2,0c0.4-0.1,0.7-0.4,0.8-0.8l0.8-5c0-0.2,0-0.4-0.1-0.6l-0.6-1.1c-0.1-0.2-0.3-0.4-0.6-0.5c-0.1,0-0.2,0-0.3,0
                c0,0,0.1,0,0.1-0.1c0.8-0.9,1.7-1.5,2.8-1.6c0.4,0,0.9,0,1.3,0c1.7,0.2,3.6,1.1,5.5,2.2l0,0.8c0,0.3,0.2,0.6,0.4,0.7
                c0.2,0.2,0.5,0.2,0.8,0.2c0.4-0.1,0.7-0.1,1.1-0.2l0.2,0c0.7,0.4,1.3,0.7,1.9,0.9c0.1,0,0.2,0.1,0.3,0.1c0.3,0,0.6-0.1,0.8-0.4
                l2-2.8c0.1-0.1,0.1-0.3,0.2-0.4c0.2,0.3,0.5,0.4,0.8,0.4c0,0,0,0,0,0c0.3,0,0.5-0.1,0.6-0.2l7.8,5.9c0.1,0.1,0.2,0.1,0.3,0.1
                c-0.4,0-0.7,0.3-0.8,0.6c-0.2,0.7-0.1,0.8,1.7,2.4v1.5c0,0.5,0.3,0.9,0.8,1c0.1,0,0.1,0,0.2,0c0.4,0,0.8-0.3,0.9-0.7l0.8-2.5
                c0.4-0.2,0.6-0.4,0.9-0.7c0.5-0.7,0.6-1.8,0.3-3.3c-0.1-0.4-0.5-0.8-0.9-0.8c-0.5,0-0.8,0.3-1,0.7L70,11.8c-0.4-0.1-0.9-0.3-1.2-0.4
                c-0.1-0.1-0.3-0.1-0.4-0.1c0.2,0,0.4-0.1,0.5-0.3c0.3-0.4,0.3-1,0-1.3l-5-5.1l4.9-3.3C69.2,1,69.3,0.4,69.1,0h-2.2l-6,3
                c0.1-0.2,0.2-0.5,0.4-0.8c0.3-0.5,0.6-1,0.9-1.5c0.2-0.3,0.3-0.5,0.5-0.8h-2.5c-0.2,0.4-0.4,0.9-0.6,1.3c-0.3,0.6-0.5,1-0.6,1.4
                l-0.2,0.4c-0.3,0.5-0.4,0.9-0.5,1.1c0,0-0.1-0.1-0.1-0.1c-0.4-0.3-0.9-0.4-1.3,0c-1.2,1-2.3,1.3-3.2,1.5c-0.3-0.2-0.7-0.4-1-0.6
                L52.3,0h-2.9c-2,1.6-3.3,2-4.2,2.1c-0.5,0-0.9,0-1.4,0c-0.2,0-0.3,0-0.5-0.1c0-0.1-0.1-0.2-0.1-0.3c-0.2-0.3-0.6-0.5-1-0.5l-2.8,0.4
                c0,0,0,0-0.1,0c0.1-0.1,0.2-0.2,0.2-0.3L40.9,0z M111.2,103.4l-0.3-0.3c0-0.2-0.1-0.3-0.3-0.4c-0.2-0.2-0.4-0.4-0.7-0.7
                c-0.3-0.3-0.6-0.5-0.8-0.8c-1.7-2.1-1.8-3.5-0.4-5c0.3-0.3,0.4-0.9,0.1-1.3c-0.3-0.4-0.8-0.5-1.2-0.3c-1.4,0.8-2.3,1.7-2.4,2.9
                c-0.3,1.9,1.1,3.6,2.5,5c0.3,0.3,0.5,0.6,0.8,1l-1.2,1.2c-0.3,0.3-0.4,0.8-0.1,1.2c0.2,0.4,0.7,0.6,1.1,0.4c0.8-0.3,1.4,0.3,2.2,1.1
                c0,0,0,0,0,0c-0.2,0.2-0.4,0.4-0.5,0.5c-0.2,0.2-0.3,0.3-0.5,0.5c0-0.3-0.2-0.5-0.4-0.7c-0.4-0.3-1-0.2-1.3,0.2
                c-2.1,2.5-6.2,3.8-10.3,5.1c-2,0.6-4.2,1.3-6,2.1c-0.4,0.2-0.7,0.7-0.6,1.1c0.1,0.5,0.5,0.8,1,0.7c0.1,0,0.1,0,0.2,0
                c-0.3,0.3-0.3,0.7-0.1,1.1c0.7,1.3,1.5,2.5,2.6,3.6l4.6,6.5c0.3,0.4,0.7,0.5,1.1,0.3c0.4-0.2,0.7-0.6,0.6-1l-0.1-0.5
                c0.9,0.5,1.8,0.9,2.8,1.3c1.7,1.1,3.1,2.2,4.1,3.4l-0.9-0.3c-0.3-0.1-0.7-0.1-0.9,0.2c0,0,0,0.1-0.1,0.1c-0.2-0.4-0.8-0.6-1.2-0.4
                c-0.4,0.2-0.6,0.5-0.6,0.9c0,0.1,0,0.3,0.1,0.4c0.6,1.3,0.1,2.8-1.5,4.7c-0.4,0.3-0.8,0.7-1.2,1c-1,0.8-2,1.7-2.8,2.7
                c-0.4,0.4-0.8,0.7-0.8,1.1h2.6c1-0.8,2.4-2,3.6-3.4c1-0.9,2-2.1,2.3-3.6c0,0,0,0,0.1,0l3.1,1.1c0.1,0,0.2,0.1,0.3,0.1
                c0.2,0,0.4-0.1,0.6-0.2c0.3-0.2,0.4-0.5,0.4-0.9l-0.2-1.7c0.7-4-3-5.6-6.1-7c-0.6-0.4-1.2-0.7-1.8-1.1c-2.4-1.5-4.8-2.9-6.7-5
                l-2.4-3.4c-0.1-0.1-0.1-0.2-0.2-0.2c0.5-0.1,0.9-0.1,1.2-0.1c0,0.4,0.3,0.8,0.7,0.9c0.1,0,0.2,0,0.3,0c0.4,0,0.7-0.2,0.9-0.6
                c0.8-1.7,3.4-2.6,5.9-3.6c1.6-0.6,3.3-1.2,4.6-2.1c0,0.1,0,0.2,0.1,0.2c-0.5,1.2-0.5,2.5,0,3.9c0.1,0.4,0.5,0.7,0.9,0.7h2
                c0.5,0,1-0.4,1-1v-3.7c2-0.7,3-1.5,3.3-2.6C114.8,107.1,113.1,105.3,111.2,103.4z M103,117.8c0.5,0,1.1,0.2,1.5,0.3
                c1.1,0.8,2.1,1.4,3.1,1.7l0.3,2.5c0,0.4,0.3,0.7,0.7,0.8c0.4,0.1,0.8,0,1-0.3l2.6-3.4c0.8-0.5,1.4-1.3,1.7-2.4
                c0.1-0.5-0.1-0.9-0.5-1.2c-0.4-0.2-0.9-0.1-1.2,0.3l-1.3,1.7c-1,0.3-2.7-0.4-4.3-1c-0.5-0.2-0.9-0.4-1.4-0.5
                c-1.6-1.1-2.8-1.8-3.7-1.8c-0.6,0-1,0.2-1.4,0.6c-0.6,0.8-0.6,2,0,4.1l0.3,2.2c0,0.3,0.2,0.5,0.4,0.7l2.7,2.1
                c0.2,0.1,0.4,0.2,0.6,0.2c0.2,0,0.3,0,0.5-0.1c0.3-0.2,0.5-0.6,0.5-1l-0.3-2.2c0-0.3-0.2-0.5-0.4-0.7l-2.3-1.8
                C102.4,117.8,102.7,117.8,103,117.8z M79.4,0.2c1,1.7,1.6,3.5,1.9,4.3c0.2,0.5,0.4,1.1,1.1,1.1c0,0,0,0,0,0c0.3,0,0.6-0.1,0.8-0.4
                c0.3-0.3,0.3-0.5,0.1-1.4L85.8,0h-3.3l-0.3,0.3L82,0h-2.8L79.4,0.2z M90,114c-0.4-0.3-1-0.2-1.3,0.2c-0.3,0.3-0.5,0.7-0.8,1
                c-0.6,0.9-1.2,1.7-2.1,2.3l-3.1,0.5l0.7-1c0.8-0.8,1.9-1.5,2.8-2c0,0,0,0,0,0c0,0,0,0,0,0v0c0,0,0,0,0,0c0,0,0,0,0,0c0,0,0,0,0,0
                c0.5-0.3,1-0.6,1.4-0.9l1.1-0.7c0.4-0.3,0.6-0.8,0.4-1.3l-0.6-1.1c-0.2-0.3-0.5-0.5-0.8-0.5c-0.4,0-0.7,0.1-0.9,0.4l-0.4,0.5
                l-5.9,0.9c-0.3,0-0.5,0.2-0.6,0.4l-1.4,1.9c-0.2,0.3-0.2,0.7-0.1,1.1c0.2,0.3,0.6,0.5,0.9,0.5c0.4,0,0.8-0.1,1.2-0.1
                c0.4-0.1,0.8-0.1,1.2-0.1c-0.8,0.7-1.3,1.5-1.6,2.2l-1.6,2.2c-0.1,0.1-0.3,0.1-0.4,0.2l-2.4,0.4c-0.3,0-0.5,0.2-0.6,0.4l-2,2.8
                c-0.3,0.4-0.2,1,0.2,1.3c0.2,0.2,0.4,0.2,0.6,0.2c0.3,0,0.5-0.1,0.7-0.3c1.2-1.2,2.5-2.2,4.1-2.9l0.5-0.1c0.3,0,0.5-0.2,0.6-0.4
                c0.8-0.3,1.6-0.5,2.4-0.8c0.1,0,0.3-0.1,0.4-0.1l3.4,2c0.2,0.1,0.3,0.1,0.5,0.1c0.1,0,0.2,0,0.3-0.1c0.3-0.1,0.5-0.3,0.6-0.6
                l1.4-3.9c0.1-0.3,0.1-0.7-0.2-0.9c0.6-0.7,1.1-1.4,1.6-2.3C90.6,114.8,90.5,114.3,90,114z M47.4,109.8c-1.3-0.9-3-1.5-4.6-2.2
                c-3-1.2-6-2.4-6.2-4.6c0-0.5-0.4-0.9-0.9-0.9c-0.5,0-0.9,0.3-1,0.8c-0.7,2.8,1.9,4.1,4,5.2c2.3,1.1,3.3,1.8,3,2.9
                c-0.1,0.5,0.1,1,0.6,1.2c0.1,0,0.2,0.1,0.4,0.1c0.3,0,0.7-0.2,0.9-0.5c0.2-0.3,0.4-0.4,0.9-0.4c0.1,0,0.2,0,0.4,0
                c-0.3,0.7-0.3,1.5-0.3,2.2c0,0.3,0,0.6,0,0.9l1,0.1l1,0.1c0-0.3,0-0.7,0-1.1c0-1.5,0.1-1.8,0.7-2c0.3-0.1,0.5-0.3,0.6-0.6
                C48,110.5,47.8,110.1,47.4,109.8z M89.6,95.3c-0.2-0.3-0.5-0.5-0.8-0.5h-3.9c-0.5,0-0.9,0.3-1,0.8c-0.1,0.4,0.1,0.9,0.5,1.1l2.3,1.1
                l-0.7,1.5c-1.1,1.2-1.7,1.8-2.8,1.5c-0.5-0.1-1.1,0.2-1.2,0.7c-0.2,0.5,0.1,1.1,0.7,1.2c0.9,0.3,1,0.7,1,1.1c-1,1.4-1.2,1.8-0.9,2.4
                c0.2,0.3,0.5,0.6,0.9,0.6c0.9,0,1.6-1.4,1.8-2.1l0.3-0.3c0-0.1,0.1-0.1,0.1-0.2l1.9-3.7l0.2-0.2c0.5-0.6,1-1.2,1.6-1.6
                c0.3-0.2,0.4-0.5,0.4-0.9c0-0.3-0.2-0.6-0.5-0.8l0.3-0.7C89.8,96,89.8,95.6,89.6,95.3z M50.5,114.9c-0.1-0.4-0.4-0.6-0.8-0.7
                c-0.4-0.1-0.7,0.1-0.9,0.4l-3.9,5.9c-0.2,0.3-0.2,0.7,0,1c0.2,0.3,0.5,0.5,0.9,0.5h3.9c0.4,0,0.8-0.2,0.9-0.6
                c0.2-0.4,0.1-0.8-0.2-1.1l-1.3-1.3c0,0,0,0,0,0C49.9,118.2,51.1,116.9,50.5,114.9z M35.2,117.1l1.2,0c0.7,0,1.4,0,2,0.3
                c0.5,0.6,1,1.1,1.6,1.6c0.4,0.3,0.9,0.2,1.2-0.1c0.3-0.3,0.4-0.8,0.2-1.2c-0.4-0.9-1-1.5-1.8-1.9l0,0c-1-1.2-2.2-2.7-4.1-2.7
                c-0.4,0-0.7,0.1-1.1,0.2c-0.5,0.1-0.8,0.6-0.7,1c0,0.5,0,1,0,1.3c-0.5,0.4-0.9,0.8-1.2,1.2c-1-0.5-2.2-0.4-3.6,0.2
                c-1.5-0.4-2.8-1.1-3.4-1.6c-0.4-0.3-1-0.3-1.4,0.1c-0.3,0.4-0.3,1,0.1,1.4c0.8,0.7,1.4,1.5,1.9,2.5c-0.4,0.4-0.4,0.9-0.1,1.3
                c0.2,0.3,0.5,0.5,0.7,0.8l0.2,0.3l0.2,0.8c0.1,0.4,0.2,0.8,0.4,1.2c-0.1,0.1-0.2,0.2-0.3,0.3c-0.8,0.8-1.4,1.4-2.2,1.1
                c-0.4-0.1-0.9,0-1.1,0.4c-0.2,0.4-0.2,0.9,0.1,1.2c0.2,0.3,0.5,0.5,0.7,0.8c1,1,1.3,1.5,1.1,2.2c-0.1,0.4,0,0.9,0.4,1.2
                c0.4,0.2,0.9,0.2,1.2-0.1l1.8-1.8c0,0,0,0,0,0l2.9,1.9c0.2,0.1,0.4,0.2,0.5,0.2c0.3,0,0.6-0.1,0.8-0.4c0.3-0.4,0.2-1-0.2-1.4
                c-0.2-0.2-0.5-0.4-0.7-0.6c-0.7-0.7-1.6-1.5-2.8-1.7l-1.5-1l1.1-1.1c0,0,0,0,0.1-0.1c0.1-0.1,0.1-0.2,0.2-0.3c0.6-1.7-0.4-3-1-3.6
                c-0.1-0.3-0.2-0.6-0.3-0.9l0.8-0.8c0.6,0.1,1.2,0.2,1.8,0.2c0.4,0,0.8,0,1.2-0.1c0.2,0.7,0.6,1.4,1.2,2.3l0,0.1
                c0.6,1.6,1.3,3.4,3.1,3.5c0,0,0,0,0,0c0,0,0,0,0,0c0,0,0,0,0,0c0,0,0,0,0,0s0,0,0,0h0c0,0,0,0,0,0c0.2,0,0.4-0.1,0.6-0.2
                c0,0,0.1-0.1,0.1-0.1l2-2c0.4-0.4,0.4-1,0-1.4L38,120c-0.4-0.4-1-0.4-1.4,0l-1,1c-0.1-0.2-0.2-0.3-0.4-0.5c-0.3-0.8-0.6-1.5-1-2.1
                C34.6,118,35,117.6,35.2,117.1z M62.9,102.5l-1.6,6.2c-0.1,0.4,0,0.8,0.3,1c0.2,0.2,0.4,0.2,0.6,0.2c0.1,0,0.3,0,0.4-0.1
                c1.9-0.9,2-3.2,2.1-5.1c0-0.7,0-1.3,0.1-1.8l0.1-0.5c0-0.1,0.1-0.2,0.1-0.2c0.7,0.3,1.3,0.4,1.9,0.3c0.3,0.8,1,1.8,2.7,2.6
                c0.1,0.4,0.4,0.6,0.8,0.7c1.4,0.2,2.1,0.4,2.4,0.4c0,0,0.1,0,0.1,0c0.1,0,0.2,0,0.2,0c0,0,0,0,0,0c0.5,0,0.9-0.4,1-0.9
                c0-0.5-0.4-1-0.9-1.1c-0.1,0-0.2-0.1-0.4-0.1c0.1-0.1,0.1-0.3,0.1-0.4c0-0.3-0.1-0.5-0.2-0.7l-1.4-1.6c-0.3-0.3-0.7-0.4-1.1-0.3
                c0-0.1,0-0.2,0.1-0.3l0.9-0.7c0.4-0.3,0.5-0.8,0.3-1.2c-0.2-0.4-0.7-0.6-1.2-0.5c-0.7,0.2-1.2,0.6-1.6,1.2c-0.4,0.3-0.9,0.6-1.3,0.8
                c-0.4-0.2-0.9-0.3-1.2-0.3c0.2-0.7,0.4-1.4,0.7-2.1c0.5-0.6,0.9-1.4,1.2-2.1l0.1-0.3c1.2-1.5,2.5-1.7,4.2-0.8
                c0.2,0.1,0.4,0.2,0.6,0.3c0.5,0.3,1.1,0.2,1.3-0.3c0.3-0.5,0.2-1.1-0.3-1.4c-0.1-0.1-0.2-0.1-0.3-0.2c0.2,0,0.4,0.1,0.6,0
                c0.8-0.3,1.4,0.3,2.2,1.1c0.3,0.3,0.5,0.5,0.8,0.7c0.2,0.2,0.4,0.2,0.6,0.2c0.2,0,0.4-0.1,0.6-0.2c0.4-0.3,0.5-0.7,0.4-1.1
                c-0.5-1.4-1.4-2.8-2.2-4.2c-1.9-3.1-3-5.2-1.9-6.7c0.3-0.4,0.3-0.9,0-1.3c-0.3-0.4-0.9-0.4-1.3-0.2c-2.6,1.7-1.3,4.3-0.4,6.2
                c1.1,2.3,1.3,3.1,0.4,3.7c-0.4,0.3-0.6,0.8-0.4,1.3c0,0.1,0.1,0.2,0.2,0.2c-1.3-0.8-2.5-1.1-3.4-1.1c-2.1,0-2.9,1.7-3.3,2.7
                c-0.5,0.7-0.9,1.4-1.3,2.4c-0.3,0.3-0.6,0.4-1.1,0.4c0,0,0,0,0,0c-0.4,0-1-0.1-1.6-0.4c-0.3-0.1-0.6-0.1-0.9,0.1
                c-0.3,0.2-0.4,0.5-0.4,0.8v1.9c0,0.5,0.3,0.9,0.8,1l1.3,0.2l-0.2,0.9C63,102.1,63,102.3,62.9,102.5z M49,125.2
                c-0.1-0.5-0.3-1.2-1.1-1.2c-0.9,0-1,0.3-1.2,2.8l-1.2,0.9c-0.4,0.3-0.5,0.8-0.3,1.2c0.2,0.4,0.5,0.6,0.9,0.6c0.1,0,0.2,0,0.3,0
                l2.5-0.7c1.1,0.7,2.4,0.3,3.9-1.3c0.3-0.3,0.4-0.8,0.1-1.2c-0.2-0.4-0.7-0.6-1.1-0.4l-2.3,0.7C49.2,126,49.1,125.5,49,125.2z
                 M21.7,132.6c0.2-0.2,0.3-0.6,0.2-0.9c-0.1-0.3-0.3-0.6-0.6-0.7c-0.6-0.2-1.3-0.4-1.9-0.4c-1.6,0-3.1,0.7-4.3,1.3c-1,0.5-2,1-2.8,1
                c-0.4,0-1-0.1-1.7-0.8c1.6-1.4,1.6-3.7,1.5-5.3l0-0.8c0-0.4-0.2-0.7-0.5-0.9c-0.3-0.2-0.7-0.1-1,0.1c-2.5,1.7-3.7,3.6-3.7,5.6
                c0,3.3,3.2,5.7,4.9,6.9c0.1,0.1,0.2,0.2,0.4,0.3c0,0.1,0,0.1,0.1,0.2c0.1,0.4,0.5,0.7,0.9,0.7c0.8,0,1.1-0.6,1.1-0.7
                c0.2-0.5,0-0.9-0.3-1.1c0.1-0.5,0.5-1,1.1-1.7c0.2-0.2,0.3-0.4,0.5-0.5c0.7-0.1,1.3,0.4,2,1.1c0.3,0.3,0.5,0.5,0.8,0.7
                c0.3,0.3,0.8,0.3,1.2,0.1c0.4-0.2,0.5-0.7,0.4-1.1c-0.3-0.8,0.1-1.2,1.1-2.2C21.3,133.1,21.5,132.9,21.7,132.6z M2.5,50.1
                c0.1-0.7-0.1-1.2-0.3-1.4C1.6,48,0.7,48,0.4,48c-0.1,0-0.1,0-0.2,0l0-0.7c0-0.2-0.1-0.3-0.2-0.5v8.7c0.2-0.1,0.5-0.2,0.7-0.2
                c0.9-0.3,1.8-0.6,2.7-0.9c0,0,0,0,0,0c0.1,0,0.2,0,0.3-0.1c0.5-0.2,1-0.5,1.5-0.8c1.5-0.9,2.7-2.2,3.5-4c0.2-0.5,0.1-1-0.3-1.3
                c-0.4-0.3-1-0.2-1.3,0.2c-0.3,0.3-0.5,0.7-0.8,1c-0.6,0.9-1.3,1.7-2.2,2.4c-0.4,0.2-0.8,0.4-1.2,0.6c-0.3,0-0.5,0.1-0.8,0.1
                c-0.4,0.1-0.9,0.1-1.3,0.1l1.5-2.1C2.4,50.4,2.5,50.3,2.5,50.1z M28.2,142H32c0.1-0.5,0-1.1,0-1.6c0.4-1.2,0.3-2.6-0.2-4
                c-0.1-0.4-0.6-0.7-1-0.6c-0.4,0-0.8,0.3-0.9,0.8c-0.2,1-0.1,2.2,0.1,3.3l0,0.3C29.7,140.8,29.1,141.4,28.2,142z M28.8,137.2l-4.9-3
                c-0.3-0.2-0.6-0.2-0.8-0.1c-0.3,0.1-0.5,0.3-0.6,0.6l-1.4,3.9c-0.1,0.3-0.1,0.7,0.2,1c0.2,0.2,0.5,0.4,0.8,0.4c0,0,0.1,0,0.1,0
                l6.4-0.9c0.4-0.1,0.7-0.4,0.8-0.8C29.3,137.9,29.1,137.4,28.8,137.2z M114.2,75.5c-0.1-0.4-0.6-0.7-1-0.6c-0.4,0-0.8,0.3-0.9,0.8
                c-0.2,1-0.1,2.2,0.1,3.4l0,0.3c-0.3,0.7-1,1.4-1.9,2c-0.5-0.2-1.2-0.4-1.9-0.7c-0.4-0.2-0.8-0.1-1.1,0.2c-0.3,0.3-0.4,0.7-0.2,1.1
                l0.3,0.9c-0.1,0.1-0.3,0.1-0.4,0.2l-0.2,0.1c-1.6-0.1-2.3,0.6-2.6,1.3c-0.7,0.4-1.4,1.1-1.5,2.1c-0.1,1.3,0.9,2.4,1.7,3.1
                c0.1,0.1,0.3,0.2,0.5,0.2l3,0.5c0.1,0,0.1,0,0.2,0c0.4,0,0.8-0.3,0.9-0.7c0.2-0.5,0-1-0.5-1.2c-1.3-0.7-1.7-1.7-2.1-2.9
                c0-0.1,0-0.1-0.1-0.2c0.3-0.1,0.5-0.3,0.8-0.4c0.2,0,0.5,0.1,0.7,0.1c0.4,0.1,0.8,0.1,1.1,0.1c0.3,0,0.7-0.1,0.9-0.4
                c0.2-0.3,0.3-0.6,0.1-0.9l-0.1-0.2c0.2-0.1,0.5-0.2,0.7-0.4c1.4,0.3,2.4,0.1,3-0.7c0.7-0.8,0.7-2,0.6-3.2
                C114.9,78.3,114.8,77,114.2,75.5z M98.1,4.2c0,0,0.1,0,0.1,0c1,0.3,2,1.2,2.8,2.1c0.6,0.7,1.2,1.3,1.8,1.8c0.1,0.1,0.3,0.2,0.4,0.2
                c0,0,0,0,0,0c0.1,0,0.1,0,0.2,0c0,0,0,0,0,0c0,0,0,0,0,0c0,0,0,0,0,0c0.2,0,0.5-0.1,0.7-0.3l2-2c0.2-0.2,0.3-0.4,0.3-0.7
                c0-0.3-0.1-0.5-0.3-0.7l-1.4-1.4c-0.4-0.4-1-0.4-1.4,0l-1.2,1.2c-0.9-1.1-2-2.2-3.6-2.3c-1-0.2-2.1-0.2-3.2,0.2
                c-0.1,0-0.3,0.1-0.4,0.2c-0.7,0.6-1.3,1.8-0.4,3.8c0,0.4,0,0.8,0.2,1.2c0,0.2,0.1,0.3,0.3,0.4c1,1,1.5,1.5,1.7,1.7c0,0,0,0,0.1,0.1
                c0.2,0.2,0.5,0.3,0.7,0.3c0.4,0,0.7-0.2,0.9-0.6c0.2-0.4,0-0.8-0.2-1.1v0c-0.2-0.2-1-1.1-1.5-2.2c0.2-0.5,0.6-0.9,1.1-1.4
                C97.8,4.5,98,4.4,98.1,4.2z M31.1,40.3l4.5-5.8c0.2-0.3,0.6-0.4,0.9-0.4c0.4,0.1,0.6,0.3,0.8,0.6c0.8,2.1,1.8,2.6,2.7,2.7
                c0.5,0,1,0,1.4,0c0.4,0,0.7-0.1,1.1-0.1c0.1-0.2,0.2-0.3,0.3-0.4c0.2-0.2,0.5-0.3,0.8-0.2l2.5,0.4c0.1,0,0.3,0,0.4,0.1
                c0.5,0.1,0.9,0.6,0.8,1.2c0,0.1,0,0.1-0.1,0.1c0.3-0.4,0.8-0.6,1.2-0.3c0.3,0.1,0.6,0.3,0.9,0.4c0.4,0,0.9-0.3,1.4-0.6
                c0.3-0.2,0.6-0.4,0.9-0.5c0.5-0.2,1-0.1,1.3,0.4l1.1,1.7l3.4-2.2c0.2-0.1,0.5-0.2,0.8-0.1c0.3,0.1,0.5,0.2,0.6,0.5l0,0l1.5-3.4
                c-0.5-0.8-0.9-0.8-1-0.8c-0.5,0-1.3,0.4-2,0.9c-1,0.6-2.1,1.2-3.2,1.2c-0.2,0-0.3,0-0.4,0c-0.9,0-1.4,0-1.5,0c0,0-0.1,0-0.1,0
                c-0.5,0-1-0.4-1-0.9c0-0.5,0.4-1,0.9-1c0.8-0.1,1.4-0.2,1.8-0.4c-0.4-0.2-0.7-0.5-0.8-0.7c-0.3-0.4-0.5-1.2-0.1-2.3
                c0.1-0.3,0.4-0.5,0.7-0.6c0.3-0.1,0.7,0,0.9,0.3l1.7,1.7c2.1-0.2,5.2-1.6,7-3.6l1-2.3c-0.1,0.1-0.2,0.3-0.4,0.4l-0.8,0.4
                c0,0.1,0,0.2-0.1,0.3c-0.2,0.3-0.5,0.6-0.9,0.6c0,0,0,0,0,0c-0.4,0-0.7-0.2-1.1-0.5c-0.2-0.2-0.4-0.5-0.4-0.8
                c-0.2-0.2-0.4-0.5-0.7-0.8c-0.9-1.2-2.2-2.7-3.4-4.4l-0.4-0.2c-0.5-0.2-0.8-0.8-0.6-1.3l0,0c-0.8-1.2-1.5-2.3-1.9-3.3
                c-0.3-0.5-0.6-1-0.6-1.6c-0.1-0.5,0.3-1,0.8-1.1c0.5-0.1,1,0.2,1.1,0.6c0.1,0.3,0.2,0.6,0.4,0.9c0.3,0.3,0.9,0.6,1.6,0.8
                c0.3,0.1,0.7,0.3,1,0.4c0.5,0.2,0.7,0.7,0.5,1.2L57.4,19l0.1,0.1l4.2,1.5c0.5,0.2,0.8,0.8,0.6,1.3l-0.6,1.7l1.7,0.6
                c0.4,0.1,0.6,0.5,0.6,0.9c0,0.2,0,0.3-0.1,0.4l0.5-1.2c0.2-0.4,0.6-0.7,1.1-0.6c0.5,0.1,0.8,0.5,0.8,1c0,1.5-0.6,3-1.8,4.3l-2.2,5.2
                c0.6,2-0.6,3.3-1.5,4.2c-0.2,0.2-0.4,0.4-0.6,0.7c0,0.1-0.1,0.1-0.2,0.1l1-0.6c0.3-0.2,0.7-0.2,1.1,0c0.3,0.2,0.5,0.6,0.4,1l-0.1,1
                c0.2,0.2,0.3,0.4,0.3,0.7c0,0.9-0.9,1.1-1.3,1.1c0,0-0.1,0-0.1,0c-0.3,0-0.5-0.1-0.7-0.3c0,0,0,0,0,0c-0.3,0-0.6,0-1-0.1
                c-1.4-0.1-3.3-0.2-5.2-0.5L54,41.8C53.8,42,53.5,42,53.2,42c-0.3-0.1-0.5-0.2-0.6-0.5l-0.1-0.1c-1.4-0.2-2.6-0.5-3.6-0.8
                c-0.5-0.1-1.1-0.3-1.6-0.7c-0.3-0.3-0.5-0.7-0.3-1.1c-0.2,0.3-0.6,0.5-1,0.4l-0.3-0.1c-0.4-0.1-0.9,0-1.4,0v1.3c0,0.5-0.4,0.9-0.9,1
                c-0.5,0-1-0.3-1-0.8c-0.1-0.7-0.4-1-1.1-1.1c-0.5,0-0.9,0-1.3,0c-2,0.2-4.8,1.3-7.6,2.4L31.5,43c-0.2,0.3-0.6,0.5-1,0.3
                c-0.3-0.1-0.6-0.1-0.9-0.2l-0.2,0c-0.9,0.4-1.8,0.7-2.5,0.9c-0.1,0-0.2,0-0.3,0c-0.2,0-0.4-0.1-0.6-0.2c-0.2-0.2-0.4-0.5-0.4-0.8
                v-2.8c0-0.5,0.3-0.9,0.8-1c0.4-0.1,0.9,0.1,1.1,0.5c0.3,0.7,0.9,1,1.8,1.2c0.6-0.2,1.2-0.5,1.8-0.7L31.1,40.3z M59.6,39.5L59.6,39.5
                l0.1,0C59.7,39.5,59.7,39.5,59.6,39.5z M71.7,5.5L72.2,6C73,6.9,73.7,8.4,74,9.6c-0.2,0.1-0.4,0.3-0.5,0.5c-0.1,0.3-0.1,0.6,0.1,0.8
                c0.3,0.6,0.7,1.3,1.5,1.3c0.3,0,0.6-0.2,0.8-0.4c0.2-0.2,0.3-0.4,0.3-0.7c0.3,0,0.7,0,1-0.1c-0.1,0-0.2,0.1-0.2,0.2l-1,1.1
                c-0.2,0.2-0.3,0.5-0.2,0.7c0,0.3,0.2,0.5,0.4,0.7l0.9,0.7c0.3,0.3,0.7,0.5,1,0.8c0.1,0.1,0.2,0.2,0.3,0.2c0.6,0.5,1.3,1.2,1.8,1.8
                l0.6,1.6c-0.1,0-0.2,0-0.4,0c-0.4,0-0.9-0.1-1.3-0.1c-0.3,0-0.5-0.1-0.8-0.1c-0.3-0.2-0.6-0.4-0.9-0.6c-0.6-0.6-0.9-1.4-1.2-2.2
                c-0.1-0.4-0.3-0.7-0.4-1.1c-0.2-0.4-0.7-0.7-1.2-0.5c-0.5,0.1-0.8,0.6-0.7,1.1c0.3,1.8,1,3.2,2.2,4.2c0.4,0.3,0.8,0.6,1.3,0.9
                c0.1,0.1,0.2,0.1,0.4,0.1c0.7,0.4,1.5,0.6,2.3,0.9c0.6,0.2,1.3,0.4,1.9,0.7c0.1,0.2,0.4,0.4,0.7,0.5l0.4,0.1
                c1.3,0.7,2.2,1.6,2.9,2.7c0.2,0.3,0.5,0.5,0.8,0.5c0.1,0,0.3,0,0.4-0.1c0.5-0.2,0.7-0.8,0.5-1.2l-1-2.8c-0.1-0.3-0.4-0.6-0.8-0.6
                l-2.3-0.4c-0.1,0-0.1-0.1-0.2-0.1l-0.7-2c0-0.8-0.3-1.6-0.9-2.5l0,0c0.2-0.1,1,0,1.7,0.1c0.4,0.1,0.8,0.1,1.1,0.1
                c0.3,0,0.7-0.1,0.9-0.4c0.2-0.3,0.3-0.6,0.1-0.9l-0.7-1.9c-0.1-0.3-0.4-0.6-0.8-0.6l-5.4-0.9l-0.1-0.3c-0.1-0.2-0.3-0.4-0.5-0.5
                c0.4,0,0.8,0,1.1-0.1l2.1,0.3c0.3,0.1,0.6,0,0.8-0.2c0.2-0.2,0.3-0.5,0.3-0.8c0-0.6-0.1-1.2-0.3-1.8c0-1-0.6-2.4-1.8-4.2
                C80.2,4.1,80.1,4,80,3.9l-1.2-0.7C77,1.8,75,0.7,72.8,0.1c-0.5-0.1-1,0.1-1.2,0.6c-0.2,0.5,0,1,0.5,1.2l5.5,3
                c1.2,1.1,2.1,2.4,2.6,3.7c-0.1,0.1-0.3,0.2-0.9,0.3l-2.9-0.5c-0.3-1.6-1.6-2.9-2.9-4c-0.2-0.2-0.4-0.4-0.7-0.6l-1.7-1.4
                c-0.3-0.2-0.6-0.2-1-0.1c-0.3,0.1-0.6,0.4-0.6,0.8c0,0-0.1,0.1-0.5,0.1c-0.4,0-0.9-0.1-1.3-0.1C67.3,3.1,66.9,3,66.6,3
                c-0.5,0-1,0.3-1,0.8c-0.1,0.5,0.2,1,0.7,1.1c0.5,0.1,1,0.6,1.4,1.3c0.7,2.3,1,2.9,1.8,2.9c0.4,0,0.7-0.2,0.9-0.5
                c0.4-0.7-0.2-2-0.6-2.8C70.3,5.4,71,5.1,71.7,5.5z M56.6,11.7c-0.5,0.2-0.8,0.6-0.7,1.1c0.1,0.5,0.6,0.8,1.1,0.8
                c0.8-0.1,1.6,0.1,2.4,0.7l0.5,0.5c0.4,0.4,0.9,0.9,1.3,1.3l0.4,0.5c0.1,0.1,0.1,0.2,0.2,0.3c0.1,0.1,0.2,0.2,0.3,0.3l0.1,0.1
                c0.4,0.5,0.8,1.1,1.2,1.6l-0.6,0.6c-0.3,0.3-0.4,0.7-0.2,1.1c0.2,0.4,0.5,0.6,0.9,0.6c0,0,0,0,0.1,0l4.3-0.3c0.5,0,0.8-0.4,0.9-0.8
                c0.1-0.5-0.2-0.9-0.6-1.1c-0.6-0.3-1.2-0.5-1.7-0.9V18c0.7,0.1,1.4,0.3,1.9,0.7c0.2,0.2,0.3,0.4,0.5,0.7c0.2,0.5,0.8,0.7,1.3,0.4
                c0.5-0.2,0.7-0.8,0.5-1.3c-0.2-0.5-0.5-0.9-0.9-1.2c-1.2-1.2-2.9-1.4-4.4-1.5c-0.3,0-0.5-0.1-0.8-0.1c-0.1-0.3-0.2-0.6-0.2-0.9
                c0.2-0.2,0.4-0.4,0.6-0.6c0.2-0.3,0.5-0.5,0.7-0.8c0.2-0.2,0.3-0.5,0.2-0.8c0-0.3-0.2-0.5-0.4-0.7l-0.2-0.1c0.1-0.1,0.1-0.2,0.2-0.3
                c0.2-0.3,0.3-0.7,0.1-1.1c-0.2-0.3-0.6-0.5-0.9-0.5l-2.1,0.1c-0.4,0-0.8,0.3-0.9,0.7c-0.1,0.4,0,0.8,0.4,1.1l0.8,0.6
                c-0.2,0.6-0.3,1.1-0.4,1.7c0,0,0,0.1-0.1,0.1c-0.5-0.6-1-1.1-1.6-1.5c-0.6-0.6-1.2-1.2-1.5-1.8c0-0.4,0.1-0.8,0.1-1.2
                c0-0.3,0-0.6,0-0.9c0-0.5-0.3-0.9-0.7-1c-0.5-0.1-0.9,0.1-1.1,0.5c-0.5,0.9-0.6,1.9-0.3,2.8C57,11.5,56.8,11.6,56.6,11.7z
                 M92.4,41.1c-0.2-0.3-0.6-0.4-1-0.4l-5.5,1c-1.7-0.5-3.4-0.9-5.1-1.2c-2.5-1.8-2.8-2.5-2.8-2.7c0,0,0,0,0,0c0.1-0.5-0.1-1.1-0.7-1.2
                c-0.5-0.2-1.1,0.1-1.2,0.6c0,0,0,0,0,0l0,0c0,0,0,0,0,0l-1,3.4c-0.1,0.3,0,0.6,0.2,0.9c0.2,0.2,0.5,0.4,0.8,0.4c0.9,0,2.3,0.2,4,0.5
                l0.3,0.2c0.7,0.5,1.5,1.1,1.7,1.4c0.2,0.3,0.6,0.4,0.9,0.3l2.8-0.5c1.9,0.6,3.5,1.2,4.9,1.8c0.7,1.1,2,1.8,3.2,2.4
                c0.2,0.3,0.1,0.5-0.1,0.8c-0.3,0.4-0.2,1,0.2,1.3c0.2,0.2,0.4,0.2,0.6,0.2c0.3,0,0.5-0.1,0.7-0.3l1-1c0.5,0.2,1,0.5,1.4,0.8
                c0,0,0,0,0,0c-0.1,1,0.1,1.9,0.2,2.8c0,0.2,0.1,0.5,0.1,0.7l-0.4,0c-0.3,0-0.5,0.1-0.7,0.3l-2,2c-0.3,0.3-0.4,0.7-0.2,1.1
                c0.1,0.4,0.5,0.6,0.9,0.6l0.5,0c2.1,0,3.4-0.7,3.8-2c1.3,0.1,2.2,0.4,2.8,1.4c0.2,0.4,0.6,0.6,1.1,0.5c0.4-0.1,0.8-0.5,0.8-1v-2
                c0-0.4-0.2-0.7-0.6-0.9c-0.9-0.4-1.7-0.7-2.2-0.9c-0.2-0.6-0.8-1.5-2.2-3.1c0-0.3,0-0.6-0.2-0.8c-0.1-0.1-0.1-0.2-0.2-0.2l-1.8-1.8
                c-0.4-0.4-1-0.4-1.4,0l0,0l-0.7-0.3c-0.6-0.8-1.6-1.5-3-2.2c-0.2-0.5,0-1.2,0.3-2C92.7,41.8,92.6,41.4,92.4,41.1z M123.5,2.2
                c0.9-0.5,2-1.2,2.8-2.2h-3.8c-0.1,0.2-0.3,0.5-0.4,0.7C123.5,2.2,122.1,2.1,123.5,2.2z M70.7,63.1c-0.1,0.5,0.2,1,0.7,1.2
                c0.3,0.1,0.7,0.2,1.1,0.2c1.3,0.2,2.1,0.4,2.5,1.3l0,0v0c0.2,0.4,0.5,0.6,0.9,0.6c0.1,0,0.3,0,0.4-0.1c0.5-0.2,0.7-0.8,0.5-1.3
                L74,59c-0.2-0.5-0.8-0.7-1.3-0.5c-0.5,0.2-0.7,0.7-0.6,1.2l0.9,2.8l-1.2-0.2C71.3,62.2,70.8,62.6,70.7,63.1z M136.6,103.8
                c-0.4-0.2-0.8-0.1-1.1,0.2c-0.3,0.3-0.4,0.7-0.2,1.1l0.7,1.9c0.1,0.3,0.4,0.6,0.8,0.6l1.7,0.3c0.3,0.3,0.7,0.6,1.2,0.9
                c0.1,0.1,0.2,0.1,0.4,0.2c0.6,0.2,1.3,0.4,1.9,0.5v-2.3c-0.3,0-0.7-0.1-1-0.1l-0.1-0.2c0,0,0,0,0,0l-0.5-1.3
                c0.2-0.2,0.4-0.4,0.6-0.6c0.2-0.2,0.4-0.5,0.7-0.8l0.2-0.2c0.1-0.1,0.1-0.2,0.2-0.2v-3.9c-0.4-0.1-0.9-0.3-1.4-0.4
                c-0.3-0.1-0.6-0.1-0.8,0.1l2.2-3.1v-1.2c0,0-0.1-0.1-0.1-0.1c-0.3-0.2-0.6-0.3-0.9-0.2c-0.3-0.1-0.7,0-0.9,0.2l-7.9,7.1
                c-0.4,0.3-0.4,0.8-0.2,1.2c0.2,0.3,0.5,0.5,0.8,0.5c0.1,0,0.2,0,0.3,0c0.1,0,0.2,0,0.3,0c0.1,0,0.2,0,0.3-0.1l3.7-1.4
                c0.2-0.1,0.3-0.2,0.5-0.3l1.5-2c0,0.2,0,0.4,0,0.6l0.8,2.2l-0.6,0.7C138.7,104.3,137.9,104.4,136.6,103.8z M131,1.9
                c-0.2-0.3-0.6-0.6-0.9-0.5l-2.1,0.1c-0.4,0-0.8,0.3-0.9,0.7c-0.1,0.4,0,0.8,0.4,1.1l0.8,0.6c-0.2,0.6-0.3,1.1-0.4,1.7
                c-0.6,0.9-0.6,1.9-0.1,2.8c0.1,0.1,0.2,0.3,0.3,0.4l1,0.7c0.1,0.1,0.2,0.2,0.3,0.4l-1,1c-0.3,0.3-0.4,0.7-0.2,1.1
                c0.2,0.4,0.5,0.6,0.9,0.6c0,0,0,0,0.1,0l4.3-0.2c0.5,0,0.8-0.4,0.9-0.8c0.1-0.5-0.2-0.9-0.6-1.1c-0.6-0.3-1.2-0.6-1.7-0.9
                c0-0.3-0.2-0.5-0.4-0.7l-1.1-0.8c-0.4-0.6-0.6-1.2-0.6-1.8c0.2-0.2,0.4-0.4,0.6-0.6c0.3-0.3,0.5-0.5,0.7-0.8
                c0.2-0.2,0.3-0.5,0.2-0.8c0-0.3-0.2-0.5-0.4-0.7l-0.2-0.1c0.1-0.1,0.1-0.2,0.2-0.3C131.1,2.7,131.2,2.3,131,1.9z M48.6,5.6
                c-0.3-0.3-0.8-0.4-1.2-0.1l-3.6,2.3c-0.3,0.2-0.5,0.6-0.4,1c0.1,0.4,0.4,0.7,0.8,0.8l1.4,0.2c0,0.2,0,0.3,0,0.5l-0.4,1.2
                c0,0.1-0.1,0.3,0,0.5c0.2,1,0.7,1.8,1.7,2.2c0.4,0.4,0.8,0.8,1.3,1.2l-0.3,0.9c-0.1,0.4,0,0.8,0.3,1.1c0.2,0.1,0.4,0.2,0.6,0.2
                c0.2,0,0.4-0.1,0.5-0.2l1.8-1.2c0.3-0.2,0.5-0.6,0.4-1c-0.1-0.4-0.3-0.7-0.7-0.8c-0.1,0-0.2-0.1-0.3-0.1l0.1-0.2
                c0.1-0.3,0.1-0.5-0.1-0.8c-0.1-0.2-0.4-0.4-0.6-0.5c-0.3-0.1-0.7-0.1-1-0.2c-0.3,0-0.6-0.1-0.8-0.2c-0.3-0.5-0.5-1.2-0.5-1.8L48,9.4
                C48,9.1,48,8.8,47.9,8.6c0.2-0.6,0.5-1.2,0.9-1.7C49,6.5,49,6,48.6,5.6z M8.7,138.9c0.4-0.1,0.7-0.4,0.8-0.7c0.1-0.4-0.1-0.8-0.4-1
                l-3.4-2.5c-0.5-0.8-1.3-1.4-2.4-1.7c-0.5-0.1-0.9,0.1-1.1,0.5c-0.2,0.4-0.1,0.9,0.3,1.2l1.7,1.2c0.3,1-0.3,2.8-0.8,4.4
                c-0.2,0.5-0.3,0.9-0.5,1.4c-0.1,0.1-0.1,0.2-0.2,0.3H5c0.6-1,1.1-1.9,1.3-2.7L8.7,138.9z M71.6,17.3l-2,5.9c-0.1,0.3,0,0.6,0.1,0.9
                c0.2,0.3,0.5,0.4,0.8,0.4h1.8c0.2,0.1,0.4,0.1,0.6,0.2c0.3,1,0.6,1.8,0.9,2.7c-0.1,0.1-0.2,0.3-0.4,0.4c-1,1.1-2.2,2.3-1.9,3.8
                c0.1,0.4,0.3,0.7,0.7,0.8c0.4,0.1,0.7,0,1-0.2l1.2-1.2c0.6,0.6,1.2,1.1,1.8,1.7c1.7,1.5,3.3,2.8,3.2,4.8c0,0.4,0.2,0.8,0.6,1
                c0.1,0,0.2,0.1,0.3,0.1c0.3,0,0.6-0.1,0.8-0.4l1.2-1.5l3.5-0.1c0.5,0,0.9-0.4,1-1c0-0.5-0.4-1-0.9-1c-4.6-0.3-7.7-2.4-9.7-6.7
                c0.5-0.7,0.8-1.5,0.6-2.4c-0.3-1.1-1.3-1.7-2.1-2.1c-0.4-1.7-0.7-3.5-1-5l-0.1-0.8c-0.1-0.4-0.4-0.8-0.9-0.8
                C72.1,16.6,71.8,16.9,71.6,17.3z M3.7,128.8c0.4,0.1,0.9-0.1,1.1-0.5c0.2-0.4,0.2-0.9-0.2-1.2l-2-2c-0.2-0.2-0.5-0.3-0.8-0.3
                c-0.3,0-0.6,0.2-0.7,0.4L0,127.2v4.2c0.2-0.2,0.4-0.5,0.6-0.7C1.7,129.5,2.5,128.5,3.7,128.8z M103.6,0.5c0.7-0.2,1.4-0.4,2-0.5
                h-3.2c0,0,0,0,0,0C102.6,0.5,103.1,0.7,103.6,0.5z M25.3,33.6L24,34.3c-0.1-0.1-0.2-0.3-0.2-0.4l-0.4-1.2c0-0.2-0.1-0.3-0.2-0.4
                c-0.7-0.8-1.6-1-2.7-0.8c-0.5-0.1-1.1-0.2-1.7-0.2l-0.3-0.9c-0.1-0.4-0.5-0.7-0.9-0.7c-0.4,0-0.8,0.2-1,0.6l-0.8,2
                c-0.1,0.4-0.1,0.8,0.2,1.1c0.3,0.3,0.7,0.4,1,0.3c0.1,0,0.2-0.1,0.3-0.1l0.1,0.2c0.1,0.3,0.3,0.5,0.5,0.6c0.2,0.1,0.5,0.1,0.8,0
                c0.3-0.1,0.6-0.3,0.9-0.4c0.3-0.1,0.5-0.3,0.8-0.4c0.6,0.2,1.1,0.6,1.5,1.2l0.4,1.3c0.1,0.3,0.3,0.5,0.5,0.6
                c0.2,0.6,0.3,1.2,0.3,1.9c0,0.1,0,0.3,0.1,0.4c0,0,0,0-0.1-0.1c-0.3-0.1-0.8-0.1-1,0.2c-2.7,2.5-4.4,3-5.5,3.1c-0.5,0-0.9,0-1.4,0
                c-0.2,0-0.3,0-0.5-0.1c0-0.1-0.1-0.2-0.1-0.3c-0.2-0.3-0.6-0.5-1-0.5l-2.8,0.4c-0.1,0-0.3,0-0.4,0.1C10,42,9.6,42.5,9.7,43
                c0.1,0.5,0.6,0.9,1.1,0.8l0.4-0.1c0.2,0,0.3,0,0.5,0l-0.6,0.8c-0.3,0.4-0.2,1,0.2,1.4c0.4,0.3,1,0.3,1.4-0.1
                c0.8-0.9,1.7-1.5,2.8-1.6c0.4,0,0.9,0,1.3,0c1.7,0.2,3.6,1.1,5.5,2.2l0,0.8c0,0.3,0.2,0.6,0.4,0.7c0.2,0.2,0.5,0.2,0.8,0.2
                c0.4-0.1,0.7-0.1,1.1-0.2l0.2,0c0.7,0.4,1.3,0.7,1.9,0.9c0.1,0,0.2,0.1,0.3,0.1c0.3,0,0.6-0.1,0.8-0.4l2-2.8c0.3-0.4,0.2-1-0.1-1.3
                c-0.4-0.3-0.9-0.4-1.3,0c-1.2,1-2.3,1.3-3.2,1.5c-0.3-0.2-0.7-0.4-1-0.6l-0.3-5.4c0-0.1-0.1-0.2-0.1-0.4c0.1,0.1,0.2,0.1,0.3,0.1
                c0.1,0,0.1,0,0.2,0c0.4,0,0.8-0.2,0.9-0.6l1.6-4c0.2-0.4,0.1-0.8-0.2-1.1C26.1,33.5,25.7,33.4,25.3,33.6z M13.1,30.9
                c-1.7,0.5-2,2-2,3.2c-1.9-0.8-3.4-1-5.7-0.5l-1.7-0.3c-0.3-0.1-0.6,0-0.8,0.2c-0.2,0.2-0.3,0.5-0.3,0.8v0c-0.2,0-0.4,0.1-0.6,0.1
                c-0.3,0.1-0.5,0.2-0.7,0.5c-0.1,0.2-0.2,0.5-0.1,0.8l1.4,4.4c0.1,0.4,0.5,0.7,0.9,0.7c0,0,0.1,0,0.2,0c0.5-0.1,0.8-0.5,0.8-1v-3.9
                c0.3-0.1,0.6-0.2,0.9-0.2l6.4,1.1c0,0,0,0,0,0c0,0,0,0,0,0s0,0,0,0c0,0,0,0,0,0s0,0,0,0c0.1,0,0.2,0,0.3,0c0,0,0,0,0,0h0h0l0,0
                c0,0,0,0,0,0c0,0,0,0,0,0c0,0,0,0,0,0c0,0,0.1,0,0.1,0c2-0.6,2-2.6,2.1-3.9c0-0.3,0-0.6,0-0.9c0-0.3-0.1-0.7-0.4-0.9
                C13.8,30.8,13.4,30.8,13.1,30.9z M66.9,126.4c0.3-0.1,0.6-0.4,0.7-0.7c0.4-2.1-1.1-3.8-2.4-5.1c-0.2-0.2-0.3-0.4-0.5-0.6
                c-0.1-0.8-0.4-1.7-0.7-2.6c0.2-0.3,0.6-0.6,1.2-0.9c0.1-0.1,0.2-0.2,0.3-0.4c0.1,0,0.2,0.1,0.3,0.1c0.6,0,1.6-0.8,3-2.5
                c0.6-0.7,1.1-1.6,1.6-2.4l5.7-1.4l-5.2-0.8c-0.1-0.7-0.6-1.9-2.8-1.9c-0.5,0-1,0.4-1,1c0,0,0,0,0,0.1c-0.3,0-0.5,0.1-0.8,0.1
                l0.9,0.1c0.1,0.4,0.5,0.6,0.9,0.6c0.7,0,0.8,0.2,0.8,0.2c0,0,0,0,0,0.1c0,1.3-2.6,4.4-3.4,4.9c-0.2,0.1-0.4,0.3-0.5,0.5
                c-0.1-0.1-0.3-0.1-0.5-0.1c-0.9,0-1.7-0.3-2.6-1.1c-0.1-0.2-0.2-0.3-0.4-0.6l-1.9-1.9c-0.3-0.4-0.7-0.8-1.1-1.2l1.1-1.5
                c0.3-0.4,0.2-1-0.1-1.3c-0.4-0.3-1-0.3-1.3,0l-2,2c0,0-0.1,0.1-0.1,0.2l-3,4.5c0.1-0.2,0.2-0.6,0.2-1.4c0.6-1,0.9-2.3,1.1-3.5
                l1.9-4.1c0.6-0.2,1.4-0.1,2.5,0.2c0.5,0.1,1-0.1,1.2-0.5c0.2-0.4,0.1-1-0.3-1.3c-0.9-0.6-0.9-1.3-0.9-2.6c0-0.4,0-0.7,0-1
                c0-0.1,0-0.3-0.1-0.4c0,0,0,0,0,0c0-0.1-0.1-0.1-0.1-0.2c-0.1-0.2-0.3-0.3-0.6-0.4h0c0,0,0,0,0,0c0,0,0,0,0,0l-2-0.3v-4.7
                c0-0.4-0.2-0.8-0.6-0.9c-0.5-1.3-1.4-2.3-2.7-3.2c-0.4-0.2-0.8-0.2-1.2,0l-2.8,2.3c-0.3,0.2-0.4,0.6-0.3,1c0.1,0.4,0.4,0.7,0.8,0.7
                l4.7,0.8c0.2,0.9,0.2,1.9,0.2,2.9c0,0.6,0,1.2,0,1.8c0,0.1,0,0.3,0.1,0.4c0,0,0,0,0,0c0,0,0,0,0,0v0c0,0,0,0,0,0c0,0,0,0,0,0
                c0,0.1,0.1,0.2,0.2,0.3c0.1,0.1,0.3,0.2,0.5,0.3c0,0,0,0,0,0h0c0,0,0,0,0,0s0,0,0,0c0,0,0,0,0,0h0c0,0,0,0,0,0c0,0,0,0,0,0s0,0,0,0
                c0,0,0,0,0,0h0c0,0,0,0,0,0c0,0,0,0,0,0h0c0,0,0,0,0,0s0,0,0,0s0,0,0,0c0,0,0,0,0,0l0,0c0,0,0,0,0,0c0,0,0,0,0,0c0,0,0,0,0,0
                c0,0,0,0,0,0l1.5,0.3l-1.4,2.9c-1.3,0.9-1.8,2.5-2.1,4.1c0,0-0.1,0-0.1,0c-0.3-0.1-0.6-0.1-0.9-0.2c-0.6-0.8-1.4-1.4-2.3-1.7
                c-0.4-0.1-0.8,0-1,0.3c-0.3,0.3-0.3,0.7-0.1,1.1c0.4,0.9,1.2,1.6,2.2,2c0.5,1,0.7,2.3,0.8,2.9c-0.2,0.2-0.2,0.5-0.2,0.7
                c0.1,0.7,0.1,1.8,1.2,1.8c0.3,0,0.5-0.1,0.7-0.3c0,0,0,0,0.1-0.1L52,115c-0.3,0.4-0.2,1,0.2,1.4c0.4,0.3,1,0.2,1.4-0.2l3.5-4.7
                l1.2,1.3c0.6,0.7,1.3,1.5,2,2.1c0.5,0.8,1,1.7,1.4,2.4c-0.5,1.5,0.4,2.8,1,3.5c0,0.9-0.2,1.5-0.7,1.9c-0.2,0.2-0.3,0.5-0.3,0.8
                c0,0.3,0.1,0.6,0.4,0.8c0.2,0.2,0.4,0.4,0.7,0.6c0.8,0.8,1.7,1.7,3.1,1.7C66.1,126.6,66.5,126.5,66.9,126.4z M51.1,134.2
                c2.7-1.7,3.8-4,4.5-5.8c0.4-0.8,0.7-1.6,0.8-2.3l0-0.2l0.1-0.3c0.7-2.6,1.4-5,3.5-6.7c0.3-0.3,0.4-0.7,0.3-1
                c-0.1-0.4-0.4-0.7-0.8-0.7c-1.6-0.2-2.8,0.2-3.7,1.1c-1.5,1.6-1.4,4.4-1.4,6.7l0,0.8c-0.2,0.7-0.4,1.3-0.6,1.9
                c-0.9,1.7-2.6,3.7-3.9,5.1c-0.3,0.1-0.5,0.3-0.8,0.4c-0.1,0.1-0.2,0.2-0.3,0.3c-0.6,0.7-1,1.2-0.7,1.9c0.2,0.4,0.6,0.6,0.9,0.6
                C49.3,135.8,49.6,135.8,51.1,134.2z M26.2,141.4c-0.4-0.2-0.8-0.1-1.1,0.2c-0.1,0.1-0.2,0.2-0.2,0.4h2.8
                C27.2,141.9,26.7,141.7,26.2,141.4z M15.9,140.8c-0.3-0.5-0.8-0.6-1.3-0.4c-0.2,0.1-0.5,0.3-0.7,0.4c-0.5,0.4-1,0.7-1.4,1.1h3.2
                C16.1,141.7,16.1,141.2,15.9,140.8z M98.9,1.1c0.2,0,0.4-0.1,0.7-0.2c0.2-0.1,0.3-0.2,0.4-0.4c0-0.1,0.1-0.1,0.1-0.2
                c0.1-0.1,0.2-0.2,0.4-0.3h-2.6c0,0.1,0,0.3,0.1,0.4C98.1,0.8,98.5,1.1,98.9,1.1z M118.6,91.8c-0.2,0.2-0.3,0.5-0.3,0.8v0
                c-0.2,0-0.4,0.1-0.6,0.1c-0.3,0.1-0.5,0.2-0.7,0.5c-0.1,0.2-0.2,0.5-0.1,0.8l1.4,4.4c0.1,0.4,0.5,0.7,0.9,0.7c0,0,0.1,0,0.2,0
                c0.5-0.1,0.8-0.5,0.8-1v-3.9c0.3-0.1,0.6-0.2,0.9-0.2l6.4,1.1c0,0,0,0,0.1,0c0,0,0,0,0,0h0h0c0,0,0,0,0,0c0,0,0,0,0,0
                c0.1,0,0.1,0,0.2,0c0,0,0,0,0,0h0v0c0,0,0,0,0,0c0,0,0,0,0,0c0,0,0,0,0,0c0,0,0,0,0,0c0,0,0,0,0,0c0,0,0,0,0,0s0,0,0,0
                c0.1,0,0.1,0,0.2,0c2-0.6,2-2.6,2.1-3.8c0-0.3,0-0.6,0-0.9c0-0.3-0.1-0.7-0.4-0.9c-0.3-0.2-0.6-0.3-0.9-0.2c-1.7,0.5-2,2-2,3.2
                c-1.9-0.8-3.4-1-5.7-0.5l-1.7-0.3C119.1,91.5,118.8,91.6,118.6,91.8z M132.6,82.7l0-0.5c0.1-0.2,0.1-0.3,0.1-0.5c0-0.3,0-0.6,0-1
                c0-0.4,0-0.8-0.1-1.2c0.2-2.7,1.1-3.9,3.1-4c0.5,0,0.9-0.4,0.9-0.9c0.1-0.5-0.2-0.9-0.7-1.1c-1.8-0.5-3.1-0.2-4.1,0.7
                c-1.2,1.2-1.3,3.3-1.2,5.1c0,0.4,0,0.8,0,1.3l-1.7,0.1c-0.5,0-0.8,0.3-0.9,0.8c-0.1,0.4,0.1,0.9,0.6,1.1c0.7,0.3,0.8,0.9,0.9,2.3
                c0,0,0,0,0,0c-0.2,0-0.5,0-0.7,0c-1.1,0-2.2,0-3.2,0.3l0,0c-0.4-0.3-1-0.2-1.3,0.2c-0.1,0.1-0.1,0.2-0.1,0.3c-1.2,0.6-2,1.5-2.7,2.8
                c-0.2,0.4-0.1,0.9,0.2,1.2l1.4,1.4c0.2,0.2,0.4,0.3,0.7,0.3c0.3,0,0.5-0.1,0.7-0.3l2.5-2.7c2.3,1.1,3.8,1,4.7,0
                C132.8,87.2,132.7,85.1,132.6,82.7z M90.7,25.2c1.8-2.1,3.7-4.3,6.3-5.4l2-0.6c0.5-0.2,0.8-0.7,0.7-1.2c-0.1-0.5-0.6-0.8-1.1-0.7
                c-0.7,0.1-1.5,0.4-2.2,0.7l-8.6,2.6c-0.4,0.1-0.7,0.5-0.7,1c0,0.5,0.3,0.8,0.8,0.9l1.3,0.3c-0.4,0.8-0.7,1.6-0.9,2.5
                c-1.3,1.5-2.5,2.6-3.8,3.1l-0.7-1.8c-0.1-0.3-0.4-0.5-0.7-0.6L81,25.5c-0.5-0.1-1,0.2-1.2,0.8l-0.5,2.7c-0.1,0.3,0,0.5,0.1,0.7
                c0.1,0.2,0.4,0.4,0.6,0.4l2.1,0.4l0.4,0c0.6,0,1.2-0.1,1.7-0.2c0.6,0.2,1.1,0.3,1.5,0.3c2.7,0,3.5-2.6,4.2-4.5
                C90.2,25.8,90.5,25.5,90.7,25.2z M107.1,0H106c0.2,0.1,0.3,0.1,0.5,0.1L107.1,0z M136.3,1.3l0.7,1.6c0.3,0.8,0.4,1.7,0.6,2.6
                c0,0.1,0.1,0.3,0.1,0.4c0-0.1-0.1-0.1-0.1-0.2c-0.1-0.1-0.2-0.3-0.4-0.4c-0.3-0.8-0.8-1.4-1.4-1.7c-0.1-0.3-0.1-0.6,0-0.9
                c0.2-0.5-0.1-1-0.6-1.2c-0.5-0.2-1,0-1.3,0.5l-2,4c-0.2,0.4-0.1,1,0.3,1.2c0.4,0.3,0.9,0.2,1.3-0.1l1.3-1.3c0.2,0.2,0.4,0.4,0.5,0.6
                l0.1,0.1c0.2,0.5,0.3,1.1,0.4,1.8c0,0.5,0.5,0.9,1,0.9c0.3,0,0.5-0.1,0.7-0.3c0.2-0.2,0.3-0.5,0.3-0.8c0-0.2,0-0.6,0-1.5
                c0.5,2.2,1.2,4.5,3.5,5.5l0.5,1.2c0,0,0.1,0.1,0.1,0.1V7.7c-0.1,0-0.3,0.1-0.4,0.2c0,0,0,0,0,0l-2.7-5.8c-0.1-0.3-0.2-0.5-0.3-0.7
                l2.8,0.9c0.1,0,0.2,0.1,0.3,0.1c0.1,0,0.2,0,0.4-0.1V0h-7.8l2,0.7C136.2,0.9,136.2,1.1,136.3,1.3z M119.9,81.2l2.8,0.5
                c0.1,0,0.1,0,0.2,0c0.4,0,0.8-0.2,0.9-0.6c0.2-0.4,0-0.9-0.4-1.2c-0.9-0.6-0.9-1.3-0.9-2.6c0-0.1,0-0.2,0-0.3
                c0.4-0.2,0.9-0.4,1.4-0.6c0.2,0,0.4,0.1,0.7,0.1c0.4,0.1,0.7,0.1,1.1,0.1c0.3,0,0.5-0.1,0.7-0.3c0.2-0.2,0.3-0.5,0.3-0.7v-0.3
                c0.4-0.2,0.8-0.4,1.2-0.5c0.4,0.1,0.7,0.1,1.1,0.1c2.6,0,3.2-2.3,3.6-3.7c0.2-0.2,0.3-0.5,0.4-0.7v1.2c0,0.4,0.3,0.8,0.7,0.9
                c0.4,0.1,0.8,0,1.1-0.3c0.5-0.6,0.9-0.7,1.1-0.7c0.6,0,1.4,0.5,2.2,1c1.1,0.7,2.3,1.5,3.8,1.5c0.1,0,0.1,0,0.2,0v-2.3l-7.6-3.8
                c-0.2-0.1-0.5-0.1-0.7,0c0-0.3,0.1-0.5,0.1-0.8c0-0.4-0.3-0.8-0.7-1c-0.4-0.1-0.9,0.1-1.1,0.5c-0.6,1-0.9,2.2-1.1,3.3l-0.1,0.4
                c-0.7,0.8-1.6,1.6-3,2.3c-0.5-0.2-1-0.4-1.6-0.7c-0.3-0.2-0.7-0.1-1,0c-0.3,0.2-0.5,0.5-0.5,0.8V74c-0.3,0.1-0.6,0.2-0.9,0.3
                l-0.3,0.1c-1.3-0.1-2.2,0.3-2.8,1.2c-1,0.5-2,1.2-2.3,2.4c-0.2,0.9,0.1,1.8,0.8,2.8C119.4,81,119.6,81.1,119.9,81.2z M87.7,37.3
                c-0.2-0.1-0.4-0.2-0.6-0.2l-2-0.1c-0.6,0-1,0.4-1,0.9L84,40c0,0.5,0.4,1,0.9,1l2,0.1c0,0,0,0,0,0c0.3,0,0.6-0.1,0.7-0.3l1.1-1.2
                c0.2-0.2,0.3-0.5,0.2-0.7c0-0.3-0.2-0.5-0.4-0.7L87.7,37.3z M116.1,2.7c0.2,0.4,0.6,0.6,1.1,0.6c0.4,0,0.9-0.2,1.6-0.5
                c0.2-0.1,0.3-0.2,0.4-0.4l1.5-2.5h-3.5C116.1,1.4,115.8,2.1,116.1,2.7z M106.1,26.3l1.4,1.6c0,0,0.1,0.1,0.1,0.1
                c-0.2-0.3-0.2-0.6-0.1-0.9c0.2-0.4,0.5-0.6,0.9-0.6h3.9c0.4,0,0.8,0.3,0.9,0.7c0.4,1.4,0.4,2.6,0,3.9c0.2,0.4,0.1,0.8-0.2,1.1
                l-3.2,3.3l1.3,1.3c0,0,0,0,0.1,0.1c0.1,0.2,0.2,0.4,0.2,0.6v0c0,0,0,0,0,0c0,0,0,0,0,0c0,0,0,0,0,0c0,0,0,0,0,0c0,0,0,0,0,0
                c0,0,0,0,0,0c0,0,0,0,0,0s0,0,0,0c0,0,0,0,0,0v0c0,0,0,0,0,0c0,0,0,0,0,0c0,0.2-0.1,0.5-0.2,0.6c-0.2,0.3-0.5,0.5-0.7,0.8
                c-1,1-1.3,1.5-1.1,2.2c0.2,0.5-0.1,1-0.5,1.2c-0.4,0.2-1,0.1-1.2-0.3c-0.7-0.9-1.3-1.4-2-1.6l-4.6,1.8c-1.1,0.8-2.3,1.5-3.5,1.9
                c-0.9,1-1.2,1-1.5,1c-0.4,0-0.8-0.2-0.9-0.6c-0.3-0.7,0.2-1.2,0.7-1.8c0.2-0.2,0.4-0.3,0.6-0.3c0,0,0,0,0.1,0
                c0.4-0.5,1.1-1.5,1.4-2.5c-0.5-0.9-0.6-1.8-0.3-2.8c0-0.1,0.1-0.2,0.2-0.3c-0.1,0-0.2,0.1-0.3,0.1c-0.8,0.4-1.6,0.5-2.2,0.5
                c-1.1,0-1.7-0.5-2-0.9c-0.3-0.3-0.3-0.8-0.1-1.1c0.2-0.4,0.6-0.5,1-0.4c0.6,0.1,1.1,0.2,1.6,0.2c0.4,0,0.7,0,1-0.1
                c0.3-0.1,0.7-0.3,1-0.5c0.7-0.6,1.2-1.8,1.7-3c0.2-0.5,0.4-1,0.6-1.5c0-0.2,0.1-0.4,0.3-0.6c0.7-1.4,2-3.1,4.7-3.7
                C105.5,25.9,105.9,26,106.1,26.3z M102.3,30.6l-0.2,0.2v0.7c0.4,0,0.8,0.3,1,0.7c0.3,1.3-3.4,3.6-4.1,4c-0.1,0.1-0.2,0.2-0.4,0.2
                c0.3,0,0.6,0.1,0.8,0.4c0.5,0.7,0.8,1.6,0.7,2.6c0.2,0.2,0.3,0.4,0.5,0.6c0,0,0.1,0.1,0.1,0.1c1.5-1,3-1.9,4.7-1.7l3.2-1.3l-0.9-0.9
                c-0.1-0.1-0.1-0.1-0.1-0.2v0c0,0,0,0,0,0c-0.1-0.2-0.1-0.3-0.1-0.5c0,0,0,0,0,0c0,0,0,0,0,0c0-0.1,0-0.2,0.1-0.3c0,0,0,0,0,0
                c0,0,0,0,0,0l0,0c0,0,0,0,0,0c0,0,0,0,0,0c0-0.1,0.1-0.2,0.2-0.3c0,0,0,0,0,0c0.4-0.5,0.8-0.9,1.3-1.3c0.7-0.7,1.4-1.4,1.9-2.1
                l-3.1-3.2c0,0,0,0,0,0c0.1,0.3,0.1,0.7-0.1,0.9c-0.3,0.4-0.8,0.5-1.2,0.3C104.8,28.6,103.6,29.5,102.3,30.6z M68.1,134h3.9
                c0.4,0,0.8-0.3,0.9-0.7c0.1-0.4,0-0.8-0.3-1.1c-1.9-1.6-1.9-3-1.6-4.3c0.9-1.8,1.8-3.6,2-5.6c0.4-1.9-0.1-3.5-1.4-5l8.7-5.3
                c0.5-0.3,0.6-0.9,0.4-1.3c-0.3-0.5-0.8-0.6-1.3-0.4l-11.8,5.9c-0.4,0.2-0.6,0.7-0.5,1.1c0.1,0.4,0.5,0.8,1,0.8h1.5
                c1.1,1.2,1.6,2.5,1.5,3.9c-0.2,0.8-0.6,1.7-1,2.6c-0.4,0.8-0.7,1.7-1,2.5c-0.9,1.8-1.8,3.7-2.1,5.7c0,0.3,0.1,0.6,0.2,0.8
                C67.6,133.8,67.8,134,68.1,134z M7.6,39.4l-1,0.1c-0.4,0-0.7,0.3-0.8,0.6c-1.9,0.8-3.4,1.5-4.6,2.1c-0.4,0.2-0.8,0.4-1.1,0.6v2
                c0.1,0,0.1,0,0.2,0c0.2,0,0.4,0,0.5-0.2c0.3-0.2,0.7-0.4,1.2-0.7c0.9-0.3,2.1-0.4,3.3-0.6c0.5-0.1,1.1-0.1,1.6-0.2
                c0.5-0.1,0.8-0.5,0.8-1l0-0.8l0.4-0.2l7.2-0.7c0.5-0.1,0.9-0.5,0.9-1l0-0.9l3.4-0.3c0.5,0,0.8-0.4,0.9-0.9c0-0.5-0.2-0.9-0.7-1
                l-0.7-0.2c-0.1-0.4-0.5-0.7-1-0.7c-0.2,0-0.3,0-1,0.2c-0.2,0.1-0.4,0.2-0.6,0.4c-0.4,0.2-1,0.4-1.6,0.6
                C13.1,37.4,10.3,38.4,7.6,39.4z M62.6,142c0.5-0.8,0.9-1.5,1.1-2.2c0.2,0.2,0.5,0.4,0.8,0.3c0.4,0,0.8-0.1,1.2-0.1
                c0.6-0.1,1.2-0.2,1.5-0.1c0,0.4,0.3,0.8,0.7,0.9c0.1,0,0.2,0,0.3,0c0.4,0,0.7-0.2,0.9-0.6c0.8-1.7,3.4-2.6,5.9-3.6
                c2.9-1.1,5.8-2.1,7-4.6c0.2-0.5,0.1-1-0.4-1.3c-0.4-0.3-1-0.2-1.3,0.2c-2.1,2.5-6.3,3.8-10.3,5.1c-2,0.6-4.2,1.3-6,2.1
                c-0.1,0-0.1,0.1-0.2,0.1c0-0.1-0.1-0.3-0.1-0.4c0.4-1.2,0.8-2.4,1.1-3.6c0.1-0.5-0.1-0.9-0.5-1.1c-0.4-0.2-0.9-0.1-1.2,0.3
                c-0.3,0.3-0.5,0.7-0.8,1c-0.9,1.2-1.7,2.3-3.4,3.1c-0.1,0.1-0.3,0.2-0.3,0.3l0.7-2c0.1-0.3,0.1-0.7-0.2-1c-0.2-0.3-0.6-0.4-0.9-0.4
                l-6.3,1c-0.4,0.1-0.7,0.4-0.8,0.8c-0.1,0.4,0.1,0.8,0.5,1l4.9,2.9c0.2,0.1,0.3,0.1,0.5,0.1c0.1,0,0.2,0,0.3-0.1
                c0.3-0.1,0.5-0.3,0.6-0.6l0.5-1.3c0,0.1,0,0.2,0.1,0.3c0.2,0.5,0.7,0.8,1.2,0.6c0.7-0.2,1.3-0.3,1.7-0.4c-0.4,1-0.8,1.9-1.2,2.9
                H62.6z M1.2,142c-0.1-0.2-0.3-0.4-0.5-0.5L0,141.1v0.9H1.2z M52.3,141.6c0-0.4-0.3-0.7-0.6-0.9c-0.3-0.1-0.8-0.1-1,0.2
                c-0.4,0.4-0.9,0.7-1.2,1.1h2.9L52.3,141.6z M15.1,0.5c0.2-0.1,0.3-0.2,0.5-0.3c0.1,0,0.1-0.1,0.2-0.2h-3.2c-1.3,1.2-2,2.4-2.3,3.8
                c-0.6,1-1.2,2-1.8,2.8c-0.2,0.3-0.3,0.7-0.1,1C8.5,8,8.8,8.2,9.2,8.2h1.2c0.4,1.1,1.2,2.1,2,3l0.8,1.3c0.3,0.5,0.6,1,0.9,1.5
                c0.1,0.3,0,0.6-0.2,1c-0.8-0.4-1.7-0.7-2.6-0.9c-0.4-0.1-0.9,0.1-1.1,0.5c-0.2,0.4-0.1,0.9,0.2,1.2l2,2c0.3,0.3,0.8,0.4,1.2,0.1
                c0.2-0.1,0.4-0.2,0.5-0.4c1.9,1.5,3,3.8,3.8,5.9c-0.2,0.6-0.1,1.2,0.1,1.9c0,0.1,0.1,0.3,0.2,0.4c0.2,0.2,0.5,0.5,0.8,0.8l0,0.1
                c0.3,1,0.6,1.9,1,2.8c0,0.1,0.1,0.1,0.1,0.2c1.6,2.4,7.7,3,9.1,3c0.6,0,1.7,0,1.8-1c0-0.4-0.1-0.7-0.4-0.9c0.3-0.3,0.6-0.6,0.9-1
                c0.3-0.4,0.3-1-0.1-1.4c-0.4-0.4-1-0.3-1.4,0L29,29.4c-0.6,0.4-1.2,0.6-1.8,0.6c-2.1,0-4.5-2.5-6.4-4.5l0,0
                c-0.2-0.6-0.4-1.3-0.7-1.9c0.2-0.3,0.5-0.7,0.9-1c0.3-0.3,0.5-0.5,0.7-0.8c0.3-0.4,0.3-1-0.1-1.3l-1.2-1.2c0.5-0.5,1-1,1.5-1.6
                l1.7-1.7c0.1-0.1,0.1-0.1,0.2-0.2c0-0.1,0.1-0.1,0.1-0.2c0.2-0.5,0.2-1,0.1-1.5c-0.2-1.7-1.5-2.8-2.6-3.7c-0.5-0.4-1-0.8-1.3-1.3
                l0-0.1c0-0.2,0-0.4,0-0.6c0-1.1,0-1.9-0.2-2.6c-0.1-0.7-0.1-1.5,0.1-2c0.3-0.3,0.6-0.5,0.9-0.8c0.2-0.2,0.4-0.4,0.7-0.6
                c0.4-0.3,0.5-0.8,0.2-1.3c-0.2-0.4-0.8-0.6-1.2-0.4c-1,0.4-1.7,1-2.2,1.9c-0.4,0.2-0.7,0.2-1.1,0.1c-0.5-0.2-1,0.1-1.2,0.5
                c-0.2,0.5,0,1,0.4,1.3c0.7,0.4,1.2,1,1.4,1.8L18,6.5c0.1,0.6,0.1,1.1,0.1,1.6l0,0.5c0,0.1,0,0.2-0.1,0.3c0,0.1,0,0.3,0,0.4l0,0.1
                c-0.1,1.3-0.2,2.6,0,3.8c0.1,0.4,0.3,0.7,0.7,0.8c0.4,0.1,0.7,0,1-0.2l1.2-1.3c0.5,0.5,1,1.1,1.1,1.6c0,0.1,0,0.2,0,0.4
                c-0.6,0.5-1.1,1.1-1.6,1.6L18.8,18c-0.3,0.2-0.6,0.3-0.8,0.3c-0.3-1.8-1.1-3.5-2-5c-0.3-1-1-2-1.8-3c-1.1-1.8-2.2-3.9-2-5.8
                C13.1,2.9,14.2,1.2,15.1,0.5z M5,0H2.7c-1,1.7-1.8,3.2-1.2,4.3c0.2,0.4,0.7,0.9,1.9,0.9C4,5.2,4.9,5,6.1,4.7
                c0.5-0.1,0.7-0.6,0.6-1.1C6.6,3.1,6.1,2.7,5.6,2.7c-0.6,0-1-0.1-1.1-0.3c-0.1-0.2-0.2-0.7,0.2-2C4.8,0.3,4.9,0.2,5,0z M80.6,136.8
                c0,0.2,0,0.3,0.2,0.4l2,1.2c0.1,0,0.1,0.1,0.2,0.1c0,0,0.1,0,0.1,0c0.1,0,0.2-0.1,0.2-0.2l0.6-1.6c0-0.1,0-0.3-0.1-0.4
                c-0.1-0.1-0.2-0.2-0.4-0.1l-2.5,0.4C80.7,136.6,80.6,136.7,80.6,136.8z M90.3,140.6c-0.2,0.5-0.5,0.9-0.8,1.4h2.4l0.2-0.7
                c0.2-0.5,0.4-1,0.5-1.4c0,0,0.1,0,0.1,0c0.1,0,0.1,0,0.2,0c0.3-0.1,0.5-0.2,0.6-0.5c0.9-1.5,1.2-3,0.9-4.6l0-0.2
                c0.1-0.3,0.1-0.6,0.2-0.9c0-0.2,0.1-0.4,0-0.5c-0.2-0.8-0.7-1.4-1.4-1.9c-0.4-1.1-0.7-2.2-0.4-3.4l0.1-0.2c0.1-0.5-0.1-1.1-0.7-1.2
                c-0.5-0.1-1.1,0.1-1.2,0.7l0,0v0l-0.1,0.3c0,0,0,0,0,0c-0.1,0.2-0.1,0.5-0.2,0.7c-0.3,1.3-0.5,1.9-1.2,2.1c-0.4,0.1-0.7,0.5-0.7,0.9
                c0,0.4,0.3,0.8,0.7,1c0.3,0.1,0.7,0.2,1,0.2c0.4,0.1,0.8,0.2,1.1,0.3l0,0.1c0.3,0.7,0.5,1.3,0.6,2c-0.2,0.9-0.4,1.3-0.9,1.5
                c-3.3-1.1-4.8-2.5-4.9-4.7c0.3-0.8,0.4-1.7,0.5-2.6c0.1-0.7,0.1-1.3,0.3-1.8c0.8-0.4,1.5-1,2.1-1.5c1.4-1.2,2.7-2.2,4.1-1.2
                c0.4,0.3,0.9,0.2,1.3-0.1c0.3-0.3,0.4-0.9,0.1-1.3l-1.1-1.6c-0.3-0.4-0.8-0.6-1.2-0.3l-12.5,6.1c-0.5,0.2-0.7,0.8-0.5,1.2
                c0.2,0.5,0.7,0.7,1.2,0.6l4.2-1.2c-0.3,1.3-0.5,2.4-0.5,3.4c-0.2,0.4-0.5,0.7-1,0.9c-0.4,0.1-0.6,0.4-0.7,0.8
                c-0.1,0.4,0.1,0.7,0.4,1l7.5,5.1c0,0.1-0.1,0.1-0.1,0.2L90.3,140.6z M24.9,0.7l0.3,0.9c-0.1,0.1-0.3,0.1-0.4,0.2l-0.2,0.1
                c-1.6-0.1-2.3,0.6-2.6,1.3c-0.7,0.4-1.4,1.1-1.5,2.1c-0.1,1.3,0.9,2.4,1.7,3.1c0.1,0.1,0.3,0.2,0.5,0.2l3,0.5c0.1,0,0.1,0,0.2,0
                c0.4,0,0.8-0.3,0.9-0.7c0.2-0.5,0-1-0.5-1.2c-1.3-0.7-1.7-1.7-2.1-2.9c0-0.1,0-0.1-0.1-0.2c0.3-0.1,0.5-0.3,0.8-0.4
                c0.2,0,0.5,0.1,0.7,0.1C26,4,26.4,4.1,26.7,4.1c0.3,0,0.7-0.1,0.9-0.4c0.2-0.3,0.3-0.6,0.1-0.9l-0.1-0.2c0.2-0.1,0.5-0.2,0.7-0.4
                c1.4,0.3,2.4,0.1,3-0.7C31.8,1.1,32,0.6,32,0h-3.8c-0.1,0-0.1,0.1-0.2,0.1c-0.1,0-0.3-0.1-0.4-0.1h-2.8C24.8,0.2,24.8,0.5,24.9,0.7z
                 M73.9,130.4l0.8,0.1l0.6,0.8c0.2,0.2,0.5,0.4,0.8,0.4c0.2,0,0.4,0,0.5-0.1l1.5-0.9c0.4-0.2,0.5-0.7,0.4-1.1
                c-0.1-0.4-0.5-0.7-0.9-0.8l-2-0.2l-1.5-1.9c-0.3-0.4-0.8-0.5-1.2-0.3c-0.4,0.2-0.6,0.7-0.5,1.1l0.6,2.2
                C73.2,130.1,73.5,130.4,73.9,130.4z M67.8,141.5l-0.9,0.5h2.2c0,0,0-0.1,0-0.1C68.8,141.5,68.2,141.3,67.8,141.5z M81,141
                c-1.3-2.2-2.7-3.6-4.3-4.2c-0.4-0.2-0.9,0-1.2,0.4c-0.2,0.4-0.2,0.9,0.1,1.2l3.6,3.6H82L81,141z M116.8,114.3
                C116.8,114.3,116.8,114.3,116.8,114.3l1.3,0c0.2,0.3,0.5,0.5,1,0.7c0.1,0,0.2,0.1,0.2,0.1c0.4,0.1,0.9,0.2,1.5,0.2
                c2.3,0,2.6-0.7,2.6-1.2c0-0.7-0.5-1.1-1.5-1.1c-0.4,0-0.8,0-1.4,0.1l0-1.3c0.3-0.3,0.7-0.7,1-1.1c0.3-0.3,0.6-0.6,0.9-0.9l0.3-0.3
                c1-1,2-2,3.2-2.6c0.6-0.1,1.1-0.3,1.6-0.5c0.8-0.1,1.8-0.1,2.7,0.3c0.5,0.2,1-0.1,1.2-0.6c0.2-0.5,0-1.1-0.5-1.3
                c-0.5-0.2-0.7-0.5-0.9-0.7c0.7-1,1.1-2.2,1.3-3.5c0.6-0.7,0.9-1,0.7-1.6c-0.2-0.4-0.5-0.6-0.9-0.6c-0.4,0-0.7,0.2-1.4,1c0,0,0,0,0,0
                c-0.1,0.1-0.1,0.1-0.2,0.2c-0.8,1-1.6,2.5-1.6,3.9c-0.3,0.4-0.7,0.7-1.2,0.9c-0.5,0.1-1.1,0.3-1.6,0.5c-0.9,0.1-1.8,0.1-2.8-0.2
                c-0.3-0.1-0.6,0-0.9,0.2c-0.2,0.2-0.4,0.5-0.4,0.8l0,2.4l-1.1,1.2c-1.2,1.2-2,1.5-3.1,1.1c-0.3-0.1-0.6,0-0.9,0.1
                c-0.3,0.2-0.4,0.5-0.4,0.8l0,2C115.8,113.9,116.2,114.3,116.8,114.3z M116.2,101.7h1.5c0.1,0.1,0.3,0.3,0.4,0.4c1,1,1.3,1.5,1.1,2.2
                c-0.1,0.4,0,0.9,0.4,1.2c0.2,0.1,0.3,0.1,0.5,0.1c0.3,0,0.5-0.1,0.7-0.3l2-2c0,0,0,0,0,0l3.9-4c0.4-0.4,0.4-1,0-1.4l-1.4-1.4
                c-0.4-0.4-1-0.4-1.4,0l-3.4,3.4c-0.9-0.3-1.8-0.4-2.7-0.4l-1.7,0c-0.2,0-0.4,0.1-0.5,0.2c-0.2-0.2-0.6-0.3-0.9-0.3
                c-1.2,0.2-2.2,0.2-2.5,0.1c-0.1-0.1-0.2-0.2-0.4-0.3c-0.1-0.5,0.3-1.7,0.5-2.5c0.2-0.5,0.3-1,0.4-1.4c0,0,0,0.1,0,0.1
                c0.2,0.3,0.5,0.5,0.8,0.5c0,0,0,0,0,0c0.5,0,0.8-0.3,1.3-1c0.1-0.2,0.2-0.4,0.2-0.7c0,0,0-0.1,0-0.3c0.2-0.4,0.4-0.8,0.6-1.2
                c0.3-0.5,0.6-1,0.9-1.5c1.1-1.8,2.2-3.6,1.6-4.8c0.4-1.2,0.8-2.4,1.1-3.6c0.1-0.5-0.1-0.9-0.5-1.1c-0.4-0.2-0.9-0.1-1.2,0.3
                c-0.3,0.3-0.5,0.7-0.8,1c-0.9,1.2-1.7,2.3-3.4,3.1c-0.5,0.2-0.7,0.8-0.5,1.3c0.2,0.5,0.7,0.8,1.2,0.6c0.7-0.2,1.3-0.3,1.7-0.4
                c-0.5,1.4-1.1,2.9-1.7,4.3c-0.3,0.6-0.5,1-0.6,1.4l-0.2,0.4c-0.1,0.1-0.1,0.2-0.1,0.3c0.1-2.3-1.3-3.2-2.6-3.5
                c-0.3-0.1-0.5,0-0.7,0.1l-2.6,1.6c-0.4,0.3-0.6,0.8-0.4,1.3s0.7,0.7,1.2,0.5c0.7-0.2,1.2-0.4,1.7-0.4c0.6,0,0.8,0.2,1.2,1.1l-1,1.3
                c-0.5-0.2-1.2,0.1-1.4,0.6c-0.4,1,0.9,3,1.7,3.9c0.3,0.4,0.6,0.7,1.1,0.9c0.6,0.4,1.3,0.6,2,0.6c0.7,0,1.5-0.2,2.2-0.7
                C115.6,101.6,115.9,101.7,116.2,101.7z M88.9,0.8c-1.4,2.1-3,4.5-1.7,7l-0.4,1.1c-0.1,0.3,0,0.6,0.1,0.9c0.2,0.3,0.5,0.4,0.8,0.4
                h1.6l1.4,1.4c-0.1,0.5-0.5,1.2-0.8,1.9c-0.6,1.1-1.3,2.4-1.1,3.7c0.1,0.5,0.5,0.8,1,0.8h2c0.3,0,0.6-0.2,0.8-0.4
                c0.2-0.3,0.2-0.6,0.1-0.9c-0.3-0.8,0.1-1.2,1.1-2.2c0.3-0.3,0.5-0.5,0.7-0.8c0,0,0.1-0.1,0.1-0.1c0,0,0,0,0,0c0,0.5,0.4,1,0.9,1.1
                l6.6,0.7c0.4,0,0.7-0.1,0.9-0.4l0,0c-2.3,3-3.1,6.5-3.7,9.3l0,0.2c-0.7,1.2-1.6,2.4-2.4,3.7l-0.6,0.8c0-0.1,0-0.1,0-0.2
                c0.3-1.5-0.4-3-2.3-4.5c-0.4-0.3-0.9-0.3-1.2,0c-0.4,0.3-0.5,0.8-0.3,1.2l1.6,3.3c-0.5,0.4-0.9,0.9-1.3,1.4c-1,1.2-1.9,2.2-3.1,1.9
                c-0.3-0.1-0.6,0-0.9,0.2c-0.2,0.2-0.4,0.5-0.4,0.8l0,0.8c0,2-0.1,4.7,2.5,6C91,40,91.2,40,91.3,40c0.3,0,0.5-0.1,0.7-0.3
                c0.3-0.3,0.3-0.8,0.1-1.2c-1.7-2.5-0.5-3.9,1.6-6.1c0.8-0.8,1.5-1.6,2-2.4l0,0c0.1,0,0.1-0.1,0.1-0.2c0,0.2,0,0.3,0.1,0.5
                c0.2,0.3,0.5,0.5,0.8,0.5c0,0,0.1,0,0.1,0c2.6,0,3.3-2.7,4-5.4c1.9-3,3.7-6.3,3.9-9.6c0.2-0.3,0.5-0.6,0.8-0.9
                c0.3-0.3,0.4-0.7,0.2-1.1c-0.1-0.4-0.5-0.6-0.9-0.6l-0.3,0c-0.1-0.6-0.3-1.3-0.5-1.9c-0.1-0.4-0.5-0.6-0.9-0.6
                c-0.3,0-0.8,0.2-0.9,0.6l-0.8,1.8l-6.1-0.3c-0.4,0-0.7,0.2-0.9,0.5c0-0.3-0.1-0.6-0.3-0.8l-1.7-1.8C92.4,10.1,92,9.5,91.3,9l1.1-1.1
                c0.2-0.2,0.3-0.4,0.3-0.7c0-0.3-0.1-0.5-0.3-0.7L91,5.2c-0.2-0.2-0.5-0.3-0.8-0.3L91.9,0h-2.4C89.3,0.3,89.1,0.5,88.9,0.8z
                 M93.1,107.3c0.6,0.3,1.3,0.8,2.1,1.4c0.1,0.1,0.2,0.2,0.3,0.3s0.2,0.2,0.3,0.2c1,1,1.8,2,2,2.3c0.2,0.4,0.5,0.7,1,0.7
                c0.4,0,0.7-0.2,0.9-0.5c0.3-0.5,0-0.9-0.2-1.2l1.4-1.4c0.4-0.4,0.4-1,0-1.4l-2-2c-0.4-0.4-1-0.4-1.4,0l-1.3,1.3
                c-1.8-1.7-3.8-2.3-5.8-2.9c-0.6-0.2-1.2-0.4-1.7-0.6c-0.5-0.2-1,0.1-1.2,0.5c-0.2,0.5,0,1,0.5,1.3l1.2,0.6c-0.5,0.4-0.9,0.8-1.3,1.4
                c-0.3,0-0.5,0-0.7,0c-0.5,0-1.1,0.5-1.1,1c0,0.9,0.7,1.2,2.7,1.2C91.1,109.4,92.7,108.6,93.1,107.3z M124.8,125.1
                c0.2,0.3,0.5,0.5,0.9,0.5c0.1,0,0.3,0,0.4-0.1l1.8-0.9c0.5-0.2,0.7-0.8,0.4-1.3l-0.9-1.8c0-0.1-0.1-0.2-0.2-0.3l-4.4-4.4
                c-0.3-0.3-0.9-0.4-1.3-0.1c-0.4,0.3-0.5,0.8-0.3,1.2L124.8,125.1z M136,124.7c1,0.2,2,0.3,3,0.3c1.1,0,2-0.1,3-0.3V122l-0.7-0.4
                c0.1-0.2,0.1-0.5,0-0.8c-0.1-0.4-0.6-0.7-1.1-0.7c-0.9,0-3.8,1.4-4.7,2.6c-0.4,0.6-0.4,1.1-0.3,1.4
                C135.3,124.4,135.6,124.6,136,124.7z M129.7,0.7c0.1,0.1,0.3,0.1,0.5,0.1c0.2,0,0.3,0,0.5-0.1c0.3-0.2,0.6-0.4,0.7-0.7h-2.2
                C129.3,0.3,129.4,0.6,129.7,0.7z M129.6,121.8c0.1,0,0.2,0,0.3,0c0.8-0.2,1.6-0.5,2.5-0.9l0.2,0c0.3,0.1,0.6,0.1,0.9,0.2
                c0.4,0.1,0.8,0,1-0.3l0.9-1.1c2.4-1,4.7-1.8,6.5-2.2v-2.6c-0.6-0.4-1.1-1-1.6-2.3c-0.1-0.3-0.4-0.6-0.8-0.6
                c-0.3-0.1-0.7,0.1-0.9,0.4l-4.5,5.8l-0.2,0.1c-0.6,0.2-1.2,0.5-1.8,0.7c-0.9-0.2-1.4-0.5-1.8-1.2c-0.2-0.4-0.7-0.6-1.1-0.5
                c-0.4,0.1-0.8,0.5-0.8,1v2.8c0,0.3,0.1,0.6,0.4,0.8C129.2,121.7,129.4,121.8,129.6,121.8z M133.7,115.8c0.2,0.3,0.4,0.5,0.8,0.5
                c0,0,0.1,0,0.1,0c0.3,0,0.6-0.1,0.8-0.4c0.2-0.2,0.4-0.5,0.6-0.7c0.9-1,2.2-2.3,1.5-4.2c-0.1-0.4-0.5-0.7-0.9-0.7
                c-0.4,0-0.8,0.2-0.9,0.6c-0.5,1.1-1,2-1.5,2.4c-1.3-0.9-3.1-0.9-4.6-0.9l-0.3-0.2c-0.8-0.5-1.7-1-2.5-1.4c0.3-0.2,0.5-0.4,0.8-0.5
                h1.3c0.5,0,0.9-0.4,1-0.8c0.1-0.5-0.2-0.9-0.7-1.1c-0.7-0.2-1.3-0.2-1.9-0.1h-2.3c-0.5,0-0.9,0.4-1,0.9c-0.1,0.7,0,1.3,0,1.8
                c0,0.2-0.1,0.4,0,0.5c0,0.2,0.1,0.3,0.3,0.4c0.8,2.2,3.2,2.4,4.8,2.4C130.4,115.3,132.1,116.1,133.7,115.8z M141.1,61.2l-0.2,0
                c-1.1-0.4-2.3-0.9-3.6-1.4l-0.9-0.4c-0.3-0.1-0.6-0.1-0.9,0.1c-0.3,0.2-0.4,0.4-0.5,0.7c-0.1,0.8,0.1,1.4,0.5,1.9
                c0.8,0.9,2.2,1.1,4.3,1.1l0.8,0c0.4,0.2,0.9,0.3,1.4,0.5v-2.5C141.7,61.2,141.4,61.2,141.1,61.2z M108.6,0.1
                c-0.2,0.3-0.4,0.5-0.6,0.8c-0.2,0.3-0.5,0.7-0.7,1c-0.2,0.3-0.2,0.7,0,1l0.6,1.1c0.2,0.3,0.5,0.5,0.8,0.5c0,0,0,0,0,0
                c0.3,0,0.7-0.2,0.8-0.5c0.9-1.5,1.2-2.7,1.1-3.8c0.1-0.1,0.1-0.2,0.2-0.4h-2.5C108.5,0,108.6,0.1,108.6,0.1z M51.4,84.6
                C51.4,84.5,51.4,84.5,51.4,84.6l0.2-0.3c0.1,0.1,0.3,0.1,0.4,0.2c1.4,2.8,4.4,4.8,6.7,6.4L59,91c0.6,1,1.3,2,1.9,3.1l0.5,0.8
                c0.1,0.2,0.4,0.4,0.7,0.5c0.1,0,0.1,0,0.2,0c0.2,0,0.4-0.1,0.6-0.2c0.8-0.6,1-1.3,1-1.8c0-1.3-1.3-2.3-3.4-3.8
                c-1.7-2.5-3.7-5.1-6.8-6.6c-0.1-0.2-0.2-0.5-0.2-0.7c-0.1-0.3-0.3-0.6-0.6-0.7c-0.3-0.1-0.7-0.1-0.9,0.1l-0.5,0.4
                c-0.8-0.3-1.8-0.4-2.7-0.6c-0.4-0.1-0.8,0.2-1,0.5c-0.2,0.4-0.1,0.8,0.2,1.1l0.9,0.9L44,87.6c-0.4,0.3-0.5,0.9-0.2,1.4
                c0.3,0.4,0.9,0.5,1.3,0.3l5.9-4C51.2,85.1,51.4,84.9,51.4,84.6z M7.3,123c0.5-0.1,0.8-0.6,0.8-1.1C8,121.3,7.5,121,7,121
                c-1.3,0.2-2.5,0.5-3.5,0.8l-2.8,0.6L0,122v2.7c1.2-0.2,2.3-0.5,3.4-0.8L7.3,123z M76.3,104.9c0.4,1.3,1,3,2.8,3.8
                c0.1,0.1,0.3,0.1,0.4,0.1c0.3,0,0.5-0.1,0.7-0.3c0.3-0.3,0.4-0.8,0.2-1.1l-3.9-7.9c-0.1-0.3-0.4-0.5-0.7-0.5
                c-0.3-0.1-0.6,0.1-0.9,0.3l-2,2c-0.3,0.3-0.4,0.8-0.2,1.2c0.2,0.4,0.6,0.6,1,0.5C75.2,102.5,75.6,103,76.3,104.9z M2.3,40.3
                c-0.2-0.4-0.6-0.7-1.1-0.6c-0.4,0.1-0.8,0.1-1.2,0.2v2.3c0.7,0,1.3-0.3,1.9-0.7C2.3,41.2,2.5,40.7,2.3,40.3z M3.2,29.4
                C3.7,29.3,4,28.9,4,28.4c0-0.3,0-0.6,0-0.9c0-1.3,0-3-1.9-4.3L0,17.8v6.7c0.1,0,0.3,0.1,0.5,0.2l1.6,4.2C2.3,29.3,2.7,29.6,3.2,29.4
                z M104.3,107c0.1,0.1,0.2,0.2,0.3,0.2c0,0,0.1,0,0.1,0c0.2,0,0.3-0.2,0.3-0.4l0.1-4.5c0-0.1,0-0.2-0.1-0.3c-0.1-0.1-0.2-0.1-0.3-0.1
                l-2.5,0.4c-0.1,0-0.2,0.1-0.3,0.2s0,0.3,0,0.4L104.3,107z M93,104.6c0.6,0.3,1.2,0.5,1.8,0.7c0.1,0.1,0.3,0.1,0.4,0.1
                c0,0,0.1,0,0.1,0c0.1,0,0.2,0,0.2,0c2.5,0.1,3.5-2,4.2-3.6c1.2-0.9,2.8-2.2,3.1-4c0.3,0,0.6-0.2,0.7-0.5c0.1-0.3,0.1-0.6,0-0.9
                c-0.1-0.3-0.3-0.6-0.4-0.8c-0.5-1.2-1.2-2.9-3.3-3c-0.4,0-0.8,0.2-1,0.6c-0.2,0.4-0.1,0.8,0.2,1.1c0.9,0.9,1.4,1.6,1.7,2.3
                c-1.3,0.9-2,2.5-2.6,4l-0.3,0.2c-0.8,0.6-1.6,1.2-2.2,1.8c-0.1-0.3-0.2-0.6-0.2-0.9l0.5-1.2c0.2-0.4,0-1-0.4-1.2s-0.9-0.2-1.3,0.2
                c-0.5,0.5-0.7,1.1-0.8,1.8l-0.9,2.1C92.4,103.8,92.6,104.4,93,104.6z M81.1,101.1l1.4-1.3c0.4-0.4,0.4-1,0.1-1.4l-1.3-1.5
                c-0.2-0.2-0.5-0.3-0.8-0.3l-1.6,0.1c-0.3,0-0.5,0.1-0.7,0.4c-0.2,0.2-0.2,0.5-0.2,0.8l0.2,1.2c0,0.2,0.1,0.4,0.2,0.5l1.3,1.5
                c0.2,0.2,0.4,0.3,0.7,0.3c0,0,0,0,0,0C80.7,101.3,80.9,101.3,81.1,101.1z M91.2,94.6c0.3,0,0.6-0.1,1-0.2c0.3,0.3,0.7,0.5,1.1,0.8
                c0.1,0,0.1,0.1,0.2,0.1v0c0,0,0,0,0,0c0,0,0.1,0,0.1,0c0,0,0,0,0,0s0,0,0,0c0,0,0,0,0,0c0,0,0.1,0,0.1,0c0.2,0,0.4-0.1,0.5-0.2
                c0,0,0,0,0,0l5.9-4c0.3-0.2,0.5-0.6,0.4-1c-0.1-0.4-0.3-0.7-0.7-0.8c-0.4-0.1-0.7-0.2-1.1-0.2c-1.9,0-3,1.4-4.1,2.7
                c-0.2,0.2-0.3,0.4-0.5,0.6c-0.2-0.2-0.7-0.4-1.2-0.3c-0.3-0.8-0.3-1.9-0.3-3l0-0.8c0-0.5-0.3-0.9-0.8-1c-0.5-0.1-0.9,0.2-1.1,0.6
                c-1.5,3.8-1.5,5.1-1,5.9C90,94.2,90.4,94.6,91.2,94.6z M57.1,46.3c-0.5-0.1-0.9,0.1-1.1,0.5l-1,2.1l-1.3,0.3
                c-0.3,0.1-0.5,0.2-0.6,0.5C53,49.9,53,50.2,53,50.4l1.2,4.1c0.1,0.4,0.5,0.7,0.9,0.7c0.1,0,0.2,0,0.2,0l1.8-0.4
                c0.4-0.1,0.8-0.5,0.8-1l0-6.6C57.9,46.8,57.5,46.4,57.1,46.3z M89.5,46.1c-0.2-0.3-0.6-0.4-0.9-0.3c-2.2,0.4-3.8,1.4-4.7,2.9
                c-0.1,0.1-0.1,0.2-0.1,0.3l-0.2,1c-0.1,0.4,0.1,0.8,0.5,1c0.2,0.1,0.3,0.1,0.5,0.1c0.2,0,0.4-0.1,0.6-0.2c0.2-0.2,0.4-0.3,0.6-0.5
                c1.3-1.1,2.4-2,4-1.2c0.4,0.2,0.9,0.1,1.2-0.3c0.3-0.4,0.3-0.9,0-1.3L89.5,46.1z M90.8,50.4h-2c-0.4,0-0.8,0.3-0.9,0.7L86,57
                c-0.1,0.4,0,0.9,0.4,1.2c0.2,0.1,0.3,0.1,0.5,0.1c0.3,0,0.5-0.1,0.7-0.3l1.7-1.7h1.6c0.5,0,1-0.4,1-1v-4
                C91.8,50.9,91.4,50.4,90.8,50.4z M62.6,59c-0.4-0.4-1-0.4-1.4,0l-1.4,1.4c-0.3,0.3-0.4,0.8-0.2,1.1l2.8,5.6c0.2,0.3,0.5,0.5,0.9,0.5
                c0.1,0,0.1,0,0.2,0c0.4-0.1,0.8-0.5,0.8-1v-2.4l1.1-1.1c0.4-0.4,0.4-1,0-1.4L62.6,59z M83.7,46.7c-0.4-0.3-1-0.1-1.3,0.3
                c-0.8,1.1-1.3,2.2-1.6,3.4l-2.7,5.9c-0.2,0.4-0.1,0.9,0.2,1.2c0.3,0.3,0.8,0.3,1.2,0.1l1.1-0.7c0.2,0.8,0.6,1.7,1,2.5
                c0.3,1.8,0.3,3.2-0.5,4.3l-0.8-1.3c-0.3-0.5-0.9-0.6-1.4-0.3l-1.7,1c-0.2,0.1-0.4,0.4-0.4,0.6c-0.1,0.3,0,0.5,0.1,0.7l1.5,2.4
                c0.1,0.2,0.4,0.4,0.6,0.4c0.1,0,0.1,0,0.2,0c0.2,0,0.4-0.1,0.5-0.1l1.6-1c1.6-0.6,2.5-1.4,3-2.4c0.7-1.7-0.1-3.5-0.9-5.1
                c-0.1-0.5-0.2-1-0.3-1.6c-0.5-2-0.9-4.1-0.5-6.2l1.4-3.1C84.3,47.5,84.1,47,83.7,46.7z M6.3,54c-0.4,0.1-0.7,0.4-0.8,0.8l-0.4,2
                c-0.1,0-0.1,0-0.2,0c-0.2,0-0.5,0-0.7,0c-1.1,0-2.5,0.2-3.6,1.6c-0.2,0.3-0.3,0.8,0,1.1C0.8,59.9,1.1,60,1.4,60c0,0,0.1,0,0.1,0
                l7.1-1.1c0.3-0.1,0.6-0.3,0.8-0.6c0.1-0.3,0.1-0.7-0.1-1l-2.1-3C7,54.1,6.6,54,6.3,54z M92.8,76c0,0.4,0,0.7,0,1.1
                c0,0.3,0.2,0.5,0.4,0.7C93.4,78,93.7,78,94,78l0.2,0c0,0.1,0,0.2,0.1,0.3c0.1,0.4,0.3,0.7,0.7,0.8c0.1,0,0.2,0,0.3,0
                c0.3,0,0.5-0.1,0.7-0.3l1.4-1.6c0.3-0.3,0.3-0.8,0.1-1.1c-0.2-0.4-0.6-0.6-1-0.5l-0.9,0.2c-0.3-0.5-0.6-1-0.9-1.5
                c-0.3-1.1-0.9-1.8-1.9-2.1c-0.1,0-0.3-0.1-0.5,0L91,72.3c-0.1,0-0.3,0-0.5,0v-1.5c0-0.4-0.3-0.8-0.6-0.9c-0.4-0.1-0.8,0-1.1,0.3
                L86,73.4c-0.3,0.3-0.3,0.9-0.1,1.2c0.3,0.4,0.8,0.5,1.2,0.3c0.6-0.3,1.3-0.5,1.8-0.6c0.2,0.2,0.5,0.2,0.7,0.2l1.3-0.2
                c0.7,0.1,1.2,0.4,1.7,0.8C92.8,75.4,92.8,75.7,92.8,76z M33.1,43c-0.4-0.2-0.8-0.1-1.1,0.2c-1.7,1.8-2.5,3.7-2.9,5.2
                c-0.1,0.2-0.1,0.4-0.2,0.6l-0.3,1c-0.4,1.7-0.8,3.2-1.8,4.3l0,0c-0.3-0.1-0.6-0.1-0.9-0.2c-0.2,0-0.4,0-0.5,0
                c-1.3,0.4-1.7,1.3-1.9,2.1c-0.3,0.1-0.5,0.1-0.8,0.2c-0.4,0.1-0.7,0.4-0.8,0.8c-0.1,0.4,0.1,0.8,0.4,1c0.9,0.6,0.9,1.3,0.9,2.6
                c0,0.4,0,0.7,0,1.1c0,0.5,0.5,0.9,1,0.9c0,0,0,0,0,0l7.1-0.2c0.5,0,0.9-0.4,0.9-0.8c0.1-0.5-0.2-0.9-0.7-1.1
                c-0.9-0.3-1.8-0.4-2.8-0.5c-1.8-0.2-2.9-0.3-3.6-1.4c0-0.2,0-0.5,0-0.7c0-0.1,0-0.2,0-0.3c0.8-0.3,1.5-0.7,2.2-1.2
                c0.8,0.2,1.3,0.5,1.6,1.1c0.2,0.4,0.5,0.6,1,0.6c0.4,0,0.8-0.3,0.9-0.7c0.4-1.4,0.2-3,0.1-4.5c-0.1-1.3-0.3-2.5-0.1-3.5l0.1-0.5
                c0.2-0.5,0.6-1.1,1.9-1.4c0.5-0.1,0.8-0.5,0.8-1V44C33.7,43.6,33.5,43.2,33.1,43z M33,56.3c-0.1,0.4,0,0.8,0.3,1l5.3,4.8
                c0.2,0.2,0.4,0.3,0.7,0.3c0.1,0,0.2,0,0.3-0.1c0.3-0.1,0.6-0.4,0.6-0.8l0.6-3.9c0.1-0.4-0.1-0.8-0.5-1c-0.3-0.2-0.8-0.2-1.1,0.1
                l-1.5,1.1c0,0,0,0,0,0c-0.8-1.1-1.9-2.5-3.9-2.1C33.4,55.6,33.1,55.9,33,56.3z M115.2,62.1c-1.1-2-2.5-3-4.3-3.8l-1.2-1.2
                c-0.4-0.4-1-0.4-1.4,0l-0.1,0.1c-0.2-0.1-0.5-0.2-0.8-0.3c-0.5-0.2-1,0-1.3,0.5l-2,4c-0.2,0.4-0.1,1,0.3,1.2
                c0.4,0.3,0.9,0.2,1.3-0.1l2.9-2.9l0,0c0.4,0.1,0.7,0.3,1.1,0.4l4.4,4.5c0,0,0,0,0,0c0,0,0,0,0,0c0.1,0.1,0.2,0.2,0.4,0.2
                c0.4,0.1,0.7,0.2,1,0.2c1.4,0,2.4-0.9,3.1-1.7c0.2-0.2,0.4-0.4,0.7-0.6c0.3-0.2,0.4-0.6,0.3-0.9c0-0.2-0.2-0.4-0.3-0.5
                c0.3,0,0.6-0.2,0.7-0.4c0.3-0.4,0.2-1-0.2-1.3l-0.8-0.7c-1.8-1.4-3.8-3-3.8-4.6c0-0.5-0.3-0.9-0.8-1l-2.1-0.3
                c-0.3-0.1-0.7,0.1-0.9,0.3c-0.2,0.3-0.3,0.6-0.2,1l0.1,0.4l-0.6-0.4c-0.7-0.7-1.2-1.6-1.8-2.4c-0.8-1.3-1.6-2.6-3.2-3.8
                c-0.4-0.3-1-0.2-1.3,0.2l-2,2.3c-0.2,0.2-0.3,0.5-0.2,0.8c0,0.3,0.2,0.6,0.5,0.7l6.8,3.9c0.7,0.6,1.4,1.1,2.3,1.5
                c0.1,0,0.2,0.1,0.3,0.1l0.4,0.1l5.8,3.3C117.1,60.6,116,61.3,115.2,62.1z M56,59.5c0.1,0.4,0.4,0.7,0.8,0.8c0.2,0,0.5,0.1,0.7,0.1
                c0,0,0,0,0,0c1.8,0,3.2-1.3,4.4-2.5c0.5-0.5,1-0.9,1.4-1.2l0.4-0.3c0.2-0.1,0.3-0.1,0.5-0.1c0.3,0.5,0.8,1,1.3,1.3
                c-0.3,0.8-0.3,1.9,0.4,3.4c0,0,0,0,0,0c-0.1,0.4-0.1,0.8,0.2,1.1c1,1,1.5,1.5,1.7,1.7c0,0,0,0,0.1,0.1c0.2,0.2,0.5,0.3,0.8,0.3
                c0,0,0,0,0,0c0.4,0,0.7-0.3,0.9-0.6c0.1-0.4,0-0.8-0.3-1.1c0,0,0,0,0,0c0,0-0.1-0.1-0.1-0.1c0.4-0.1,0.6-0.5,0.6-0.9v-2
                c0-0.4-0.2-0.7-0.5-0.9c0.1,0,0.1-0.1,0.2-0.1l1.3,0c0.5,0,0.9-0.4,1-0.8c0.1-0.5-0.2-0.9-0.7-1.1c-0.7-0.2-1.4-0.2-2,0
                c-0.6,0-1.2,0-1.8-0.2c-0.2-0.3-0.4-0.6-0.6-0.8c0.7-0.4,1.3-0.8,2-1.1c0.9-0.1,1.7-0.5,2.5-0.8l0.3-0.1c2.1-0.4,3.4,0.2,4.1,1.8
                c0.1,0.2,0.1,0.4,0.2,0.6c0.2,0.5,0.7,0.8,1.2,0.6c0.5-0.2,0.8-0.7,0.6-1.2c-0.1-0.2-0.2-0.5-0.3-0.7c-1-2.4-2.3-3.5-4-3.5
                c-0.9,0-1.7,0.3-2.5,0.6c-0.9,0.2-1.8,0.5-2.8,0.9c-0.6,0.1-1.4,0-2.3-1.5c-0.2-0.3-0.4-0.4-0.7-0.4c-0.3,0-0.6,0.1-0.8,0.3
                l-1.4,1.4c-0.2,0.2-0.3,0.4-0.3,0.7c0,0.3,0.1,0.5,0.3,0.7l0.7,0.7l-0.7,0.4c-0.2,0.1-0.4,0.2-0.5,0.3l-5.8,3.5
                C56.1,58.7,55.9,59.1,56,59.5z M49.4,100l-0.3-1c0.1-1.8-0.5-3.6-1.8-5.3c-0.3-0.4-0.8-0.5-1.2-0.3c-0.4,0.2-0.6,0.7-0.5,1.2
                l1.5,4.6c-0.1,1.1-0.7,2.2-1.6,3.1c-0.5,0.2-1,0.1-1.8-0.4l-1.5-1.5c1.1-1.1,1.4-2.5,1.4-3.7c0-0.3,0-0.5,0-0.8c0-0.3,0-0.6,0-0.8
                l0-0.8c0-0.3-0.2-0.6-0.4-0.8c-0.3-0.2-0.6-0.2-0.9-0.1c-0.2,0.1-0.3,0.1-0.4,0.1c-0.6,0-1.1-0.5-1.8-1.2c-0.3-0.3-0.5-0.5-0.8-0.7
                c-0.4-0.3-0.9-0.3-1.3,0c-0.4,0.3-0.4,0.9-0.1,1.3c0.2,0.2,0,0.6-0.2,0.9c-1.7,1.5-2,2-1.8,2.6c-0.5,0.7-1,1.3-1.8,1.8
                c-0.4,0.2-0.8,0.4-1.2,0.6c-0.3,0-0.5,0.1-0.8,0.1c-0.4,0.1-0.9,0.1-1.3,0.1l1-1.5c0.8-0.8,1.9-1.5,2.8-2c0,0,0,0,0,0c0,0,0,0,0,0v0
                c0,0,0,0,0,0c0,0,0,0,0,0c0,0,0,0,0,0c0.5-0.3,1-0.6,1.4-0.9l1.1-0.7c0.4-0.3,0.6-0.8,0.4-1.3L37,91.7c-0.2-0.3-0.5-0.5-0.8-0.5
                c-0.4,0-0.7,0.1-0.9,0.4L35,92l-5.9,0.9c-0.3,0-0.5,0.2-0.6,0.4L27,95.3c-0.2,0.3-0.2,0.7-0.1,1.1c0.2,0.3,0.5,0.5,0.9,0.5
                c0.4,0,0.8-0.1,1.2-0.1c0.4-0.1,0.8-0.1,1.2-0.1c-0.8,0.7-1.3,1.5-1.6,2.2l-1.6,2.2c-0.1,0.1-0.3,0.1-0.4,0.2l-2.4,0.4
                c-0.3,0-0.5,0.2-0.6,0.4l-2,2.8c-0.3,0.4-0.2,1,0.2,1.3c0.2,0.2,0.4,0.2,0.6,0.2c0.3,0,0.5-0.1,0.7-0.3c1.2-1.2,2.5-2.2,4.1-2.9
                l0.5-0.1c0.3,0,0.5-0.2,0.6-0.4c0.8-0.3,1.6-0.5,2.4-0.8c0.9-0.3,1.8-0.6,2.7-0.9c0,0,0,0,0,0c0.1,0,0.2,0,0.3-0.1
                c0.6-0.2,1-0.5,1.5-0.9c1.5-0.9,2.6-2.2,3.5-4c0.1-0.1,0.1-0.2,0.1-0.4c0.1-0.1,0.1-0.2,0.2-0.2c1.7,0.1,2.4,0.5,2.5,0.8
                c0,0.1,0,0.2,0,0.4c-0.2,0.9-1.3,2.1-2.3,2.9c-0.1,0-0.2-0.1-0.3-0.1c-0.4-0.1-0.9,0-1.1,0.4c-0.2,0.3-0.7,1-0.4,1.7
                c0.2,0.3,0.6,0.6,1,0.6c0.2,0,0.5,0,1-0.3c0.5,0.3,1.1,0.6,1.6,1c0.5,0.3,1,0.6,1.4,0.9l1.4,1.4c0.2,0.2,0.4,0.3,0.7,0.3
                c0.2,0,0.3,0,0.5-0.1c0.6-0.3,1.1-0.7,1.5-1.1c1-0.5,1.9-1.6,2.8-3.3C49.5,100.5,49.5,100.2,49.4,100z M141.4,44.5
                c0.2,0.2,0.4,0.3,0.6,0.3v-2c-0.2,0.1-0.3,0.2-0.5,0.4C141.1,43.5,141.1,44.1,141.4,44.5z M122.3,27.5L122.3,27.5
                c0.4-0.3,0.5-0.7,0.4-1.1c0.3-1.5-0.4-3-2.3-4.5c-0.4-0.3-0.9-0.3-1.2,0c-0.4,0.3-0.5,0.8-0.3,1.2l1.6,3.3c-0.5,0.4-0.9,0.9-1.3,1.4
                c-1,1.2-1.9,2.2-3.1,1.9c-0.3-0.1-0.6,0-0.9,0.2c-0.2,0.2-0.4,0.5-0.4,0.8l0,0.8c0,2-0.1,4.7,2.5,6c0.1,0.1,0.3,0.1,0.4,0.1
                c0.3,0,0.5-0.1,0.7-0.3c0.3-0.3,0.3-0.8,0.1-1.2c-1.7-2.5-0.5-3.9,1.6-6.1C121.1,29.1,121.8,28.4,122.3,27.5z M140.7,39.8
                c-0.1-0.1-0.2-0.2-0.4-0.3c-0.1-0.5,0.3-1.7,0.5-2.5c0.2-0.5,0.3-1,0.4-1.5c0.1-0.2,0.1-0.4,0.1-0.5c0.6-3-1-4-2.5-4.3
                c-0.3-0.1-0.5,0-0.7,0.1l-2.6,1.6c-0.4,0.3-0.6,0.8-0.4,1.3c0.2,0.5,0.7,0.7,1.2,0.5c0.7-0.2,1.2-0.4,1.7-0.4c0.6,0,0.8,0.2,1.2,1.1
                l-1,1.3c-0.5-0.2-1.2,0.1-1.4,0.6c-0.4,1,0.8,3,1.7,3.9c0.3,0.4,0.6,0.7,1.1,0.9c0.6,0.4,1.3,0.6,2,0.6c0.1,0,0.2,0,0.3,0v-2.3
                C141.4,39.9,140.9,39.8,140.7,39.8z M67.5,68.1c-0.6,0.1-1.3,0.3-1.9,0.6l-0.7-0.7c-0.3-0.3-0.7-0.4-1.1-0.2
                c-0.4,0.2-0.6,0.5-0.6,0.9v2c0,0.4,0.2,0.7,0.5,0.9c0.3,0.2,0.7,0.1,1-0.1c0.1-0.1,0.3-0.2,0.4-0.3l0.2,0.2c0.2,0.2,0.5,0.3,0.8,0.3
                c0.3,0,0.6-0.2,0.7-0.4c0.3-0.5,0.7-0.9,1.1-1.1c2-0.2,3.9,0.9,5.1,3.1c0.2,0.3,0.4,0.4,0.7,0.5c0,0,0.1,0,0.1,0
                c0.3,0,0.5-0.1,0.7-0.3l2-2c0.2-0.2,0.3-0.6,0.3-0.9c-0.1-0.3-0.3-0.6-0.6-0.7c-0.5-0.2-1.1-0.4-1.7-0.7c-1.5-0.6-3.3-1.4-5-1.4
                C68.9,67.6,68.1,67.8,67.5,68.1z M133.8,78.6c-0.4,0-0.8,0.3-0.9,0.8c-0.1,0.4,0.1,0.8,0.4,1.1l1,0.6c0.2,0.1,0.3,0.1,0.5,0.1
                c0.1,0,0.2,0,0.2-0.1c0.1,0,0.2,0.1,0.3,0.1c0.1,0,0.3,0,0.4-0.1l1.9-0.8l4.4-0.4v-3.9l-5.4,2.4L133.8,78.6z M103.1,46.8
                c0.1,0,0.2,0,0.2-0.1l4-2.9c0.2-0.1,0.2-0.3,0.1-0.5c-0.1-0.2-0.3-0.3-0.5-0.2l-6,1.8c-0.1,0-0.3,0.2-0.3,0.3c0,0.2,0.1,0.3,0.2,0.4
                l2,1.2C102.9,46.8,103,46.8,103.1,46.8z M124.8,35.9c1.3,0.7,1.7,1.7,2.1,2.9c0.1,0.4,0.3,0.7,0.4,1c0.2,0.4,0.5,0.6,0.9,0.6
                c0,0,0,0,0,0l7-0.2c0.5,0,0.9-0.4,0.9-0.9c0.1-0.5-0.2-0.9-0.7-1.1c-1-0.3-1.9-0.4-2.9-0.5c-1.7-0.2-3.2-0.3-4.5-1.7
                c-0.1-0.3-0.2-0.5-0.3-0.8c0-0.1,0-0.1-0.1-0.2c0.6-0.3,1-0.6,1.4-1c0.9,0.2,1.6,0.6,2.2,1.3c0.3,0.3,0.7,0.4,1.1,0.3
                c0.4-0.2,0.6-0.6,0.6-1c-0.1-1.4-0.8-2.9-1.5-4.5c-0.6-1.2-1.2-2.5-1.3-3.5l0-0.4c0-0.4,0.1-0.9,1.1-1.1c0.3-0.1,0.5-0.2,0.6-0.5
                c0.1-0.2,0.2-0.5,0.1-0.8l-1-2.8c-0.1-0.4-0.4-0.6-0.8-0.6c-0.4,0-0.7,0.1-0.9,0.5c-1.1,1.9-1.2,3.9-1.1,5.4c0,0.2,0,0.4,0,0.6
                l0.1,1c0.2,1.5,0.3,2.9-0.1,3.9c-0.3-0.1-0.6-0.1-0.9-0.2c-0.2,0-0.4,0-0.6,0c-0.6,0.2-1.4,0.7-1.4,2.1c-0.2,0-0.3,0.1-0.5,0.1
                c-0.4,0.1-0.7,0.4-0.8,0.8C124.2,35.3,124.4,35.7,124.8,35.9z M115,22.1c-0.5,2-0.2,3.5,0.9,4.8c0.2,0.2,0.5,0.3,0.7,0.3
                c0.2,0,0.4-0.1,0.6-0.2c0.4-0.3,0.5-0.9,0.2-1.3c-0.6-0.9-0.7-1.9-0.5-3.2c0.2-0.8,0.5-1.6,0.9-2.3c0.8-1.9,1.6-3.8,0.8-5.5
                c-0.5-1.1-1.6-1.9-3.3-2.5c-0.5-0.1-0.9,0-1.2,0.5c-0.2,0.4-0.1,0.9,0.2,1.2c2.3,1.9,1.8,3.8,1.1,6.2
                C115.3,20.7,115.1,21.4,115,22.1z M122.2,4.8l-6.3,3.7c-0.2-0.3-0.3-0.7-0.5-1.2c-0.1-0.4-0.3-0.8-0.4-1.2c0,0,0,0,0-0.1
                c0-0.1-0.1-0.2-0.2-0.2c0,0,0,0,0,0s0,0,0,0c-0.1-0.1-0.3-0.2-0.4-0.3c-0.1,0-0.2-0.1-0.4,0c-0.1,0-0.2,0-0.4,0.1c0,0-0.1,0-0.1,0
                l-1.3,0.8l0.7-1.8c0.7-2.9-1.7-1.1-1.7-1.1c-0.9,0.9-2.2,1.8-4,2.7c-0.5,0.2-0.7,0.8-0.5,1.3c0.2,0.5,0.7,0.7,1.2,0.6
                c0.4-0.1,0.7-0.2,0.9-0.2c0.2,0,0.2,0,0.4,0.5c0.1,0.3,0.2,0.5,0.3,0.7c0,0,0,0.1,0.1,0.1v0c0,0,0,0,0,0c0.1,0.1,0.3,0.3,0.4,0.3
                c0.1,0,0.1,0,0.2,0.1c0.2,0,0.5,0,0.7-0.1c0,0,0,0,0,0l2.7-1.6l0.8,2.4c0.1,0.3,0.3,0.5,0.6,0.6c0.3,0.1,0.6,0.1,0.8-0.1l0,0
                c0.4,0.1,0.8,0.2,1.3,0.2c0.8,0,1.7-0.2,2.8-0.5c0.2-0.1,0.4-0.2,0.5-0.3l3.1-3.9c0.3-0.4,0.3-0.9,0-1.3
                C123.1,4.7,122.6,4.6,122.2,4.8z M121.7,33.6c0.2,0,0.4-0.1,0.6-0.2l1.5-0.6c0.1-0.1,0.2-0.3,0.3-0.4l3.7-6.1c0.2-0.5-0.1-1-0.5-1.2
                c-0.5-0.2-1,0-1.3,0.4l-5.2,6.7c-0.2,0.4-0.1,0.9,0.3,1.2C121.3,33.6,121.5,33.6,121.7,33.6z M141.5,46.4c-0.4-0.1-0.8,0-1.1,0.4
                l-1.4,1.9c-0.2,0.3-0.2,0.7-0.1,1.1c0.2,0.3,0.6,0.5,0.9,0.5c0.2,0,0.4,0,0.5-0.1l0.2,2.2l-1.4,2c-0.1,0.1-0.3,0.1-0.4,0.2l-2.4,0.4
                c-0.3,0-0.5,0.2-0.6,0.4l-2,2.8c-0.3,0.4-0.2,1,0.2,1.3c0.2,0.2,0.4,0.2,0.6,0.2c0.3,0,0.5-0.1,0.7-0.3c1.2-1.2,2.5-2.2,4.1-2.9
                l0.5-0.1c0.3,0,0.5-0.2,0.6-0.4c0.5-0.2,1.1-0.4,1.6-0.6v-8.7C141.9,46.7,141.7,46.5,141.5,46.4z M132.2,19c0,0.1,0.1,0.1,0.1,0.2
                c-0.1,0.6,0,1.5,0.1,2.8c0,0.4,0.3,0.8,0.8,0.9l1.9,0.5c0.1,0,0.1,0,0.2,0c0.2,0,0.5-0.1,0.6-0.2c0.2-0.2,0.4-0.5,0.3-0.8L136,19
                c0-0.1,0-0.2-0.1-0.4c0.2-0.1,0.3-0.2,0.5-0.3c0.2-0.2,0.4-0.4,0.4-0.7c0-0.3,0-0.5-0.2-0.8c-0.1-0.2,0.1-1.2,0.2-1.6
                c0.2-0.7,0.4-1.5,0.2-2.1l0.7-1.3c0.2-0.4,0.1-1-0.3-1.3c-0.4-0.3-1-0.2-1.3,0.2l-1.5,1.7c-0.3,0.3-0.3,0.7-0.1,1.1
                c0,0,0,0.1,0.1,0.1l-2.3,4.6C132.1,18.4,132.1,18.8,132.2,19z M113.8,19.6c0.3-0.1,0.5-0.4,0.5-0.7c0.1-0.3,0-0.6-0.3-0.9l-1.4-1.4
                c-0.2-0.2-0.4-0.3-0.7-0.3s-0.5,0.1-0.7,0.3l-0.9,0.9l-0.2-0.8c0.1-0.7,0.5-1.3,1-2c0.7-1.1,1.5-2.4,1.3-4.1c-0.1-0.5-0.5-0.9-1-0.9
                h-3.9c-0.3,0-0.6,0.1-0.8,0.4c-0.2,0.2-0.2,0.6-0.2,0.9l1.6,5.8c-0.1,0.7,0,1.5,0.4,2.2c0,0.1,0.1,0.2,0.2,0.3l0.2,0.2l1.5,5.3
                c0.1,0.4,0.5,0.7,0.9,0.7c0,0,0.1,0,0.1,0c0.5-0.1,0.8-0.5,0.8-1l0-0.8C112.4,21.7,112.4,20.3,113.8,19.6z M126.9,9.5
                c0.4-0.4,0.4-1,0-1.4c-0.4-0.4-1-0.4-1.4-0.1c-0.2,0.2-0.4,0.4-0.6,0.6l-1.4,1.4c-0.2,0.2-0.3,0.5-0.3,0.8c-0.7,1.1-1.4,2.3-2.1,3.6
                c-0.5,0.6-0.9,1.1-1.4,1.4c-0.2,0.2-0.4,0.4-0.4,0.7c0,0.3,0.1,0.6,0.3,0.8l0.1,0.1c-0.1,0.3-0.2,0.5-0.3,0.8
                c-0.1,0.3-0.1,0.7,0.1,0.9c1.2,1.7,2.7,2.4,4.2,2.2c0.2,0.1,0.3,0.2,0.5,0.2c0.2,0,0.4-0.1,0.6-0.2c0.3-0.2,0.5-0.4,0.8-0.7
                c1.1-0.7,2.2-1.8,3.1-2.8c0.9-0.9,1.8-1.9,2.5-2.2c0.2,0,0.4,0,0.7,0c0.5,0,0.9-0.3,1-0.8c0.1-0.5-0.2-1-0.7-1.1
                c-0.5-0.2-1.1-0.1-1.7,0.1c-2.1,0.5-3.5,2.1-4.9,3.8c-0.5,0.5-0.9,1.1-1.4,1.6c-0.1,0-0.1,0.1-0.2,0.1l-2.2-2.2
                c0.2-0.5,0.5-1,0.7-1.5c0,0,0,0,0,0c1-1.2,1.9-2.2,3.1-1.9c0.4,0.1,0.9-0.1,1.1-0.4c0.2-0.4,0.2-0.9-0.2-1.2l-1.2-1.2
                c0.2-0.3,0.5-0.6,0.7-0.8L126.9,9.5z M112.9,49.5l-0.7-2.1c-0.1-0.3-0.4-0.6-0.8-0.6l-2.1-0.3c-0.3-0.1-0.7,0.1-0.9,0.3
                c-0.2,0.3-0.3,0.6-0.2,1l1,2.8c0.1,0.3,0.4,0.6,0.8,0.6l2,0.3c1,0.3,1.9,0.5,2.5,0.5c0.9,0,1.6-0.3,2-0.9c0.8-1.1,0.4-2.7,0-4.4
                c0-0.4,0-0.9,0-1.4c0-1.7,0-3.5,0.9-4.6l1.4-0.8c0,0.1,0.1,0.1,0.1,0.2c0.1,0.1,0.2,0.2,0.2,0.2c-0.1,0.1-0.2,0.3-0.3,0.4
                c-0.2,0.2-0.3,0.5-0.2,0.8c0,0.3,0.2,0.5,0.5,0.7c1.6,1,2.7,1.9,3.3,2.6c0.2,1.2-0.5,2.2-1.7,3.8c-0.8,1-1.7,2.2-2.4,3.7
                c0,0,0,0.1-0.1,0.1c0,0.1-0.1,0.2,0,0.3c0,0.1,0,0.3,0.1,0.4c0,0,0,0.1,0.1,0.1c0.4,0.6,0.8,1.1,1.3,1.4l-1.2,1.3
                c-0.4,0.4-0.4,1,0,1.4c0.2,0.2,0.4,0.3,0.7,0.3c0.3,0,0.5-0.1,0.7-0.3l1.9-1.9c2.2-0.2,3.9-2.9,5.7-5.8c0.3-0.5,0.6-1,0.9-1.5l3-3.2
                c0,0,0.1,0,0.1,0c0,0,0,0,0,0c1.2,1.3,3.3,2.6,4,2.6c0.5,0,0.9-0.3,1-0.8c0.2-0.9-0.4-1.2-2.3-2.2c-0.5-0.6-1-1.1-1.5-1.3
                c-0.1-0.1-0.2-0.2-0.2-0.4c-0.1-0.3-0.4-0.5-0.7-0.5c-0.3,0-0.6,0.1-0.8,0.3l-0.6,0.6c-1.3,0.6-2.4,2.1-3.4,3.6l-5.8,6.2l-0.5-0.5
                l3.2-3.3c0.2-0.2,0.3-0.4,0.3-0.7c0-0.3,0.1-0.6,0.3-1c0.4-0.9,0.9-2.2-0.1-3.8c-0.3-1.2-1.1-2.4-2.3-3.7c0.5-0.7,1.1-1.8,0.6-3.2
                c-0.1-0.3-0.4-0.6-0.7-0.7c-0.3-0.1-0.7,0-0.9,0.3l-1.1,1.1c-0.2-0.2-0.5-0.3-0.8-0.2c-1.2,0.3-2.1,0.8-2.8,1.6l-4.4,2.6
                c-0.4,0.2-0.6,0.6-0.5,1c0.1,0.4,0.4,0.7,0.8,0.8l2,0.3c0,0.9,0.2,1.9,0.5,2.9C114.5,48.6,114.1,49.3,112.9,49.5z M134.8,67.4
                c0.6,0.7,1.4,1.1,2.4,1.4c0.4,0,0.8,0,1.1-0.1c1,0.2,2,0.5,2.7,1l1,0.6v-5l-0.5-0.9c-0.2-0.3-0.5-0.5-0.8-0.5
                c-0.3,0-0.6,0.1-0.8,0.4c-0.2,0.3-0.4,0.6-0.6,0.9c-0.4,0.6-0.7,1.1-1.1,1.4c-0.8-0.2-1.5-0.4-2.1-0.7c-0.5-0.7-0.7-1.8-1-2.8
                l-0.2-0.8c-0.1-0.5-0.5-0.7-1-0.8c-0.5,0-0.9,0.3-0.9,0.8C132.6,64.6,133.2,66.3,134.8,67.4z M135.3,24.4c-0.3-0.1-0.7,0.1-0.9,0.4
                c-0.2,0.3-0.3,0.7-0.1,1c0.6,1.6,1.7,1.8,2.3,1.8c0.2,0,0.4,0,0.6-0.1c-0.2,0.5-0.6,1-1.1,1.5c-0.3,0.3-0.4,0.7-0.2,1.1
                c0.2,0.4,0.5,0.6,0.9,0.6c0,0,0,0,0,0c0.2,0,0.5-0.1,0.7-0.3c0.1-0.1,0.5-0.4,1-0.9c1.2-0.7,1.6-2,1.9-3.2c0.4-1.5,0.7-1.9,1.2-1.9
                c0.1,0,0.3,0,0.5,0.1v-6.7l-0.1-0.3c-0.2-1.7-0.7-3.3-1.8-4.5c-0.3-0.4-0.8-0.5-1.3-0.2c-0.4,0.2-0.6,0.8-0.4,1.2L140,18
                c0.1,2.6-1,5.4-2.3,6.8L135.3,24.4z M132.6,56.2c0.7-0.5,1.4-1.2,1.9-1.9c1-1.2,1.9-2.2,3.1-1.9c0.4,0.1,0.9-0.1,1.1-0.4
                c0.2-0.4,0.2-0.9-0.2-1.2l-2-2c-0.2-0.2-0.5-0.3-0.8-0.3c-0.3,0-0.6,0.2-0.7,0.4l-3.9,5.9c-0.3,0.4-0.2,0.9,0.1,1.3
                c0.2,0.2,0.4,0.3,0.7,0.3C132.3,56.4,132.5,56.3,132.6,56.2z M127.5,62.1c-2.1,1.4-3.7,1.4-5.6,1.5c-1,0-2,0-3,0.2
                c-0.5,0.1-0.8,0.5-0.8,1c0,0.5,0.4,0.9,0.9,0.9l6.9,0.7c0,0,0.1,0,0.1,0c0.3,0,0.5-0.1,0.7-0.3c0.3-0.3,0.6-0.6,0.9-1
                c1-1.1,1.8-2.2,3.6-2.8c0.4-0.1,0.7-0.5,0.6-1s-0.3-0.8-0.7-0.9c0,0,0,0-0.1,0c0.1-0.4,0.2-0.8,0.1-1.2c-0.1-0.3-0.3-0.8-0.9-1.1
                c-0.2-0.1-0.4-0.1-0.6-0.1c-0.2,0-0.5,0.1-0.7,0.1c0.2-1,0.9-2.2,1.5-3.4l0.5-1c0.1-0.2,0.2-0.4,0.3-0.6c0.8-1.6,1.6-3.5,1.3-5.4
                c-0.1-0.4-0.3-0.7-0.7-0.8c-0.4-0.1-0.8,0-1,0.3l-2.2,2.6c-0.2,0.3-0.3,0.6-0.2,0.9c0.1,0.3,0.3,0.6,0.6,0.7
                c0.4,0.1,0.5,0.3,0.5,0.3c0,0,0,0.2-0.1,0.5l-0.2,0.4c-0.6,1-1.8,2.2-2.9,3.4c-1.3,1.4-2.7,2.9-3.4,4.1c-0.2,0.4-0.1,0.9,0.2,1.2
                c0.3,0.3,0.8,0.3,1.2,0.1c1.1-0.8,2.1-1.1,3-1.2c0.2,0.3,0.4,0.6,0.7,0.8c0,0-0.1,0.1-0.1,0.1C127.9,61.5,127.7,61.8,127.5,62.1z
                 M135.4,90.9l-1.6,6.2c-0.1,0.4,0,0.8,0.3,1c0.2,0.2,0.4,0.2,0.6,0.2c0.1,0,0.3,0,0.4-0.1c1.9-0.9,2-3.2,2.1-5.1
                c0-0.7,0-1.3,0.1-1.8l0.1-0.5c0-0.1,0.1-0.2,0.1-0.2c0.7,0.3,1.3,0.4,1.9,0.3c0.3,1,1.2,1.8,2.6,2.5v-6c0,0-0.1,0.1-0.1,0.1
                c-0.7,0.6-1.3,1.1-2,1.3c-0.4-0.2-0.9-0.3-1.2-0.3c0.2-0.7,0.4-1.4,0.7-2.1c0.5-0.6,0.9-1.4,1.2-2.1l0.1-0.3
                c0.4-0.5,0.9-0.9,1.3-1.1v-2.6c-1.8,0.2-2.6,1.7-3,2.6c-0.5,0.7-0.9,1.4-1.3,2.4c-0.6,0.5-1.4,0.5-2.7,0c-0.3-0.1-0.6-0.1-0.9,0.1
                c-0.3,0.2-0.4,0.5-0.4,0.8v1.9c0,0.5,0.3,0.9,0.8,1l1.3,0.2l-0.2,0.8C135.5,90.4,135.4,90.7,135.4,90.9z"/>
        </pattern>

        <!-- <mask id="noise-mask">
            <rect height="100%" width="100%" fill="url(#noise-pattern)" />
        </mask> -->
    </defs>
</svg>
