<svg version="1.1" id="Layer_1" xmlns="http://www.w3.org/2000/svg" xmlns:xlink="http://www.w3.org/1999/xlink" x="0px" y="0px"
	 viewBox="0 0 550 550" style="enable-background:new 0 0 550 550;" xml:space="preserve">
	<path fill="#FBFCFC" d="M276.1,25l-86.3,485.1c26.6,9.6,55.3,14.9,85.2,14.9c138.1,0,250-111.9,250-250C525,137.3,413.7,25.6,276.1,25
		z"/>
	<g fill="#3d3547">
		<path d="M73.3,273.5c0,81.3,50.1,155.1,125.4,186.1l0.7-4C126,424.9,77.3,352.9,77.3,273.5
			c0-106.2,84.4-193.1,189.7-197.2l0.7-4C159.9,76,73.3,164.8,73.3,273.5z"/>
		<path d="M101.6,272.7c0-91.4,71.2-166.5,161.1-172.6l0.7-4C171,101.9,97.7,178.9,97.7,272.7
			c0,69.5,41.9,132.8,105.6,161.4l0.7-4C142.2,402,101.6,340.4,101.6,272.7z"/>
		<path d="M249.6,173.6l0.8-4.3c-45.6,11.1-79.7,52.3-79.7,101.3c0,21.6,7.2,42.5,20.7,60.5
			c7.2,9.5,15.9,17.8,25.8,24.6l0.8-4.3c-8.9-6.3-16.8-14-23.4-22.7c-13-17.3-19.9-37.4-19.9-58.1
			C174.7,224,206.6,184.8,249.6,173.6z"/>
		<path d="M126,272c0-76.5,58.1-139.7,132.4-147.9l0.7-4.1c-76.9,7.8-137.1,73-137.1,152c0,57.7,33.8,110.5,85.8,136.5
			l0.7-4.1C158.5,378.9,126,327.8,126,272z"/>
		<path d="M190.5,506.1c-47-17.1-87.2-47.7-116.3-88.5c-29.8-41.8-45.6-91.1-45.6-142.7c0-65.7,25.6-127.4,72-173.9
			C147,54.6,208.8,29,274.5,29l0.9,0l0.2-1l0-3l-0.5,0c-0.2,0-0.4,0-0.6,0C207.7,25,145,51,97.8,98.2S24.6,208.2,24.6,274.9
			c0,52.4,16,102.5,46.3,145c29.7,41.6,70.6,72.7,118.4,90l1-2.8L190.5,506.1z"/>
		<path d="M244.9,200.1l0.8-4.6c-29.6,11.7-50.6,40.6-50.6,74.3c0,21.7,10.4,42.7,27.1,57.8l0.8-4.6
			c-14.9-14.2-24-33.4-24-53.2C199.1,238.7,218,211.8,244.9,200.1z"/>
		<path d="M48.9,274.2c0,47.2,14.5,92.5,42.1,130.9c26.1,36.4,61.7,63.9,103.2,79.8l0.7-4
			c-40.5-15.7-75.3-42.6-100.7-78.2c-27-37.7-41.3-82.2-41.3-128.6c0-59.2,23.1-114.9,64.9-156.7c41.1-41.1,95.4-64,153.3-64.9
			l0.7-4c-59.3,0.7-114.9,24.1-156.9,66C72.4,157.3,48.9,213.9,48.9,274.2z"/>
		<path d="M174.6,343.5c-15.8-21.4-24.2-46.3-24.2-72.2c0-61.6,44.9-112.8,103.7-122.8l0.7-4.1
			c-61.4,9.6-108.4,62.9-108.4,126.9c0,26.7,8.6,52.5,25,74.6c11,14.8,25.1,27.3,41.1,36.5l0.7-4.1
			C198.2,369.3,184.9,357.5,174.6,343.5z"/>
	</g>
</svg>
